<?xml version="1.0" encoding="utf-8"?>
<!-- Generator: Adobe Illustrator 17.0.0, SVG Export Plug-In . SVG Version: 6.00 Build 0)  -->
<!DOCTYPE svg PUBLIC "-//W3C//DTD SVG 1.1//EN" "http://www.w3.org/Graphics/SVG/1.1/DTD/svg11.dtd">
<svg version="1.1" id="Layer_1" xmlns="http://www.w3.org/2000/svg" xmlns:xlink="http://www.w3.org/1999/xlink" x="0px" y="0px"
	 width="999px" height="999px" viewBox="0 0 999 999" enable-background="new 0 0 999 999" xml:space="preserve">
<g>
	<path d="M62.564,190.256c3.315-2.925,8.011-3.535,12.249-2.933c9.545,1.204,19.183,1.178,28.779,0.788
		c9.342-0.059,18.7,0.23,28.041,0.008c7.062-0.551,14.123,0.602,21.192,0.111c7.611-0.509,15.224,0.364,22.845,0.237
		c21.785-0.008,43.579,0.407,65.364,0.203c21.743-0.296,43.494,0.34,65.237,0.06c21.167-0.17,42.342,0.169,63.517,0.169
		c10.766,0.729,21.54-0.313,32.305,0.289c24.549,0.805,49.132-0.382,73.672,0.517c15.631-0.517,31.279,0.093,46.919-0.11
		c7.417,0.135,14.843,0.483,22.268,0.11c17.335-0.407,34.687,0.813,52.03,0.076c36.731,0.704,73.485,0.551,110.232,0.839
		c8.459-0.297,16.937-0.365,25.388,0.076c12.716-0.441,25.439,0.068,38.154-0.076c13.851-0.662,27.702,0.356,41.562,0.254
		c16.962,0.009,33.932-0.39,50.887-0.11c8.477-0.61,16.944,0.551,25.43,0.119c13.528-0.62,27.074-0.043,40.611-0.56
		c5.739,0.025,11.418,2.051,16.106,5.332c9.003,6.552,13.555,18.047,13.037,28.982c-0.297,22.853-0.093,45.706,0.111,68.543
		c0.033,17.843-0.136,35.704-0.153,53.556c0.5,5.629-0.212,11.249-0.136,16.877c0.076,19.785,1.034,39.579,0.279,59.346
		c0.322,24.023-0.042,48.055-0.068,72.079c0.738,21.184,0.128,42.366,0.222,63.559c-0.119,25.981-0.483,51.979,0.11,77.961
		c0.093,24.854-0.585,49.716,0.152,74.57c0.712,13.579,0.094,27.168,0.151,40.764c7.47,0.984,15.463-1.364,22.565,1.84
		c4.129,2.425,8.443,5.96,9.58,10.825c-0.153,6.519-0.899,13.046-0.594,19.581c0.372,5.629-0.009,11.274,0.433,16.911
		c0.686,5.544-4.858,10.028-10.028,10.224c-18.929,1.254-37.866-0.958-56.803-0.729c-7.639-0.313-15.275,0.576-22.904-0.017
		c-18.649-0.704-37.315-0.543-55.964-0.636c-6.501,0.576-12.995-0.263-19.496-0.136c-8.206-0.018-16.42-0.102-24.625-0.06
		c-15.514,0.576-31.018-0.364-46.521-0.305c-11.902-0.035-23.813-0.213-35.705-0.119c-5.357,0.492-10.697-0.245-16.047-0.152
		c-13.096-0.042-26.192-0.178-39.289-0.143c-6.266-0.298-12.537-0.441-18.802-0.136c-14.546-0.11-29.092-0.162-43.63-0.229
		c-11.044,0.075-22.065-0.627-33.11-0.467c-8.469,0.17-16.928-0.466-25.396-0.397c-14.411,0.017-28.805-0.67-43.224-0.51
		c-14.419,0.154-28.821-0.516-43.24-0.508c-24.303-0.745-48.631-0.178-72.934-0.89c-32.475-0.254-64.941-0.364-97.415-0.543
		c-20.073-0.881-40.172,0.076-60.262-0.297c-16.911-0.602-33.848-0.398-50.776-0.56c-10.164,0.136-20.319-0.813-30.491-0.212
		c-9.062-0.525-18.131,0.195-27.21-0.085c-8.749,0.153-17.488-0.356-26.236-0.423c-18.937,0.483-37.891,0.093-56.828-0.128
		c-3.348,0.034-7.121,1.051-10.138-0.881c-3.12-2.79-6.112-5.807-8.434-9.3c-1.39-2.009-1.009-4.56-0.822-6.831
		c1.042-8.155-0.043-16.37,0.297-24.541c0.381-3.544,1.187-7.518,4.094-9.884c5.408-4.798,12.842-8.036,20.166-6.884
		c3.756,0.425,7.536,0.314,11.317,0.314c0.347-34.052,0.373-68.12,0.602-102.179c-0.415-23.464,0.051-46.945,0.076-70.418
		c0.339-12.427-0.627-24.854,0.119-37.272c-0.449-12.987,0.22-25.99-0.279-38.976c-0.026-16.979,0.415-33.958-0.017-50.929
		c0.136-9.867-0.204-19.742,0.398-29.601c-0.279-16.123-0.136-32.263-0.458-48.394c-0.5-6.748,0.644-13.487,0.034-20.226
		c-0.051-24.879,0.28-49.758,0.314-74.638c-0.492-10.35-0.068-20.717-0.102-31.076c-0.331-6.866-0.627-13.732-0.771-20.607
		c0.187-5.79,0.034-11.936,2.958-17.157C56.054,199.25,58.513,194.105,62.564,190.256 M64.717,193.138
		c1.136,4.993,4.561,8.883,7.621,12.808c5.357,7.087,10.707,14.19,16.402,21.022c5.79,0.339,11.588,0.254,17.386,0.314
		c19.496,0.085,38.993,0.61,58.49,0.127c28.821-0.856,57.659,0.322,86.48-0.398c15.826,0.254,31.643-0.39,47.462-0.102
		c27.405,0.153,54.819,0.754,82.225,0.187c5.959,0.068,11.926,0.195,17.894-0.008c24.566-0.356,49.148,0.271,73.714-0.128
		c13.274-0.034,26.54-0.204,39.815-0.254c29.957,0.382,59.906,0.382,89.862,0.008c31.355-0.322,62.721,0.593,94.076-0.22
		c18.928-0.432,37.865-0.144,56.803-0.067c30.236-0.916,60.473-0.212,90.71-0.551c25.489-1.06,51.013,0.221,76.486-1.085
		c3.313,0.313,5.086-2.814,6.705-5.146c4.771-7.298,10.477-13.987,14.597-21.701c-3.053-1.305-6.188-2.662-9.545-2.831
		c-10.478-0.254-20.989-1.195-31.423,0.229c-29.11-0.238-58.236,0.364-87.337-0.424c-22.031,0.11-44.071-0.491-66.102,0.009
		c-21.488-0.06-42.977-0.391-64.466-0.568c-9.307-0.178-18.607,0.331-27.913-0.077c-11.309-0.491-22.625-0.161-33.941-0.229
		c-14.978,0.407-29.957-0.237-44.936-0.093c-14.131,0.568-28.27-0.322-42.409-0.051c-11.019-0.11-22.022-0.687-33.034-0.704
		c-14.123,0.297-28.253-0.034-42.376-0.093c-22.879-0.314-45.757-0.085-68.645-0.458c-15.835-0.297-31.678-0.094-47.512-0.077
		c-37.561,0.432-75.138,0.119-112.708-0.271c-22.319,0.424-44.647-0.754-66.966-0.017c-25.439,0.568-50.877-0.059-76.316-0.322
		C78.763,192.027,71.736,192.553,64.717,193.138 M57.436,204.667c-2.517,5.112-2.263,10.977-2.754,16.504
		c-0.441,4.857,0.627,9.629,0.923,14.444c-0.347,19.217-0.458,38.443-0.347,57.66c0.034,12.156-0.483,24.311,0.009,36.467
		c0.398,8.749-0.221,17.505,0.186,26.262c0.059,14.986-0.441,29.974-0.119,44.961c-0.11,11.02-0.246,22.039,0,33.051
		c-0.271,16.394-0.119,32.788-0.204,49.191c-0.306,25.413-0.06,50.835-0.432,76.248c0.109,24.855-0.381,49.708-0.188,74.563
		c-0.288,16.097-0.034,32.203-0.652,48.301c0.042,20.894-0.127,41.808,0.432,62.693c10.028,1.213,20.141,1.01,30.219,0.713
		c-0.194-4.689-0.746-9.418,0.034-14.081c1.5-9.866,0.627-19.844,0.5-29.762c0.153-31.652,0.738-63.305,0.611-94.948
		c0.119-18.92,0.687-37.849,0.008-56.768c-0.907-34.772,0.679-69.552,0.06-104.324c-0.399-14.97-0.077-29.948-0.339-44.919
		c0.126-25.719,0.788-51.437,0.466-77.156c-0.289-24.582-0.136-49.165-0.28-73.756c-0.432-6.756,0.56-13.648-0.577-20.319
		c-6.934-10.91-15.834-20.42-22.989-31.177C60.258,200.386,58.521,202.327,57.436,204.667 M928.153,224.307
		c-1.339,1.831-2.441,3.925-2.458,6.239c-0.264,5.942-0.118,11.884,0.034,17.818c-0.009,13.834-0.399,27.677-0.102,41.502
		c-0.263,12.724,0.45,25.438,0.186,38.154c-0.212,35.306-0.169,70.612,0.128,105.917c-0.314,23.76-0.467,47.529-0.128,71.298
		c0.382,23.727,0.11,47.452,0.246,71.179c0.118,12.419,0.67,24.847,0.406,37.274c-0.745,45.935,0.264,91.862,0.636,137.798
		c9.748,0.245,19.506-0.288,29.245,0.33c0.034-6.195-1.813-12.316-1.034-18.521c0.391-3.332,0.501-6.706-0.008-10.021
		c-0.907-5.416,0.44-10.85,0.221-16.292c-0.306-10.469,0.143-20.946-0.204-31.414c0.5-44.927-0.661-89.855,0.093-134.781
		c0.364-49.725-0.348-99.45,0.085-149.175c-0.161-22.319-0.398-44.647-0.474-66.975c0.397-21.48,0.102-42.952-0.094-64.432
		c-0.492-13.292,0.933-26.659-0.542-39.917c-1.713-7.12-3.104-15.623-9.911-19.768C938.978,208.413,933.706,216.458,928.153,224.307
		 M902.943,230.139c-18.046-1.577-36.171-0.398-54.242-0.373c-10.732,0.357-21.446-0.661-32.17-0.449
		c-12.182-0.322-24.345,0.407-36.518,0.051c-15.513,0.331-31.024,0.865-46.547,0.593c-5.934-0.593-11.875,0.204-17.81-0.144
		c-13.851-0.093-27.685,0.712-41.527,0.458c-6.866-0.195-13.724,0.627-20.572,0.008c-11.199-0.314-22.414-0.152-33.611-0.28
		c-10.494-0.169-20.981,0.755-31.466,0.475c-10.436,0.322-20.87,0.05-31.297,0.068c-9.332-0.111-18.665,0.101-27.973-0.407
		c-10.748,0.339-21.497,0.11-32.237,0.093c-27.964,0.941-55.964-0.119-83.929,0.382c-22.591-0.45-45.181,0.915-67.771,0.076
		c-22.031-0.195-44.062,0.822-66.085,0.602c-9.351,0.22-18.7-0.678-28.042-0.145c-20.632,0.135-41.256,0.246-61.88,0.373
		c-14.419,0.577-28.855-0.331-43.274,0.127c-18.514,0.45-37.035,0.67-55.557,0.492c-2.357,10.358-0.958,21.022-1.153,31.534
		c-0.195,20.878-0.44,41.748,0.238,62.626c0.034,19.217-0.941,38.434-0.297,57.659c0.085,18.37-0.466,36.747,0.042,55.116
		c0.627,17.233-0.407,34.466-0.28,51.708c-0.22,18.657-0.017,37.322-0.517,55.972c0.416,11.58,0.212,23.159,0.619,34.738
		c-0.263,44.927-0.474,89.846-0.72,134.772c-0.704,10.037,0.178,20.141-0.992,30.15c14.75-0.813,29.524,0.171,44.283,0.171
		c8.197-0.11,16.403,0.509,24.6-0.024c13.258-0.441,26.516,0.432,39.773,0.338c10.18,0.195,20.353-0.357,30.533-0.119
		c12.969,0.603,25.964,0.331,38.951,0.5c17.53-0.117,35.043,0.603,52.573,0.534c12.995,0.187,26.015-0.109,39.001,0.45
		c18.072,0.364,36.136-0.052,54.21,0.042c12.308,0.406,24.633,0.517,36.95,0.322c-2.967-2.891-7.393-4.621-8.867-8.766
		c-0.712-1.771,1.297-3.128,2.365-4.255c6.959-5.553,15.707-8.977,24.701-8.494c31.093,0.094,62.16,1.449,93.252,1.577
		c4.705-0.203,8.816,3.204,10.689,7.307c1.052,4.552-1.17,8.935-2.356,13.232c4.256,0.593,8.554,0.518,12.843,0.525
		c10.91-0.109,21.811,0.357,32.72,0.229l-0.067-0.593c1.771,0.882,3.908,0.349,5.832,0.449c3.798-0.305,7.611-0.144,11.426-0.076
		c46.505,0.84,93.034,0.525,139.537,0.934c1.72,0.084,3.45,0.067,5.189,0.008c23.827,1.128,47.698,0.678,71.544,0.974
		c25.218,0.017,50.428,0.458,75.646,0.068c0.772-9.291-0.186-18.589-0.391-27.88c-0.381-8.757,0.374-17.514,0.61-26.269
		c-0.05-5.069-0.415-10.13-0.236-15.199c0.288-12.427-0.671-24.853,0.16-37.264c0.356-22.065-0.203-44.112-0.339-66.17
		c-0.213-20.912,0.161-41.841,0.179-62.754c0.211-16.936-0.247-33.873-0.212-50.809c0.22-22.345-0.577-44.706,0.22-67.051
		c-0.306-11.292,0.009-22.591-0.34-33.882c0.314-8.74-0.636-17.471-0.296-26.201c0.236-15.276,0.314-30.56,0.39-45.843
		c0.178-6.213-0.567-12.427-0.009-18.632c0.322-14.859,0.094-29.728-0.593-44.57C915.515,229.122,909.268,230.86,902.943,230.139
		 M460.227,731.117c-1.153,3.976-2.823,8.053-2.272,12.282c0.958,3.586,5.026,5.163,8.443,5.153
		c18.962,0.119,37.934,0.018,56.896,0.357c10.087,0.162,20.201-0.381,30.262,0.585c-0.915-2.797-2.144-5.644-1.907-8.638
		c0.382-3.314,2.077-6.248,3.492-9.197c-28.989-0.534-57.997-0.898-86.988-1.17C465.491,730.388,462.846,730.711,460.227,731.117
		 M442.239,738.576c3.374,4.103,8.036,6.747,12.63,9.258c-0.433-5.273-0.204-10.605,1.051-15.75
		C451.241,733.991,446.418,735.669,442.239,738.576 M555.472,739.161c-0.788,3.289,0.542,6.578,2.441,9.223
		c2.271,0.195,4.552,0.339,6.833,0.483c1.712-3.289,3.721-6.823,3.203-10.663c-0.644-3.29-3.916-6.494-7.459-5.519
		C557.346,733.1,556.107,736.482,555.472,739.161 M36.278,749.985c-4.628,0.899-9.647,1.883-13.249,5.164
		c-3.052,2.805-3.425,7.212-3.441,11.111c0.008,6.512-0.153,13.029-0.153,19.549c0.059,3.805,0.721,8.171,4.12,10.494
		c4.349,3.67,10.308,2.992,15.605,3.348c15.14,0.831,30.305,0.898,45.461,1.042c91.956,0.738,183.904,1.713,275.852,2.595
		c21.2,0.11,42.401,0.584,63.601,0.415c15.835-0.093,31.652,0.789,47.479,0.636c10.172,0.203,20.344-0.169,30.516,0.11
		c14.698-0.009,29.381,0.644,44.079,0.627c28.804,0.408,57.608,0.179,86.411,0.67c29.399,0.306,58.796,0.458,88.193,0.84
		c12.723-0.238,25.438-0.416,38.163-0.238c48.877,0.025,97.753,0.382,146.639,0.856c17.514,0.627,35.086-0.839,52.556,0.755
		c6.757-0.958,13.563,0.856,20.313-0.136c3.958-0.958,8.357-3.925,8.476-8.401c0.297-10.502-0.161-21.013-0.331-31.507
		c0.162-3.264-2.179-5.807-4.434-7.825c-1.796-1.576-3.61-3.61-6.17-3.661c-13.301-0.331-26.617,0-39.909-0.585
		c-21.743-0.314-43.478-0.543-65.22-0.679c-41.563,0.076-83.124-0.695-124.686-0.941c-27.126-0.39-54.242-0.126-81.359-0.55
		c-75.164-0.713-150.328-1.467-225.491-2.161c-42.647-0.476-85.294-0.407-127.94-0.968c-48.597-0.187-97.203-0.229-145.8-0.856
		c-30.838-0.253-61.669-0.432-92.498-0.177C60.81,750.443,48.518,748.994,36.278,749.985L36.278,749.985z"/>
	<path fill="#0F1009" d="M522.684,189.595c3.51-0.823,7.137-0.475,10.724-0.535c3.848,0.034,7.773-0.356,11.545,0.645
		C537.526,190.078,530.101,189.731,522.684,189.595L522.684,189.595z"/>
	<path fill="#BC9660" d="M64.717,193.138c7.019-0.585,14.046-1.111,21.099-1.17c25.439,0.263,50.877,0.89,76.316,0.322
		c22.319-0.737,44.647,0.441,66.966,0.017c37.57,0.39,75.147,0.704,112.708,0.271c15.834-0.017,31.677-0.22,47.512,0.077
		c22.888,0.372,45.766,0.143,68.645,0.458c14.123,0.059,28.253,0.39,42.376,0.093c11.012,0.017,22.015,0.593,33.034,0.704
		c14.139-0.271,28.278,0.619,42.409,0.051c14.979-0.144,29.957,0.5,44.936,0.093c11.316,0.068,22.633-0.263,33.941,0.229
		c9.307,0.407,18.606-0.101,27.913,0.077c21.489,0.177,42.978,0.508,64.466,0.568c22.031-0.5,44.071,0.102,66.102-0.009
		c29.101,0.789,58.227,0.187,87.337,0.424c10.434-1.424,20.945-0.483,31.423-0.229c3.356,0.169,6.492,1.526,9.545,2.831
		c-4.12,7.714-9.825,14.402-14.597,21.701c-1.619,2.331-3.392,5.459-6.705,5.146c-25.474,1.306-50.997,0.025-76.486,1.085
		c-30.237,0.339-60.474-0.365-90.71,0.551c-18.938-0.077-37.875-0.365-56.803,0.067c-31.355,0.814-62.721-0.101-94.076,0.22
		c-29.956,0.374-59.905,0.374-89.862-0.008c-13.275,0.051-26.541,0.221-39.815,0.254c-24.566,0.398-49.148-0.229-73.714,0.128
		c-5.968,0.203-11.935,0.076-17.894,0.008c-27.406,0.568-54.819-0.034-82.225-0.187c-15.818-0.289-31.636,0.356-47.462,0.102
		c-28.821,0.721-57.659-0.458-86.48,0.398c-19.497,0.483-38.994-0.042-58.49-0.127c-5.798-0.06-11.597,0.025-17.386-0.314
		c-5.696-6.832-11.045-13.936-16.402-21.022C69.278,202.022,65.854,198.131,64.717,193.138 M57.436,204.667
		c1.085-2.339,2.823-4.281,4.569-6.154c7.154,10.757,16.055,20.268,22.989,31.177c1.136,6.671,0.145,13.563,0.577,20.319
		c0.144,24.591-0.009,49.174,0.28,73.756c0.322,25.719-0.339,51.437-0.466,77.156c0.262,14.97-0.06,29.948,0.339,44.919
		c0.619,34.771-0.967,69.551-0.06,104.324c0.679,18.92,0.111,37.849-0.008,56.768c0.127,31.644-0.458,63.296-0.611,94.948
		c0.127,9.918,1,19.896-0.5,29.762c-0.78,4.663-0.229,9.393-0.034,14.081c-10.079,0.297-20.191,0.5-30.219-0.713
		c-0.56-20.886-0.39-41.799-0.432-62.693c0.618-16.098,0.364-32.204,0.652-48.301c-0.194-24.854,0.297-49.707,0.188-74.563
		c0.373-25.413,0.126-50.835,0.432-76.248c0.084-16.403-0.068-32.797,0.204-49.191c-0.246-11.011-0.11-22.031,0-33.051
		c-0.323-14.987,0.177-29.974,0.119-44.961c-0.407-8.757,0.212-17.513-0.186-26.262c-0.492-12.156,0.025-24.311-0.009-36.467
		c-0.11-19.217,0-38.442,0.347-57.66c-0.296-4.814-1.365-9.586-0.923-14.444C55.172,215.644,54.918,209.778,57.436,204.667
		 M928.153,224.307c5.553-7.849,10.825-15.894,16.325-23.786c6.808,4.146,8.198,12.648,9.911,19.768
		c1.475,13.258,0.05,26.625,0.542,39.917c0.195,21.48,0.491,42.952,0.094,64.432c0.075,22.328,0.313,44.655,0.474,66.975
		c-0.433,49.725,0.279,99.45-0.085,149.175c-0.754,44.927,0.407,89.854-0.093,134.781c0.348,10.468-0.102,20.945,0.204,31.414
		c0.22,5.442-1.128,10.876-0.221,16.292c0.509,3.314,0.398,6.689,0.008,10.021c-0.779,6.204,1.068,12.325,1.034,18.521
		c-9.739-0.618-19.497-0.085-29.245-0.33c-0.372-45.936-1.381-91.862-0.636-137.798c0.264-12.427-0.288-24.855-0.406-37.274
		c-0.136-23.726,0.136-47.452-0.246-71.179c-0.339-23.769-0.186-47.538,0.128-71.298c-0.297-35.306-0.34-70.612-0.128-105.917
		c0.264-12.715-0.449-25.43-0.186-38.154c-0.297-13.826,0.094-27.669,0.102-41.502c-0.152-5.934-0.298-11.876-0.034-17.818
		C925.712,228.232,926.814,226.138,928.153,224.307 M36.278,749.985c12.24-0.991,24.532,0.458,36.781-0.474
		c30.83-0.255,61.66-0.076,92.498,0.177c48.597,0.628,97.204,0.67,145.8,0.856c42.647,0.561,85.294,0.492,127.94,0.968
		c75.163,0.694,150.327,1.448,225.491,2.161c27.117,0.424,54.233,0.16,81.359,0.55c41.562,0.246,83.123,1.018,124.686,0.941
		c21.742,0.136,43.477,0.364,65.22,0.679c13.292,0.585,26.608,0.254,39.909,0.585c2.56,0.051,4.374,2.085,6.17,3.661
		c2.255,2.019,4.596,4.562,4.434,7.825c0.17,10.494,0.628,21.005,0.331,31.507c-0.118,4.477-4.518,7.443-8.476,8.401
		c-6.749,0.991-13.556-0.822-20.313,0.136c-17.47-1.594-35.042-0.128-52.556-0.755c-48.886-0.475-97.762-0.831-146.639-0.856
		c-12.725-0.178-25.44,0-38.163,0.238c-29.398-0.382-58.794-0.534-88.193-0.84c-28.803-0.491-57.607-0.262-86.411-0.67
		c-14.698,0.018-29.381-0.636-44.079-0.627c-10.172-0.279-20.344,0.093-30.516-0.11c-15.827,0.153-31.645-0.729-47.479-0.636
		c-21.2,0.169-42.401-0.305-63.601-0.415c-91.948-0.882-183.895-1.857-275.852-2.595c-15.156-0.144-30.321-0.211-45.461-1.042
		c-5.298-0.356-11.257,0.322-15.605-3.348c-3.399-2.323-4.06-6.689-4.12-10.494c0-6.52,0.161-13.037,0.153-19.549
		c0.017-3.899,0.39-8.307,3.441-11.111C26.631,751.868,31.649,750.885,36.278,749.985L36.278,749.985z"/>
	<path fill="#4B6D5A" d="M902.943,230.139c6.324,0.721,12.571-1.017,18.903-0.915c0.687,14.842,0.915,29.711,0.593,44.57
		c-0.559,6.205,0.187,12.419,0.009,18.632c-0.075,15.283-0.153,30.567-0.39,45.843c-0.34,8.73,0.61,17.461,0.296,26.201
		c0.349,11.291,0.034,22.59,0.34,33.882c-0.797,22.345,0,44.707-0.22,67.051c-0.035,16.936,0.423,33.873,0.212,50.809
		c-0.018,20.913-0.392,41.842-0.179,62.754c0.136,22.058,0.695,44.104,0.339,66.17c-0.831,12.41,0.128,24.837-0.16,37.264
		c-0.179,5.069,0.187,10.13,0.236,15.199c-0.236,8.756-0.991,17.513-0.61,26.269c0.204,9.291,1.162,18.589,0.391,27.88
		c-25.219,0.39-50.429-0.051-75.646-0.068c-23.846-0.296-47.717,0.154-71.544-0.974c2.602-7.646,7.332-15.606,4.865-23.914
		c-1.34-4.619-1.314-9.96-4.688-13.706c-3.518-4.011-8.205-6.884-13.121-8.842c-5.654-2.204-11.842-1.433-17.666-0.466
		c-16.733,3.187-34.085,0.636-50.073-4.807c-15.258-5.238-31.777-5.722-47.648-3.543c-10.342,2-18.674,9.112-25.32,16.919
		c-9.527,9.655-9.866,24.396-8.332,37.044l0.067,0.593c-10.908,0.128-21.81-0.338-32.72-0.229
		c-4.289-0.008-8.587,0.067-12.843-0.525c1.187-4.298,3.408-8.681,2.356-13.232c-1.873-4.103-5.984-7.51-10.689-7.307
		c-31.093-0.128-62.16-1.483-93.252-1.577c-8.994-0.482-17.742,2.941-24.701,8.494c-1.068,1.127-3.077,2.483-2.365,4.255
		c1.475,4.144,5.9,5.875,8.867,8.766c-12.317,0.194-24.643,0.084-36.95-0.322c-18.073-0.094-36.137,0.322-54.21-0.042
		c-12.986-0.56-26.007-0.264-39.001-0.45c-17.53,0.068-35.043-0.651-52.573-0.534c-12.987-0.169-25.982,0.103-38.951-0.5
		c-10.181-0.237-20.353,0.315-30.533,0.119c-13.258,0.094-26.515-0.779-39.773-0.338c-8.197,0.533-16.402-0.086-24.6,0.024
		c-14.758,0-29.533-0.983-44.283-0.171c1.17-10.01,0.289-20.113,0.992-30.15c0.246-44.927,0.458-89.846,0.72-134.772
		c-0.407-11.579-0.203-23.158-0.619-34.738c0.501-18.649,0.297-37.314,0.517-55.972c-0.127-17.242,0.907-34.476,0.28-51.708
		c-0.509-18.369,0.043-36.747-0.042-55.116c-0.644-19.225,0.331-38.442,0.297-57.659c-0.678-20.878-0.433-41.748-0.238-62.626
		c0.195-10.512-1.204-21.176,1.153-31.534c18.522,0.178,37.043-0.042,55.557-0.492c14.419-0.458,28.855,0.45,43.274-0.127
		c20.624-0.127,41.248-0.238,61.88-0.373c9.342-0.534,18.691,0.365,28.042,0.145c22.023,0.22,44.054-0.797,66.085-0.602
		c22.59,0.839,45.181-0.526,67.771-0.076c27.965-0.501,55.964,0.559,83.929-0.382c10.74,0.017,21.489,0.246,32.237-0.093
		c9.308,0.508,18.641,0.296,27.973,0.407c10.427-0.018,20.861,0.254,31.297-0.068c10.485,0.28,20.972-0.645,31.466-0.475
		c11.197,0.128,22.412-0.034,33.611,0.28c6.849,0.619,13.706-0.204,20.572-0.008c13.842,0.254,27.677-0.551,41.527-0.458
		c5.935,0.348,11.876-0.449,17.81,0.144c15.522,0.271,31.034-0.262,46.547-0.593c12.173,0.356,24.336-0.373,36.518-0.051
		c10.724-0.211,21.438,0.806,32.17,0.449C866.772,229.741,884.897,228.563,902.943,230.139 M536.552,353.248
		c-2.306,2.865-4.001,6.171-6.188,9.113c-8.554,12.215-18.624,23.48-30.517,32.525c1.763-4.527,2.373-9.375,3.221-14.122
		c0.797-5.4,1.975-10.792,2.001-16.267c0.076-2.314-1.365-4.578-3.595-5.29c-3.408-1.077-7.341-0.805-10.46,1
		c-1.721,1-3.34,2.857-2.849,4.993c1.306,10.478,0.39,21.116-1.805,31.407c-2.12,9.739-6.036,18.954-8.596,28.566
		c-0.576,2.501-1.771,5.426-0.101,7.757c1.313,2.23,4.603,2.653,6.518,0.949c3.882-3.374,5.23-8.578,7.4-13.054
		c1.941-4.001,3.086-8.951,7.12-11.418c2.323-1.297,4.891,0.246,6.723,1.695c5.467,4.552,9.272,10.672,13.316,16.428
		c1.958,3.357,7.756,3.043,9.316-0.5c1.279-3.255,0.059-6.832-1.526-9.748c-3.619-6.485-9.663-11.486-11.977-18.725
		c6.383-5.569,12.858-11.045,18.564-17.326c5.034-5.46,10.426-10.672,14.604-16.844C552.098,358.071,542.724,349.17,536.552,353.248
		 M294.251,361.182c-3.061-0.535-6.4-0.797-9.24,0.712c-1.933,1.068-3.687,3.204-3.094,5.544c2.433,15.207-0.135,30.72-4.348,45.376
		c-1.416,5.265-3.942,10.189-5.043,15.538c-0.645,2.62,1.119,5.815,4.009,5.883c2.738-0.5,5.332-1.628,8.07-2.162
		c14.614-3.416,28.847-10.129,39.298-21.107c4.137-4.51,7.909-11.029,5.51-17.251c-2.882-5.696-10.113-6.535-15.8-6.442
		c5.501-5.315,10.799-10.96,14.834-17.488c2.119-3.628,4.196-8.044,2.73-12.283c-1.391-3.492-5.595-4.281-8.927-4.314
		C312.375,353.222,303.119,357.231,294.251,361.182 M465.855,353.841c-4.561,1.822-8.299,5.137-12.045,8.223
		c-11.283,9.867-21.938,20.514-31.211,32.305c-5.392,7.079-10.698,14.598-12.961,23.328c-1.263,4.679-0.874,10.604,3.416,13.639
		c5.925,4.035,13.613,2.866,20.2,1.39c12.249-3.111,24.083-7.866,35.213-13.843c3.611-1.72,6.434-6.17,4.662-10.112
		c-1.814-2.484-5.722-2.247-8.189-0.907c-10.113,6.043-20.429,12.91-32.398,14.334c-3.332,0.348-8.621,0.025-9.027-4.289
		c0.084-5.899,3.585-11.063,7.044-15.597c7.315-8.858,16.03-16.758,26.16-22.286c0.576,2.56,0.584,5.841,3.043,7.442
		c2.73,1.314,5.739-0.661,7.332-2.856c3.891-5.019,4.095-11.63,4.781-17.666c0.28-3.653,1.186-7.552-0.272-11.071
		C470.729,353.646,467.932,352.925,465.855,353.841 M382.588,356.07c-3.188,1.161-3.23,4.958-3.976,7.723
		c-1.365,7.179-4.552,13.8-8.053,20.149c-7.833,13.97-17.479,26.863-27.999,38.908c-1.848,2.179-3.552,5.332-1.95,8.129
		c1.407,2.848,5.188,3.408,7.833,2.051c5.146-2.407,6.002-9.689,11.783-11.164c8.01-2.535,16.301-4.222,24.608-5.417
		c2.467,3.424,1.627,8.494,4.052,12.071c1.466,2.017,4.476,1.644,6.332,0.398c2.73-1.941,4.323-5.29,4.501-8.596
		c-0.432-2.043-1.297-3.967-1.992-5.925c1.339-1.356,3.077-2.848,2.662-4.984c-0.017-2.517-2.492-3.62-4.399-4.56
		c-1.933-12.817-1.958-25.813-2.475-38.731c-0.407-3.178,3.094-6.815,0.254-9.511C390.522,354.51,386.115,354.858,382.588,356.07
		 M849.904,446.339c-2.052,0.61-4.153,2.255-3.959,4.62c-1.136,19.115-10.3,36.527-20.208,52.479
		c-1.959,2.459-1.425,6.714,1.855,7.689c3.688,0.891,6.562-2.373,8.427-5.094c4.407-6.943,8.435-14.114,12.758-21.107
		c6.239-9.841,11.096-20.675,13.35-32.144c0.577-2.263-0.237-4.975-2.5-5.942C856.601,445.509,853.058,445.509,849.904,446.339
		 M296.439,453.994c-13.682,3.967-24.803,13.996-33.051,25.312c-6.679,9.172-11.851,19.649-13.816,30.898
		c-0.958,6.222-1.128,12.918,1.492,18.775c1.729,4.01,5.442,7.053,9.74,7.883c6.764,1.434,13.605-1,19.514-4.171
		c12.011-6.45,21.251-17.037,28.278-28.549c5.484-9.171,9.562-19.522,9.858-30.313c0.119-5.96-1.042-12.521-5.501-16.827
		C308.603,452.875,301.966,452.544,296.439,453.994 M420.81,460.385c-12.182,7.027-18.937,20.972-19.565,34.704
		c-0.059,3.729,2.569,8.104,6.705,7.934c3.823-0.458,6.875-3.128,10.562-4.043c4.9-1.212,9.918-1.941,14.945-2.441
		c4.163-0.433,8.749,0.5,11.766,3.577c1.687,1.686,1.925,4.298,1.297,6.51c-1.365,4.764-5.434,8.053-9.393,10.706
		c-6.264,3.942-13.19,7.478-20.734,7.799c-3.764,0.188-7.366-1.364-10.257-3.679c-2.008-1.415-4.441-3.78-7.018-2.153
		c-3.535,2.526-2.831,7.493-2.959,11.291c2.365,2.84,5.51,5.103,9.189,5.832c9.027,1.941,18.386-0.721,26.388-4.916
		c9.689-5.332,18.878-12.275,24.972-21.642c3.204-5.349,6.018-11.851,4.289-18.157c-1.797-5.594-7.824-8.172-13.164-9.146
		c-10.324-1.644-21.099-0.576-30.915,3.035c1.577-4.121,5.027-7.086,8.511-9.596c4.764-3.085,10.502-3.993,15.996-4.941
		c1.11,1.89,2.356,3.704,3.874,5.306c5.188-0.61,11.961-1.195,14.402-6.645c2.509-7.985-5.459-16.937-13.605-16.301
		C437.271,453.57,428.371,455.732,420.81,460.385 M654.829,453.697c-9.401,2.213-17.666,7.85-24.617,14.394
		c-8.189,7.977-14.852,17.573-19.353,28.084c-3.688,8.899-6.02,18.801-4.137,28.414c0.975,5.044,4.144,9.986,9.188,11.697
		c6.562,2.289,13.69,0.322,19.691-2.652c13.377-6.561,23.498-18.243,30.941-30.915c5.434-9.528,9.426-20.345,8.977-31.458
		c-0.195-5.391-1.797-11.172-6.053-14.783C665.467,453.104,659.779,452.689,654.829,453.697 M726.245,454.096
		c-10.47,3.111-19.488,9.943-26.761,17.937c-9.054,10.18-16.242,22.328-19.226,35.712c-1.331,6.417-1.789,13.282,0.339,19.581
		c1.424,4.374,4.917,8.138,9.451,9.3c6.688,1.831,13.673-0.391,19.624-3.492c12.716-6.544,22.395-17.709,29.636-29.831
		c5.483-9.451,9.535-20.157,9.34-31.219c-0.102-5.705-1.636-11.927-6.213-15.716C737.935,452.739,731.594,452.621,726.245,454.096
		 M193.353,462.352c-3.781,0.67-6.544,4.382-6.934,8.07c-0.339,3.78,1.856,8.765,6.197,8.832c5.611-0.263,10.647-3.264,16.233-3.798
		c1.534,17.242-4.01,34.025-9.164,50.233c-0.712,2.891-2.187,6.392-0.127,9.07c1.433,2.102,4.594,2.365,6.578,0.898
		c2.67-1.949,3.663-5.289,4.688-8.273c4.814-15.504,11.249-30.669,13.028-46.927c0.399-2.289,0.255-4.84,1.552-6.849
		c4.162-1.297,8.578-1.686,12.927-1.916c3.103-0.204,6.629,0.619,9.358-1.297c2.696-2.365,3.705-6.357,3.035-9.816
		c-0.577-2.729-2.84-4.543-4.892-6.205C228.09,454.935,210.585,458.309,193.353,462.352 M586.642,458.555
		c-0.917,1.228-0.483,2.806-0.407,4.213c1.288,11.028-0.094,22.183-2.398,32.983c-8.113,1.679-16.378,2.602-24.219,5.392
		c3.034-9.995,5.56-20.235,6.239-30.687c0.016-2.848,0.466-6.349-1.892-8.443c-2.763-2.178-6.637-1.89-9.892-1.272
		c-3.119,0.62-6.214,3.552-5.213,6.968c2.831,19.81-3.229,39.34-9.198,57.997c-0.72,2.925-2.737,6.484-0.432,9.198
		c2.018,2.686,6.323,2.203,8.027-0.586c4.222-6.128,4.704-14.021,8.519-20.368c1.993-1.316,4.374-1.832,6.63-2.553
		c6.205-1.754,12.435-3.517,18.818-4.501c-1.433,6.866-4.34,13.309-5.731,20.192c1.729,2.102,3.976,4.679,7.062,3.788
		c4.161-1.178,5.891-5.705,7.052-9.452c6.111-20.233,14.047-40.543,13.386-62.032c0.042-2.246-1.264-4.561-3.544-5.129
		C594.914,453.062,589.26,454.4,586.642,458.555 M522.133,455.901c-5.29,2.543-9.672,6.579-14.072,10.393
		c-12.434,11.316-24.37,23.413-33.821,37.392c-4.171,6.553-8.393,13.824-8.053,21.853c0.144,4.425,3.492,8.231,7.688,9.375
		c6.866,1.992,14.08,0.264,20.777-1.586c10.392-3.085,20.48-7.179,30.066-12.231c2.51-1.279,4.984-3.187,5.748-6.035
		c0.55-1.891,0.602-4.484-1.281-5.653c-2.475-1.306-5.628-0.933-7.917,0.609c-9.069,5.604-18.403,11.386-28.981,13.564
		c-3.34,0.482-7.197,1.001-10.13-1.018c-2.204-1.679-1.585-4.807-0.924-7.087c2.11-6.662,6.722-12.139,11.452-17.123
		c6.247-6.459,13.208-12.333,21.142-16.622c0.593,2.687,0.635,6.383,3.559,7.706c3.044,0.839,5.824-1.45,7.376-3.857
		c3.679-5.434,3.603-12.241,4.4-18.505c0.254-3.391,1.008-7.171-0.882-10.24C526.931,454.808,524.082,454.884,522.133,455.901
		 M763.934,459.267c-1.79,0.949-3.562,2.806-3.188,4.984c2.263,16.547-0.763,33.305-5.511,49.156
		c-1.5,5.213-4.171,10.104-4.933,15.521c-0.56,3.127,2.754,6.62,5.891,5.026c4.221-2.509,9.027-3.628,13.673-5.094
		c8.079-2.399,16.267-4.51,24.625-5.714c3.814-0.628,8.103,0.068,11.495-2.179c2.187-1.406,2.552-4.874,0.737-6.722
		c-1.594-1.722-4.043-2.128-6.265-2.119c-12.181,0.052-24.124,2.975-35.637,6.732c4.281-13.081,10.58-25.559,13.004-39.197
		c0.976-5.553,2.146-11.215,1.475-16.869c-0.254-2.645-2.771-4.315-5.222-4.662C770.697,457.639,767.044,457.724,763.934,459.267
		 M821.754,518.13c-5.596,1.211-11.513,5.501-11.987,11.621c-0.322,4.382,4.603,7.096,8.494,6.052
		c5.722-1.084,11.885-5.696,11.909-11.993C830.179,519.612,825.516,517.138,821.754,518.13 M301.185,373.863
		c4.662-1.873,9.435-3.789,14.521-4.094c-4.467,7.544-12.647,11.715-19.853,16.208c0.28-2.916,0.483-5.866,1.272-8.706
		C297.515,375.33,299.617,374.643,301.185,373.863 M368.72,408.448c4.077-5.264,7.925-10.697,11.927-16.004
		c0.89,4.434,1.78,8.884,2.102,13.402C378.036,406.524,373.365,407.405,368.72,408.448 M293.243,398.98
		c2.5-1.772,5.823-0.933,8.68-0.916c3.78,0.466,8.435,0.669,10.91,4.009c1.814,3.543-1.28,7.112-3.958,9.155
		c-6.807,5.001-14.936,7.773-22.896,10.375C288.454,414.077,291.047,406.584,293.243,398.98 M297.329,472.736
		c2.823-0.695,6.128-1.238,8.756,0.39c2.407,1.593,2.484,4.873,2.085,7.442c-1.305,8.774-6.451,16.343-11.961,23.049
		c-6.29,7.408-13.893,13.994-22.904,17.843c-3.755,1.459-7.951,2.578-11.961,1.611c-2.271-0.552-3.627-2.883-3.568-5.12
		c-0.008-6.418,3.179-12.257,6.247-17.699C271.695,487.833,283.342,477.373,297.329,472.736 M654.217,472.795
		c3.671-1.111,9.563-1.551,10.928,3.06c1.052,6.357-1.798,12.631-4.865,18.047c-6.74,10.994-16.08,20.708-27.668,26.584
		c-4.604,2.094-10.055,4.034-15.039,2.237c-4.052-2.279-2.678-7.807-1.602-11.451C622.243,493.751,636.602,478.966,654.217,472.795
		 M727.889,472.643c2.967-0.669,6.664-1.203,9.113,1.06c2.264,2.442,1.559,6.086,0.982,9.044
		c-2.16,9.172-7.984,16.938-14.173,23.821c-6.772,7.112-14.825,13.665-24.472,16.25c-3.314,0.652-7.621,1.483-10.198-1.298
		c-2.051-2.95-1.025-6.841-0.144-10.036c4.229-12.411,12.782-23.125,23.303-30.838C717.081,477.288,722.219,474.228,727.889,472.643
		L727.889,472.643z"/>
	<path fill="#FFFFFF" d="M536.552,353.248c6.172-4.077,15.546,4.823,11.172,11.138c-4.179,6.172-9.57,11.384-14.604,16.844
		c-5.706,6.281-12.182,11.757-18.564,17.326c2.314,7.239,8.358,12.24,11.977,18.725c1.585,2.917,2.806,6.494,1.526,9.748
		c-1.561,3.543-7.358,3.857-9.316,0.5c-4.044-5.755-7.85-11.876-13.316-16.428c-1.832-1.45-4.4-2.993-6.723-1.695
		c-4.035,2.467-5.179,7.417-7.12,11.418c-2.17,4.476-3.518,9.68-7.4,13.054c-1.916,1.704-5.205,1.28-6.518-0.949
		c-1.67-2.331-0.475-5.255,0.101-7.757c2.56-9.612,6.476-18.827,8.596-28.566c2.195-10.291,3.111-20.929,1.805-31.407
		c-0.491-2.136,1.128-3.993,2.849-4.993c3.119-1.806,7.052-2.077,10.46-1c2.23,0.712,3.671,2.976,3.595,5.29
		c-0.025,5.476-1.204,10.867-2.001,16.267c-0.848,4.747-1.458,9.595-3.221,14.122c11.893-9.044,21.963-20.31,30.517-32.525
		C532.551,359.419,534.246,356.113,536.552,353.248 M294.251,361.182c8.867-3.951,18.124-7.96,27.999-7.994
		c3.332,0.034,7.536,0.822,8.927,4.314c1.466,4.239-0.611,8.655-2.73,12.283c-4.035,6.527-9.333,12.173-14.834,17.488
		c5.688-0.093,12.919,0.746,15.8,6.442c2.399,6.222-1.373,12.741-5.51,17.251c-10.452,10.978-24.684,17.691-39.298,21.107
		c-2.738,0.534-5.332,1.662-8.07,2.162c-2.891-0.067-4.654-3.263-4.009-5.883c1.102-5.349,3.627-10.273,5.043-15.538
		c4.213-14.656,6.781-30.169,4.348-45.376c-0.593-2.34,1.162-4.476,3.094-5.544C287.851,360.385,291.191,360.648,294.251,361.182
		 M301.185,373.863c-1.568,0.78-3.67,1.467-4.06,3.408c-0.788,2.84-0.992,5.79-1.272,8.706c7.206-4.493,15.386-8.664,19.853-16.208
		C310.621,370.074,305.848,371.99,301.185,373.863 M293.243,398.98c-2.196,7.604-4.79,15.098-7.265,22.624
		c7.96-2.602,16.089-5.374,22.896-10.375c2.679-2.043,5.772-5.612,3.958-9.155c-2.475-3.34-7.129-3.543-10.91-4.009
		C299.066,398.047,295.743,397.208,293.243,398.98 M465.855,353.841c2.076-0.915,4.874-0.195,5.747,2.034
		c1.458,3.519,0.551,7.418,0.272,11.071c-0.686,6.036-0.89,12.647-4.781,17.666c-1.593,2.196-4.603,4.171-7.332,2.856
		c-2.459-1.602-2.467-4.882-3.043-7.442c-10.13,5.527-18.844,13.427-26.16,22.286c-3.459,4.535-6.96,9.698-7.044,15.597
		c0.407,4.315,5.696,4.637,9.027,4.289c11.969-1.424,22.285-8.291,32.398-14.334c2.467-1.339,6.375-1.577,8.189,0.907
		c1.772,3.942-1.051,8.392-4.662,10.112c-11.13,5.977-22.964,10.732-35.213,13.843c-6.586,1.476-14.275,2.645-20.2-1.39
		c-4.289-3.035-4.679-8.96-3.416-13.639c2.263-8.73,7.569-16.25,12.961-23.328c9.273-11.791,19.929-22.438,31.211-32.305
		C457.557,358.978,461.295,355.663,465.855,353.841 M382.588,356.07c3.526-1.212,7.934-1.56,11.181,0.543
		c2.84,2.695-0.661,6.332-0.254,9.511c0.517,12.918,0.542,25.914,2.475,38.731c1.907,0.94,4.382,2.043,4.399,4.56
		c0.415,2.136-1.322,3.628-2.662,4.984c0.695,1.958,1.56,3.882,1.992,5.925c-0.178,3.306-1.772,6.654-4.501,8.596
		c-1.857,1.246-4.866,1.619-6.332-0.398c-2.424-3.578-1.585-8.647-4.052-12.071c-8.307,1.195-16.598,2.882-24.608,5.417
		c-5.781,1.475-6.637,8.756-11.783,11.164c-2.645,1.356-6.425,0.796-7.833-2.051c-1.602-2.797,0.102-5.951,1.95-8.129
		c10.52-12.045,20.166-24.938,27.999-38.908c3.501-6.349,6.688-12.97,8.053-20.149C379.358,361.029,379.4,357.231,382.588,356.07
		 M368.72,408.448c4.645-1.043,9.315-1.924,14.029-2.603c-0.322-4.518-1.212-8.968-2.102-13.402
		C376.646,397.751,372.797,403.184,368.72,408.448 M849.904,446.339c3.153-0.831,6.696-0.831,9.723,0.5
		c2.263,0.967,3.077,3.679,2.5,5.942c-2.254,11.469-7.11,22.303-13.35,32.144c-4.323,6.993-8.351,14.164-12.758,21.107
		c-1.865,2.721-4.739,5.984-8.427,5.094c-3.28-0.975-3.815-5.229-1.855-7.689c9.908-15.953,19.072-33.364,20.208-52.479
		C845.751,448.595,847.852,446.949,849.904,446.339 M296.439,453.994c5.527-1.449,12.164-1.119,16.513,3.01
		c4.459,4.306,5.62,10.867,5.501,16.827c-0.296,10.79-4.374,21.141-9.858,30.313c-7.027,11.512-16.267,22.099-28.278,28.549
		c-5.909,3.171-12.749,5.604-19.514,4.171c-4.298-0.83-8.011-3.873-9.74-7.883c-2.62-5.857-2.45-12.554-1.492-18.775
		c1.966-11.249,7.137-21.727,13.816-30.898C271.635,467.989,282.757,457.961,296.439,453.994 M297.329,472.736
		c-13.987,4.637-25.634,15.097-33.306,27.516c-3.068,5.442-6.255,11.281-6.247,17.699c-0.059,2.237,1.297,4.568,3.568,5.12
		c4.01,0.967,8.206-0.152,11.961-1.611c9.011-3.849,16.614-10.435,22.904-17.843c5.51-6.706,10.656-14.275,11.961-23.049
		c0.398-2.568,0.322-5.849-2.085-7.442C303.457,471.499,300.151,472.041,297.329,472.736 M420.81,460.385
		c7.561-4.653,16.461-6.815,25.286-6.968c8.146-0.636,16.114,8.316,13.605,16.301c-2.441,5.45-9.214,6.035-14.402,6.645
		c-1.518-1.602-2.764-3.416-3.874-5.306c-5.493,0.949-11.232,1.856-15.996,4.941c-3.484,2.51-6.934,5.476-8.511,9.596
		c9.816-3.611,20.59-4.679,30.915-3.035c5.341,0.975,11.368,3.552,13.164,9.146c1.729,6.307-1.085,12.809-4.289,18.157
		c-6.095,9.367-15.284,16.31-24.972,21.642c-8.002,4.195-17.361,6.857-26.388,4.916c-3.679-0.73-6.825-2.992-9.189-5.832
		c0.127-3.798-0.576-8.765,2.959-11.291c2.577-1.627,5.01,0.738,7.018,2.153c2.891,2.315,6.493,3.866,10.257,3.679
		c7.544-0.321,14.47-3.857,20.734-7.799c3.959-2.653,8.027-5.942,9.393-10.706c0.628-2.212,0.39-4.823-1.297-6.51
		c-3.017-3.077-7.603-4.009-11.766-3.577c-5.026,0.5-10.045,1.229-14.945,2.441c-3.687,0.915-6.739,3.585-10.562,4.043
		c-4.136,0.17-6.764-4.205-6.705-7.934C401.873,481.357,408.628,467.413,420.81,460.385 M654.829,453.697
		c4.95-1.009,10.638-0.593,14.639,2.781c4.256,3.611,5.857,9.392,6.053,14.783c0.448,11.113-3.544,21.929-8.977,31.458
		c-7.442,12.672-17.564,24.354-30.941,30.915c-6.001,2.975-13.13,4.941-19.691,2.652c-5.044-1.711-8.214-6.653-9.188-11.697
		c-1.883-9.613,0.449-19.515,4.137-28.414c4.501-10.511,11.164-20.107,19.353-28.084
		C637.163,461.547,645.428,455.91,654.829,453.697 M654.217,472.795c-17.614,6.171-31.974,20.955-38.246,38.477
		c-1.076,3.644-2.45,9.172,1.602,11.451c4.984,1.797,10.435-0.143,15.039-2.237c11.588-5.876,20.928-15.59,27.668-26.584
		c3.067-5.417,5.917-11.69,4.865-18.047C663.779,471.244,657.888,471.685,654.217,472.795 M726.245,454.096
		c5.349-1.475,11.69-1.356,16.19,2.272c4.577,3.789,6.111,10.011,6.213,15.716c0.195,11.062-3.856,21.768-9.34,31.219
		c-7.24,12.122-16.92,23.287-29.636,29.831c-5.951,3.102-12.937,5.323-19.624,3.492c-4.534-1.162-8.027-4.926-9.451-9.3
		c-2.128-6.299-1.67-13.164-0.339-19.581c2.983-13.385,10.172-25.532,19.226-35.712
		C706.757,464.039,715.775,457.207,726.245,454.096 M727.889,472.643c-5.67,1.585-10.808,4.646-15.588,8.002
		c-10.521,7.713-19.073,18.428-23.303,30.838c-0.882,3.195-1.907,7.086,0.144,10.036c2.577,2.781,6.884,1.95,10.198,1.298
		c9.646-2.585,17.699-9.138,24.472-16.25c6.189-6.883,12.013-14.648,14.173-23.821c0.577-2.958,1.281-6.603-0.982-9.044
		C734.553,471.44,730.855,471.973,727.889,472.643 M193.353,462.352c17.233-4.043,34.737-7.417,52.479-7.977
		c2.052,1.661,4.314,3.476,4.892,6.205c0.669,3.459-0.339,7.451-3.035,9.816c-2.729,1.916-6.256,1.094-9.358,1.297
		c-4.349,0.229-8.765,0.619-12.927,1.916c-1.297,2.009-1.153,4.56-1.552,6.849c-1.78,16.258-8.214,31.423-13.028,46.927
		c-1.025,2.984-2.018,6.324-4.688,8.273c-1.983,1.467-5.145,1.203-6.578-0.898c-2.06-2.679-0.585-6.18,0.127-9.07
		c5.154-16.208,10.698-32.991,9.164-50.233c-5.586,0.534-10.622,3.535-16.233,3.798c-4.34-0.068-6.536-5.052-6.197-8.832
		C186.808,466.734,189.572,463.022,193.353,462.352 M586.642,458.555c2.618-4.154,8.272-5.493,12.808-4.29
		c2.28,0.568,3.586,2.882,3.544,5.129c0.661,21.489-7.274,41.799-13.386,62.032c-1.161,3.747-2.891,8.274-7.052,9.452
		c-3.086,0.891-5.332-1.687-7.062-3.788c1.391-6.884,4.298-13.326,5.731-20.192c-6.383,0.983-12.613,2.747-18.818,4.501
		c-2.256,0.721-4.637,1.237-6.63,2.553c-3.814,6.348-4.297,14.24-8.519,20.368c-1.704,2.789-6.01,3.272-8.027,0.586
		c-2.306-2.714-0.288-6.273,0.432-9.198c5.969-18.657,12.029-38.187,9.198-57.997c-1.001-3.416,2.094-6.349,5.213-6.968
		c3.255-0.619,7.129-0.907,9.892,1.272c2.357,2.094,1.907,5.595,1.892,8.443c-0.679,10.452-3.205,20.692-6.239,30.687
		c7.841-2.79,16.106-3.713,24.219-5.392c2.305-10.8,3.687-21.955,2.398-32.983C586.158,461.361,585.725,459.783,586.642,458.555
		 M522.133,455.901c1.949-1.017,4.798-1.093,6.146,0.933c1.89,3.069,1.136,6.85,0.882,10.24c-0.797,6.264-0.721,13.071-4.4,18.505
		c-1.552,2.407-4.332,4.696-7.376,3.857c-2.924-1.323-2.966-5.019-3.559-7.706c-7.935,4.289-14.895,10.164-21.142,16.622
		c-4.73,4.984-9.341,10.461-11.452,17.123c-0.661,2.28-1.28,5.408,0.924,7.087c2.933,2.019,6.79,1.5,10.13,1.018
		c10.578-2.178,19.912-7.96,28.981-13.564c2.289-1.542,5.442-1.915,7.917-0.609c1.883,1.169,1.831,3.763,1.281,5.653
		c-0.764,2.849-3.238,4.756-5.748,6.035c-9.587,5.053-19.674,9.146-30.066,12.231c-6.697,1.85-13.911,3.578-20.777,1.586
		c-4.196-1.144-7.544-4.95-7.688-9.375c-0.339-8.028,3.882-15.3,8.053-21.853c9.451-13.979,21.387-26.075,33.821-37.392
		C512.461,462.48,516.843,458.444,522.133,455.901 M763.934,459.267c3.11-1.542,6.764-1.627,10.146-1.136
		c2.45,0.347,4.968,2.017,5.222,4.662c0.671,5.654-0.499,11.316-1.475,16.869c-2.424,13.639-8.723,26.116-13.004,39.197
		c11.513-3.757,23.456-6.68,35.637-6.732c2.222-0.009,4.671,0.397,6.265,2.119c1.815,1.848,1.449,5.315-0.737,6.722
		c-3.392,2.247-7.681,1.551-11.495,2.179c-8.358,1.204-16.546,3.314-24.625,5.714c-4.646,1.466-9.452,2.585-13.673,5.094
		c-3.137,1.594-6.451-1.899-5.891-5.026c0.762-5.417,3.433-10.309,4.933-15.521c4.748-15.851,7.773-32.609,5.511-49.156
		C760.372,462.072,762.144,460.216,763.934,459.267 M821.754,518.13c3.762-0.992,8.425,1.482,8.416,5.68
		c-0.024,6.297-6.188,10.909-11.909,11.993c-3.891,1.044-8.816-1.67-8.494-6.052C810.241,523.631,816.158,519.341,821.754,518.13
		 M460.227,731.117c2.619-0.406,5.264-0.729,7.926-0.628c28.991,0.271,57.999,0.636,86.988,1.17
		c-1.415,2.949-3.11,5.883-3.492,9.197c-0.236,2.993,0.992,5.841,1.907,8.638c-10.061-0.966-20.175-0.423-30.262-0.585
		c-18.962-0.339-37.934-0.237-56.896-0.357c-3.417,0.01-7.485-1.567-8.443-5.153C457.404,739.17,459.074,735.093,460.227,731.117
		 M442.239,738.576c4.179-2.907,9.002-4.585,13.681-6.492c-1.254,5.145-1.483,10.477-1.051,15.75
		C450.275,745.323,445.613,742.68,442.239,738.576 M555.472,739.161c0.636-2.679,1.874-6.062,5.018-6.476
		c3.543-0.975,6.815,2.229,7.459,5.519c0.518,3.84-1.491,7.374-3.203,10.663c-2.281-0.144-4.562-0.288-6.833-0.483
		C556.014,745.739,554.684,742.45,555.472,739.161L555.472,739.161z"/>
	<path fill="#CC9018" d="M647.182,695.43c15.87-2.179,32.39-1.695,47.648,3.543c15.988,5.442,33.34,7.993,50.073,4.807
		c5.824-0.967,12.012-1.738,17.666,0.466c4.916,1.958,9.604,4.831,13.121,8.842c3.374,3.746,3.349,9.087,4.688,13.706
		c2.467,8.308-2.264,16.267-4.865,23.914c-1.738,0.06-3.469,0.076-5.189-0.008c2.611-5.689,5.773-11.301,6.884-17.514
		c0.135-9.198-3.374-19.539-12.173-23.811c-8.037-3.458-17.149-2.899-25.583-1.458c-8.452,1.517-17.021,0.152-25.438-0.814
		c-12.783-1.433-24.499-7.611-37.341-8.697c-11.994-1.475-25.058-2.076-35.993,3.934c-7.967,5.35-15.91,11.443-20.751,19.921
		c-3.466,6.154-3.229,13.495-2.966,20.319c0,2.627,1.127,5.026,2.398,7.264c-1.924-0.101-4.06,0.433-5.832-0.449
		c-1.534-12.647-1.195-27.389,8.332-37.044C628.508,704.542,636.84,697.43,647.182,695.43 M644.596,707.983
		c2.417-1.992,5.706-0.975,8.342-0.033c0.722,4.619-3.171,9.299-7.722,9.773c-1.61-0.042-3.595-0.61-4.018-2.382
		C641.367,712.604,642.69,709.925,644.596,707.983 M644.063,713.892c1.458-0.009,2.941-0.017,4.425-0.024
		c0.322-1.399,0.653-2.807,0.983-4.205C647.292,710.544,645.461,712.019,644.063,713.892 M746.988,717.427
		c1.796,0.424,5.119,2.212,3.094,4.307c-1.373,0.016-2.747-0.212-4.094-0.348C746.31,720.055,746.64,718.74,746.988,717.427
		 M648.996,722.59c3.399-1.646,7.985-0.144,9.876,3.102c1.89,3.85-1.586,9.028-5.892,8.688
		C647.563,734.135,643.901,725.852,648.996,722.59 M649.785,726.573c0.524,1.645,1.067,3.297,1.61,4.95
		c1.297-0.025,2.61-0.041,3.925-0.052c-0.119-1.737,0.11-3.551-0.468-5.203C653.379,724.572,651.412,725.954,649.785,726.573
		 M728.975,729.074c1.128-2.534,2.679-4.908,5.205-6.231c1.458,1.764,2.916,3.535,4.357,5.324c-1.561,1.45-2.917,3.425-5.112,3.891
		C731.737,731.389,730.382,730.158,728.975,729.074 M631.712,728.312c2.28-1.001,4.629-1.865,7.019-2.577
		c0.73,2.297,2.449,5.195,0.509,7.365c-1.297,1.602-3.467,4.095-5.689,2.637C630.797,734.304,631.051,730.854,631.712,728.312
		 M633.127,732.243c0.552,0.408,1.653,1.222,2.205,1.62c0.78-0.797,2.119-1.229,2.406-2.407c0.688-1.381-1.211-3.28-2.551-2.416
		C633.822,729.473,633.721,731.15,633.127,732.243 M686.015,728.463c1.72-0.678,3.561-1.313,5.315-0.33
		c-0.44,1.288-0.551,2.789-1.441,3.899C687.616,732.982,686.761,730.006,686.015,728.463 M760.822,727.582
		c3.416-0.848,7.154,2.051,6.713,5.695c-0.983,3.189-3.441,6.536-7.001,6.894C754.769,738.449,755.023,729.142,760.822,727.582
		 M759.465,734.135c0.086,1.678,1.688,2.619,2.705,3.755c0.839-1.84,1.619-3.704,2.357-5.578c-0.882-1.17-1.755-2.33-2.628-3.484
		C760.966,730.532,759.821,732.185,759.465,734.135 M624.862,736.22c0.441-0.407,1.331-1.204,1.772-1.603
		c0.627,0.085,1.881,0.246,2.517,0.331c0.153,1.772,0.307,3.561,0.467,5.349c-1.025-0.06-2.093,0.254-3.061-0.152
		C625.685,738.983,625.363,737.542,624.862,736.22 M637.908,738.246c1.704,0.288,3.84,0.177,4.833,1.925
		c-0.068,1.618-0.926,3.043-1.562,4.492c-1.102-0.756-2.534-1.162-3.322-2.28C637.384,741.043,637.884,739.602,637.908,738.246
		 M743.877,741.204c1.051-0.025,2.111-0.042,3.186-0.06c-0.245,1.636-0.466,3.281-0.763,4.908
		C744.631,744.908,743.249,743.365,743.877,741.204 M723.059,746.002c0.906-1.482,1.516-3.254,2.907-4.357
		c1.491-0.525,3.118-0.322,4.679-0.407c0.365,0.594,1.085,1.781,1.449,2.375c-1.475,1.601-3.069,3.483-5.391,3.669
		C725.397,747.188,724.253,746.442,723.059,746.002L723.059,746.002z"/>
	<path fill="#E8D459" d="M640.68,702.338c10.935-6.01,23.999-5.408,35.993-3.934c12.842,1.086,24.558,7.265,37.341,8.697
		c8.417,0.967,16.986,2.331,25.438,0.814c8.434-1.441,17.546-2,25.583,1.458c8.799,4.272,12.308,14.613,12.173,23.811
		c-1.111,6.213-4.273,11.824-6.884,17.514c-46.503-0.408-93.032-0.094-139.537-0.934c-3.814-0.067-7.628-0.229-11.426,0.076
		c-1.271-2.237-2.398-4.637-2.398-7.264c-0.264-6.824-0.5-14.165,2.966-20.319C624.769,713.781,632.713,707.688,640.68,702.338
		 M644.596,707.983c-1.906,1.941-3.229,4.62-3.398,7.358c0.423,1.771,2.407,2.34,4.018,2.382c4.551-0.475,8.443-5.154,7.722-9.773
		C650.302,707.009,647.013,705.991,644.596,707.983 M746.988,717.427c-0.349,1.313-0.679,2.628-1,3.959
		c1.347,0.136,2.721,0.363,4.094,0.348C752.107,719.639,748.784,717.851,746.988,717.427 M648.996,722.59
		c-5.095,3.263-1.433,11.545,3.984,11.79c4.306,0.34,7.781-4.839,5.892-8.688C656.981,722.445,652.396,720.944,648.996,722.59
		 M728.975,729.074c1.407,1.084,2.763,2.315,4.45,2.983c2.195-0.466,3.552-2.44,5.112-3.891c-1.441-1.789-2.899-3.561-4.357-5.324
		C731.653,724.166,730.102,726.54,728.975,729.074 M631.712,728.312c-0.661,2.543-0.915,5.992,1.839,7.425
		c2.222,1.458,4.392-1.034,5.689-2.637c1.94-2.17,0.221-5.068-0.509-7.365C636.341,726.446,633.992,727.31,631.712,728.312
		 M686.015,728.463c0.746,1.543,1.602,4.52,3.873,3.569c0.891-1.11,1.001-2.611,1.441-3.899
		C689.575,727.149,687.734,727.785,686.015,728.463 M760.822,727.582c-5.799,1.56-6.053,10.867-0.288,12.589
		c3.56-0.357,6.018-3.705,7.001-6.894C767.977,729.633,764.238,726.734,760.822,727.582 M624.862,736.22
		c0.501,1.322,0.823,2.764,1.695,3.925c0.968,0.406,2.035,0.093,3.061,0.152c-0.16-1.788-0.313-3.577-0.467-5.349
		c-0.636-0.085-1.89-0.246-2.517-0.331C626.193,735.016,625.304,735.813,624.862,736.22 M637.908,738.246
		c-0.024,1.356-0.524,2.797-0.051,4.137c0.788,1.118,2.221,1.524,3.322,2.28c0.636-1.449,1.493-2.874,1.562-4.492
		C641.748,738.423,639.612,738.534,637.908,738.246 M743.877,741.204c-0.628,2.161,0.754,3.704,2.424,4.849
		c0.297-1.627,0.518-3.272,0.763-4.908C745.988,741.162,744.928,741.179,743.877,741.204 M723.059,746.002
		c1.194,0.44,2.339,1.186,3.644,1.279c2.321-0.185,3.916-2.068,5.391-3.669c-0.364-0.594-1.084-1.781-1.449-2.375
		c-1.56,0.085-3.188-0.118-4.679,0.407C724.574,742.748,723.965,744.52,723.059,746.002 M649.785,726.573
		c1.627-0.619,3.594-2.001,5.067-0.305c0.578,1.652,0.349,3.466,0.468,5.203c-1.314,0.011-2.628,0.026-3.925,0.052
		C650.852,729.87,650.31,728.218,649.785,726.573 M633.127,732.243c0.594-1.093,0.695-2.771,2.06-3.203
		c1.34-0.864,3.238,1.035,2.551,2.416c-0.287,1.178-1.626,1.61-2.406,2.407C634.78,733.465,633.679,732.651,633.127,732.243
		 M759.465,734.135c0.357-1.95,1.501-3.603,2.434-5.308c0.873,1.154,1.746,2.315,2.628,3.484c-0.737,1.874-1.518,3.738-2.357,5.578
		C761.152,736.754,759.551,735.813,759.465,734.135L759.465,734.135z"/>
	<path fill="#E3CC56" d="M644.063,713.892c1.398-1.873,3.229-3.348,5.408-4.229c-0.33,1.398-0.661,2.806-0.983,4.205
		C647.004,713.875,645.521,713.883,644.063,713.892L644.063,713.892z"/>
	<path fill="#11120B" d="M644.859,808.841c6.265-0.306,12.536-0.162,18.802,0.136C657.474,809.815,651.014,809.935,644.859,808.841
		L644.859,808.841z"/>
</g>
</svg>
