<svg xmlns="http://www.w3.org/2000/svg" width="610.5" height="268.125"><path fill="#F5F5F5" d="M535.69 137.036v122.881h34.502V137.343l-.833-.307z"/><path fill="#FFF" d="M539.8 150.764h9.592v1.985H539.8zM557.33 150.764h9.262v1.985h-9.262zM539.8 155.725h9.592v2.977H539.8zM557.33 166.641h9.262v2.977h-9.262zM539.8 166.641h9.592v2.977H539.8zM557.33 172.594h9.262v1.985h-9.262zM557.33 177.556h9.262v2.977h-9.262zM539.8 188.471h9.592v2.977H539.8zM557.33 188.471h9.262v2.977h-9.262zM539.8 199.387h9.592v2.977H539.8zM557.33 199.387h9.262v2.977h-9.262zM557.33 205.34h9.262v1.985h-9.262zM539.8 210.302h9.592v2.977H539.8zM539.8 221.217h9.592v2.977H539.8zM557.33 221.217h9.262v2.977h-9.262zM539.8 227.171h9.592v1.985H539.8zM557.33 232.133h9.262v2.977h-9.262zM539.8 243.048h9.592v2.977H539.8zM557.33 243.048h9.262v2.977h-9.262zM539.8 249.002h9.592v1.985H539.8zM229.5 159.75h4v17h-4zM237.5 159.75h4v17h-4zM245.5 159.75h4v17h-4zM253.5 159.75h4v17h-4z"/><g><path fill="#F5F5F5" d="M334.689 195.748h24.502v64.004h-24.502z"/><path fill="#FFF" d="M345.5 214.75h3v10h-3zM349.5 214.75h3v10h-3zM354.5 214.75h3v10h-3zM341.5 204.75h2v9h-2zM345.5 204.75h3v9h-3zM349.5 204.75h3v9h-3zM341.5 226.75h2v8h-2zM349.5 226.75h3v8h-3zM354.5 226.75h3v8h-3zM341.5 236.75h2v11h-2zM345.5 236.75h3v11h-3zM354.5 236.75h3v11h-3z"/></g><g><path fill="#F5F5F5" d="M280.12 129.76h48.623v129.992H280.12z"/><path fill="#FFF" d="M284.5 145.75h7v7h-7zM295.5 145.75h6v7h-6zM295.5 155.75h6v7h-6zM284.5 165.75h7v7h-7zM295.5 165.75h6v7h-6zM284.5 175.75h7v7h-7zM295.5 175.75h6v7h-6zM295.5 185.75h6v7h-6zM284.5 195.75h7v6h-7zM295.5 195.75h6v6h-6zM284.5 204.75h7v7h-7zM295.5 204.75h6v7h-6zM284.5 214.75h7v7h-7zM295.5 214.75h6v7h-6zM295.5 224.75h6v7h-6zM284.5 234.75h7v7h-7zM295.5 234.75h6v7h-6zM295.5 244.75h6v7h-6zM316.5 145.75h6v7h-6zM305.5 155.75h7v7h-7zM316.5 155.75h6v7h-6zM316.5 165.75h6v7h-6zM305.5 175.75h7v7h-7zM316.5 175.75h6v7h-6zM305.5 185.75h7v7h-7zM305.5 195.75h7v6h-7zM316.5 195.75h6v6h-6zM316.5 204.75h6v7h-6zM305.5 214.75h7v7h-7zM316.5 214.75h6v7h-6zM305.5 224.75h7v7h-7zM316.5 224.75h6v7h-6zM316.5 234.75h6v7h-6zM305.5 244.75h7v7h-7zM316.5 244.75h6v7h-6z"/></g><g><path fill="#F5F5F5" d="M456.5 197.75h23v62h-23z"/><path fill="#FFF" d="M458.5 200.75h18v3h-18zM458.5 206.75h18v3h-18zM458.5 212.75h18v3h-18zM458.5 218.75h18v3h-18zM458.5 225.75h18v1h-18zM458.5 231.75h18v1h-18zM458.5 237.75h18v1h-18zM458.5 243.75h18v1h-18z"/></g><g><path fill="none" d="M179.095 219.207l4.483-4.484 2.072 2.072 27.522-27.303c-.293-.6-.47-1.742-.514-1.742H173.5v4h-5.877c.121 1 .301 2.602.539 3.991l6.14-1.762 2.311 8.568-6.176 1.626a49.612 49.612 0 0 0 1.631 3.921l5.499-3.183 4.465 7.731-5.512 3.18a50.43 50.43 0 0 0 2.575 3.385zM189.893 152.275l-2.601 2.6 27.536 27.719c.555-.361 1.671-.623 1.671-.754v-39.09h-3v-6.038c-1 .117-2.77.297-4.223.541l1.62 5.684-8.578 2.311-1.514-5.74a49.648 49.648 0 0 0-3.927 1.619l2.944 5.089-7.732 4.464-2.956-5.124a50.47 50.47 0 0 0-3.393 2.567l4.153 4.152zM168.243 178.202c-.258 1.431-.461 2.548-.595 4.548h5.852v3h39.417c.163-1 .378-1.155.667-1.565l-27.695-27.801-2.312 2.258-4.179-4.207a50.85 50.85 0 0 0-2.61 3.345l5.076 2.925-4.466 7.731-5.139-2.969a50.252 50.252 0 0 0-1.66 3.922l5.689 1.525-2.313 8.726-5.732-1.438zM213.5 237.253v-6.503h3v-38.625c0-.184-1.611-.634-2.302-1.253l-27.236 27.326 2.885 2.84-4.477 4.499a50.728 50.728 0 0 0 3.377 2.601l3.173-5.486 7.738 4.465-3.19 5.528a50.091 50.091 0 0 0 3.927 1.654l1.648-6.149 8.628 2.311-1.847 6.167c1.599.288 3.676.495 4.676.625zM220.703 191.267c-.597.421-1.203.719-2.203.861v38.623h4v6.428c2-.133 2.861-.331 4.188-.571l-1.542-6.052 8.666-2.312 1.63 6.009a50.112 50.112 0 0 0 3.933-1.66l-3.127-5.426 7.735-4.466 3.098 5.363a50.497 50.497 0 0 0 3.358-2.61l-4.413-4.414 2.224-2.312-27.547-27.461zM222.5 136.787v5.963h-4v39.088c1 .088 1.073.247 1.485.449l28.026-27.939-2.029-2.073 4.088-4.066a50.572 50.572 0 0 0-3.374-2.576l-2.883 5.002-7.732-4.465 2.881-4.99a49.89 49.89 0 0 0-3.934-1.63l-1.502 5.607-8.627-2.311 1.333-5.571c-1.179-.201-1.732-.371-3.732-.488zM262.5 187.75h-39.421c-.059 0-.343 1.574-.822 2.309l27.485 27.375 2.6-2.656 4.384 4.358a50.82 50.82 0 0 0 2.567-3.407l-5.411-3.13 4.464-7.739 5.376 3.103a50.113 50.113 0 0 0 1.619-3.941l-6.059-1.624 2.31-8.628 6.004 1.843c.227-1.348.399-2.863.516-3.863H262.5v-4zM256.424 154.508l-4.084 4.083-2.839-2.839-27.743 27.954c.472.526.833 1.044 1.063 2.044H262.5v-3h5.589c-.13-2-.325-3.031-.572-4.42l-5.599 1.4-2.311-8.676 5.58-1.52a50.334 50.334 0 0 0-1.654-3.938l-5.018 2.89-4.465-7.737 4.975-2.874a50.875 50.875 0 0 0-2.601-3.367z"/><path fill="#F5F5F5" d="M228.5 246.898c28-3.425 48.605-26.754 48.605-54.954 0-30.549-24.786-55.403-55.336-55.403-30.549 0-55.559 24.854-55.559 55.403 0 28.191 21.29 51.516 48.29 54.951v9.855h-34v3h82v-3h-34v-9.852zm-22.488-13.784l-1.647 6.149a50.07 50.07 0 0 1-3.926-1.654l3.192-5.528-7.735-4.465-3.167 5.486a50.262 50.262 0 0 1-3.366-2.601l4.5-4.499-2.84-2.84 27.16-27.326c.691.619 2.317 1.069 2.317 1.253v38.663h-3v6.464c-1-.13-3.093-.337-4.692-.622l1.742-6.167-8.538-2.313zm-24.477-23.249l-5.499 3.176a50.303 50.303 0 0 1-1.631-3.935l6.176-1.655-2.311-8.626-6.14 1.398c-.238-1.39-.418-2.472-.539-4.472h5.908v-3h39.128c.044 0 .221 1.123.514 1.723l-27.522 27.403-2.072-2.131-4.483 4.454a51.109 51.109 0 0 1-2.576-3.402l5.512-3.19-4.465-7.743zm-6.967-35.516a50.054 50.054 0 0 1 1.66-3.923l5.139 2.967 4.466-7.734-5.076-2.931a51.363 51.363 0 0 1 2.61-3.358l4.179 4.18 2.312-2.311 27.695 27.925c-.289.411-.504.585-.667 1.585H177.5v-3h-5.883c.134-2 .337-3.136.595-4.567l5.732 1.428 2.313-8.681-5.689-1.58zm21.495-18.705l7.735-4.464-2.938-5.089a49.689 49.689 0 0 1 3.939-1.619l1.538 5.74 8.626-2.311-1.701-5.684c1.452-.244 3.238-.424 4.238-.541v6.076h3v39.052c0 .131-1.132.392-1.687.754l-27.635-27.719 2.643-2.6-4.13-4.15a50.68 50.68 0 0 1 3.404-2.567l2.968 5.122zm41.433-5.525l1.502-5.607a49.89 49.89 0 0 1 3.934 1.63l-2.88 4.99 7.735 4.465 2.888-5.002a50.782 50.782 0 0 1 3.385 2.576l-4.066 4.066 2.073 2.073-28.098 27.939c-.412-.202-.469-.361-1.469-.449v-39.05h4v-6.001c2 .117 2.538.287 3.717.488l-1.42 5.571 8.699 2.311zm24.988 23.322l5.018-2.896a49.91 49.91 0 0 1 1.654 3.926l-5.58 1.495 2.311 8.626 5.599-1.282c.247 1.39.442 2.44.572 4.44H265.5v3h-38.71c-.23-1-.59-1.537-1.063-2.063l27.743-27.859 2.839 2.782 4.084-4.111a50.221 50.221 0 0 1 2.6 3.351l-4.975 2.865 4.466 7.726zm-8.074 56.974a50.497 50.497 0 0 1-3.358 2.61l-3.097-5.363-7.733 4.466 3.132 5.426a50.054 50.054 0 0 1-3.923 1.66l-1.61-6.009-8.626 2.312 1.477 6.052c-1.327.24-2.172.438-4.172.571v-6.39h-4v-38.661c1-.141 1.59-.44 2.187-.861l27.541 27.461-2.271 2.312 4.453 4.414zm20.09-34.665h-2.417c-.117 2-.289 2.996-.516 4.344l-6.004-1.486-2.31 8.689 6.059 1.654a50.446 50.446 0 0 1-1.619 3.956l-5.376-3.097-4.464 7.74 5.411 3.125a50.507 50.507 0 0 1-2.567 3.395l-4.384-4.385-2.6 2.601-27.485-27.246c.479-.735.763-2.29.822-2.29h38.45v3h9v-8.437 8.437z"/></g><g><path fill="#F5F5F5" d="M139.5 222.75h33v37h-33z"/><path fill="#FFF" d="M143.5 227.75h4v9h-4zM157.5 227.75h4v9h-4zM164.5 227.75h4v9h-4zM143.5 239.75h4v9h-4zM150.5 239.75h4v9h-4zM164.5 239.75h4v9h-4z"/></g><g><path fill="#F5F5F5" d="M128.5 47.75v-16h-13v16h-45v212h64v-212h-6zm-38 189h-14v-17h14v17zm0-24h-14v-16h14v16zm0-22h-14v-16h14v16zm0-23h-14v-17h14v17zm0-24h-14v-16h14v16zm0-47h-14v-16h14v16zm0-23h-14v-15h14v15zm20 163h-15v-17h15v17zm0-24h-15v-16h15v16zm0-45h-15v-17h15v17zm0-24h-15v-16h15v16zm0-23h-15v-16h15v16zm0-24h-15v-16h15v16zm0-23h-15v-15h15v15zm20 139h-15v-16h15v16zm0-22h-15v-16h15v16zm0-23h-15v-17h15v17zm0-47h-15v-16h15v16zm0-24h-15v-16h15v16z"/><path fill="#FFF" d="M76.5 58.75h14v15h-14zM95.5 58.75h15v15h-15zM76.5 80.75h14v16h-14zM115.5 80.75h15v16h-15zM95.5 80.75h15v16h-15zM115.5 104.75h15v16h-15zM95.5 104.75h15v16h-15zM76.5 127.75h14v16h-14zM95.5 127.75h15v16h-15zM76.5 150.75h14v17h-14zM115.5 150.75h15v17h-15zM95.5 150.75h15v17h-15zM76.5 174.75h14v16h-14zM115.5 174.75h15v16h-15zM76.5 196.75h14v16h-14zM115.5 196.75h15v16h-15zM95.5 196.75h15v16h-15zM76.5 219.75h14v17h-14zM95.5 219.75h15v17h-15z"/></g><g><path fill="#F5F5F5" d="M442.5 141.75v-87h-10v-23h-18v-30h-14v30h-18v23h-9v87h-10v118h89v-118h-10zm-32-75v30h-8v-30h8zm15 30h-7v-30h7v30zm0 13v32h-7v-32h7zm-23 0h8v32h-8v-32zm-7-13h-8v-30h8v30zm-8 13h8v32h-8v-32zm-14 93v-40h8v40h-8zm14 0v-40h8v40h-8zm15 0v-40h8v40h-8zm16 0v-40h7v40h-7zm15 0v-40h8v40h-8z"/></g><g><path fill="#F5F5F5" d="M530.464 259.751v-76.738c0-33.866-45.976-56.231-45.976-56.231v132.969h45.976z"/><path fill="#FFF" d="M491.5 209.75h5v19h-5zM500.5 209.75h5v19h-5zM517.5 209.75h5v19h-5zM491.5 184.75h5v18h-5zM508.5 184.75h5v18h-5zM517.5 184.75h5v18h-5zM491.5 158.75h5v19h-5zM500.5 158.75h5v19h-5z"/></g><path fill-rule="evenodd" clip-rule="evenodd" fill="#E5F1F1" d="M264.901 28.177c1.539 0 2.935.627 3.951 1.641a5.553 5.553 0 0 1 1.642 3.95 5.58 5.58 0 0 1-1.639 3.949l-.005.005a5.576 5.576 0 0 1-7.897 0l-.004-.005a5.576 5.576 0 0 1-1.639-3.949c0-1.543.627-2.941 1.639-3.953l.098-.09a5.565 5.565 0 0 1 3.854-1.548zm1.75 3.835a2.47 2.47 0 0 0-1.75-.718c-.656 0-1.251.252-1.689.661l-.061.064a2.47 2.47 0 0 0-.725 1.749c0 .688.274 1.307.718 1.75l.007.006c.443.443 1.063.72 1.749.72.688 0 1.307-.276 1.75-.72l.006-.006a2.466 2.466 0 0 0 .719-1.75c0-.682-.277-1.302-.725-1.749v-.007z"/><path fill-rule="evenodd" clip-rule="evenodd" fill="#FEE4DD" d="M344.901 58.177c1.539 0 2.935.627 3.951 1.641a5.578 5.578 0 0 1 .003 7.899l-.005.005a5.576 5.576 0 0 1-7.897 0l-.004-.005a5.576 5.576 0 0 1-1.639-3.949c0-1.543.627-2.941 1.639-3.953l.098-.09a5.565 5.565 0 0 1 3.854-1.548zm1.75 3.835a2.47 2.47 0 0 0-1.75-.718c-.656 0-1.251.252-1.689.661l-.061.063a2.47 2.47 0 0 0-.725 1.749c0 .688.274 1.307.718 1.75l.007.006c.443.443 1.063.72 1.749.72.688 0 1.307-.276 1.75-.72l.006-.006a2.466 2.466 0 0 0 .719-1.75c0-.682-.277-1.302-.725-1.749v-.006z"/><path fill-rule="evenodd" clip-rule="evenodd" fill="#DDFEDF" d="M263.55 67.537a1.559 1.559 0 0 1 3.117 0v13.04a1.558 1.558 0 1 1-3.117 0v-13.04z"/><path fill-rule="evenodd" clip-rule="evenodd" fill="#DDFEDF" d="M271.628 72.498a1.559 1.559 0 0 1 0 3.118h-13.04a1.558 1.558 0 1 1 0-3.118h13.04z"/><path fill-rule="evenodd" clip-rule="evenodd" fill="#DDFEF9" d="M368.66 39.202a1.558 1.558 0 1 1 2.204 2.203l-9.221 9.22a1.558 1.558 0 0 1-2.203-2.204l9.22-9.219z"/><path fill-rule="evenodd" clip-rule="evenodd" fill="#DDFEF9" d="M370.864 48.423a1.558 1.558 0 1 1-2.204 2.203l-9.22-9.221a1.558 1.558 0 0 1 2.203-2.203l9.221 9.221z"/><path fill-rule="evenodd" clip-rule="evenodd" fill="#FEFCDD" d="M294.745 55.817a1.56 1.56 0 0 1 0-3.118h30.651a1.558 1.558 0 1 1 0 3.118h-30.651zM288.517 52.699a1.559 1.559 0 1 1 0 3.118h-3.214a1.559 1.559 0 1 1 0-3.118h3.214z"/><path fill-rule="evenodd" clip-rule="evenodd" fill="#F5F5F5" d="M5.495 259.252h11a3.5 3.5 0 0 1 3.5 3.5v1a3.5 3.5 0 0 1-3.5 3.5h-11a3.5 3.5 0 0 1-3.5-3.5v-1a3.5 3.5 0 0 1 3.5-3.5zM28.495 259.252h31a3.5 3.5 0 0 1 3.5 3.5v1a3.5 3.5 0 0 1-3.5 3.5h-31a3.5 3.5 0 0 1-3.5-3.5v-1a3.5 3.5 0 0 1 3.5-3.5zM71.495 259.252h501a3.5 3.5 0 0 1 3.5 3.5v1a3.5 3.5 0 0 1-3.5 3.5h-501a3.5 3.5 0 0 1-3.5-3.5v-1a3.5 3.5 0 0 1 3.5-3.5zM584.495 259.252h21a3.5 3.5 0 0 1 3.5 3.5v1a3.5 3.5 0 0 1-3.5 3.5h-21a3.5 3.5 0 0 1-3.5-3.5v-1a3.5 3.5 0 0 1 3.5-3.5z"/><g><path fill-rule="evenodd" clip-rule="evenodd" fill="#3A92DC" d="M282.881 222.713c-10.175 0-18.453 8.265-18.453 18.425 0 10.159 8.278 18.425 18.453 18.425 10.175 0 18.453-8.265 18.453-18.425s-8.278-18.425-18.453-18.425zm0 26.561c-4.494 0-8.15-3.651-8.15-8.137 0-4.487 3.656-8.137 8.15-8.137s8.15 3.651 8.15 8.137c0 4.487-3.656 8.137-8.15 8.137zm64.728-26.561c-10.175 0-18.453 8.265-18.453 18.425 0 10.159 8.278 18.425 18.453 18.425s18.453-8.265 18.453-18.425c-.001-10.16-8.279-18.425-18.453-18.425zm0 26.561c-4.494 0-8.15-3.651-8.15-8.137 0-4.487 3.656-8.137 8.15-8.137s8.15 3.651 8.15 8.137c-.001 4.487-3.657 8.137-8.15 8.137zm-69.284-113.278h73.827a5.148 5.148 0 0 0 5.152-5.144 5.148 5.148 0 0 0-5.152-5.144h-73.827c-2.845 0-5.152 2.303-5.152 5.144s2.307 5.144 5.152 5.144zm69.808 16.424h-65.79c-2.845 0-5.152 2.303-5.152 5.144s2.306 5.144 5.152 5.144h65.79a5.148 5.148 0 0 0 5.152-5.144 5.148 5.148 0 0 0-5.152-5.144zm54.272-49.629a10.267 10.267 0 0 0-7.987-3.788H233.947l-3.241-15.708a10.305 10.305 0 0 0-5.989-7.361l-22.612.031a5.154 5.154 0 0 0-6.777 2.669 5.139 5.139 0 0 0 2.674 6.766l22.612-.03 24.927 120.813c.982 4.758 5.226 8.211 10.092 8.211h123.421c2.845 0 5.152-2.303 5.152-5.144s-2.306-5.144-5.152-5.144h-123.42l-3.032-14.696h127.407c4.865 0 9.11-3.453 10.091-8.211l14.41-69.836a10.234 10.234 0 0 0-2.105-8.572zm-22.397 76.334H250.479L236.07 109.29h158.348l-14.41 69.835z"/></g><g><path fill-rule="evenodd" clip-rule="evenodd" fill="#3A92DC" d="M183.34 62.135c-10.293 0-18.637 8.344-18.637 18.637s8.344 18.637 18.637 18.637 18.637-8.344 18.637-18.637-8.344-18.637-18.637-18.637zm0 26.624a7.987 7.987 0 1 1 0-15.974 7.987 7.987 0 0 1 0 15.974z"/></g></svg>