<svg width="22" height="23" viewBox="0 0 22 23" fill="none" xmlns="http://www.w3.org/2000/svg">
<path d="M10.2263 0.986183C10.1434 0.995394 9.8947 1.023 9.66443 1.05063C8.24597 1.20722 6.67092 1.74146 5.39983 2.49675C3.78794 3.46388 2.4708 4.78101 1.50366 6.3929C0.748378 7.65478 0.250994 9.11932 0.0483567 10.6575C-0.0161189 11.1918 -0.0161189 12.8036 0.0483567 13.3287C0.398367 16.009 1.58656 18.2841 3.5853 20.1447C4.6906 21.1763 6.06301 21.9776 7.55516 22.4657C8.73414 22.8618 9.67365 23 11 23C11.9856 23 12.4185 22.9631 13.2843 22.7881C16.2502 22.1802 18.9029 20.2736 20.4963 17.6025C21.2516 16.3406 21.749 14.876 21.9516 13.3378C22.0161 12.8036 22.0161 11.1917 21.9516 10.6667C21.749 9.11929 21.2516 7.65479 20.4963 6.40212C19.5292 4.79023 18.2121 3.4731 16.6002 2.50597C15.3567 1.75989 13.8646 1.25328 12.3724 1.05985C12.004 0.995377 10.4934 0.958551 10.2263 0.986183ZM11.8842 2.29409C14.3988 2.52436 16.8212 3.78624 18.4239 5.70209C20.524 8.20743 21.2332 11.4681 20.3674 14.609C20.0358 15.8156 19.4463 16.9761 18.6542 17.9893C18.5068 18.1735 18.3871 18.3209 18.3686 18.3209C18.3502 18.3209 18.2857 18.1367 18.2213 17.9064C17.8528 16.6814 17.0054 15.3642 16.0107 14.4984C15.3936 13.955 14.5369 13.43 13.7817 13.126L13.6067 13.0615L13.754 12.951C14.0211 12.7484 14.6843 12.0576 14.8409 11.8089C15.4488 10.8602 15.7159 9.82852 15.6054 8.77849C15.4488 7.20344 14.5277 5.84026 13.1277 5.1126C10.2263 3.60203 6.71698 5.50865 6.38539 8.77849C6.30249 9.62588 6.45908 10.5193 6.84593 11.2746C7.14989 11.8825 7.65648 12.5089 8.16307 12.8865C8.28281 12.9694 8.37492 13.0615 8.37492 13.0707C8.37492 13.0799 8.23676 13.1444 8.06175 13.2181C6.90119 13.6879 5.73142 14.5997 4.92087 15.6774C4.45112 16.3037 3.99979 17.1788 3.77873 17.9156C3.71426 18.1367 3.64057 18.3209 3.63136 18.3209C3.59452 18.3209 3.10634 17.6853 2.85765 17.3169C2.59054 16.9116 2.11158 15.9814 1.91815 15.484C1.58656 14.6274 1.37471 13.6418 1.30103 12.5734C1.07997 9.48774 2.4708 6.34687 4.92087 4.39418C6.89198 2.82834 9.39732 2.06382 11.8842 2.29409ZM11.9027 5.99685C13.008 6.31002 13.8738 7.17583 14.2146 8.29955C14.3619 8.81536 14.3712 9.54301 14.2422 10.0496C13.8369 11.5418 12.5382 12.5457 11 12.5457C9.4618 12.5457 8.16307 11.5418 7.7578 10.0496C7.61964 9.54301 7.62885 8.81536 7.78543 8.29955C8.16307 7.01925 9.14863 6.15342 10.5302 5.8863C10.7789 5.84946 11.5895 5.91395 11.9027 5.99685ZM11.8842 13.9826C13.2198 14.1576 14.3988 14.7471 15.4212 15.7695C16.1857 16.534 16.6739 17.3169 16.9778 18.2933C17.0883 18.6433 17.2633 19.463 17.2357 19.4815C17.2357 19.4815 17.0976 19.5828 16.9502 19.7025C15.6238 20.7341 14.0211 21.3973 12.2342 21.6552C11.7369 21.7289 10.2816 21.7289 9.77496 21.6552C7.97886 21.3973 6.38539 20.7341 5.05903 19.7025C4.90245 19.5828 4.7735 19.4815 4.7735 19.4815C4.76429 19.4815 4.79192 19.3157 4.82876 19.1222C5.22483 16.8932 6.8183 15.0326 8.97362 14.2774C9.91313 13.9273 10.8158 13.8444 11.8842 13.9826Z" fill="white"/>
</svg>
