<svg width="6" height="12" viewBox="0 0 6 12" fill="none" xmlns="http://www.w3.org/2000/svg">
<path fill-rule="evenodd" clip-rule="evenodd" d="M2.73456 11.8741C2.76939 11.914 2.81076 11.9457 2.85631 11.9673C2.90186 11.9889 2.95069 12 3 12C3.04931 12 3.09814 11.9889 3.14369 11.9673C3.18924 11.9457 3.23061 11.914 3.26544 11.8741L5.88985 8.87429C5.94242 8.81435 5.97824 8.73793 5.99276 8.6547C6.00728 8.57147 5.99986 8.48518 5.97142 8.40678C5.94299 8.32838 5.89483 8.26139 5.83306 8.21432C5.77128 8.16724 5.69866 8.14219 5.62441 8.14234H3.74983V0.857088C3.74983 0.629774 3.67083 0.411771 3.53021 0.251036C3.38959 0.0903006 3.19887 0 3 0C2.80113 0 2.61041 0.0903006 2.46979 0.251036C2.32917 0.411771 2.25017 0.629774 2.25017 0.857088V8.14234H0.375587C0.301338 8.14219 0.228722 8.16724 0.166944 8.21432C0.105166 8.26139 0.0570083 8.32838 0.0285765 8.40678C0.000144687 8.48518 -0.00728096 8.57147 0.00724088 8.6547C0.0217627 8.73793 0.057578 8.81435 0.110146 8.87429L2.73456 11.8741Z" fill="white"/>
</svg>
