<svg width="21" height="22" viewBox="0 0 21 22" fill="none" xmlns="http://www.w3.org/2000/svg">
<path d="M12.454 3.9541H4.554C4.154 3.9541 3.854 4.2541 3.854 4.6541C3.854 5.0541 4.154 5.3541 4.554 5.3541H12.454C12.854 5.3541 13.154 5.0541 13.154 4.6541C13.054 4.2541 12.754 3.9541 12.454 3.9541Z" fill="white"/>
<path d="M9.754 6.59082H4.554C4.154 6.59082 3.854 6.89082 3.854 7.29082C3.854 7.69082 4.154 7.99081 4.554 7.99081H9.754C10.154 7.99081 10.454 7.69082 10.454 7.29082C10.454 6.89082 10.154 6.59082 9.754 6.59082Z" fill="white"/>
<path d="M14.4 0H2.6C1.2 0 0 1.20001 0 2.60001V15.7C0 16 0.100002 16.2 0.400002 16.3C0.500002 16.3 0.600005 16.4 0.700005 16.4C0.900005 16.4 0.999998 16.3 1.1 16.2L4.9 13.1H14.5C15.9 13.1 17.1 11.9 17.1 10.5V2.60001C17 1.20001 15.8 0 14.4 0ZM15.7 10.5C15.7 11.2 15.1 11.8 14.4 11.8H4.6C4.4 11.8 4.3 11.9 4.2 12L1.3 14.4V2.7C1.3 2 1.9 1.39999 2.6 1.39999H14.4C15.1 1.39999 15.7 2 15.7 2.7V10.5Z" fill="white"/>
<path d="M18.273 5.27295C17.873 5.27295 17.573 5.57295 17.573 5.97295C17.573 6.37295 17.873 6.67294 18.273 6.67294C18.973 6.67294 19.573 7.27295 19.573 7.97295V19.073L17.373 17.2729C17.273 17.1729 17.073 17.1729 16.973 17.1729H7.77299C7.07299 17.1729 6.47301 16.5729 6.47301 15.8729V15.1729C6.47301 14.7729 6.17299 14.4729 5.77299 14.4729C5.37299 14.4729 5.073 14.7729 5.073 15.1729V15.8729C5.073 17.2729 6.273 18.4729 7.673 18.4729H16.673L19.773 20.9729C20.073 21.1729 20.473 21.1729 20.673 20.8729C20.773 20.7729 20.773 20.5729 20.773 20.4729V7.97295C20.973 6.47295 19.773 5.27295 18.273 5.27295Z" fill="white"/>
</svg>
