<svg width="25" height="31" viewBox="0 0 25 31" fill="none" xmlns="http://www.w3.org/2000/svg">
<path d="M5.39068 31H19.5703C22.5779 31 25 28.5976 25 25.6524V10.9662C25 9.99748 24.6093 9.06741 23.9063 8.36998L16.5625 1.085C15.8595 0.387638 14.9219 0 13.9453 0H5.39068C2.42201 0 0 2.40243 0 5.34756V25.6138C0 28.5976 2.42208 31 5.39068 31ZM16.0156 2.71256L22.2658 8.91269H19.7269C17.6955 8.91269 16.016 7.28519 16.016 5.23151L16.0156 2.71256ZM1.56257 5.3477C1.56257 3.25534 3.28138 1.55027 5.39061 1.55027H13.9453C14.1406 1.55027 14.2968 1.58893 14.4532 1.62785V5.27041C14.4532 8.13777 16.836 10.4626 19.7265 10.4626H23.3591C23.3981 10.6174 23.4373 10.7726 23.4373 10.9664V25.6526C23.4373 27.745 21.7185 29.45 19.6093 29.45L5.39056 29.4503C3.28133 29.4503 1.56252 27.7452 1.56252 25.6529L1.56257 5.3477Z" fill="white"/>
</svg>
