<svg width="26" height="26" viewBox="0 0 26 26" fill="none" xmlns="http://www.w3.org/2000/svg">
<g id="Group 35156">
<circle id="Ellipse 4" cx="13" cy="13" r="13" fill="#48A9EB"/>
<g id="Group">
<path id="Vector" d="M18.7678 8.47303C18.304 8.68055 17.8594 8.93395 17.4351 9.21655C16.5816 9.77806 15.8014 10.4467 15.0696 11.1597C14.338 11.8745 13.657 12.6395 13.013 13.4348C12.852 13.6337 12.1309 14.5193 12.1309 14.5193L9.98127 11.6989L8 13.1635L10.1948 15.7513L12.0554 18C12.4492 17.2027 12.8281 16.4157 13.1999 15.7319C13.2923 15.558 13.389 15.3943 13.4815 15.2281C13.4815 15.2281 13.9574 14.3915 14.0825 14.1808C14.583 13.3379 15.124 12.5169 15.7196 11.7369C16.316 10.9583 16.9643 10.2151 17.6993 9.56166C18.065 9.23281 18.4542 8.92875 18.8713 8.66415C19.2875 8.39902 19.7298 8.16686 20.2028 8C19.7107 8.09681 19.2306 8.26494 18.7678 8.47303Z" fill="white"/>
</g>
</g>
</svg>
