<svg width="21" height="22" viewBox="0 0 21 22" fill="none" xmlns="http://www.w3.org/2000/svg">
<path d="M20.3738 3.65712C20.1215 3.35432 19.8056 3.11079 19.4486 2.94383C19.0916 2.77686 18.7021 2.69055 18.308 2.69103H3.80512L3.76745 2.37618C3.69035 1.72174 3.3758 1.11833 2.88343 0.680363C2.39107 0.242393 1.75512 0.000306593 1.09615 0L0.897012 0C0.659109 0 0.430951 0.0945063 0.262729 0.262729C0.0945063 0.430951 0 0.659109 0 0.897012C0 1.13491 0.0945063 1.36307 0.262729 1.53129C0.430951 1.69952 0.659109 1.79402 0.897012 1.79402H1.09615C1.31586 1.79405 1.52791 1.87471 1.6921 2.02071C1.85628 2.16671 1.96117 2.36789 1.98688 2.58608L3.22117 13.0811C3.34931 14.1726 3.87372 15.179 4.69488 15.9094C5.51603 16.6398 6.57676 17.0432 7.67573 17.0432H17.0432C17.2811 17.0432 17.5093 16.9487 17.6775 16.7805C17.8457 16.6123 17.9402 16.3841 17.9402 16.1462C17.9402 15.9083 17.8457 15.6801 17.6775 15.5119C17.5093 15.3437 17.2811 15.2492 17.0432 15.2492H7.67573C7.12053 15.2476 6.5794 15.0744 6.12653 14.7532C5.67366 14.432 5.33122 13.9786 5.14615 13.4552H15.8385C16.8901 13.4552 17.9082 13.0858 18.7151 12.4114C19.5219 11.7371 20.0662 10.8006 20.2527 9.76577L20.9569 5.86018C21.0272 5.47267 21.0114 5.07445 20.9106 4.69374C20.8099 4.31302 20.6266 3.95912 20.3738 3.65712ZM19.196 5.54174L18.491 9.44733C18.379 10.069 18.0519 10.6314 17.5669 11.0361C17.082 11.4408 16.4702 11.6621 15.8385 11.6612H4.86091L4.01682 4.48506H18.308C18.4398 4.48427 18.5701 4.51253 18.6897 4.56781C18.8093 4.6231 18.9153 4.70406 19.0001 4.80494C19.0849 4.90582 19.1464 5.02414 19.1802 5.15148C19.2141 5.27883 19.2195 5.41207 19.196 5.54174Z" fill="white"/>
<path d="M6.27937 21.5295C7.27019 21.5295 8.0734 20.7262 8.0734 19.7354C8.0734 18.7446 7.27019 17.9414 6.27937 17.9414C5.28856 17.9414 4.48535 18.7446 4.48535 19.7354C4.48535 20.7262 5.28856 21.5295 6.27937 21.5295Z" fill="white"/>
<path d="M15.2492 21.5295C16.24 21.5295 17.0432 20.7262 17.0432 19.7354C17.0432 18.7446 16.24 17.9414 15.2492 17.9414C14.2584 17.9414 13.4551 18.7446 13.4551 19.7354C13.4551 20.7262 14.2584 21.5295 15.2492 21.5295Z" fill="white"/>
</svg>
