<svg width="61" height="56" viewBox="0 0 61 56" fill="none" xmlns="http://www.w3.org/2000/svg">
<path d="M43.9 31.6999V54.1999C43.9 55.1999 43.1 55.9999 42 55.9999H18.3C17.2 55.9999 16.4 55.1999 16.4 54.1999V31.6999C16.4 30.6999 17.2 29.8999 18.3 29.8999H42C43.2 29.8999 43.9 30.6999 43.9 31.6999Z" fill="#309EE8"/>
<path d="M40.9 31.6001V54.2001C40.9 55.2001 40 56 38.9 56H18.3C17.2 56 16.3 55.2001 16.3 54.2001V31.6001C16.3 30.6001 17.2 29.8 18.3 29.8H38.9C40 29.8 40.9 30.6001 40.9 31.6001Z" fill="#8CC9F2"/>
<path d="M30.9 29.8V56H29.3H27.8V29.8H30.9Z" fill="#309EE8"/>
<path d="M41.1 43.9999H16.3V42.1999V40.3999H41.1V43.9999Z" fill="#309EE8"/>
<path d="M45.7 31.9999V40.0999C45.7 40.4999 45.6 40.8999 45.4 41.1999C45.2 41.4999 44.9 41.6999 44.6 41.6999H44.3C44 41.5999 43.8 41.3999 43.7 41.0999C43.5 40.7999 43.5 40.4999 43.5 40.0999V32.2999L38.7 19.9999C38.6 19.5999 38.5 19.1999 38.6 18.7999C38.7 18.3999 38.9 18.0999 39.2 17.8999H39.4C39.7 17.7999 39.9 17.7999 40.2 17.9999C40.5 18.1999 40.6 18.3999 40.7 18.7999L45.6 31.3999C45.7 31.5999 45.7 31.7999 45.7 31.9999Z" fill="#309EE8"/>
<path d="M45.2 31.9999V40.0999C45.2 40.3999 45.1 40.7999 45 40.9999C44.8 41.2999 44.6 41.4999 44.3 41.5999C44 41.4999 43.8 41.2999 43.6 40.9999C43.4 40.6999 43.3 40.3999 43.4 39.9999V32.1999L39.2 20.9999C39.1 20.5999 39 20.1999 39.1 19.7999C39.2 19.3999 39.4 19.0999 39.8 18.8999H40C40.4 18.9999 40.6 19.2999 40.8 19.6999L45.1 31.1999C45.2 31.5999 45.2 31.7999 45.2 31.9999Z" fill="#8CC9F2"/>
<path d="M14.7 41.7C14.9 41.7 15.1 41.7 15.3 41.6C15.5 41.5 15.7 41.4 15.8 41.3C15.9 41.2 16.1 41 16.1 40.8C16.2 40.6 16.2 40.4 16.2 40.2V32.9L21.9 20.1C22.1 19.7 22.1 19.3 22 19C21.9 18.6 21.6 18.3 21.3 18.1C21.1 18 21 18 20.8 18C20.6 18 20.4 18 20.3 18.1C20.1 18.2 20 18.3 19.8 18.4C19.7 18.5 19.6 18.7 19.5 18.9L13.5 32.1C13.5 32.3 13.5 32.5 13.5 32.7V40.3C13.5 40.7 13.6 41 13.9 41.3C14 41.4 14.4 41.6 14.7 41.7Z" fill="#309EE8"/>
<path d="M14.4 41.6C14.8 41.6 15.1 41.4 15.4 41.2C15.7 40.9 15.8 40.6 15.8 40.2L15.9 32.9L21.6 20.2C21.8 19.9 21.8 19.5 21.7 19.1C21.6 18.7 21.4 18.4 21.1 18.2C20.9 18.1 20.8 18 20.6 18C20.4 18 20.2 18 20.1 18.1C19.9 18.2 19.8 18.3 19.6 18.4C19.5 18.5 19.4 18.7 19.3 18.9L13.5 32C13.4 32.2 13.4 32.4 13.5 32.6L13.4 40.2C13.4 40.6 13.5 40.9 13.7 41.2C13.8 41.3 14.1 41.5 14.4 41.6Z" fill="#8CC9F2"/>
<path d="M60.2 0H51.1C51 0 50.9 0.0999985 50.8 0.0999985C50.7 0.199998 50.7 0.3 50.7 0.5C50.7 0.6 50.7 0.800002 50.8 0.900002C50.9 1 51 1 51.1 1H55.3V5.4C55.3 5.5 55.3 5.6 55.4 5.7C55.5 5.8 55.5 5.8 55.6 5.9C55.7 5.9 55.7 5.8 55.8 5.7C55.8 5.6 55.9 5.5 55.9 5.4V1H60.2C60.3 1 60.4 0.900002 60.5 0.900002C60.6 0.800002 60.6 0.699998 60.6 0.599998C60.6 0.499998 60.6 0.399995 60.5 0.299995C60.3 0.0999954 60.3 0 60.2 0Z" fill="#5EB3ED"/>
<path d="M58.1 6.49995V9.99995H53.1V6.49995C53.1 5.99995 53.2 5.59995 53.5 5.19995C53.8 4.89995 54.1 4.69995 54.5 4.69995H56.9C57.2 4.79995 57.5 4.99995 57.8 5.29995C58 5.59995 58.1 6.09995 58.1 6.49995Z" fill="#309EE8"/>
<path d="M57.4 6.49995V9.99995H53.2V6.49995C53.2 5.99995 53.3 5.59995 53.6 5.19995C53.9 4.89995 54.2 4.69995 54.6 4.69995H56.2C56.5 4.79995 56.8 4.99995 57.1 5.29995C57.2 5.59995 57.4 6.09995 57.4 6.49995Z" fill="#8CC9F2"/>
<path d="M9.8 0H0.400001C0.300001 0 0.2 0.0999985 0.1 0.0999985C3.7998e-07 0.199998 0 0.300002 0 0.400002C0 0.500002 3.7998e-07 0.599997 0.1 0.699997C0.3 0.899997 0.300001 1 0.400001 1H4.7V5.4C4.7 5.5 4.7 5.6 4.8 5.7C4.9 5.8 5 5.8 5.1 5.8C5.2 5.8 5.3 5.7 5.3 5.6C5.4 5.5 5.4 5.4 5.4 5.3V0.900002H9.8C9.9 0.900002 10 0.799995 10.1 0.799995C10.2 0.699995 10.2 0.6 10.2 0.5C10.2 0.4 10.2 0.299997 10.1 0.199997C10 0.0999969 9.9 0 9.8 0Z" fill="#5EB3ED"/>
<path d="M7.7 6.49995V9.99995H2.5V6.49995C2.5 6.29995 2.5 5.99995 2.6 5.79995C2.7 5.59995 2.8 5.39995 2.9 5.19995C3 4.99995 3.2 4.89995 3.3 4.79995C3.5 4.69995 3.6 4.69995 3.8 4.69995H6.3C6.5 4.69995 6.7 4.69995 6.9 4.79995C7.1 4.89995 7.2 4.99995 7.4 5.19995C7.5 5.39995 7.6 5.59995 7.7 5.79995C7.7 5.99995 7.7 6.29995 7.7 6.49995Z" fill="#309EE8"/>
<path d="M7.1 6.49995V9.99995H2.5V6.49995C2.5 6.29995 2.5 5.99995 2.6 5.79995C2.7 5.59995 2.8 5.39995 2.9 5.19995C3 4.99995 3.2 4.89995 3.3 4.79995C3.5 4.69995 3.6 4.69995 3.8 4.69995H5.6C6 4.69995 6.3 4.89995 6.6 5.19995C6.9 5.59995 7.1 5.99995 7.1 6.49995Z" fill="#8CC9F2"/>
<path d="M59.7 10.2999C59.7 10.9999 59.4 11.5999 59 11.9999C58.6 12.3999 58.1 12.5999 57.6 12.5999H54.8L39.5 21.2999L36.5 15.4999H37L53.4 8.3999H57.5C57.9 8.3999 57.5 8.3999 58 8.3999C58.5 8.3999 59.3 9.2999 59.4 9.7999C59.6 9.8999 59.7 10.0999 59.7 10.2999Z" fill="#309EE8"/>
<path d="M24.1 15.4001L21.3 21.3001L6 12.6001H3.3C3 12.6001 2.8 12.6001 2.5 12.5001C2.3 12.4001 2 12.2001 1.8 12.0001C1.6 11.8001 1.4 11.5001 1.3 11.2001C1.2 10.9001 1.1 10.6001 1.1 10.2001C1.1 10.0001 1.1 9.8001 1.2 9.7001C1.4 9.2001 1.7 8.8001 2 8.5001C2.3 8.2001 2.8 8.1001 3.2 8.1001H7.8L23.4 15.3001L24.1 15.4001Z" fill="#309EE8"/>
<path d="M59.6 9.7001C59.4 10.2001 59.1 10.6001 58.8 10.9001C58.4 11.2001 58 11.3001 57.6 11.3001H54.9L39.6 20.0001L36.6 15.4001L53 8.1001H57.6C58 8.1001 58.4 8.2001 58.8 8.5001C59.1 8.8001 59.4 9.2001 59.6 9.7001Z" fill="#8CC9F2"/>
<path d="M24.2 15.5001L21.3 19.9001L6 11.2001H3.3C2.9 11.2001 2.5 11.1001 2.1 10.9001C1.8 10.6001 1.5 10.2001 1.3 9.7001C1.5 9.2001 1.8 8.8001 2.1 8.5001C2.4 8.2001 2.9 8.1001 3.3 8.1001H7.9L24.2 15.5001Z" fill="#8CC9F2"/>
<path d="M37 15.5H24.7C24.7 13.9 25.1 12.4 25.9 11.3C26.3 10.8 26.8 10.3 27.3 10C27.8 9.7 28.4 9.5 29 9.5H32.6C33.2 9.5 33.8 9.7 34.3 10C34.8 10.3 35.3 10.7 35.7 11.3C36.1 11.9 36.4 12.5 36.7 13.2C36.9 13.9 37 14.7 37 15.5Z" fill="#309EE8"/>
<path d="M36.1 15.5H23.7C23.7 13.9 24.2 12.4 25.1 11.3C25.5 10.8 26.1 10.3 26.7 10C27.3 9.7 27.9 9.5 28.6 9.5H31.1C31.8 9.5 32.4 9.6 33 9.9C33.6 10.2 34.2 10.6 34.6 11.2C35.1 11.8 35.4 12.4 35.7 13.1C36 13.9 36.1 14.7 36.1 15.5Z" fill="#8CC9F2"/>
<path d="M42.2 16.2V20.7C42.2 21.4 42.2 21.4 41.7 21.4C41.2 21.4 40.6 21.4 40 21.4H18.8C18.5 21.4 18.6 21.4 18.1 21.4C17.6 21.4 17.1 21.4 17.1 21.4C17.1 21.4 16.6 21.4 16.6 20.7V16.2C16.6 15.5 16.6 15.5 17.1 15.5C17.6 15.5 18.2 15.5 18.8 15.5H39.9C40.5 15.5 41.1 15.5 41.6 15.5C42.2 15.5 42.2 15.5 42.2 16.2Z" fill="#309EE8"/>
</svg>
