<svg width="77" height="46" viewBox="0 0 77 46" fill="none" xmlns="http://www.w3.org/2000/svg">
<path d="M26.5 24.6999C26.5 25.1999 26.3 25.5999 26 25.8999C25.7 26.1999 25.3 26.3999 24.9 26.3999H11.9C11.6 26.3999 11.2 26.2999 11 26.0999C10.7 25.8999 10.5 25.5999 10.4 25.1999C10.4 24.9999 10.4 24.8999 10.4 24.6999C10.4 24.4999 10.4 24.1999 10.5 23.9999C10.6 23.7999 10.7 23.5999 10.8 23.3999C10.9 23.1999 11.1 23.0999 11.3 22.9999C11.5 22.8999 11.7 22.8999 11.9 22.8999H24.9C25.1 22.8999 25.3 22.8999 25.5 22.9999C25.7 23.0999 25.9 23.1999 26 23.3999C26.1 23.5999 26.3 23.7999 26.3 23.9999C26.5 24.2999 26.5 24.4999 26.5 24.6999Z" fill="#309EE8"/>
<path d="M74.2 40.3H56.4V18.3H69.1C69.5 18.3 69.9 18.4 70.3 18.6C70.6 18.8 70.9 19.1 71.1 19.5L76 31.7C76.1 31.9 76.1 32.2 76 32.4V38.3C76 38.8 75.8 39.3 75.5 39.6C75.1 40 74.7 40.2 74.2 40.3Z" fill="#5EB3ED"/>
<path d="M71.8 40.3H55.3V18.3H67.2C67.6 18.3 68 18.4 68.3 18.6C68.6 18.8 68.9 19.1 69 19.5L73.7 31.6C73.7 31.8 73.7 32.1 73.7 32.3V38.2C73.7 38.5 73.7 38.7001 73.6 39C73.5 39.2001 73.4 39.5 73.2 39.6C73 39.8 72.8 39.9 72.6 40C72.3 40.2001 72.1 40.3 71.8 40.3Z" fill="#8CC9F2"/>
<path d="M55.3 10.6V40.3H19.1C18.9 40.3 18.6 40.3 18.4 40.2C18.2 40.1 18 40 17.8 39.9C17.6 39.8 17.5 39.6 17.4 39.4C17.3 39.2 17.3 39 17.3 38.8V10.6C17.3 10.2 17.5 9.8 17.8 9.5C18.1 9.2 18.6 9 19.1 9H53.5C54 9 54.4 9.2 54.8 9.5C55.1 9.8 55.3 10.2 55.3 10.6Z" fill="#5EB3ED"/>
<path d="M51.8 10.6V40.3H19.1C18.9 40.3 18.6 40.3 18.4 40.2C18.2 40.1 18 40 17.8 39.9C17.6 39.8 17.5 39.6 17.4 39.4C17.3 39.2 17.3 39 17.3 38.8V10.6C17.3 10.2 17.5 9.8 17.8 9.5C18.1 9.2 18.6 9 19.1 9H50.2C50.7 9 51.1 9.2 51.4 9.5C51.6 9.9 51.8 10.2 51.8 10.6Z" fill="#8CC9F2"/>
<path d="M70.1 27.5001C70.1 27.6001 70.1 27.7001 70.1 27.9001C70.1 28.0001 70 28.1001 70 28.2001C69.9 28.3001 69.8 28.4001 69.7 28.4001C69.6 28.5001 69.5 28.5001 69.4 28.5001H60.2C60.1 28.5001 60 28.5001 59.9 28.4001C59.8 28.4001 59.7 28.3001 59.6 28.2001C59.5 28.1001 59.5 28.0001 59.4 27.9001C59.4 27.8001 59.3 27.7001 59.4 27.6001V21.5001C59.4 21.4001 59.4 21.3001 59.4 21.2001C59.4 21.1001 59.5 21.0001 59.6 20.9001C59.7 20.8001 59.8 20.8001 59.9 20.7001C60 20.7001 60.1 20.6001 60.2 20.6001H67.9C68.1 20.6001 68.2 20.7001 68.4 20.8001C68.5 20.9001 68.6 21.1001 68.7 21.2001L70.1 27.5001Z" fill="#5EB3ED"/>
<path d="M68.2 28.5001H60.2C60.1 28.5001 60 28.5001 59.9 28.4001C59.8 28.4001 59.7 28.3001 59.6 28.2001C59.5 28.1001 59.5 28.0001 59.4 27.9001C59.4 27.8001 59.3 27.7001 59.4 27.6001V21.5001C59.4 21.4001 59.4 21.3001 59.4 21.2001C59.4 21.1001 59.5 21.0001 59.6 20.9001C59.7 20.8001 59.8 20.8001 59.9 20.7001C60 20.7001 60.1 20.6001 60.2 20.6001H66.7C66.9 20.6001 67 20.7001 67.2 20.8001C67.3 20.9001 67.4 21.1001 67.5 21.2001L69 27.4001C69 27.5001 69 27.6001 69 27.8001C69 27.9001 68.9 28.0001 68.8 28.1001C68.7 28.2001 68.6 28.3001 68.5 28.3001C68.5 28.5001 68.3 28.5001 68.2 28.5001Z" fill="black"/>
<path d="M64.9 45.8999C68.2 45.8999 70.9 43.1999 70.9 39.8999C70.9 36.5999 68.2 33.8999 64.9 33.8999C61.6 33.8999 58.9 36.5999 58.9 39.8999C58.9 43.1999 61.6 45.8999 64.9 45.8999Z" fill="#5EB3ED"/>
<path d="M64.9 43.2001C66.7 43.2001 68.2 41.7001 68.2 39.9001C68.2 38.1001 66.7 36.6001 64.9 36.6001C63.1 36.6001 61.6 38.1001 61.6 39.9001C61.6 41.7001 63.1 43.2001 64.9 43.2001Z" fill="#8CC9F2"/>
<path d="M26.4 45.8999C29.7 45.8999 32.4 43.1999 32.4 39.8999C32.4 36.5999 29.7 33.8999 26.4 33.8999C23.1 33.8999 20.4 36.5999 20.4 39.8999C20.4 43.1999 23.1 45.8999 26.4 45.8999Z" fill="#5EB3ED"/>
<path d="M26.4 43.2001C28.2 43.2001 29.7 41.7001 29.7 39.9001C29.7 38.1001 28.2 36.6001 26.4 36.6001C24.6 36.6001 23.1 38.1001 23.1 39.9001C23.1 41.7001 24.6 43.2001 26.4 43.2001Z" fill="#8CC9F2"/>
<path d="M12.5 3.6L9.8 5.7L8.5 4.1V4V3.9L11 2H11.2L12.5 3.6Z" fill="#5EB3ED"/>
<path d="M11.8 1.60005C11.8 1.70005 11.8 1.80005 11.7 1.90005C11.6 2.00005 11.6 2.10005 11.5 2.20005L8.69998 4.40005C8.59998 4.50005 8.49998 4.50005 8.29998 4.50005C8.19998 4.50005 7.99998 4.50005 7.89998 4.40005C7.79998 4.40005 7.69998 4.30005 7.69998 4.20005C7.59998 4.00005 7.59998 3.90005 7.59998 3.80005C7.59998 3.70005 7.59998 3.60005 7.69998 3.50005C7.69998 3.40005 7.79998 3.30005 7.89998 3.20005L10.6 1.10005C10.7 1.00005 10.7 1.00005 10.8 0.900049C10.9 0.900049 11 0.800049 11.1 0.800049C11.2 0.800049 11.3 0.800049 11.4 0.900049C11.5 0.900049 11.6 1.00005 11.6 1.10005C11.7 1.30005 11.8 1.50005 11.8 1.60005Z" fill="#309EE8"/>
<path d="M21.1 3.6L23.9 6.6L25 4.1V4V3.9L22.4 2H22.2L21.1 3.6Z" fill="#5EB3ED"/>
<path d="M26.1 3.7999C26.1 3.9999 26 4.0999 25.9 4.2999C25.8 4.3999 25.6 4.4999 25.4 4.4999C25.2 4.4999 25 4.3999 24.9 4.2999L24.7 4.1999L22.1 2.1999C22 2.0999 21.9 1.9999 21.9 1.8999C21.8 1.7999 21.8 1.6999 21.8 1.5999C21.7 1.4999 21.7 1.2999 21.8 1.1999C21.9 1.0999 21.9 1.0999 22 0.999902C22.1 0.999902 22.2 0.899902 22.3 0.899902C22.4 0.899902 22.5 0.899902 22.6 0.999902C22.7 0.999902 22.8 1.0999 22.8 1.1999L25.4 3.1999L25.6 3.3999C25.7 3.3999 25.8 3.4999 25.9 3.5999C26 3.5999 26 3.6999 26.1 3.7999Z" fill="#309EE8"/>
<path d="M25.8 3.60005C25.8 3.80005 25.8 3.90005 25.8 4.10005C25.7 4.20005 25.5 4.30005 25.3 4.30005C25.1 4.30005 24.9 4.20005 24.8 4.10005L22.2 2.10005C22.1 2.00005 22 1.90005 22 1.80005C21.9 1.70005 21.9 1.60005 21.9 1.50005C21.8 1.40005 21.8 1.20005 21.9 1.10005C22 1.00005 22 1.00005 22.1 0.900049C22.2 0.900049 22.3 0.800049 22.4 0.800049C22.5 0.800049 22.6 0.800049 22.7 0.900049C22.8 0.900049 22.9 1.00005 22.9 1.10005L25.5 3.10005C25.6 3.20005 25.7 3.30005 25.7 3.40005C25.7 3.40005 25.7 3.50005 25.8 3.60005Z" fill="#BADFF7"/>
<path d="M18.3 2.4999H15.5V0.899902H18L18.3 2.4999Z" fill="#5EB3ED"/>
<path d="M18.9 0.6C18.9 0.8 18.8 0.9 18.7 1C18.6 1.1 18.4 1.2 18.3 1.2H15.4C15.2 1.2 15.1 1.1 15 1C14.9 0.9 14.8 0.7 14.8 0.6C14.8 0.4 14.9 0.3 15 0.2C15.1 0.0999998 15.2 0 15.4 0H18.3C18.4 0 18.5 0 18.5 0C18.6 0 18.6 0.0999999 18.7 0.0999999C18.8 0.2 18.8 0.2 18.8 0.3C18.9 0.4 18.9 0.5 18.9 0.6Z" fill="#309EE8"/>
<path d="M11.6 1.8001C11.6 1.9001 11.6 2.1001 11.6 2.2001C11.6 2.3001 11.5 2.5001 11.3 2.5001L8.6 4.6001C8.5 4.7001 8.4 4.7001 8.2 4.7001C8.1 4.7001 7.9 4.7001 7.8 4.6001C7.8 4.6001 7.7 4.5001 7.6 4.4001C7.5 4.2001 7.5 4.1001 7.5 4.0001C7.5 3.9001 7.5 3.8001 7.6 3.7001C7.6 3.6001 7.7 3.5001 7.8 3.4001L10.5 1.3001C10.6 1.2001 10.8 1.1001 11 1.1001C11.2 1.1001 11.3 1.2001 11.5 1.3001C11.5 1.5001 11.6 1.6001 11.6 1.8001Z" fill="#BADFF7"/>
<path d="M18.6 0.6C18.6 0.8 18.5 0.9 18.4 1C18.3 1.1 18.1 1.2 18 1.2H15.4C15.2 1.2 15.1 1.1 15 1C14.9 0.9 14.8 0.7 14.8 0.6C14.8 0.4 14.9 0.3 15 0.2C15.1 0.0999998 15.2 0 15.4 0H18C18.1 0 18.2 0 18.2 0C18.2 0 18.3 0.0999999 18.4 0.0999999C18.5 0.2 18.5 0.2 18.5 0.3C18.6 0.4 18.6 0.5 18.6 0.6Z" fill="#BADFF7"/>
<path d="M23.9 11.2001C23.9 11.4001 23.9 11.5001 23.9 11.7001C23.8 13.2001 23.2 14.6001 22.3 15.8001L21.7 16.4001C20.5 17.5001 19 18.1001 17.4 18.2001H16.4C16.1 18.2001 15.9 18.2001 15.6 18.2001H15.3C14.1 17.9001 13 17.4001 12.1 16.6001C11.9 16.4001 11.8 16.1001 11.6 15.9001C10.6 14.7001 10 13.3001 9.90002 11.7001V10.9001C10 9.3001 10.6 7.9001 11.7 6.7001C11.9 6.5001 12.1 6.4001 12.4 6.2001C13.3 5.4001 14.4 4.8001 15.6 4.6001H16.3H17.2C17.9 4.6001 18.6 4.8001 19.2 5.1001C20 5.3001 20.7 5.7001 21.4 6.3001C21.6 6.5001 21.9 6.7001 22.1 6.9001C23.1 8.0001 23.8 9.5001 23.9 11.0001C23.9 10.9001 23.9 11.1001 23.9 11.2001Z" stroke="#5EB3ED" stroke-width="0.3"/>
<path d="M16.6 19.2001C21.184 19.2001 24.9 15.4841 24.9 10.9001C24.9 6.31613 21.184 2.6001 16.6 2.6001C12.016 2.6001 8.29999 6.31613 8.29999 10.9001C8.29999 15.4841 12.016 19.2001 16.6 19.2001Z" fill="#8CC9F2" stroke="#5EB3ED" stroke-width="0.5"/>
<path d="M12.7 13.1C12.9 13 13 12.9 12.9 12.9C13.4 12.5 13.8 12.2 14.1 11.9C14.4 11.6 14.6 11.4 14.8 11.1C15 10.8 15.1 10.5 15.1 10.3C15.1 10.1 15.1 9.9 15 9.8C14.9 9.7 14.7 9.6 14.5 9.6C14.3 9.6 14.2 9.7 14 9.8C13.9 9.9 13.8 10.1 13.8 10.4H12.5C12.5 10 12.6 9.6 12.8 9.3C13 9 13.2 8.8 13.5 8.7C13.8 8.6 14.1 8.5 14.5 8.5C15.1 8.5 15.6 8.7 15.9 9C16.2 9.3 16.4 9.7 16.4 10.2C16.4 10.7 16.2 11.2 15.8 11.7C15.4 12.2 15 12.6 14.4 13.1H16.5V14.2H12.7V13.1ZM17.1 13.2V12.2L19.5 8.8H21V12.2H21.6V13.3H21V14.3H19.7V13.3H17.1V13.2ZM19.7 10.1L18.4 12H19.7V10.1Z" fill="#309EE8"/>
<path d="M22.7 33.9C22.7 34.1 22.7 34.3 22.6 34.5C22.5 34.7 22.4 34.9 22.2 35C22 35.2 21.8 35.3 21.6 35.4C21.4 35.5 21.1 35.5 20.8 35.5H4.19999C3.79999 35.5 3.39999 35.4 2.99999 35.2C2.69999 35 2.39999 34.7 2.29999 34.4C2.29999 34.2 2.29999 34.1 2.29999 33.9C2.29999 33.5 2.49999 33.1 2.89999 32.8C3.29999 32.5 3.69999 32.3 4.19999 32.3H20.7C21.2 32.3 21.7 32.5 22.1 32.8C22.5 33 22.7 33.4 22.7 33.9Z" fill="#309EE8"/>
<path d="M20.4 33.7C20.4 33.9 20.4 34.2 20.3 34.4C20.2 34.6 20.1 34.8 19.9 35C19.7 35.2 19.5 35.3 19.2 35.4C18.9 35.5 18.7 35.5 18.4 35.5H1.9C1.5 35.5 1.1 35.4 0.7 35.2C0.4 35 0.1 34.7 0 34.4C0 34.2 0 34.1 0 33.9C0 33.5 0.2 33 0.6 32.7C1 32.4 1.5 32.2 2 32.2H18.4C18.9 32.2 19.4 32.3 19.7 32.6C20.1 32.9 20.4 33.3 20.4 33.7Z" fill="#5EB3ED"/>
<path d="M34.5 29.3C34.5 29.5 34.5 29.8 34.4 30C34.3 30.2 34.2 30.4 34 30.6C33.8 30.8 33.6 30.9 33.4 31C33.2 31.1 32.9 31.1 32.7 31.1H17.8C17.4 31.1 17.1 31 16.8 30.8C16.5 30.6 16.3 30.3 16.2 29.9C16.2 29.7 16.2 29.5 16.2 29.4C16.2 28.9 16.4 28.5 16.7 28.2C17 27.9 17.5 27.7 18 27.7H32.9C33.4 27.7 33.8 27.9 34.1 28.2C34.4 28.5 34.5 28.9 34.5 29.3Z" fill="#309EE8"/>
<path d="M32.2 29.3001C32.2 29.8001 32 30.2001 31.7 30.5001C31.4 30.8001 30.9 31.0001 30.4 31.0001H15.5C15.1 31.0001 14.8 30.9001 14.5 30.7001C14.2 30.5001 14 30.2001 13.9 29.8001C13.9 29.6001 13.9 29.4001 13.9 29.3001C13.9 28.8001 14.1 28.4001 14.4 28.1001C14.7 27.8001 15.2 27.6001 15.7 27.6001H30.6C31.1 27.6001 31.5 27.8001 31.8 28.2001C32.1 28.5001 32.2 28.9001 32.2 29.3001Z" fill="#5EB3ED"/>
<path d="M24.2 24.7C24.2 25.2 24 25.6 23.7 25.9C23.4 26.2 23 26.4 22.6 26.4H9.59998C9.29998 26.4 8.89998 26.3 8.69998 26.1C8.39998 25.9 8.19998 25.6 8.09998 25.2C8.09998 25 8.09998 24.9 8.09998 24.7C8.09998 24.2 8.29998 23.8 8.59998 23.5C8.89998 23.2 9.29998 23 9.69998 23H22.7C22.9 23 23.1 23 23.3 23.1C23.5 23.2 23.7 23.3 23.8 23.5C23.9 23.7 24.1 23.9 24.1 24.1C24.1 24.3 24.2 24.5 24.2 24.7Z" fill="#5EB3ED"/>
</svg>
