<svg width="27" height="17" viewBox="0 0 27 17" fill="none" xmlns="http://www.w3.org/2000/svg">
<path d="M25.5 8.81287L21.4 4.31287C21.2 4.11287 21 4.01287 20.7 4.01287H17.1C17.1 4.01287 17.1 4.01287 17 4.01287V1.91288C17 1.41288 16.6 0.912871 16 1.01287H2C1.5 1.01287 1 1.41288 1 1.91288V13.6129C1 14.1129 1.4 14.6129 2 14.5129H3.6C3.7 15.7129 4.8 16.6129 6 16.5129C7.1 16.4129 8 15.6129 8.1 14.5129H18.1C18.2 15.7129 19.3 16.6129 20.5 16.5129C21.6 16.4129 22.5 15.6129 22.6 14.5129H24.8C25.3 14.5129 25.8 14.1129 25.8 13.6129V9.51287C25.7 9.21287 25.6 9.01287 25.5 8.81287ZM24 8.61288H20.6C20.6 8.61288 20.5 8.61287 20.5 8.51287V7.01287C20.5 7.01287 20.5 6.91288 20.6 6.91288H22.5L24 8.61288ZM5.9 15.6129C5.2 15.6129 4.5 15.0129 4.5 14.3129C4.5 13.6129 5.1 13.0129 5.9 13.0129C6.7 13.0129 7.3 13.6129 7.3 14.3129C7.2 15.0129 6.6 15.6129 5.9 15.6129ZM16 13.6129H8C7.6 12.4129 6.4 11.8129 5.2 12.2129C4.5 12.4129 4 12.9129 3.8 13.6129H2C2 13.6129 1.9 13.6129 1.9 13.5129V1.91288C1.9 1.91288 1.9 1.81287 2 1.81287H15.9C15.9 1.81287 16 1.81288 16 1.91288V13.6129ZM20.4 15.6129C19.7 15.6129 19 15.0129 19 14.3129C19 13.6129 19.6 13.0129 20.4 13.0129C21.2 13.0129 21.8 13.6129 21.8 14.3129C21.7 15.0129 21.1 15.6129 20.4 15.6129ZM24.8 13.6129C24.7 13.6129 24.7 13.6129 24.8 13.6129L22.5 13.7129C22.1 12.5129 20.9 11.9129 19.7 12.3129C19 12.5129 18.5 13.0129 18.3 13.7129H17V5.01287C17 5.01287 17 4.91288 17.1 4.91288H20.7L21.7 6.01287H20.6C20.1 6.01287 19.6 6.41288 19.6 6.91288V8.41288C19.6 8.91288 20 9.41287 20.6 9.31287H24.8V13.6129Z" fill="white"/>
<path d="M24.8 13.6129C24.7 13.6129 24.7 13.6129 24.8 13.6129ZM24.8 13.6129L22.5 13.7129C22.1 12.5129 20.9 11.9129 19.7 12.3129C19 12.5129 18.5 13.0129 18.3 13.7129H17V5.01287C17 5.01287 17 4.91288 17.1 4.91288H20.7L21.7 6.01287H20.6C20.1 6.01287 19.6 6.41288 19.6 6.91288V8.41288C19.6 8.91288 20 9.41287 20.6 9.31287H24.8V13.6129ZM25.5 8.81287L21.4 4.31287C21.2 4.11287 21 4.01287 20.7 4.01287H17.1C17.1 4.01287 17.1 4.01287 17 4.01287V1.91288C17 1.41288 16.6 0.912871 16 1.01287H2C1.5 1.01287 1 1.41288 1 1.91288V13.6129C1 14.1129 1.4 14.6129 2 14.5129H3.6C3.7 15.7129 4.8 16.6129 6 16.5129C7.1 16.4129 8 15.6129 8.1 14.5129H18.1C18.2 15.7129 19.3 16.6129 20.5 16.5129C21.6 16.4129 22.5 15.6129 22.6 14.5129H24.8C25.3 14.5129 25.8 14.1129 25.8 13.6129V9.51287C25.7 9.21287 25.6 9.01287 25.5 8.81287ZM24 8.61288H20.6C20.6 8.61288 20.5 8.61287 20.5 8.51287V7.01287C20.5 7.01287 20.5 6.91288 20.6 6.91288H22.5L24 8.61288ZM5.9 15.6129C5.2 15.6129 4.5 15.0129 4.5 14.3129C4.5 13.6129 5.1 13.0129 5.9 13.0129C6.7 13.0129 7.3 13.6129 7.3 14.3129C7.2 15.0129 6.6 15.6129 5.9 15.6129ZM16 13.6129H8C7.6 12.4129 6.4 11.8129 5.2 12.2129C4.5 12.4129 4 12.9129 3.8 13.6129H2C2 13.6129 1.9 13.6129 1.9 13.5129V1.91288C1.9 1.91288 1.9 1.81287 2 1.81287H15.9C15.9 1.81287 16 1.81288 16 1.91288V13.6129ZM20.4 15.6129C19.7 15.6129 19 15.0129 19 14.3129C19 13.6129 19.6 13.0129 20.4 13.0129C21.2 13.0129 21.8 13.6129 21.8 14.3129C21.7 15.0129 21.1 15.6129 20.4 15.6129Z" stroke="white" stroke-width="0.5"/>
</svg>
