<svg width="67" height="55" viewBox="0 0 67 55" fill="none" xmlns="http://www.w3.org/2000/svg">
<path d="M54.4348 19.1075C54.1792 19.1075 54.0514 19.1075 53.7957 19.1075C53.7957 18.8519 53.7957 18.4684 53.7957 18.2128C53.7957 14.2507 52.5176 10.4163 50.3448 7.34885C48.0442 4.28138 44.9767 2.23639 41.5258 1.34172C38.0749 0.574847 34.3684 1.08609 31.3009 3.00326C28.4891 4.66481 26.1885 7.34885 24.6547 10.5441H24.5269C23.3766 9.64946 22.0985 9.13821 20.6926 8.88259C18.9032 8.62696 17.1139 9.13821 15.5801 10.0329C14.0464 11.0554 12.8961 12.4613 12.1292 14.2507C11.4902 15.7844 11.2345 17.4459 11.3624 19.1075C8.55051 19.4909 5.99428 20.8969 4.07711 23.1975C2.03213 25.6259 0.881823 28.949 1.00963 32.2721C1.13745 35.5952 2.28775 38.7904 4.46054 41.2189C6.63333 43.6473 9.573 44.9254 12.6405 44.9254H54.4348C57.5023 44.9254 60.5697 43.5195 62.7425 41.0911C64.9153 38.6626 66.1934 35.3395 66.1934 31.8886C66.1934 28.4377 64.9153 25.1146 62.7425 22.6862C60.5697 20.5134 57.5023 19.1075 54.4348 19.1075Z" fill="#141204" stroke="#DF3A94"/>
<path d="M50.7283 9.13837C48.9389 7.34901 46.8939 6.19871 44.5933 5.55965C42.2927 4.92059 39.9921 4.92059 37.6915 5.43184C35.3909 5.94309 33.3459 7.2212 31.5566 8.88275C30.0228 10.2887 28.7447 12.2058 27.85 14.123C27.7222 14.5064 27.0832 14.6343 26.6997 14.3786C25.6773 13.6118 24.3991 13.1005 23.121 12.8449C21.4595 12.5893 19.9257 12.9727 18.5198 13.8674C17.1139 14.7621 15.9636 16.168 15.3245 17.7017C14.6855 19.1077 14.5577 20.6414 14.6855 22.1751C14.6855 22.5586 14.4299 22.942 14.0464 22.942C12.3849 23.1976 10.8511 23.7089 9.44521 24.7314C7.78366 25.8817 6.50555 27.4154 5.61087 29.3326C4.71619 31.2497 4.20495 33.2947 4.33276 35.4675C4.33276 37.6403 4.844 39.6853 5.86649 41.4746C4.07713 39.9409 2.79902 37.7681 2.15996 35.3397C1.52091 32.9113 1.52091 30.3551 2.28778 28.0545C2.92683 25.626 4.33276 23.5811 6.12212 22.0473C7.52804 20.897 9.44521 20.1301 11.3624 19.8745C11.7458 19.8745 12.0014 19.4911 12.0014 19.1077C11.8736 17.4461 12.1293 15.9124 12.6405 14.5064C13.2796 12.8449 14.4299 11.5668 15.8358 10.6721C17.2417 9.77743 18.9033 9.39399 20.437 9.64962C21.7151 9.77743 22.9932 10.2887 24.0157 11.1834C24.3991 11.439 24.9104 11.3112 25.166 10.9277C26.1885 8.49931 27.7222 6.45433 29.6394 4.92059C31.8122 3.13123 34.3684 2.10874 37.0525 1.85312C39.7365 1.5975 42.4205 2.10874 44.849 3.51467C47.2774 4.66497 49.3224 6.58214 50.7283 9.13837Z" fill="#F4BDDB"/>
<path d="M30.9175 53.361V39.6852H27.0832C26.5719 39.6852 26.1885 39.0462 26.5719 38.6627L34.2406 29.0769C34.4962 28.6934 35.0075 28.6934 35.2631 29.0769L42.9318 38.6627C43.3152 39.0462 42.9318 39.6852 42.4205 39.6852H38.5862V53.361C38.5862 53.7445 38.3306 54.0001 37.9471 54.0001H31.5566C31.3009 54.0001 30.9175 53.7445 30.9175 53.361Z" fill="#DF3A94" stroke="#DF3A94"/>
</svg>
