<svg width="56" height="56" viewBox="0 0 56 56" fill="none" xmlns="http://www.w3.org/2000/svg">
<path d="M24.08 36.2878H32.032C32.704 36.2878 33.376 36.6238 33.824 37.0718C34.272 37.6318 34.608 38.3038 34.608 38.9758V50.0638H21.504V38.9758C21.504 38.3038 21.728 37.5198 22.288 37.0718C22.736 36.6238 23.408 36.2878 24.08 36.2878Z" fill="#5EB3ED"/>
<path d="M42.896 50.1758H13.104C11.536 50.1758 10.304 51.5198 10.304 53.0878C10.304 54.6558 11.536 55.9998 13.104 55.9998H42.896C44.464 55.9998 45.696 54.6558 45.696 53.0878C45.696 51.4078 44.464 50.1758 42.896 50.1758Z" fill="#8CC9F2"/>
<path d="M56 4.48V37.52C56 38.528 55.664 39.424 55.104 40.208C54.544 40.992 53.76 41.552 52.864 41.776C52.528 41.888 52.08 42 51.744 42H4.256C3.92 42 3.472 41.888 3.136 41.776C2.24 41.552 1.456 40.992 0.896 40.208C0.336 39.424 0 38.528 0 37.52V4.48C0 3.248 0.448 2.128 1.232 1.344C2.016 0.448 3.136 0 4.256 0H51.856C52.192 0 52.64 0.112 52.976 0.224C53.872 0.448 54.656 1.008 55.216 1.792C55.776 2.576 56 3.472 56 4.48Z" fill="#8CC9F2"/>
<path d="M56 32.7041V37.4081C56 38.4161 55.664 39.3121 55.104 40.0961C54.544 40.8801 53.76 41.4401 52.864 41.6641C52.528 41.7761 52.08 41.8881 51.744 41.8881H4.256C3.92 41.8881 3.472 41.7761 3.136 41.6641C2.24 41.4401 1.456 40.8801 0.896 40.0961C0.336 39.3121 0 38.4161 0 37.4081V32.7041H56Z" fill="#5EB3ED"/>
<path d="M31.36 37.408H24.64C23.744 37.408 23.072 38.192 23.072 39.088C23.072 39.984 23.744 40.768 24.64 40.768H31.36C32.256 40.768 32.928 39.984 32.928 39.088C32.928 38.08 32.256 37.408 31.36 37.408Z" fill="#BADFF7"/>
<path d="M50.288 3.2478H5.71199C4.25599 3.2478 3.13599 4.4798 3.13599 6.0478V33.2638C3.13599 34.8318 4.36799 36.0638 5.82399 36.0638H50.4C51.856 36.0638 53.088 34.8318 53.088 33.2638V6.0478C52.976 4.4798 51.744 3.2478 50.288 3.2478Z" fill="black"/>
<path d="M33.152 24.8638V18.8158C33.152 18.1438 32.592 17.6958 32.032 17.6958H25.984C25.312 17.6958 24.864 18.2558 24.864 18.8158V24.8638C24.864 25.5358 25.424 25.9838 25.984 25.9838H32.032C32.592 26.0958 33.152 25.5358 33.152 24.8638Z" fill="#8CC9F2"/>
<path d="M23.296 23.4079C26.096 23.4079 28.336 21.1679 28.336 18.3679C28.336 15.5679 26.096 13.3279 23.296 13.3279C20.496 13.3279 18.256 15.5679 18.256 18.3679C18.256 21.1679 20.496 23.4079 23.296 23.4079Z" fill="#E4F4FF"/>
<path d="M20.272 16.3518C20.496 16.2398 20.72 16.2398 20.944 16.3518C21.168 16.4638 21.392 16.5758 21.504 16.6878C21.616 16.7998 21.728 17.0238 21.84 17.2478C21.952 17.4718 21.952 17.6958 21.84 17.9198L20.944 21.3918L20.048 24.8638C19.936 25.0878 19.824 25.3118 19.712 25.4238C19.6 25.5358 19.376 25.6478 19.152 25.7598C18.928 25.8718 18.704 25.8718 18.48 25.7598C18.256 25.6478 18.032 25.5358 17.92 25.4238L15.456 22.9598L12.992 20.4958C12.88 20.3838 12.768 20.1598 12.656 19.9358C12.544 19.7118 12.544 19.4878 12.656 19.2638C12.768 19.0398 12.88 18.8158 12.992 18.7038C13.104 18.5918 13.328 18.4798 13.552 18.3678L17.024 17.4718L20.272 16.3518Z" fill="#BADFF7"/>
<path d="M20.608 22.6238L20.944 21.3918L21.84 17.9198C21.952 17.6958 21.952 17.4718 21.84 17.2478C21.728 17.0238 21.616 16.7998 21.504 16.6878C21.392 16.5758 21.168 16.4638 20.944 16.3518C20.72 16.2398 20.496 16.2398 20.272 16.3518L18.368 16.7998C18.032 17.9198 18.144 19.0398 18.48 20.0478C18.928 21.1678 19.712 22.0638 20.608 22.6238Z" fill="#BADFF7"/>
<path d="M24.752 23.1838C25.872 22.8478 26.88 22.0638 27.552 21.0558C28.224 20.0478 28.448 18.8158 28.336 17.6958H25.984C25.648 17.6958 25.424 17.8078 25.2 18.0318C24.976 18.2558 24.864 18.5918 24.864 18.8158V23.1838H24.752Z" fill="#E4F4FF"/>
<path d="M41.888 17.2482L37.856 19.4882C37.744 19.4882 37.632 19.6002 37.632 19.7122C37.52 19.8242 37.52 19.9362 37.52 20.0482C37.52 20.1602 37.52 20.2722 37.632 20.3842C37.744 20.4962 37.744 20.6082 37.856 20.6082L41.888 22.8482C42 22.8482 42.112 22.9602 42.224 22.9602C42.336 22.9602 42.448 22.9602 42.56 22.8482C42.672 22.7362 42.784 22.7362 42.784 22.6242C42.784 22.5122 42.896 22.4002 42.896 22.2882V20.7202H47.936C48.048 20.7202 48.272 20.6082 48.384 20.4962C48.496 20.3842 48.608 20.2722 48.608 20.0482C48.608 19.9362 48.496 19.7122 48.384 19.6002C48.272 19.4882 48.16 19.3762 47.936 19.3762H42.896V17.6962C42.896 17.5842 42.896 17.4722 42.784 17.3602C42.784 17.2482 42.672 17.1362 42.56 17.1362C42.448 17.0242 42.336 17.0242 42.224 17.0242C42.112 17.1362 42 17.1362 41.888 17.2482Z" fill="#309EE8"/>
<path d="M31.36 29.5678H28.784C28.672 29.5678 28.56 29.5678 28.448 29.4558C28.336 29.3438 28.336 29.2318 28.336 29.1198C28.336 29.0078 28.336 28.8958 28.448 28.7838C28.56 28.6718 28.672 28.6718 28.784 28.6718H31.36C31.472 28.6718 31.584 28.6718 31.696 28.7838C31.808 28.8958 31.808 29.0078 31.808 29.1198C31.808 29.2318 31.808 29.3438 31.696 29.4558C31.584 29.4558 31.472 29.5678 31.36 29.5678ZM26.208 29.5678H23.632C23.52 29.5678 23.408 29.5678 23.296 29.4558C23.184 29.3438 23.184 29.2318 23.184 29.1198C23.184 29.0078 23.184 28.8958 23.296 28.7838C23.408 28.6718 23.52 28.6718 23.632 28.6718H26.208C26.32 28.6718 26.432 28.6718 26.544 28.7838C26.656 28.8958 26.656 29.0078 26.656 29.1198C26.656 29.2318 26.656 29.3438 26.544 29.4558C26.432 29.4558 26.32 29.5678 26.208 29.5678ZM21.056 29.5678H18.48C18.368 29.5678 18.256 29.5678 18.144 29.4558C18.032 29.3438 18.032 29.2318 18.032 29.1198C18.032 29.0078 18.032 28.8958 18.144 28.7838C18.256 28.6718 18.368 28.6718 18.48 28.6718H21.056C21.168 28.6718 21.28 28.6718 21.392 28.7838C21.504 28.8958 21.504 29.0078 21.504 29.1198C21.504 29.2318 21.504 29.3438 21.392 29.4558C21.28 29.4558 21.168 29.5678 21.056 29.5678ZM16.016 29.5678H13.44C13.328 29.5678 13.216 29.5678 13.104 29.4558C12.992 29.3438 12.992 29.2318 12.992 29.1198C12.992 29.0078 12.992 29.0078 12.992 28.8958L13.104 28.7838L13.216 28.6718C13.216 28.6718 13.328 28.6718 13.44 28.6718H16.016C16.128 28.6718 16.24 28.6718 16.352 28.7838C16.464 28.8958 16.464 29.0078 16.464 29.1198C16.464 29.2318 16.464 29.3438 16.352 29.4558C16.24 29.4558 16.128 29.5678 16.016 29.5678ZM33.936 29.5678C33.824 29.5678 33.712 29.5678 33.6 29.4558C33.488 29.3438 33.488 29.2318 33.488 29.1198C33.488 29.0078 33.488 28.8958 33.6 28.7838C33.712 28.6718 33.824 28.6718 33.936 28.5598C34.272 28.4478 34.608 28.3358 34.832 28.1118C35.056 27.8878 35.28 27.5518 35.392 27.2158C35.392 27.1038 35.504 26.9918 35.616 26.9918C35.728 26.9918 35.84 26.8798 35.952 26.9918C36.064 26.9918 36.176 27.1038 36.176 27.2158C36.176 27.3278 36.288 27.4398 36.176 27.5518C35.952 27.9998 35.728 28.4478 35.28 28.7838C34.944 29.2318 34.496 29.4558 33.936 29.5678ZM11.312 28.3358C11.2 28.3358 11.2 28.3358 11.088 28.2238C10.976 28.2238 10.976 28.1118 10.864 27.9998C10.64 27.5518 10.528 27.1038 10.528 26.5438V25.1998C10.528 25.0878 10.528 24.9758 10.64 24.8638C10.752 24.7518 10.864 24.7518 10.976 24.7518C11.088 24.7518 11.2 24.7518 11.312 24.8638C11.424 24.9758 11.424 25.0878 11.424 25.1998V26.5438C11.424 26.8798 11.536 27.2158 11.648 27.5518C11.76 27.6638 11.76 27.7758 11.648 27.8878C11.648 27.9998 11.536 28.1118 11.424 28.1118C11.424 28.3358 11.312 28.3358 11.312 28.3358ZM35.952 25.4238C35.84 25.4238 35.728 25.4238 35.616 25.3118C35.504 25.1998 35.504 25.0878 35.504 24.9758V22.3998C35.504 22.2878 35.504 22.1758 35.616 22.0638C35.728 21.9518 35.84 21.9518 35.952 21.9518C36.064 21.9518 36.176 21.9518 36.288 22.0638C36.4 22.1758 36.4 22.2878 36.4 22.3998V24.9758C36.4 25.0878 36.4 25.1998 36.288 25.3118C36.176 25.3118 36.064 25.4238 35.952 25.4238ZM10.976 23.2958C10.864 23.2958 10.752 23.2958 10.64 23.1838C10.528 23.0718 10.528 22.9598 10.528 22.8478V20.2718C10.528 20.1598 10.528 20.0478 10.64 19.9358C10.752 19.8238 10.864 19.8238 10.976 19.8238C11.088 19.8238 11.2 19.8238 11.312 19.9358C11.424 20.0478 11.424 20.1598 11.424 20.2718V22.8478C11.424 22.9598 11.424 23.0718 11.312 23.1838C11.2 23.1838 11.088 23.2958 10.976 23.2958ZM35.952 20.2718C35.84 20.2718 35.728 20.2718 35.616 20.1598C35.504 20.0478 35.504 19.9358 35.504 19.8238V17.2478C35.504 17.1358 35.504 17.0238 35.616 16.9118C35.728 16.7998 35.84 16.7998 35.952 16.7998C36.064 16.7998 36.176 16.7998 36.288 16.9118C36.4 17.0238 36.4 17.1358 36.4 17.2478V19.8238C36.4 19.9358 36.4 19.9358 36.4 20.0478L36.288 20.1598L36.176 20.2718C36.064 20.2718 35.952 20.2718 35.952 20.2718ZM10.976 18.1438C10.864 18.1438 10.752 18.1438 10.64 18.0318C10.528 17.9198 10.528 17.8078 10.528 17.6958V15.1198C10.528 15.0078 10.528 14.8958 10.64 14.7838C10.752 14.6718 10.864 14.6718 10.976 14.6718C11.088 14.6718 11.2 14.6718 11.312 14.7838C11.424 14.8958 11.424 15.0078 11.424 15.1198V17.6958C11.424 17.8078 11.424 17.9198 11.312 18.0318C11.2 18.0318 11.088 18.1438 10.976 18.1438ZM35.952 15.1198C35.84 15.1198 35.728 15.1198 35.616 15.0078C35.504 14.8958 35.504 14.7838 35.504 14.6718V13.3278C35.504 12.9918 35.392 12.6558 35.28 12.3198C35.168 12.2078 35.168 12.0958 35.28 11.9838C35.28 11.8718 35.392 11.7598 35.504 11.7598C35.616 11.6478 35.728 11.6478 35.84 11.7598C35.952 11.7598 36.064 11.8718 36.064 11.9838C36.288 12.4318 36.4 12.8798 36.4 13.4398V14.7838C36.4 14.8958 36.4 15.0078 36.288 15.1198C36.176 15.1198 36.064 15.1198 35.952 15.1198ZM11.088 12.9918H10.976C10.864 12.9918 10.752 12.8798 10.752 12.7678C10.752 12.6558 10.64 12.5438 10.752 12.4318C10.976 11.9838 11.2 11.5358 11.648 11.1998C11.984 10.8638 12.544 10.6398 12.992 10.5278C13.104 10.5278 13.216 10.5278 13.328 10.6398C13.44 10.7518 13.552 10.8638 13.552 10.9758C13.552 11.0878 13.552 11.1998 13.44 11.3118C13.328 11.4238 13.216 11.5358 13.104 11.5358C12.768 11.6478 12.432 11.7598 12.208 11.9838C11.984 12.2078 11.76 12.5438 11.648 12.8798C11.648 12.9918 11.536 12.9918 11.536 13.1038C11.312 12.9918 11.2 12.9918 11.088 12.9918ZM33.488 11.4238H30.912C30.8 11.4238 30.688 11.4238 30.576 11.3118C30.464 11.1998 30.464 11.0878 30.464 10.9758C30.464 10.8638 30.464 10.7518 30.576 10.6398C30.688 10.5278 30.8 10.5278 30.912 10.5278H33.488C33.6 10.5278 33.6 10.5278 33.712 10.5278L33.824 10.6398L33.936 10.7518C33.936 10.7518 33.936 10.8638 33.936 10.9758C33.936 11.0878 33.936 11.1998 33.824 11.3118C33.712 11.3118 33.6 11.4238 33.488 11.4238ZM28.336 11.4238H25.76C25.648 11.4238 25.536 11.4238 25.424 11.3118C25.312 11.1998 25.312 11.0878 25.312 10.9758C25.312 10.8638 25.312 10.7518 25.424 10.6398C25.536 10.5278 25.648 10.5278 25.76 10.5278H28.336C28.448 10.5278 28.56 10.5278 28.672 10.6398C28.784 10.7518 28.784 10.8638 28.784 10.9758C28.784 11.0878 28.784 11.1998 28.672 11.3118C28.56 11.3118 28.448 11.4238 28.336 11.4238ZM23.184 11.4238H20.608C20.496 11.4238 20.384 11.4238 20.272 11.3118C20.16 11.1998 20.16 11.0878 20.16 10.9758C20.16 10.8638 20.16 10.7518 20.272 10.6398C20.384 10.5278 20.496 10.5278 20.608 10.5278H23.184C23.296 10.5278 23.408 10.5278 23.52 10.6398C23.632 10.7518 23.632 10.8638 23.632 10.9758C23.632 11.0878 23.632 11.1998 23.52 11.3118C23.408 11.3118 23.296 11.4238 23.184 11.4238ZM18.032 11.4238H15.456C15.344 11.4238 15.232 11.4238 15.12 11.3118C15.008 11.1998 15.008 11.0878 15.008 10.9758C15.008 10.8638 15.008 10.7518 15.12 10.6398C15.232 10.5278 15.344 10.5278 15.456 10.5278H18.032C18.144 10.5278 18.256 10.5278 18.368 10.6398C18.48 10.7518 18.48 10.8638 18.48 10.9758C18.48 11.0878 18.48 11.1998 18.368 11.3118C18.368 11.3118 18.256 11.4238 18.032 11.4238Z" fill="#E8F4FC"/>
<path d="M36.624 8.95996H34.16C33.488 8.95996 32.928 9.51996 32.928 10.192V12.656C32.928 13.328 33.488 13.888 34.16 13.888H36.624C37.296 13.888 37.856 13.328 37.856 12.656V10.192C37.856 9.51996 37.296 8.95996 36.624 8.95996Z" fill="#309EE8"/>
<path d="M12.656 8.95996H10.304C9.63198 8.95996 9.07198 9.51996 9.07198 10.192V12.656C9.07198 13.328 9.63198 13.888 10.304 13.888H12.768C13.44 13.888 14 13.328 14 12.656V10.192C14 9.51996 13.44 8.95996 12.656 8.95996Z" fill="#309EE8"/>
<path d="M36.624 26.0957H34.16C33.488 26.0957 32.928 26.6557 32.928 27.3277V29.7917C32.928 30.4637 33.488 31.0237 34.16 31.0237H36.624C37.296 31.0237 37.856 30.4637 37.856 29.7917V27.3277C37.856 26.6557 37.296 26.0957 36.624 26.0957Z" fill="#309EE8"/>
<path d="M12.656 26.0957H10.304C9.63198 26.0957 9.07198 26.6557 9.07198 27.3277V29.7917C9.07198 30.4637 9.63198 31.0237 10.304 31.0237H12.768C13.44 31.0237 14 30.4637 14 29.7917V27.3277C14 26.6557 13.44 26.0957 12.656 26.0957Z" fill="#309EE8"/>
</svg>
