<svg width="56" height="63" viewBox="0 0 56 63" fill="none" xmlns="http://www.w3.org/2000/svg">
<path d="M27.7053 1.6133L1.76842 26.6814C-0.589474 28.9152 -0.589474 32.5141 1.76842 34.7479L19.887 52.1219C22.2449 54.3557 25.9679 54.3557 28.3258 52.1219L54.2626 27.1778C55.3795 26.0609 56 24.6958 56 23.2066V5.70858C56 2.60608 53.3939 0 50.1673 0H31.9247C30.3114 0 28.8222 0.620502 27.7053 1.6133ZM47.0648 11.2931C45.4515 11.2931 44.0864 10.0521 44.0864 8.43879C44.0864 6.82549 45.4515 5.58449 47.0648 5.58449C48.6781 5.58449 50.0432 6.82549 50.0432 8.43879C50.0432 10.0521 48.6781 11.2931 47.0648 11.2931Z" fill="#8CC9F2"/>
<path d="M26.2161 37.23C19.2665 37.23 13.682 42.8145 13.682 49.64C13.682 56.4654 19.2665 62.0499 26.2161 62.0499C33.1657 62.0499 38.7501 56.4654 38.7501 49.64C38.7501 42.8145 33.1657 37.23 26.2161 37.23Z" fill="url(#paint0_linear_21_604)"/>
<mask id="mask0_21_604" style="mask-type:luminance" maskUnits="userSpaceOnUse" x="17" y="40" width="18" height="17">
<path d="M34.903 40.9529H17.405V56.5894H34.903V40.9529Z" fill="white"/>
</mask>
<g mask="url(#mask0_21_604)">
<path d="M24.975 41.5734L22.9894 45.4205L18.3977 46.041C17.405 46.1651 17.0327 47.282 17.7772 48.0266L21.1279 51.005L20.3833 55.2244C20.2592 56.0931 21.252 56.8377 22.1207 56.4654L26.216 54.4798L30.3113 56.4654C31.18 56.9618 32.2969 56.2172 32.0487 55.2244L31.3041 51.005L34.6548 48.0266C35.3994 47.4061 35.0271 46.2892 34.0343 46.041L29.4426 45.4205L27.457 41.5734C26.7124 40.7047 25.4714 40.7047 24.975 41.5734Z" fill="#F1F9FF"/>
</g>
<path d="M33.538 32.7624C38.2538 27.5502 30.3114 20.9729 33.1657 17.8704C34.6549 16.2571 36.3923 17.9945 36.8887 18.4909C38.1297 19.856 38.9984 21.4693 39.4948 22.9585C39.6189 23.4549 40.1153 23.579 40.4876 23.2067L41.8527 21.7175C42.3491 21.2211 42.4732 20.7247 42.225 20.3524C41.8527 19.3596 41.1081 18.2427 39.8671 16.7535L41.3563 15.1402C41.4804 14.892 41.4804 14.6438 41.3563 14.3956L40.7358 13.651C40.6117 13.4028 40.2394 13.4028 40.1153 13.651L38.6261 15.3884C36.3923 13.4028 33.0416 12.2859 30.4355 15.2643C25.4715 20.6006 33.538 27.1779 30.9319 30.0322C30.0632 30.9009 28.9463 31.1491 27.2089 29.2876C25.5956 27.4261 24.6028 25.1923 24.2305 23.8272C24.1064 23.3308 23.61 23.2067 23.2377 23.579L21.6244 25.3164C21.3762 25.6887 21.2521 26.1851 21.3762 26.5574C21.9967 28.0466 22.9895 29.9081 23.9823 31.2732L22.2449 33.1347C22.1208 33.3829 22.1208 33.6311 22.2449 33.8793L22.8654 34.6239C22.9895 34.8721 23.3618 34.8721 23.4859 34.6239L25.0992 32.7624C28.574 35.7408 31.6765 34.748 33.538 32.7624Z" fill="white"/>
<defs>
<linearGradient id="paint0_linear_21_604" x1="7.7246" y1="30.5776" x2="35.0901" y2="58.7818" gradientUnits="userSpaceOnUse">
<stop stop-color="#309EE8"/>
<stop offset="1" stop-color="#6FB7E7"/>
</linearGradient>
</defs>
</svg>
