<svg width="42" height="54" viewBox="0 0 42 54" fill="none" xmlns="http://www.w3.org/2000/svg">
<path d="M20.7123 41.2133C32.0931 41.2133 41.319 31.9874 41.319 20.6067C41.319 9.22591 32.0931 0 20.7123 0C9.33157 0 0.105652 9.22591 0.105652 20.6067C0.105652 31.9874 9.33157 41.2133 20.7123 41.2133Z" fill="#F4BDDB"/>
<path d="M20.501 39.0996C27.096 39.0996 32.4423 33.9425 32.4423 27.581C32.4423 21.2194 27.096 16.0624 20.501 16.0624C13.906 16.0624 8.55966 21.2194 8.55966 27.581C8.55966 33.9425 13.906 39.0996 20.501 39.0996Z" fill="#ED91C3"/>
<path d="M20.501 17.6478C25.2284 17.6478 29.0607 13.9574 29.0607 9.40514C29.0607 4.85284 25.2284 1.16248 20.501 1.16248C15.7736 1.16248 11.9413 4.85284 11.9413 9.40514C11.9413 13.9574 15.7736 17.6478 20.501 17.6478Z" fill="#E665AB"/>
<path d="M41.319 23.5656V43.0098C41.319 43.3269 41.2133 43.7496 41.1076 44.0666C41.002 44.3836 40.6849 44.7006 40.4736 44.912C40.1566 45.1233 39.8395 45.3347 39.4168 45.4404C38.9941 45.546 38.6771 45.6517 38.2544 45.6517H3.17026C2.64188 45.6517 2.1135 45.546 1.6908 45.3347C1.2681 45.1233 0.845401 44.8063 0.528376 44.4893C0.21135 44.0666 0 43.5382 0 43.0098V23.5656C0 23.3542 2.36202e-08 23.0372 0.105675 22.8259C0.317026 22.2975 0.634051 21.7691 1.2681 21.4521C1.79648 21.1351 2.43053 20.9237 3.17026 20.9237H38.1487C38.4658 20.9237 38.6771 20.9237 38.9941 21.0294C39.6282 21.1351 40.2622 21.5578 40.5793 21.9805C41.1076 22.5088 41.319 23.0372 41.319 23.5656Z" fill="#E665AB"/>
<path d="M41.2133 44.0668C40.8963 44.4895 40.5793 44.8065 40.0509 45.0179C39.6282 45.2292 39.0998 45.3349 38.5714 45.3349H2.85321C2.32484 45.3349 1.79646 45.2292 1.37376 45.0179C0.95106 44.8065 0.52836 44.4895 0.211334 44.0668C0.845385 42.4817 2.00781 41.1079 3.48726 40.1568C5.07239 39.2058 6.86887 38.6774 8.77102 38.6774H32.4423C34.3444 38.6774 36.1409 39.2058 37.726 40.1568C39.4168 41.1079 40.5793 42.4817 41.2133 44.0668Z" fill="#DF3A94"/>
<path d="M17.7534 41.8474H23.6712C24.1996 41.8474 24.6223 42.0588 25.045 42.3758C25.362 42.6928 25.5733 43.1155 25.5733 43.5382V50.4071H15.8512V43.5382C15.8512 43.3269 15.8512 43.1155 15.9569 42.9042C16.0626 42.6928 16.1683 42.4815 16.3796 42.3758C16.591 42.2701 16.8023 42.0588 17.0137 42.0588C17.225 42.0588 17.542 41.8474 17.7534 41.8474Z" fill="#DF3A94"/>
<path d="M31.8082 50.4067H9.51072C8.34829 50.4067 7.39722 51.2521 7.39722 52.2032C7.39722 53.1543 8.34829 53.9997 9.51072 53.9997H31.8082C32.9706 53.9997 33.9217 53.1543 33.9217 52.2032C33.9217 51.2521 32.9706 50.4067 31.8082 50.4067Z" fill="#E665AB"/>
</svg>
