<svg width="52" height="64" viewBox="0 0 52 64" fill="none" xmlns="http://www.w3.org/2000/svg">
<path d="M31.2001 63.4302L37.2879 57.4693L45.9123 59.6254L38.5562 32.9912L23.844 36.7961L31.2001 63.4302Z" fill="#5EB3ED"/>
<path d="M20.2927 63.4302L14.2049 57.4693L5.58051 59.6254L12.9366 32.9912L27.6488 36.7961L20.2927 63.4302Z" fill="#5EB3ED"/>
<path d="M52 23.9863C52 26.5229 48.4488 28.5522 47.6878 30.8351C46.8 33.2448 48.322 36.7961 47.0537 38.8253C45.5317 40.7278 41.4732 40.6009 39.4439 41.9961C37.4146 43.518 36.5268 47.1961 34.1171 47.957C31.7073 48.5912 28.7902 46.1814 26 46.1814C23.2098 46.1814 20.4195 48.718 17.8829 47.957C15.4732 47.0692 14.4585 43.3912 12.5561 41.9961C10.5268 40.4741 6.46829 40.9814 4.94634 38.8253C3.42439 36.9229 4.94634 33.2448 4.31219 30.8351C3.67805 28.4253 0 26.5229 0 23.9863C0 21.4497 3.55122 19.4205 4.31219 17.1375C4.81951 14.7278 3.17073 11.1766 4.56585 9.14729C6.08781 7.24485 10.1463 7.37168 12.1756 6.10338C14.2049 4.58143 15.0927 0.903389 17.5024 0.142413C19.9122 -0.491733 22.8293 1.91802 25.6195 1.91802C28.2829 1.91802 31.2 -0.618563 33.7366 0.142413C36.1463 1.03022 37.161 4.70826 39.0634 6.10338C41.0927 7.62534 45.1512 7.11802 46.6732 9.27412C48.1951 11.1766 46.6732 14.8546 47.3073 17.2644C48.4488 19.5473 52 21.4497 52 23.9863Z" fill="#8CC9F2"/>
<path d="M32.0879 4.58152C33.6098 4.58152 35.0049 5.59615 36.2732 5.72298C35.3854 4.20103 34.6245 2.17176 33.3562 1.79128C30.9464 1.15713 28.1562 3.44005 25.6196 3.44005C23.083 3.44005 20.1659 0.903471 17.883 1.79128C15.4732 2.42542 14.5854 6.2303 12.4293 7.75225C10.5269 9.02054 6.59519 8.76689 5.07324 10.6693C3.80494 12.5718 5.3269 16.123 4.43909 18.5327C3.80494 20.8157 0.380554 22.7181 0.380554 25.2547C0.380554 26.9035 3.67812 30.201 4.69275 30.201C6.2147 15.7425 17.2488 4.58152 32.0879 4.58152Z" fill="#8CC9F2"/>
<path d="M25.8731 40.4739C35.2585 40.4739 42.7414 33.1178 42.7414 23.9861C42.7414 14.8544 35.1317 7.49829 25.8731 7.49829C16.4878 7.49829 9.00485 14.8544 9.00485 23.9861C9.00485 33.1178 16.6146 40.4739 25.8731 40.4739Z" fill="#8CC9F2"/>
<mask id="mask0_21_588" style="mask-type:luminance" maskUnits="userSpaceOnUse" x="11" y="9" width="29" height="28">
<path d="M39.9513 9.40063H11.7952V36.9226H39.9513V9.40063Z" fill="white"/>
</mask>
<g mask="url(#mask0_21_588)">
<path d="M24.2244 10.5419L20.9269 17.3906L13.5708 18.5321C11.922 18.7858 11.2878 20.815 12.4293 21.9565L17.7561 27.2833L16.4878 34.7663C16.2342 36.415 17.883 37.6833 19.2781 36.9223L25.8732 33.3711L32.4683 36.9223C33.8635 37.6833 35.6391 36.415 35.2586 34.7663L33.9903 27.2833L39.3171 21.9565C40.4586 20.815 39.8244 18.7858 38.1756 18.5321L30.8196 17.3906L27.522 10.5419C27.0147 9.0199 24.8586 9.0199 24.2244 10.5419Z" fill="#E8F4FC"/>
</g>
</svg>
