<svg width="56" height="56" viewBox="0 0 56 56" fill="none" xmlns="http://www.w3.org/2000/svg">
<path d="M24.08 36.288H32.032C32.704 36.288 33.376 36.624 33.824 37.072C34.272 37.632 34.608 38.304 34.608 38.976V50.064H21.504V38.976C21.504 38.304 21.728 37.52 22.288 37.072C22.736 36.624 23.408 36.288 24.08 36.288Z" fill="#DF3A94"/>
<path d="M42.896 50.176H13.104C11.536 50.176 10.304 51.52 10.304 53.088C10.304 54.656 11.536 56 13.104 56H42.896C44.464 56 45.696 54.656 45.696 53.088C45.696 51.408 44.464 50.176 42.896 50.176Z" fill="#E665AB"/>
<path d="M56 4.48V37.52C56 38.528 55.664 39.424 55.104 40.208C54.544 40.992 53.76 41.552 52.864 41.776C52.528 41.888 52.08 42 51.744 42H4.256C3.92 42 3.472 41.888 3.136 41.776C2.24 41.552 1.456 40.992 0.896 40.208C0.336 39.424 0 38.528 0 37.52V4.48C0 3.248 0.448 2.128 1.232 1.344C2.016 0.560001 3.136 0 4.256 0H51.856C52.192 0 52.64 0.112001 52.976 0.224001C53.872 0.448001 54.656 1.008 55.216 1.792C55.664 2.576 56 3.472 56 4.48Z" fill="#E665AB"/>
<path d="M56 32.704V37.408C56 38.416 55.664 39.312 55.104 40.096C54.544 40.88 53.76 41.44 52.864 41.664C52.528 41.776 52.08 41.888 51.744 41.888H4.256C3.92 41.888 3.472 41.776 3.136 41.664C2.24 41.44 1.456 40.88 0.896 40.096C0.336 39.312 0 38.416 0 37.408V32.704H56Z" fill="#DF3A94"/>
<path d="M31.36 37.296H24.64C23.744 37.296 23.072 38.08 23.072 38.976C23.072 39.872 23.744 40.656 24.64 40.656H31.36C32.256 40.656 32.928 39.872 32.928 38.976C32.928 38.08 32.256 37.296 31.36 37.296Z" fill="#E665AB"/>
<path d="M50.288 3.2478H5.71199C4.25599 3.2478 3.02399 4.4798 3.02399 6.0478V33.2638C3.02399 34.8318 4.25599 36.0638 5.71199 36.0638H50.288C51.744 36.0638 52.976 34.8318 52.976 33.2638V6.0478C52.976 4.4798 51.744 3.2478 50.288 3.2478Z" fill="#141204"/>
<path d="M47.04 29.0082H9.85596C9.63196 29.0082 9.40796 28.8962 9.29596 28.7842C9.18396 28.6722 9.07196 28.4482 9.07196 28.2242C9.07196 28.0002 9.18396 27.7762 9.29596 27.6642C9.40796 27.3282 9.63196 27.2162 9.85596 27.2162H47.04C47.264 27.2162 47.488 27.3282 47.6 27.4402C47.712 27.5522 47.824 27.7762 47.824 28.0002C47.824 28.2242 47.712 28.4482 47.6 28.5602C47.488 28.8962 47.264 29.0082 47.04 29.0082Z" fill="#DF3A94"/>
<path d="M47.04 31.0241C48.608 31.0241 49.84 29.6801 49.84 28.1121C49.84 26.4321 48.608 25.2001 47.04 25.2001C45.472 25.2001 44.24 26.5441 44.24 28.1121C44.352 29.6801 45.584 31.0241 47.04 31.0241Z" fill="#DF3A94"/>
<path d="M36.176 29.0081H24.752C21.616 29.0081 18.592 27.6641 16.352 25.3121C14.112 22.9601 12.88 19.7121 12.88 16.4641V11.0881C12.88 10.8641 12.992 10.6401 13.104 10.5281C13.216 10.4161 13.44 10.3041 13.664 10.3041C13.888 10.3041 14.112 10.4161 14.224 10.5281C14.336 10.6401 14.448 10.8641 14.448 11.0881V16.4641C14.448 19.3761 15.568 22.0641 17.472 24.0801C19.376 26.0961 21.952 27.2161 24.64 27.2161H35.952C36.176 27.2161 36.4 27.3281 36.512 27.4401C36.624 27.5521 36.736 27.7761 36.736 28.0001C36.736 28.2241 36.624 28.4481 36.512 28.5601C36.512 28.8961 36.4 29.0081 36.176 29.0081Z" fill="#E665AB"/>
<path d="M37.408 25.0879H34.944C34.048 25.0879 33.376 25.7599 33.376 26.6559V29.4559C33.376 30.3519 34.048 31.0239 34.944 31.0239H37.408C38.304 31.0239 38.976 30.3519 38.976 29.4559V26.7679C38.864 25.8719 38.192 25.0879 37.408 25.0879Z" fill="#ED91C3"/>
<path d="M37.184 5.59995L35.952 6.38396C35.168 6.83196 34.944 7.95195 35.392 8.73595L38.192 13.888C38.64 14.672 39.648 15.0079 40.432 14.5599L41.664 13.776C42.448 13.328 42.672 12.208 42.224 11.424L39.424 6.27196C38.976 5.48796 37.968 5.15195 37.184 5.59995Z" fill="#DF3A94"/>
<path d="M35.952 6.38397L37.184 5.59997C37.52 5.37597 37.968 5.26397 38.416 5.37597C38.864 5.48797 39.2 5.82397 39.424 6.15997L40.768 8.73597L36.736 11.2L35.392 8.62397C35.28 8.39997 35.168 8.17597 35.168 7.95197C35.168 7.72797 35.168 7.50397 35.168 7.27997C35.168 7.05597 35.28 6.83197 35.392 6.71997C35.616 6.60797 35.84 6.49597 35.952 6.38397Z" fill="#DF3A94"/>
<path d="M36.736 7.27997C36.848 7.16797 36.96 7.16797 37.072 7.16797C37.184 7.16797 37.296 7.16797 37.52 7.16797C37.632 7.16797 37.744 7.27997 37.856 7.39197C37.968 7.50397 38.08 7.61597 38.08 7.72797L40.32 11.872C40.432 12.096 40.544 12.432 40.432 12.656C40.32 12.992 40.208 13.216 39.984 13.328C39.76 13.44 39.424 13.552 39.2 13.44C38.976 13.328 38.752 13.216 38.528 12.88L36.288 8.73597C36.176 8.62397 36.176 8.51197 36.176 8.28797C36.176 8.17597 36.176 7.95197 36.176 7.83997C36.176 7.72797 36.288 7.61597 36.4 7.50397C36.512 7.50397 36.624 7.39197 36.736 7.27997Z" fill="#EBD9EB"/>
<path d="M36.736 7.27997C36.848 7.16797 36.96 7.16797 37.072 7.16797C37.184 7.16797 37.296 7.16797 37.52 7.16797C37.632 7.16797 37.744 7.27997 37.856 7.39197C37.968 7.50397 38.08 7.61597 38.08 7.72797L39.2 9.85597L37.408 10.976L36.288 8.84797C36.176 8.73597 36.176 8.62397 36.176 8.39997C36.176 8.28797 36.176 8.06397 36.176 7.95197C36.176 7.83997 36.288 7.72797 36.4 7.61597C36.512 7.50397 36.624 7.39197 36.736 7.27997Z" fill="#141204"/>
<path d="M30.352 8.17596L34.384 8.51197C34.72 8.51197 34.944 8.62396 35.168 8.84796C35.392 8.95996 35.616 9.29596 35.728 9.51996L37.744 13.216C37.856 13.44 37.968 13.776 37.968 14.112C37.968 14.448 37.968 14.784 37.744 15.008L35.952 18.816C35.84 19.04 35.616 19.264 35.504 19.488C35.28 19.712 35.056 19.824 34.832 19.824L24.976 22.4C24.752 22.512 24.416 22.4 24.192 22.288C23.968 22.176 23.744 21.952 23.744 21.728C23.632 21.504 23.632 21.168 23.744 20.944C23.856 20.72 23.968 20.496 24.192 20.272L30.016 16.688C30.128 16.576 30.352 16.576 30.464 16.464C30.688 16.464 30.8 16.464 31.024 16.464C31.36 16.576 31.808 16.576 32.256 16.464C32.592 16.352 32.928 16.016 33.264 15.68C33.488 15.344 33.6 14.896 33.712 14.448C33.712 14 33.6 13.552 33.488 13.216C33.488 13.216 33.488 13.216 33.488 13.104C33.264 12.656 32.816 12.32 32.256 12.208C31.696 12.096 31.248 12.096 30.8 12.432C30.576 12.544 30.352 12.768 30.128 12.992C29.904 13.216 29.792 13.44 29.792 13.776C29.68 14.112 29.456 14.448 29.12 14.56L23.296 18.144C23.072 18.256 22.848 18.368 22.512 18.256C22.288 18.256 22.064 18.032 21.84 17.808C21.728 17.584 21.616 17.36 21.616 17.024C21.616 16.8 21.728 16.464 21.952 16.352L29.008 8.51197C29.232 8.28797 29.456 8.17596 29.68 8.06396C29.792 8.28796 30.128 8.17596 30.352 8.17596Z" fill="#DF3A94"/>
<path d="M30.352 8.17603L31.92 8.28802L34.272 8.51203C34.608 8.51203 34.832 8.62402 35.056 8.84802C35.28 8.96002 35.504 9.29602 35.616 9.52002L36.624 11.312L33.152 13.44C33.152 13.44 33.152 13.44 33.152 13.328C32.928 12.88 32.48 12.544 31.92 12.432C31.472 12.32 30.912 12.32 30.464 12.656C30.24 12.768 30.016 12.992 29.792 13.216C29.568 13.44 29.456 13.664 29.456 14C29.344 14.336 29.12 14.672 28.896 14.784L23.072 18.368C22.848 18.48 22.624 18.592 22.288 18.48C22.064 18.48 21.84 18.256 21.616 18.032C21.504 17.808 21.392 17.584 21.392 17.248C21.392 17.024 21.504 16.688 21.728 16.576L28.784 8.73603C29.008 8.51203 29.232 8.40002 29.456 8.28802C29.792 8.28802 30.128 8.17603 30.352 8.17603Z" fill="#DF3A94"/>
<path d="M30.352 8.17603L31.92 8.28802C31.92 8.51202 31.808 8.73602 31.584 8.96002L23.072 18.368C22.848 18.48 22.624 18.592 22.288 18.48C22.064 18.48 21.84 18.256 21.616 18.032C21.504 17.808 21.392 17.584 21.392 17.248C21.392 17.024 21.504 16.688 21.728 16.576L28.784 8.73603C29.008 8.51203 29.232 8.40002 29.456 8.28802C29.792 8.28802 30.128 8.17603 30.352 8.17603Z" fill="#DF3A94"/>
<path d="M36.064 18.8158L36.736 17.2478C36.512 17.1358 36.288 17.1358 36.064 17.2478L24.192 20.3838H24.08C23.856 20.4958 23.632 20.7198 23.632 21.0558C23.52 21.2798 23.52 21.6158 23.632 21.8398C23.744 22.0638 23.856 22.2878 24.08 22.3998C24.304 22.5118 24.528 22.5118 24.864 22.5118L34.72 19.9358C34.944 19.8238 35.28 19.7118 35.392 19.5998C35.84 19.2638 35.952 19.0398 36.064 18.8158Z" fill="#DF3A94"/>
</svg>
