<svg width="36" height="37" viewBox="0 0 36 37" fill="none" xmlns="http://www.w3.org/2000/svg">
<path d="M31.3556 30.5359C31.5205 30.4561 31.7072 30.4352 31.8853 30.4763L31.8793 30.4748C32.0268 30.5155 32.1005 30.6347 32.1005 30.8323C32.0771 31.0886 31.9708 31.3298 31.798 31.5182C31.5211 31.8391 31.2322 32.1294 30.9222 32.3983L30.9102 32.4074C30.3428 32.8917 29.7138 33.3501 29.0517 33.7595L28.984 33.7977C28.1849 34.3141 27.2519 34.8198 26.2813 35.2567L26.1428 35.3117C25.0699 35.7838 23.8013 36.1933 22.489 36.4744L22.3551 36.4988C20.9782 36.8181 19.3981 36.9999 17.7759 36.9999H17.7277H17.7307C16.0662 36.9988 14.4092 36.7748 12.8024 36.3338L12.9348 36.3644C11.4353 35.987 9.98132 35.4429 8.59932 34.7419L8.72121 34.7984C7.48135 34.1641 6.29151 33.4337 5.16225 32.6137L5.24501 32.6702C4.30283 32.0069 3.40405 31.2823 2.55435 30.5008L2.57692 30.5206C1.9845 29.9688 1.42662 29.38 0.906542 28.7576L0.883969 28.7301C0.794038 28.6361 0.726139 28.5228 0.68533 28.3985L0.683825 28.3924C0.669616 28.3523 0.664142 28.3095 0.667779 28.2671C0.671416 28.2246 0.684078 28.1835 0.704893 28.1464V28.148C0.744837 28.0872 0.799857 28.0382 0.864406 28.0059L0.867416 28.0044C0.925563 27.9758 0.989409 27.9611 1.05402 27.9616L1.10217 27.9646H1.10067C1.18576 27.9705 1.2671 28.0025 1.33392 28.0563H1.33241C2.99226 29.141 4.97264 30.2716 7.01622 31.2906L7.37738 31.4541C10.5285 32.9803 14.2274 33.8726 18.131 33.8726C20.0256 33.8726 21.8721 33.6617 23.6478 33.2645L23.4792 33.2966C26.2793 32.6783 28.9957 31.719 31.5693 30.4396L31.3586 30.5344L31.3556 30.5359ZM35.527 28.1831C35.6957 28.6445 35.712 29.1491 35.5737 29.6208L35.5782 29.6039C35.4651 30.3457 35.2645 31.071 34.9808 31.7642L35.0033 31.7016C34.6522 32.6767 34.0654 33.5467 33.2969 34.2316L33.2893 34.2377C33.0606 34.4282 32.886 34.4898 32.7656 34.4226C32.6453 34.3553 32.6453 34.1924 32.7656 33.9337C33.0711 33.2614 33.3766 32.438 33.6264 31.5885L33.6625 31.448C33.9775 30.404 34.0212 29.7323 33.7934 29.4328C33.7135 29.3285 33.6075 29.2477 33.4865 29.1991L33.4819 29.1976C33.3097 29.1286 33.128 29.0873 32.9432 29.0753H32.9372L32.3428 29.0234C32.1022 29.0094 31.861 29.0094 31.6205 29.0234L31.637 29.0219C31.3421 29.0361 31.1304 29.0494 31.002 29.0616L30.3774 29.1227L29.923 29.1624C29.8427 29.1767 29.7554 29.1869 29.6611 29.193C29.5668 29.1991 29.4931 29.2062 29.4399 29.2144L29.2684 29.2358C29.222 29.2422 29.1752 29.2452 29.1284 29.2449H28.9268L28.8666 29.2358L28.8275 29.2052L28.7974 29.1441C28.7171 28.9261 29.0331 28.6532 29.7454 28.3252C30.3902 28.0174 31.078 27.8128 31.7845 27.7187L31.8206 27.7141C32.5571 27.6183 33.3024 27.6127 34.0402 27.6973L33.9981 27.6927C34.8298 27.7721 35.3399 27.9346 35.5285 28.1801L35.527 28.1831ZM27.5814 19.1188C27.5875 19.5924 27.6868 20.0416 27.8613 20.4495L27.8523 20.4266C28.0329 20.8803 28.2496 21.2714 28.5084 21.6289L28.4979 21.6137C28.7467 21.9549 28.9985 22.2686 29.2533 22.5548C29.458 22.7916 29.6762 23.007 29.9079 23.2026L29.917 23.2102L30.1788 23.4348L25.6041 28.0181C25.0663 27.5139 24.5356 26.9991 24.012 26.4735C23.4883 25.948 23.0985 25.5492 22.8427 25.2773L22.4605 24.8678C22.274 24.6664 22.1081 24.4463 21.9654 24.2109L21.9548 24.1926C21.4371 25.0006 20.7788 25.7062 20.0121 26.2749L19.9895 26.2902C19.233 26.8607 18.3854 27.2948 17.4839 27.5735L17.4252 27.5888C16.5152 27.8633 15.5749 28.0214 14.6262 28.0594L14.6021 28.0609C13.6426 28.1071 12.6838 27.9553 11.7836 27.6148L11.8332 27.6316C10.9704 27.3142 10.1647 26.8554 9.44805 26.2734L9.4646 26.2871C8.73814 25.677 8.16852 24.8969 7.80476 24.0138L7.79121 23.9756C7.37434 22.9682 7.16144 21.8859 7.1652 20.7933L7.1667 20.6435V20.5534C7.1667 19.4549 7.37437 18.4053 7.75209 17.4428L7.73252 17.4994C8.08466 16.5781 8.57524 15.7867 9.18771 15.1114L9.1832 15.116C9.80335 14.4614 10.5104 13.8978 11.284 13.4416L11.3291 13.4171C12.0812 12.9599 12.8761 12.5796 13.7023 12.282L13.7986 12.2514C14.6115 11.9662 15.4425 11.7375 16.2861 11.567L16.4185 11.5441C17.1801 11.3774 17.9503 11.254 18.7254 11.1744L18.8263 11.1652C19.4914 11.1041 20.16 11.0598 20.8322 11.0323V8.43811C20.878 7.74236 20.7265 7.04786 20.3958 6.43672L20.4048 6.45506C20.1261 6.07165 19.7527 5.76964 19.3223 5.57947C18.8919 5.38929 18.4198 5.31769 17.9534 5.37186L17.9655 5.37034C17.8852 5.37034 17.7744 5.37746 17.6329 5.39172C17.3433 5.44575 17.0603 5.53129 16.7887 5.64686L16.8158 5.63617C16.3854 5.79811 16.0122 6.00284 15.6736 6.25034L15.6871 6.24117C15.2507 6.5895 14.8775 6.99284 14.5705 7.44506L14.5585 7.46339C14.1456 8.0473 13.8252 8.69322 13.6089 9.3777L13.5954 9.42659L7.66932 8.87353C7.67233 7.99811 7.83485 7.16089 8.1283 6.39089L8.11175 6.43825C8.43123 5.59038 8.89077 4.80402 9.47062 4.11297L9.46159 4.12367C10.078 3.3808 10.7985 2.73377 11.6 2.20325L11.6376 2.18034C12.5573 1.58667 13.5611 1.13946 14.6142 0.854224L14.6909 0.835891C15.9071 0.499565 17.1624 0.331014 18.423 0.33478H18.5358H18.5298L18.6818 0.333252C19.9278 0.333252 21.1302 0.521169 22.2648 0.869502L22.1775 0.846585C23.1722 1.13381 24.0405 1.56464 24.814 2.12381L24.7885 2.10547C25.4205 2.5852 25.9607 3.14589 26.4062 3.77992L26.4212 3.80284C26.7899 4.30853 27.0969 4.89061 27.3136 5.517L27.3271 5.56284C27.4791 6.01047 27.5709 6.52533 27.5784 7.06158V7.06617L27.5814 19.1188ZM14.0378 19.5496L14.0363 19.6627C14.0363 20.7551 14.5946 21.7145 15.4373 22.2645L15.4494 22.2721C15.8539 22.5637 16.3198 22.7555 16.8101 22.8324C17.3004 22.9093 17.8016 22.8692 18.274 22.7152L18.2514 22.7213C18.8131 22.5423 19.3195 22.2185 19.7212 21.7815C20.1229 21.3445 20.4061 20.8093 20.5433 20.228L20.5478 20.2051C20.7372 19.5648 20.8325 18.8997 20.8307 18.2312V18.1334V18.138V14.8227C20.0491 14.8455 19.2706 14.9324 18.5027 15.0824L18.593 15.0671C17.8316 15.2193 17.0895 15.4581 16.3809 15.7791L16.4471 15.7531C15.7109 16.0605 15.0853 16.5897 14.6547 17.2695C14.2242 17.9492 14.0094 18.7467 14.0393 19.5542V19.5466L14.0378 19.5496Z" fill="black"/>
</svg>
