<svg width="33" height="34" viewBox="0 0 33 34" fill="none" xmlns="http://www.w3.org/2000/svg">
<path d="M6.25587 0.666504C2.97507 0.666504 0.333374 3.3082 0.333374 6.589V27.1794C0.333374 30.4602 2.97507 33.1019 6.25587 33.1019H17.4157V20.4217H14.0627V15.8564H17.4157V11.956C17.4157 8.89171 19.3968 6.07814 23.9605 6.07814C25.8083 6.07814 27.1746 6.25553 27.1746 6.25553L27.0672 10.5188C27.0672 10.5188 25.6737 10.5056 24.1531 10.5056C22.5073 10.5056 22.2434 11.2639 22.2434 12.5227V15.8564H27.1979L26.982 20.4217H22.2434V33.1019H26.8462C30.127 33.1019 32.7687 30.4602 32.7687 27.1794V6.58903C32.7687 3.30823 30.127 0.666536 26.8462 0.666536H6.25584L6.25587 0.666504Z" fill="#0A3A85"/>
</svg>
