<svg width="24" height="24" viewBox="0 0 24 24" fill="none" xmlns="http://www.w3.org/2000/svg">
<path d="M20.3429 14.6C19.2429 13.5 17.5429 13.5 16.5429 14.6L15.2429 15.9C13.7429 15 12.3429 13.9 11.1429 12.6C9.94286 11.4 8.84285 10 7.84285 8.5L9.14286 7.2C10.2429 6.1 10.2429 4.4 9.14286 3.4L6.54286 0.799995C6.04286 0.299995 5.34286 0 4.64286 0C3.94286 0 3.24285 0.299995 2.74285 0.799995L1.54286 2C0.342857 3.3 -0.157143 5 0.0428571 6.8C0.342857 10.2 2.54286 14.3 6.04286 17.7C9.44286 21.1 13.6429 23.4 17.0429 23.7C17.3429 23.7 17.5429 23.7 17.8429 23.7C19.3429 23.8 20.7429 23.2 21.8429 22.2L23.0429 21C23.5429 20.5 23.8429 19.8 23.8429 19.1C23.8429 18.4 23.5429 17.7 23.0429 17.2L20.3429 14.6ZM21.6429 19.7L20.4429 20.9C19.5429 21.7 18.3429 22 17.1429 21.8C14.2429 21.5 10.4429 19.5 7.34285 16.4C4.24285 13.3 2.14285 9.6 1.84285 6.6C1.64285 5.4 1.94285 4.2 2.74285 3.3L4.04286 2.1C4.44286 1.7 4.94285 1.7 5.34285 2.1L7.94285 4.7C8.34285 5.1 8.34285 5.6 7.94285 6L6.14286 7.8C5.84286 8.1 5.74286 8.5 6.04286 8.9C7.14286 10.7 8.44285 12.4 9.94285 14C11.4429 15.5 13.1429 16.8 15.0429 17.9C15.4429 18.1 15.8429 18 16.1429 17.8L17.9429 16C18.3429 15.6 18.8429 15.6 19.2429 16L21.8429 18.6C21.9429 18.8 21.9429 19.4 21.6429 19.7Z" fill="white"/>
</svg>
