<?xml version="1.0" encoding="utf-8"?>
<!-- Generator: Adobe Illustrator 24.3.0, SVG Export Plug-In . SVG Version: 6.00 Build 0)  -->
<svg version="1.1" id="Layer_1" xmlns="http://www.w3.org/2000/svg" xmlns:xlink="http://www.w3.org/1999/xlink" x="0px" y="0px"
	 viewBox="0 0 76 77" style="enable-background:new 0 0 76 77;" xml:space="preserve">
<style type="text/css">
	.st0{fill:#E4004E;}
	.st1{fill:#FADC38;}
	.st2{fill:#48A9EB;}
	.st3{fill:#020202;}
</style>
<path d="M72,55c-0.1,0.2-0.3,0.4-0.4,0.5c0.2-0.4,0.4-1,0.7-1.6c-0.2,0.4-0.4,0.8-0.7,1.1c-0.2,0.4-0.5,0.8-0.7,1.2
	c-0.1,0.2-0.2,0.4-0.4,0.6c-0.1,0.2-0.3,0.4-0.4,0.6c-0.1,0.2-0.3,0.4-0.4,0.6l-0.2,0.3l-0.2,0.3c-0.3,0.4-0.5,0.8-0.8,1.2
	c-0.3,0.4-0.6,0.8-0.9,1.2c-0.3,0.4-0.6,0.8-0.9,1.1l-0.4,0.6c-0.2,0.2-0.3,0.4-0.5,0.5c-2.5,2.9-5.2,5.5-7.5,7.4
	c-0.5,0.3-0.9,0.5-1.3,0.8c-0.4,0.3-0.8,0.5-1.1,0.7c-0.6,0.4-1.1,0.8-1.1,1c0,0.2,0.3,0.2,1-0.1c0.6-0.2,1.5-0.6,2.4-1.2
	c0.2-0.1,0.4-0.2,0.7-0.4c0.2-0.1,0.4-0.2,0.6-0.3c0.4-0.2,0.7-0.4,1.1-0.6c0.4-0.2,0.7-0.4,1.1-0.6c0.2-0.1,0.4-0.2,0.6-0.3
	c0.2-0.1,0.4-0.3,0.6-0.4c0.4-0.3,0.8-0.5,1.2-0.8c1.6-1.1,3.1-2.5,4.6-4.1c-0.3,0.3-0.6,0.6-0.9,0.9c-0.3,0.3-0.6,0.6-1,0.9
	c0.5-0.4,0.9-0.9,1.4-1.3c0.2-0.2,0.4-0.5,0.7-0.7c0.2-0.3,0.4-0.5,0.7-0.8c-0.1,0.1-0.3,0.2-0.4,0.3c0.2-0.2,0.4-0.4,0.6-0.6
	c0.2-0.2,0.4-0.4,0.6-0.7c0.2-0.2,0.4-0.5,0.6-0.7c0.2-0.2,0.4-0.5,0.5-0.7c0.4-0.5,0.7-1,1-1.5c0.2-0.3,0.3-0.5,0.5-0.8
	c0.1-0.1,0.2-0.3,0.2-0.4c0.1-0.1,0.1-0.3,0.2-0.4c0.3-0.5,0.5-1.1,0.8-1.6c0.2-0.5,0.4-1,0.6-1.5c0.2-0.5,0.3-1,0.4-1.4
	c0.1-0.2,0.1-0.4,0.2-0.6c0-0.2,0.1-0.4,0.1-0.6c0.1-0.7,0.1-1.3,0.1-1.5c-0.1-0.3-0.2-0.3-0.4-0.2c-0.4,0.3-1.1,1.4-2.1,3.3
	c0,0-0.1,0.1-0.1,0.2c-0.1,0.1-0.2,0.3-0.3,0.5C72.2,54.6,72,55,72,55z"/>
<path d="M66.6,60.4c1.6-1.7,3-3.6,4.2-5.5c0,0,0.1-0.1,0.1-0.2c0.1-0.1,0.1-0.2,0.1-0.2l-0.5-0.1l0,0.1c-0.2,0.5-0.4,1.1-0.7,1.7
	c-0.1,0.3-0.3,0.6-0.5,1c-0.2,0.3-0.3,0.7-0.5,1c-0.2,0.3-0.4,0.7-0.6,1c-0.1,0.1-0.1,0.2-0.2,0.3l-0.2,0.3
	c-0.1,0.2-0.2,0.3-0.3,0.5c-0.5,0.7-1,1.4-1.5,2c0,0,0,0.1-0.1,0.1c-0.1,0.1-0.2,0.2-0.3,0.3c-0.2,0.2-0.4,0.5-0.4,0.5
	C65.2,63.7,65,64,65,64.2c0,0.3,0.8-0.3,1.9-1.4c0,0,0.3-0.3,0.6-0.7c0.1-0.2,0.3-0.3,0.4-0.5c0.1-0.1,0.2-0.2,0.2-0.2
	c0.4-0.4,0.7-0.9,1.1-1.4c0.4-0.5,0.7-1,1.1-1.6c0.3-0.6,0.7-1.1,1-1.7c0.2-0.3,0.3-0.6,0.5-0.9c0.1-0.3,0.3-0.6,0.4-0.9
	c0.3-0.6,0.5-1.2,0.7-1.7c0.2-0.6,0.4-1.1,0.5-1.6c0.3-1,0.4-1.9,0.4-2.5c0-0.6-0.4-0.2-0.6-0.1c-0.1-0.1-0.1,0-0.3,0.1
	c-0.1,0.1-0.1,0.2-0.2,0.3c-0.1,0.1-0.1,0.2-0.2,0.4c-0.2,0.3-0.3,0.6-0.5,1c0,0.1-0.1,0.2-0.1,0.3c0,0.1-0.1,0.2-0.2,0.3
	c-0.1,0.2-0.2,0.5-0.3,0.7c-0.1,0.2-0.2,0.5-0.3,0.7c-0.1,0.2-0.2,0.5-0.3,0.7c-0.2,0.4-0.3,0.8-0.5,1.2c-0.3,0.7-0.4,1.2-0.3,1.3
	c-0.2,0.3-0.4,0.6-0.6,0.9c0.1-0.3,0.2-0.5,0.3-0.8c0,0.3-0.3,0.9-0.6,1.6c0,0.1-0.1,0.2-0.1,0.3c0,0.1-0.1,0.2-0.1,0.3
	c-0.1,0.2-0.2,0.3-0.3,0.5c-0.2,0.3-0.4,0.7-0.6,1c0,0-0.3,0.4-0.6,0.9c-0.2,0.2-0.3,0.5-0.4,0.6c-0.1,0.2-0.2,0.3-0.2,0.3
	s0.3-0.1,0.7-0.3c0.3-0.1,0.6-0.3,0.6-0.3l0.6-1c-0.1,0.1-0.2,0.2-0.2,0.2c1.1-1.9,2-3.8,2.9-5.9c0,0,0.1-0.2,0.2-0.4
	c0.1-0.3,0.2-0.6,0.3-1l0.4-1.4c0.1-0.4,0.1-0.6,0-0.6c-0.1,0-0.2,0.2-0.4,0.6l-0.6,1.1c0.1-0.2,0.2-0.3,0.3-0.5
	c-0.2,0.3-0.3,0.7-0.5,1c-0.2,0.3-0.4,0.7-0.5,1c-0.1,0.2-0.2,0.3-0.3,0.5L70.1,55l-0.6,1c-0.8,1.3-1.7,2.5-2.6,3.7
	c-0.3,0.4-0.6,0.8-0.7,1C66.1,60.9,66.3,60.8,66.6,60.4z"/>
<path d="M71.7,51.3c0.1-0.2,0.2-0.4,0.3-0.7c0.1-0.2,0.2-0.5,0.3-0.8c0-0.2,0-0.2,0-0.3c-0.1,0.2-0.3,0.5-0.4,0.8
	c-0.2,0.3-0.2,0.5-0.3,0.7C71.7,51.2,71.7,51.3,71.7,51.3z"/>
<path d="M72.4,49.5c0.1-0.2,0.2-0.4,0.2-0.4c0,0.1-0.1,0.2-0.1,0.2C72.4,49.4,72.4,49.4,72.4,49.5C72.4,49.4,72.4,49.4,72.4,49.5z"
	/>
<path d="M9.4,12.9c3.2-3.5,7.1-6.4,11.3-8.5c4.2-2.1,8.9-3.4,13.6-3.8c0.3,0,0.6-0.1,0.6-0.1c0,0-0.2-0.1-0.5,0
	C29.6,0.8,25,2.1,20.7,4.2c-4.3,2.1-8.1,5-11.4,8.5C9.1,12.9,9,13.1,9,13.2C9,13.2,9.2,13.1,9.4,12.9z"/>
<path d="M66.6,20.8C66.5,20.6,66.4,20.6,66.6,20.8c0,0.2,0.1,0.5,0.3,0.7c0.1,0.1,0.1,0.1,0.1-0.1C66.9,21.2,66.7,20.9,66.6,20.8z"
	/>
<path d="M62.9,21.1c-0.2-0.2-0.3-0.4-0.5-0.6c-0.2-0.2-0.3-0.4-0.5-0.6c-0.3-0.4-0.7-0.7-1-1c-0.1-0.1-0.2-0.3-0.3-0.4
	c0,0.1-0.2,0-0.5-0.3c-1.3-1.3-2.8-2.5-4.4-3.6c-1.6-1.1-3.3-2-5-2.8c-1.8-0.8-3.6-1.4-5.5-1.8c-1.9-0.4-3.8-0.7-5.7-0.7
	c-0.1,0-0.2,0.1-0.3,0.1c-0.3,0.1-0.7,0.1-1.1,0.1c-0.5,0-1,0.1-1.5,0.1l-0.8,0c-3.3,0.1-6.6,0.9-9.7,2.1c-0.2,0.1-0.3,0.2-0.5,0.3
	c-0.2,0.1-0.3,0.2-0.5,0.3c-0.2,0.1-0.3,0.2-0.5,0.3c-0.2,0.1-0.4,0.2-0.5,0.3c-1.2,0.8-2.4,1.6-3.4,2.6c-0.1,0.1-0.3,0.2-0.4,0.4
	l-0.4,0.4c-0.3,0.2-0.5,0.5-0.8,0.7c-0.2,0.3-0.5,0.5-0.8,0.8c-0.2,0.3-0.5,0.5-0.7,0.8c0.2-0.1,0.3-0.1,0.3-0.1
	c0,0.1,0,0.2-0.2,0.5c-0.1,0.2-0.4,0.5-0.6,0.8c-0.3,0.3-0.5,0.6-0.7,0.9l0.5-0.6l0.6-0.6l0.3-0.3c0.1-0.1,0.2-0.2,0.3-0.3l0.6-0.6
	c0.1-0.1,0.2-0.2,0.3-0.3c0.2-0.2,0.4-0.4,0.7-0.6c0.2-0.2,0.5-0.4,0.7-0.6l0.4-0.3c0.1-0.1,0.2-0.2,0.4-0.3
	c0.2-0.2,0.5-0.4,0.7-0.6c4.4-3.2,9.5-5.1,14.8-5.5c2.6-0.2,5.3-0.1,7.9,0.4c2.6,0.5,5.1,1.3,7.5,2.5c0.2,0.1,0.4,0.2,0.5,0.3
	c0.1,0.1,0,0.1-0.1,0c-3.1-1.4-6.1-2-9.2-2.3c-0.4,0-0.8-0.1-1.2-0.1c-0.4,0-0.8,0-1.2,0c-0.4,0-0.8,0-1.2,0c-0.2,0-0.4,0-0.6,0
	c-0.2,0-0.4,0-0.6,0c-1.6,0.1-3.2,0.4-4.9,0.8c-1,0.2-2,0.5-3,0.9c-0.2,0.1-0.5,0.2-0.7,0.3l-0.4,0.1l-0.2,0.1l-0.2,0.1
	c-0.5,0.2-0.9,0.4-1.4,0.6L27,14.2l-0.7,0.4c-0.4,0.2-0.9,0.5-1.3,0.8c-0.2,0.1-0.4,0.3-0.6,0.4l-0.6,0.4l-0.6,0.5
	c-0.2,0.2-0.4,0.3-0.6,0.5c-1.5,1.3-3,2.7-4.2,4.3c-1.2,1.6-2.2,3.3-3.1,5.1c-0.9,1.9-1.6,3.8-2,5.8c-0.1,0.2-0.1,0.5-0.1,0.8
	L13.1,34L13,34.7c0,0.3-0.1,0.5-0.1,0.8l0,0.8l0,0.2l0,0.2l0,0.4c0,0.3,0,0.5,0,0.8l0,0.8c0.2,4,1.4,8,3.6,11.5
	c1.5,2.4,3.3,4.5,5.4,6.3c1.1,0.9,2.2,1.6,3.3,2.3c0.3,0.2,0.6,0.3,0.9,0.5l0.4,0.2c0.1,0.1,0.3,0.2,0.5,0.2l0.9,0.4l0.9,0.4
	c1.3,0.5,2.6,0.8,3.9,1.1c1.3,0.3,2.7,0.4,4,0.5c2.7,0.1,5.4-0.3,7.9-1.1c1.9-0.7,3.7-1.3,5.2-1.9c0.4-0.1,0.7-0.3,1-0.4
	c0.3-0.1,0.6-0.2,0.9-0.3c0.1,0,0.3-0.1,0.4-0.1c0.1,0,0.2,0,0.3-0.1c0.2,0,0.4,0,0.5,0c0.3,0.1,0.3,0.4,0.1,0.9
	c-0.1,0.2-0.3,0.5-0.5,0.8c-0.1,0.1-0.2,0.3-0.4,0.4c-0.1,0.1-0.3,0.3-0.5,0.5c0.2-0.1,0.3-0.2,0.5-0.3c0.2-0.1,0.3-0.2,0.5-0.3
	c0,0,0.1-0.1,0.2-0.1c0.1-0.1,0.3-0.2,0.5-0.3c0.4-0.2,0.7-0.5,0.7-0.5c1.4-0.9,2.6-1.8,3.4-2.2c0,0,0.1,0,0.2-0.1
	c0.1-0.1,0.2-0.1,0.4-0.2c0.3-0.2,0.6-0.3,0.6-0.3c0.1,0,0.2-0.1,0.3-0.2c0.1-0.1,0.2-0.1,0.3-0.2c0.2-0.1,0.4-0.3,0.7-0.4
	c0.2-0.1,0.5-0.3,0.7-0.5c0.2-0.2,0.5-0.3,0.7-0.5c0.4-0.4,0.9-0.7,1.3-1.1c0.4-0.3,0.8-0.6,1.1-0.9c0,0,0,0,0,0.1c0,0,0,0.1,0,0.1
	c0,0.1,0,0.2,0,0.2s0.1-0.1,0.1-0.1c0.1-0.1,0.1-0.1,0.1-0.1c0.4-0.5,0.7-0.8,1-1.1c0.3-0.3,0.5-0.5,0.7-0.5l0.2,0.2
	c0.1,0.2,0.2,0.5,0.2,0.8c0,0.4,0,0.8-0.1,1.3c0.1,0,0.2,0.2,0.2,0.5c0.7-0.6,1.2-0.8,1.2,0c0.3-0.4,0.4-0.3,0.2,0.3
	c-0.1,0.2-0.2,0.5-0.3,0.7c0,0,0,0,0,0c0.2-0.2,0.3-0.3,0.6-0.6c0.3-0.5,0.5-0.7,0.5-0.7c0.2-0.3,0.3-0.6,0.4-0.8
	c0.1-0.2,0.2-0.4,0.3-0.5c0.1-0.2,0.2-0.3,0.2-0.5c0.1-0.2,0.2-0.4,0.3-0.7c0.3-0.5,0.5-0.9,0.6-1.1c0.2-0.3,0.2-0.4,0.2-0.4
	c0.5-0.5,0.7-0.7,0.9-0.8c0.1-0.1,0.2,0,0.3,0.1c0,0.1,0,0.2,0,0.3c0.1-0.2,0.2-0.4,0.2-0.5c0.1-0.1,0.1-0.2,0.1-0.3
	c0.1-0.2,0.1-0.2,0.1-0.4c0.1-0.3,0.2-0.4,0.2-0.4c0.1,0,0.1,0,0.2-0.2c0.1,0,0.1,0,0.1,0c0,0.6,0,0.6,0,0.6c0,0.1,0,0.3,0,0.3
	c-0.1,0.7-0.2,0.9-0.2,1c-0.8,1.2-0.8,1.2-0.8,1.2l0,0.3l-0.3,0.2l0.2-0.1l-0.4,0.6l0.4-0.7c-0.7,1.6-0.7,1.6-1,2.2
	c-0.3,0.6-0.5,1.2-0.6,1.3c0.1,0,0.1,0,0.1,0c-0.5,0.8-0.7,1.2-0.9,1.6c-0.2,0.4-0.5,0.8-1,1.5c-0.1,0.1-0.2,0.2-0.3,0.3
	c-0.1,0.2-0.2,0.5-0.4,0.7c-0.1,0.1-0.2,0.3-0.3,0.4L67,59.3c0,0.1-0.1,0.1-0.1,0.2c0,0,0,0,0,0c-0.2,0.3-0.3,0.5-0.4,0.7
	c-0.1,0.1-0.1,0.1-0.1,0.1c0,0,0,0,0,0c-0.1,0.2-0.3,0.5-0.6,0.9c-0.2,0.2-0.3,0.5-0.5,0.8c-0.2,0.3-0.5,0.7-0.8,1.1
	c-0.4,0.4-0.8,0.7-1.1,1.1c0.1-0.1,0.3-0.2,0.4-0.3c0.2-0.2,0.1,0.1,0.3,0c1.5-1.3,2.9-2.8,4.2-4.5c1.3-1.7,2.4-3.5,3.4-5.5
	c0.2-0.4,0.3-0.7,0.5-0.9c0.1-0.3,0.3-0.4,0.3-0.5c0.1,0,0.1,0.1,0,0.3c0,0.1-0.1,0.2-0.1,0.4c-0.1,0.2-0.1,0.3-0.2,0.5
	c-0.8,2.1-1.8,4.2-3.1,6.2c-1.3,2-2.9,4-4.8,5.7c-1.8,1.7-3.8,3.2-5.9,4.5c-2.1,1.2-4.3,2.2-6.5,2.9c-2.2,0.8-4.6,1.4-6.9,1.8
	c0.1,0,0.2,0,0.3,0L44.7,75c-0.2,0-0.3,0-0.5,0.1l-0.9,0.1c-0.1,0-0.1,0-0.2,0c0.5,0,1,0,1.4,0c0.3,0,0.6-0.1,1-0.1
	c2.7-0.5,5.3-1.3,7.8-2.2c2.5-1,4.9-2.2,7.2-3.7c0.3-0.2,0.6-0.4,0.9-0.6c0.3-0.2,0.6-0.4,0.9-0.6c0.3-0.2,0.6-0.4,0.8-0.6
	c0.3-0.2,0.5-0.4,0.8-0.6c0.3-0.2,0.5-0.4,0.8-0.6c0.3-0.2,0.5-0.4,0.8-0.7c0.5-0.4,1-0.9,1.5-1.4c0.1-0.1,0.2-0.3,0.4-0.4
	c0.1-0.1,0.2-0.2,0.3-0.3c0.2-0.1,0.3-0.2,0.3-0.1c0,0.1-0.1,0.2-0.2,0.5c-0.2,0.2-0.4,0.5-0.6,0.8c-1.6,1.8-3.4,3.5-5.4,5
	c-2,1.5-4.1,2.8-6.3,3.8c-2.2,1-4.5,1.8-6.6,2.3c-2.2,0.5-4.3,0.7-6.1,0.8c-0.4,0-0.8,0.1-1.3,0.1c-0.2,0-0.4,0-0.6,0
	c-0.2,0-0.4,0-0.6,0c-0.4,0-0.8,0-1.2,0c-0.4,0-0.7,0-1.1-0.1c0,0-0.1,0-0.1,0c0.4,0.1,0.7,0.1,1.1,0.2c-0.6,0-1.1-0.1-1.6-0.1
	c-0.5-0.1-0.9-0.1-1.5-0.2c0.1,0.1,0.3,0.2,0.4,0.3c-0.8,0-1.6-0.1-2.4-0.2c-0.4,0-0.8-0.1-1.2-0.2c-0.4-0.1-0.8-0.1-1.2-0.2
	c-1.6-0.3-3.2-0.7-4.7-1.2c-0.4-0.1-0.8-0.2-1.1-0.4c-0.4-0.1-0.7-0.3-1.1-0.4c-0.2-0.1-0.4-0.1-0.6-0.2c-0.2-0.1-0.4-0.2-0.5-0.2
	c-0.4-0.2-0.7-0.3-1.1-0.5c-0.4-0.2-0.7-0.3-1-0.5c-0.3-0.2-0.7-0.3-1-0.5c-0.3-0.2-0.6-0.4-1-0.6c-0.2-0.1-0.3-0.2-0.5-0.3
	c-0.2-0.1-0.3-0.2-0.4-0.3c-0.2-0.1-0.4-0.2-0.6-0.4c-2.2-1.1-4.4-2.5-6.6-4.5c0.4,0.3,0.7,0.7,1.1,1c0.4,0.3,0.7,0.7,1.1,1
	l-0.7-0.5c-0.2-0.2-0.4-0.3-0.6-0.5c-0.4-0.3-0.8-0.7-1.2-1.1c-0.4-0.4-0.8-0.8-1.2-1.2C9.4,64.4,9,64,8.6,63.6
	c-2.1-2.4-3.8-5.2-5-7.9c-0.2-0.3-0.3-0.7-0.4-1c-0.1-0.3-0.3-0.7-0.4-1c-0.2-0.6-0.4-1.3-0.6-1.8c-0.1-0.6-0.3-1.1-0.4-1.6
	c-0.1-0.5-0.1-1-0.2-1.4c-0.9-2.8-1.4-5.8-1.6-8.7C0,39.4,0,38.6,0,37.9c0-0.4,0-0.7,0-1.1l0-1.1l0.1-1.1c0-0.4,0-0.7,0.1-1.1
	l0.1-1.1c0-0.2,0-0.4,0.1-0.6l0.1-0.5c0.5-2.9,1.3-5.8,2.5-8.5C4.2,20,5.7,17.4,7.5,15c0.4-0.5,0.8-0.9,0.9-0.9
	c0.1,0-0.1,0.4-0.5,0.8c-1.2,1.7-2.3,3.5-3.3,5.4c-0.9,1.9-1.7,3.9-2.4,5.9c-0.6,2-1.1,4.1-1.3,6.2l-0.1,0.8c0,0.3-0.1,0.5-0.1,0.8
	l-0.1,1.6l0,1.6c0,0.3,0,0.5,0,0.8l0,0.8l0-1.3l0.1-1.3c0-0.4,0.1-0.9,0.1-1.3l0.1-0.7l0-0.3l0-0.3l0.2-1.3c0.1-0.4,0.2-0.9,0.3-1.3
	l0.1-0.7c0-0.2,0.1-0.4,0.2-0.6c0.1-0.4,0.2-0.9,0.3-1.3c0.1-0.4,0.3-0.8,0.4-1.3c0.1-0.2,0.1-0.4,0.2-0.6l0.2-0.6
	c0.2-0.4,0.3-0.8,0.5-1.2c0.2-0.4,0.3-0.8,0.5-1.2C3.9,23.2,4,23.1,4,23l0.1-0.3l0.3-0.6l0.3-0.6c0.1-0.2,0.2-0.4,0.3-0.6
	c0.2-0.4,0.4-0.8,0.6-1.2C6,19.3,6.2,19,6.4,18.6c0.2-0.4,0.5-0.8,0.7-1.2l0.4-0.6c0.1-0.2,0.3-0.4,0.4-0.6c0.3-0.4,0.5-0.7,0.8-1.1
	c0.3-0.3,0.6-0.7,0.9-1c3-3.5,6.5-6.3,10.5-8.5c3.9-2.2,8.3-3.6,13-4.3c2-0.3,4-0.4,5.9-0.4c1,0,1.9,0.1,2.9,0.1
	c0.9,0.1,1.9,0.2,2.8,0.4c0.9,0.1,1.9,0.4,2.8,0.6c0.5,0.1,0.9,0.2,1.4,0.4c0.5,0.1,0.9,0.3,1.4,0.4c1.8,0.6,3.7,1.3,5.5,2.3
	c5.1,2.6,9.4,6.2,12.8,10.6c3.3,4.4,5.7,9.5,6.8,15.2c0.1,0.4,0.1,0.7,0.2,1.1c0,0.3,0.1,0.7,0.1,1c0,0.6,0,1-0.1,1.1
	c-0.1,0.1-0.2-0.1-0.3-0.5c-0.1-0.4-0.3-1.1-0.4-1.8c-1.2-5.8-3.7-11.2-7.3-15.8C63.9,11.3,59.2,7.6,54,5.2c-1.3-0.6-2.6-1.1-4-1.6
	c-1.4-0.4-2.8-0.8-4.2-1.1c-2.8-0.6-5.7-0.9-8.6-0.8c-1.5,0-2.9,0.2-4.3,0.4c-0.4,0.1-0.7,0.1-1.1,0.2c-0.4,0.1-0.7,0.1-1.1,0.2
	c-0.7,0.2-1.4,0.3-2.1,0.5c-0.4,0.1-0.7,0.2-1.1,0.3l-1,0.3c-0.2,0.1-0.4,0.1-0.5,0.2l-0.5,0.2l-1,0.4c-1.4,0.6-2.7,1.2-4,1.9
	c-2.3,1.2-4.3,2.6-6.3,4.3c0,0,0.1,0,0.1,0c0.1,0.1,0,0.3-0.3,0.6c0.3-0.2,0.5-0.5,0.8-0.7l0.8-0.7l0.9-0.6c0.3-0.2,0.6-0.4,0.9-0.6
	L18.2,8c0.1-0.1,0.3-0.2,0.5-0.3l0.5-0.3C19.4,7.2,19.7,7,20,6.9L21,6.4c3.4-1.9,7.2-3.4,11.2-4c2-0.3,4-0.5,6.1-0.5
	c2.1,0,4.2,0.3,6.2,0.7c1.4,0.3,2.8,0.7,4.1,1.1c1.3,0.5,2.6,1,3.8,1.6c2.4,1.2,4.7,2.7,6.7,4.4c2.7,2,5.2,4.4,7.2,7.1
	c2.1,2.7,3.8,5.7,5,8.9c0.1,0.3,0.2,0.5,0.2,0.6c0,0.1-0.1,0-0.2-0.3c-0.1-0.3-0.2-0.5-0.3-0.8c-0.1-0.3-0.2-0.5-0.4-0.8
	c-0.2-0.5-0.5-1.1-0.8-1.6c-0.6-1-1.2-2.1-1.8-3.1c-1.3-2-2.8-3.9-4.5-5.6c0.4,0.6,0.6,1.1,0.4,1.2c-0.2,0.1-0.7-0.2-1.4-0.8
	c0.4,0.4,0.7,0.8,1.1,1.2l0.5,0.6l0.3,0.3l0.2,0.3c0.2,0.3,0.4,0.5,0.5,0.7c0.1,0.2,0.1,0.3,0.1,0.3c0,0-0.2-0.1-0.3-0.2
	c-0.2-0.1-0.3-0.4-0.5-0.6c-1.3-1.7-2.8-3.2-4.4-4.7c-0.8-0.7-1.6-1.4-2.5-2c-0.9-0.6-1.8-1.2-2.7-1.7c-2.2-1.3-4.6-2.2-7-3
	c-2.4-0.7-5-1.2-7.5-1.3C41,4.6,41.5,4.8,41.7,5c0,0,0,0,0,0c0.4,0.1,0.8,0.1,1.2,0.2c0.4,0.1,0.8,0.1,1.1,0.2
	c3.5,0.5,7,1.7,10.2,3.4c3.2,1.7,6.2,3.9,8.7,6.6c2.5,2.7,4.6,5.8,6,9.3c1.5,3.4,2.4,7.1,2.6,10.8c0,0.3,0,0.5,0,0.5
	c0,0-0.1-0.2-0.1-0.5l-0.1-0.8l-0.1-0.8c-0.1-0.6-0.2-1.1-0.2-1.7c-0.2-1.1-0.4-2.2-0.7-3.3c-0.3-1.1-0.7-2.1-1.1-3.2
	c-0.2-0.5-0.4-1-0.7-1.5l-0.4-0.8l-0.4-0.7c0,0,0,0,0,0c0.1,0.2,0,0.2-0.1,0.1c-0.1-0.1-0.3-0.5-0.3-0.6c-0.1-0.2,0-0.2,0.1-0.1
	c-1-1.8-2.2-3.6-3.5-5.1c-1.3-1.6-2.8-3.1-4.4-4.4C56.5,9.9,52.8,8,49,6.7c3.5,1.2,6.8,3.1,9.7,5.5c2.9,2.4,5.4,5.2,7.3,8.4
	c0.5,0.7,0.9,1.3,1.3,2.1c0.1,0.2,0.2,0.5,0.2,0.6c0,0.1-0.1-0.1-0.2-0.3c-0.1-0.2-0.2-0.4-0.3-0.6c0.2,0.3,0.3,0.6,0.4,0.9
	c0.1,0.3,0.2,0.5,0.3,0.7c0.1,0.4,0.1,0.7,0,0.8c-0.1,0-0.3-0.2-0.6-0.6c-0.1-0.2-0.3-0.4-0.4-0.7c-0.1-0.1-0.2-0.3-0.2-0.4
	c-0.1-0.1-0.2-0.3-0.3-0.5c-0.9-1.7-2-3.3-3.2-4.7c-1.2-1.5-2.5-2.8-4-4.1c-0.2-0.1-0.3-0.3-0.5-0.4L58,12.9
	c-0.2-0.1-0.3-0.2-0.5-0.3L57,12.3c1.2,0.9,2.3,1.9,3.3,2.9c1,1.1,2,2.2,2.8,3.3c1.7,2.4,3.1,4.9,4.1,7.6c0.2,0.5,0.3,0.9,0.2,0.9
	c0,0-0.1-0.1-0.2-0.2c0-0.1-0.1-0.2-0.1-0.3c0-0.1-0.1-0.2-0.1-0.3c-2-4.6-5.1-8.8-9-12c-3.9-3.2-8.5-5.4-13.5-6.5
	c-1.6-0.2-3.3-0.3-4.9-0.2c-1.6,0.1-3.3,0.3-4.9,0.6c0.4,0,0.8-0.1,1.2-0.1c2.6-0.2,5.2,0,7.6,0.4l0.5,0.1l0.5,0.1
	c0.3,0.1,0.6,0.1,0.9,0.2C45.7,9,46,9.1,46.3,9.2l0.5,0.1l0.4,0.1c0.3,0.1,0.6,0.2,0.9,0.3c0.3,0.1,0.6,0.2,0.9,0.3
	c0.3,0.1,0.6,0.2,0.9,0.3c0.1,0.1,0.3,0.1,0.4,0.2l0.4,0.2c0.3,0.1,0.6,0.2,0.8,0.4l0.8,0.4c0.5,0.3,1.1,0.5,1.6,0.9
	c0.5,0.3,1.1,0.6,1.6,1c0.3,0.2,0.5,0.3,0.8,0.5c0.3,0.2,0.5,0.4,0.8,0.6c2,1.5,3.9,3.3,5.5,5.4c0.2,0.2,0.3,0.4,0.2,0.5
	c0,0-0.2-0.1-0.3-0.3c-0.8-1-1.6-2-2.5-2.8c-0.9-0.9-1.8-1.7-2.8-2.4c-2-1.5-4.1-2.7-6.4-3.7c-1.9-0.8-3.8-1.4-5.8-1.8
	c-1.9-0.4-3.8-0.6-5.7-0.6c1.9,0.1,3.8,0.4,5.7,0.8c1.9,0.4,3.7,1,5.4,1.8c1.7,0.8,3.4,1.7,5,2.8c1.6,1.1,3.1,2.3,4.4,3.7
	c0.2,0.2,0.5,0.5,0.6,0.7c0,0,0.1,0,0.2,0.1c0.2,0.2,0.4,0.3,0.5,0.5c0.2,0.2,0.4,0.4,0.5,0.6c0.4,0.4,0.7,0.8,1,1.2
	c0.1,0.2,0.3,0.4,0.3,0.5C63.1,21.4,63,21.3,62.9,21.1z M52,69.9c0.1,0,0.2,0,0.2,0c-0.2,0.1-0.5,0.2-0.8,0.2l-0.1,0
	c-0.1,0-0.4,0.1-1,0.1c0,0,0.1,0,0.1,0c0.1,0,0.2,0,0.4-0.1C51.2,70.1,51.6,70,52,69.9z M62.5,61C62.5,61,62.5,61,62.5,61
	c0.3-0.2,0.5-0.3,0.5-0.3C62.8,60.8,62.6,60.9,62.5,61z M1.5,32c-0.8,5-0.7,10.1,0.4,15c-0.3-1.2-0.6-2.4-0.8-3.6
	c-0.2-1.9-0.3-3.8-0.2-5.7C0.9,35.8,1.1,33.9,1.5,32z M60.8,66c-0.3,0.2-0.5,0.3-0.8,0.5c-0.3,0.1-0.5,0.3-0.8,0.4
	c-0.2,0.1-0.5,0.2-0.7,0.3c-0.2,0.1-0.5,0.2-0.7,0.3c-0.2,0.1-0.3,0.3-0.5,0.4c-0.2,0.1-0.4,0.3-0.5,0.4c-0.4,0.2-0.8,0.5-1.1,0.7
	c-2.1,1.2-4.3,2.1-6.5,2.8c0.3,0-0.2,0.2-0.5,0.3c-0.3,0.1-0.5,0.2-0.8,0.3c2.4-0.6,4.7-1.5,7-2.6C56.9,68.6,59,67.3,60.8,66z
	 M70.7,51.9c0-0.1,0.1-0.1,0.1-0.2l0,0.5C70.8,52.2,70.8,52.1,70.7,51.9z M70.7,51.1c-0.1,0.1-0.1,0.2-0.2,0.3
	C70.6,51.3,70.6,51.2,70.7,51.1z M69.2,53.9c0.1-0.1,0.2-0.2,0.3-0.4C69.2,53.9,69.2,53.9,69.2,53.9z M63.8,53.4c0,0,0,0.3,0.1,0.7
	c0,0.2,0,0.3,0.1,0.5c0,0.1,0,0.2,0,0.2s0,0,0-0.1c0,0,0-0.1,0-0.2c0-0.1,0-0.3,0-0.5C63.9,53.7,63.8,53.3,63.8,53.4L63.8,53.4z"/>
<path class="st0" d="M23.8,5.1c0.7-0.3,1.4-0.6,2.2-0.8c0.4-0.1,0.7-0.2,1.1-0.4c0.4-0.1,0.7-0.2,1.1-0.3C26.6,4,25,4.5,23.5,5.2
	c-0.2,0.1-0.4,0.2-0.6,0.2l-0.6,0.3c-0.4,0.2-0.8,0.3-1.1,0.5l-1.1,0.6c-0.2,0.1-0.4,0.2-0.5,0.3L19,7.4l-0.5,0.3
	c-0.2,0.1-0.4,0.2-0.5,0.3c-0.4,0.2-0.7,0.5-1.1,0.7c-0.7,0.5-1.4,1-2,1.5c-0.7,0.5-1.3,1.1-1.9,1.6L12,12.8
	c-0.1,0.1-0.3,0.3-0.4,0.4l-0.4,0.5c-4.6,4.9-7.8,11.3-9,18C2,32.1,2,32.5,1.9,32.9l-0.1,0.6c0,0.2-0.1,0.4-0.1,0.6l-0.1,1.3
	c0,0.2,0,0.4,0,0.6l0,0.6c-0.1,0.8,0,1.7,0,2.5c0,0.4,0,0.8,0.1,1.3c0,0.2,0,0.4,0,0.6l0.1,0.6C2,45.1,2.8,48.4,4,51.5
	c2.4,6.2,6.4,11.6,11.4,15.7c0.3,0.3,0.7,0.6,1.1,0.9c0.4,0.3,0.9,0.7,1.4,1.1c0.5,0.3,1,0.7,1.5,1c0.5,0.3,0.9,0.6,1.2,0.8
	c0.3,0.2,0.7,0.4,1.1,0.6c0.4,0.2,0.7,0.4,1.1,0.5c0.8,0.3,1.5,0.7,2.3,1c1.6,0.6,3.3,1.1,5,1.5c0.4,0.1,0.9,0.2,1.3,0.3
	c0.4,0.1,0.9,0.1,1.3,0.2c0.2,0,0.4,0.1,0.7,0.1c0.2,0,0.5,0,0.7,0.1c0.5,0,0.9,0.1,1.4,0.1c1.8,0.1,3.7,0.1,5.5-0.1
	c1.8-0.2,3.6-0.5,5.4-0.9c1.8-0.4,3.5-1,5.1-1.7c1.6-0.7,3.2-1.5,4.7-2.3c0.4-0.2,0.7-0.5,1.1-0.7c0.2-0.1,0.4-0.2,0.5-0.3
	c0.2-0.1,0.3-0.2,0.5-0.4c0.3-0.2,0.7-0.5,1-0.7c0.3-0.3,0.6-0.5,1-0.7c0.3-0.2,0.6-0.5,0.9-0.8c0.3-0.3,0.6-0.5,0.8-0.8
	c0.3-0.3,0.5-0.5,0.8-0.8c0.1-0.1,0.2-0.3,0.4-0.4c0.1-0.1,0.2-0.3,0.3-0.4c0.4-0.5,0.8-1,1.2-1.5c0.3-0.5,0.7-0.9,0.9-1.4
	c0.3-0.4,0.5-0.8,0.7-1.2c0.2-0.4,0.3-0.7,0.4-0.9c0.1-0.3,0.2-0.4,0.3-0.6c0.1-0.1,0.1-0.2,0.1-0.2c0.2-0.4,0.3-0.7,0.5-1
	c0.1-0.3,0.2-0.6,0.2-0.8c0.1-0.4-0.1-0.5-0.6,0.1c-0.2,0.3-0.5,0.7-0.8,1.1c-0.1,0.2-0.3,0.4-0.5,0.6c-0.2,0.2-0.3,0.4-0.5,0.7
	c-0.1,0.1-0.2,0.2-0.3,0.3c-0.1,0.1-0.2,0.2-0.3,0.3c-0.2,0.2-0.4,0.4-0.6,0.7c-0.2,0.2-0.4,0.4-0.6,0.7c-0.2,0.2-0.4,0.4-0.6,0.6
	c-0.2,0.2-0.4,0.4-0.6,0.6c-0.2,0.2-0.4,0.4-0.6,0.5c-0.1,0.1-0.2,0.2-0.3,0.2c-0.1,0.1-0.2,0.1-0.3,0.2c-0.2,0.1-0.3,0.3-0.5,0.4
	c-0.6,0.5-1,0.7-1.1,0.6c-0.1-0.1,1.1-1,2.1-2.1c-0.1-0.1,0-0.4,0.2-0.8c0.2-0.4,0.5-1,0.8-1.5c0.2-0.3,0.3-0.6,0.5-0.9
	c0.2-0.3,0.3-0.6,0.5-0.8c0.3-0.5,0.6-1,0.8-1.3c0.1-0.2,0.2-0.4,0.4-0.8c0.1-0.2,0.2-0.4,0.3-0.6c0.1-0.2,0.2-0.4,0.3-0.7
	c0.1-0.2,0.2-0.5,0.3-0.7c0.1-0.3,0.2-0.5,0.3-0.8c0.1-0.3,0.2-0.6,0.3-0.8c0.1-0.3,0.2-0.6,0.3-0.9c0.1-0.1,0.1-0.3,0.2-0.4
	l0.1-0.2l0.1-0.2c0.1-0.3,0.2-0.6,0.3-0.9c0-0.1,0.1-0.3,0.1-0.4c0-0.1,0.1-0.3,0.1-0.4c0.1-0.3,0.1-0.5,0.2-0.8
	c0.1-0.5,0.2-0.9,0.3-1.3c0.1-0.4,0.1-0.6,0.1-0.8c0.2-1,0-1.1-0.4-0.5c-0.2,0.3-0.4,0.7-0.7,1.3c-0.1,0.1-0.1,0.3-0.2,0.4
	c-0.1,0.1-0.2,0.3-0.3,0.5c-0.2,0.3-0.4,0.6-0.6,1c-0.8,1.4-1.8,2.9-2.9,4.3c-0.1,0.2-0.3,0.3-0.4,0.5c-0.1,0.2-0.3,0.3-0.4,0.5
	c-0.1,0.2-0.3,0.3-0.4,0.5c-0.1,0.1-0.1,0.2-0.2,0.2c-0.1,0.1-0.1,0.2-0.2,0.2c-0.3,0.3-0.5,0.6-0.8,0.9c-0.3,0.3-0.5,0.5-0.7,0.7
	c-0.1,0.1-0.2,0.2-0.3,0.3c-0.1,0.1-0.2,0.1-0.2,0.2c-0.1,0.1-0.2,0.2-0.3,0.2c-0.1,0-0.1-0.1-0.1-0.2c0-0.2,0.1-0.4,0.2-0.6
	c0.1-0.2,0.1-0.4,0-0.4c-0.1,0.1-0.2,0.2-0.3,0.4c-0.1,0.1-0.2,0.2-0.3,0.3c-0.2,0.2-0.4,0.4-0.5,0.6c-0.4,0.4-0.7,0.7-1.1,1
	c-0.4,0.3-0.7,0.6-1.1,0.9c-0.2,0.2-0.4,0.3-0.6,0.5c-0.2,0.2-0.4,0.4-0.7,0.6c0,0-0.4,0.2-1,0.6c-0.3,0.2-0.7,0.4-1.1,0.7
	c-0.2,0.1-0.4,0.3-0.7,0.4c-0.1,0.1-0.2,0.1-0.4,0.2c-0.1,0.1-0.2,0.1-0.4,0.2c-0.3,0.1-0.5,0.3-0.8,0.4c-0.3,0.1-0.5,0.3-0.8,0.4
	l-0.4,0.2c-0.1,0.1-0.3,0.1-0.4,0.2c-0.3,0.1-0.6,0.2-0.8,0.3c-1.1,0.4-2.2,0.8-3.1,1c0,0-0.1,0-0.2,0.1c-0.1,0-0.2,0.1-0.3,0.1
	c-0.1,0-0.3,0.1-0.5,0.1c-0.2,0-0.4,0.1-0.6,0.2c-0.1,0-0.3,0.1-0.4,0.1c-0.1,0-0.3,0.1-0.4,0.1c-0.3,0.1-0.7,0.1-1,0.2
	c-0.4,0-0.8,0.1-1.3,0.1C39,66.1,39,66.2,39,66.3c0-0.1,0-0.1,0-0.2c-0.2,0-0.3,0.1-0.5,0.1c-0.2,0-0.4,0-0.6,0c-0.4,0-0.9,0-1.3,0
	c-0.2,0-0.5,0-0.7,0c-0.2,0-0.4,0-0.7-0.1c-0.2,0-0.4,0-0.6,0c-0.2,0-0.4,0-0.5,0c0-0.1,0-0.1,0-0.2c-0.3,0-0.6,0-0.9-0.1
	c-0.3,0-0.6-0.1-0.9-0.1l-0.5-0.1c-0.2,0-0.3-0.1-0.4-0.1l-0.9-0.2c-0.3-0.1-0.6-0.2-0.9-0.3c-0.3-0.1-0.6-0.2-0.9-0.3
	c-0.3-0.1-0.6-0.2-0.9-0.3l-0.2-0.1l-0.2-0.1L27,64c0-0.1,0-0.1,0.1-0.2c-0.3-0.1-0.6-0.2-0.8-0.3c-0.3-0.1-0.5-0.2-0.7-0.3
	c-0.4-0.2-0.7-0.4-0.6-0.4c0.1-0.1,0.1-0.1,0.1-0.2c-0.3-0.2-0.6-0.4-0.9-0.5c-0.3-0.2-0.7-0.4-1-0.6c-0.2-0.1-0.3-0.2-0.4-0.3
	c-0.1-0.1-0.3-0.2-0.4-0.2c-0.2-0.1-0.3-0.3-0.3-0.3c-0.1,0.1-0.1,0.1-0.1,0.2c-0.1-0.1-0.2-0.2-0.4-0.3c-0.1-0.1-0.2-0.2-0.4-0.3
	c-0.1-0.1-0.2-0.2-0.3-0.3l-0.2-0.1l-0.2-0.1c-0.4-0.4-0.9-0.7-1.3-1.1c-0.2-0.2-0.4-0.4-0.6-0.5c-0.2-0.2-0.4-0.4-0.5-0.6
	c-0.2-0.2-0.4-0.4-0.5-0.6c-0.2-0.2-0.3-0.4-0.5-0.6c-1.3-1.5-2.3-3-3.1-4.6c-0.1-0.3-0.3-0.5-0.4-0.8c-0.1-0.3-0.3-0.5-0.4-0.8
	c-0.1-0.3-0.2-0.6-0.4-0.8c-0.1-0.3-0.2-0.6-0.3-0.9c-0.1-0.1-0.1-0.3-0.2-0.4c-0.1-0.1-0.1-0.3-0.2-0.5c-0.1-0.3-0.2-0.6-0.3-0.9
	c-0.1-0.3-0.2-0.6-0.3-0.9c-0.1-0.2-0.1-0.3-0.1-0.5c0-0.2-0.1-0.3-0.1-0.5c0-0.2-0.1-0.3-0.1-0.5c0-0.2-0.1-0.3-0.1-0.5
	c-0.1-0.3-0.1-0.6-0.2-1c-0.1-0.3-0.1-0.7-0.2-1c0-0.2,0-0.3-0.1-0.5l-0.1-0.5c-0.1-1.3-0.2-2.7-0.1-4.1c0.1-1.4,0.2-2.7,0.5-4.1
	c0.3-1.4,0.6-2.7,1.1-4c0.5-1.3,1-2.6,1.6-3.8c0.6-1.2,1.3-2.4,2.1-3.5c0.1-0.1,0.2-0.2,0.3-0.4c0.1-0.1,0.2-0.2,0.2-0.3
	c0.1-0.2,0.3-0.4,0.3-0.6c0.1-0.3,0-0.4-0.4,0c0.4-0.5,0.8-0.9,1.2-1.4c0.2-0.2,0.4-0.4,0.6-0.6c0.2-0.2,0.4-0.4,0.7-0.6
	c0.9-0.8,1.1-1.1,1.3-1.3c0.1-0.1,0.2-0.3,0.4-0.5c0.2-0.2,0.5-0.4,1-0.8c3.9-3,8.7-4.9,13.7-5.4c0.3,0,0.6-0.1,0.9-0.1l0.5,0
	c0.2,0,0.3,0,0.5,0c0.6,0,1.2,0,1.9,0c1.2,0,2.5,0.2,3.7,0.4l0.9,0.2c0.2,0,0.3,0.1,0.5,0.1l0.5,0.1l0.9,0.2l0.9,0.3
	c1.2,0.4,2.4,0.8,3.5,1.3c2.3,1,4.4,2.4,6.3,3.9c1.9,1.6,3.6,3.4,5.1,5.4c1.4,2,2.6,4.2,3.5,6.5c0.9,2.3,1.5,4.8,1.8,7.2
	c-0.2-2.5-0.6-4.6-1.3-6.7c-0.1-0.3-0.2-0.5-0.3-0.8c-0.1-0.3-0.2-0.5-0.3-0.8c-0.2-0.5-0.4-1-0.7-1.5c-0.5-1-1.1-2.1-1.8-3.1
	c0,0,0.1-0.1,0.1-0.3c0-0.2-0.2-0.5-0.5-1c-1.1-1.6-2.4-3.1-3.8-4.4c-0.7-0.7-1.5-1.3-2.2-1.9c-0.4-0.3-0.8-0.6-1.2-0.8
	c-0.2-0.1-0.4-0.3-0.6-0.4c-0.2-0.1-0.4-0.2-0.6-0.4c-0.4-0.3-0.8-0.5-1.2-0.7c-0.4-0.2-0.8-0.4-1.1-0.6c-0.4-0.2-0.7-0.4-1.1-0.5
	c-0.4-0.2-0.7-0.3-1.1-0.5c-1.4-0.6-2.6-1-3.5-1.4c-0.3-0.1-0.6-0.2-1-0.4c-0.3-0.1-0.7-0.2-1.2-0.4c-0.1,0-0.2-0.1-0.4-0.1
	c-0.1,0-0.3-0.1-0.4-0.1c-0.3-0.1-0.6-0.1-0.9-0.2c-0.3-0.1-0.7-0.1-1.1-0.1C39.9,8,39.7,8,39.4,8c-0.2,0-0.5,0-0.7,0
	c1.3,0,2.6,0.2,3.9,0.4c0-0.1,0.1-0.3,0.1-0.3c-2.6-0.5-5.6-0.7-8.6-0.4c-1.5,0.2-3,0.4-4.4,0.8c-0.2,0-0.4,0.1-0.5,0.1
	c-0.2,0.1-0.3,0.1-0.5,0.2c-0.3,0.1-0.7,0.2-1,0.3c-0.7,0.2-1.3,0.4-1.9,0.7c0,0-0.1-0.2-0.1-0.3c0,0-0.2,0.1-0.4,0.2
	c-0.2,0.1-0.5,0.2-0.8,0.4c-0.3,0.1-0.6,0.3-0.8,0.4c-0.2,0.1-0.4,0.2-0.4,0.2c-0.3,0.1-0.4,0-0.3-0.1c0.1-0.1,0.2-0.2,0.3-0.3
	c0.1-0.1,0.2-0.1,0.3-0.2c0.1-0.1,0.2-0.1,0.3-0.2c0.2-0.1,0.5-0.3,0.9-0.5c0.3-0.2,0.7-0.3,1.1-0.5c0.4-0.2,0.8-0.4,1.3-0.5
	c0.5-0.2,1-0.4,1.5-0.5c2-0.7,4.5-1.2,6.8-1.4c2.3-0.2,4.6-0.1,6.3,0.1c0-0.1,0-0.3,0.1-0.5c0,0,0,0-0.1,0c-0.1,0-0.2,0-0.3,0
	c-0.3,0-0.6-0.1-1-0.1c-0.2,0-0.4,0-0.5,0c-0.2,0-0.3,0-0.5,0c-0.3,0-0.4,0-0.4,0l0-0.2c2.1,0.1,4.2,0.4,6.1,0.8
	c1.9,0.4,3.8,1.1,5.6,1.8c1.8,0.8,3.5,1.7,5.2,2.8c0.2,0.1,0.4,0.3,0.6,0.4c0.2,0.1,0.4,0.3,0.6,0.4c0.2,0.2,0.4,0.3,0.6,0.5
	c0.2,0.2,0.4,0.3,0.6,0.5c0.2,0.2,0.4,0.3,0.6,0.5c0.2,0.2,0.4,0.3,0.6,0.5c0.2,0.2,0.4,0.4,0.6,0.5c0.1,0.1,0.2,0.2,0.3,0.3
	c0.1,0.1,0.2,0.2,0.3,0.3c-0.5-0.5-1.3-1.2-2.1-1.9c-0.8-0.7-1.7-1.3-2.3-1.7c0,0,0.1-0.1-0.1-0.2c-0.1-0.1-0.4-0.4-1-0.7
	c1.2,0.8,2.4,1.6,3.6,2.6c1.2,1,2.3,2.1,3.4,3.3c1.1,1.2,2.1,2.5,2.9,3.8c0.9,1.3,1.7,2.6,2.3,3.9c0.2,0.3,0.3,0.5,0.3,0.4
	c0,0,0-0.2-0.1-0.6c-0.1-0.2-0.1-0.4-0.2-0.6c-0.1-0.3-0.2-0.5-0.4-0.9c-0.1-0.3-0.3-0.7-0.5-1.1c-0.2-0.4-0.5-0.8-0.7-1.3
	c-0.1-0.2-0.3-0.4-0.4-0.7c-0.2-0.2-0.3-0.4-0.4-0.6c-0.2-0.2-0.3-0.4-0.4-0.6c-0.1-0.1-0.1-0.2-0.2-0.3c-0.1-0.1-0.2-0.2-0.2-0.3
	c-0.3-0.4-0.6-0.7-0.9-1.1c-0.2-0.2-0.3-0.3-0.5-0.5c-0.2-0.2-0.3-0.3-0.5-0.5c-0.2-0.2-0.3-0.3-0.5-0.5c-0.2-0.2-0.3-0.3-0.5-0.5
	c-0.3-0.3-0.7-0.6-1-1c-0.2-0.2-0.4-0.3-0.5-0.5c-0.2-0.2-0.4-0.3-0.6-0.5c-0.2-0.2-0.4-0.3-0.6-0.5c-0.2-0.2-0.4-0.3-0.6-0.5
	l0.1-0.2c1.2,0.9,2.6,2.1,3.8,3.4c1.3,1.3,2.4,2.7,3.3,3.9c0.5,0.6,0.1-0.1-0.3-0.7c-0.1-0.2-0.2-0.3-0.3-0.5
	c-0.1-0.1-0.2-0.3-0.2-0.3c-0.1-0.2-0.1-0.2,0.2,0.1c0.9,1.2,1.8,2.4,2.6,3.6c-0.1-0.1-0.1-0.2-0.2-0.4c-0.1-0.1-0.2-0.2-0.2-0.4
	c-0.2-0.2-0.3-0.5-0.5-0.7c-0.3-0.5-0.7-1-1.1-1.5c-0.4-0.5-0.8-1-1.2-1.5c-0.4-0.5-0.9-1-1.3-1.4c-0.4-0.5-0.9-0.9-1.4-1.4
	c-0.5-0.4-0.9-0.9-1.4-1.3c-0.5-0.4-1-0.8-1.4-1.2c-0.2-0.2-0.5-0.4-0.7-0.5c-0.1-0.1-0.2-0.2-0.3-0.3c-0.1-0.1-0.2-0.2-0.3-0.2
	c-0.3-0.2-0.6-0.5-0.9-0.7c-0.3-0.2-0.5-0.4-0.8-0.6C55,8,54.7,7.8,54.8,7.7c-3.3-1.8-6.5-3-9.5-3.8c-0.2-0.1-0.4-0.1-0.5-0.1
	c-0.2,0-0.4-0.1-0.5-0.1c-0.4-0.1-0.7-0.2-1.1-0.3c-0.4-0.1-0.7-0.1-1-0.2c-0.2,0-0.3-0.1-0.5-0.1C41.4,3,41.3,3,41.1,3
	c-0.7-0.1-1.3-0.2-1.9-0.3c-0.3,0-0.6-0.1-0.9-0.1c-0.3,0-0.6-0.1-0.9-0.1c-0.2,0-0.5,0-0.9-0.1c-0.4,0-0.8,0-1.3,0
	c-0.5,0-1.1,0.1-1.7,0.1c-0.6,0.1-1.3,0.2-1.9,0.3c-0.2,0-0.3,0.1-0.5,0.1c-0.2,0-0.3,0.1-0.5,0.1c-0.3,0.1-0.7,0.1-1,0.2
	c-0.3,0.1-0.7,0.2-1,0.3c-0.3,0.1-0.7,0.2-1,0.3c-0.7,0.2-1.3,0.4-1.9,0.7c-0.3,0.1-0.6,0.2-0.9,0.3C24.3,4.9,24.1,5,23.8,5.1z"/>
<path class="st1" d="M53.2,6.7c3.1,1.5,6,3.4,8.5,5.8c2.5,2.3,4.6,5,6.2,7.7c-0.7-1.1-1.4-2.1-2.1-3.1c-0.8-1-1.6-2-2.4-2.9
	c1.3,1.4,2.4,2.8,3.3,4.2c1,1.5,1.8,3,2.5,4.8c-0.2-0.2-0.4-0.6-0.5-0.9c-0.2-0.3-0.4-0.7-0.6-1.1c-0.2-0.4-0.4-0.7-0.6-1
	c-0.2-0.3-0.4-0.5-0.5-0.6c-2.4-3.9-5.6-7.3-9.2-10c-0.5-0.3-0.9-0.7-1.4-1l-0.7-0.5l-0.4-0.2l-0.4-0.2l-0.7-0.4l-0.7-0.4L53,6.6
	l-0.4-0.2l-0.8-0.4c-2.1-1-4.2-1.8-6.4-2.3c1.8,0.1,3.2,0.6,4.4,1.2C51.1,5.5,52.1,6.2,53.2,6.7z"/>
<path class="st1" d="M71.8,32.9c-0.1-0.5-0.2-0.9-0.2-1.3c-0.1-0.4-0.2-0.9-0.3-1.3c0.1,0.5,0.2,0.9,0.3,1.4
	C71.7,32,71.8,32.5,71.8,32.9z"/>
<path class="st1" d="M6.6,28.9c-0.1,0.2-0.1,0.5-0.2,0.7c-0.1,0.2-0.1,0.5-0.2,0.7c-0.1,0.2-0.1,0.5-0.2,0.7C6.1,31.3,6,31.5,6,31.7
	C6,31.5,6,31.2,6.1,31c0.1-0.2,0.1-0.5,0.2-0.7c0.1-0.2,0.1-0.5,0.2-0.7C6.5,29.3,6.5,29.1,6.6,28.9z"/>
<path class="st1" d="M41.5,4.7c-0.5,0-1.1,0-1.6,0c-4-0.3-8.2,0.1-12.2,1.2c2.2-0.7,4.5-1.2,6.9-1.4C36.9,4.3,39.3,4.3,41.5,4.7z"/>
<path class="st1" d="M45.7,6c1,0.2,2,0.5,2.9,0.9c0.2,0.1,0.5,0.2,0.7,0.3c0.2,0.1,0.5,0.2,0.7,0.3c0.5,0.2,0.9,0.4,1.4,0.6
	c1.8,0.9,3.5,2,5,3.2c-1.5-1.2-3.2-2.2-5-3.1c-0.9-0.5-1.8-0.8-2.8-1.2C47.7,6.6,46.7,6.3,45.7,6z"/>
<path class="st1" d="M14.2,55.5c0,0,0.1,0,0.2,0.1c0.1,0.1,0.1,0.1,0.2,0.2c0.8,1.2,1.8,2.3,2.8,3.4c-0.3-0.2-0.6-0.4-0.8-0.7
	C15.5,57.3,15.4,56.9,14.2,55.5z"/>
<path class="st1" d="M6.9,27.8c0,0,0-0.1,0-0.1c0.1-0.3,0.2-0.6,0.3-1c0,0,0-0.1,0.1-0.1C7.1,27,7,27.4,6.9,27.8z"/>
<path class="st1" d="M13.2,54c0.1-0.1,0.1-0.2,0.1-0.3c0.2,0.4,0.4,0.7,0.6,1.1c0.2,0.3,0.5,0.7,0.7,1c-0.1-0.1-0.1-0.1-0.2-0.2
	c-0.2-0.2-0.4-0.5-0.6-0.8C13.6,54.5,13.4,54.2,13.2,54z"/>
<path class="st1" d="M9.2,36.2c0-0.5-0.1-1-0.1-1.2c0.1-0.3,0.2-0.7,0.2-1c0-0.2,0.1-0.3,0.1-0.5c0-0.2,0.1-0.3,0.1-0.5
	c0.1-0.3,0.2-0.7,0.3-1c0.1-0.4,0.2-0.7,0.3-1.1c0-0.3,0.2-0.7,0.2-1.2c0.1-0.1,0.2-0.3,0.2-0.4c0.1-0.1,0.2-0.3,0.2-0.4
	C9.7,32,9.1,35.5,9.2,39.2c0-0.5,0-1,0-1.5C9.2,37.2,9.2,36.7,9.2,36.2z"/>
<path class="st1" d="M67.7,46.8c-0.1,0.3-0.2,0.6-0.3,0.9c-0.1,0.3-0.2,0.6-0.3,0.9C67.1,48.8,67,49,67,49.1
	c-0.1,0.2-0.1,0.3-0.2,0.5c-0.1,0.3-0.3,0.6-0.4,0.9c-0.6,1.2-1.2,2.4-1.9,3.5l-0.3,0.4l-0.1,0.2l-0.1,0.2c-0.2,0.3-0.4,0.6-0.6,0.8
	L63.2,56l-0.1,0.2c-0.1,0.1-0.2,0.3-0.3,0.4c-0.1,0.1-0.2,0.3-0.3,0.4c-0.1,0.1-0.2,0.3-0.3,0.4c-0.4,0.5-0.8,1-1.2,1.5
	c-0.2,0.3-0.4,0.5-0.6,0.7c-0.2,0.2-0.4,0.5-0.6,0.7c2.2-1.9,4.4-4.6,5.9-7.1c1.5-2.4,2.5-4.5,3-4.8c0.3-0.1,0.2,0.3,0,1.1
	c-0.2,0.8-0.7,1.9-1.4,3.2c-0.7,1.2-1.5,2.6-2.4,3.8c-0.1,0.2-0.2,0.3-0.3,0.5c-0.1,0.1-0.2,0.3-0.3,0.4c-0.2,0.3-0.5,0.6-0.7,0.9
	c-0.2,0.3-0.4,0.5-0.7,0.8c-0.2,0.3-0.4,0.5-0.6,0.7c0.1-0.1,0.2-0.2,0.3-0.2c0.1-0.1,0.1-0.1,0.2-0.2c0.1-0.1,0.2-0.2,0.5-0.4
	c-0.2,0.2-0.5,0.4-0.7,0.6c-0.2,0.2-0.4,0.4-0.6,0.7c0.2-0.2,0.5-0.5,0.8-0.7c0.3-0.3,0.6-0.6,0.9-0.9c0.3-0.3,0.6-0.6,0.8-0.9
	c0.3-0.2,0.5-0.4,0.6-0.6c0,0-0.1,0.3-0.2,0.5c-0.1,0.3-0.3,0.5-0.3,0.5c0.3-0.3,0.6-0.6,1-1c0.2-0.2,0.3-0.4,0.5-0.6
	c0.1-0.1,0.2-0.2,0.3-0.3c0.1-0.1,0.2-0.2,0.2-0.3c0.7-0.9,1.3-1.9,2-2.9c0.3-0.5,0.6-1,0.9-1.6c0.3-0.5,0.6-1,0.8-1.6
	c0.1-0.3,0.2-0.5,0.4-0.7c0.1-0.1,0.1-0.2,0.2-0.4c0.1-0.1,0.1-0.2,0.2-0.4c0.2-0.5,0.4-0.9,0.6-1.3c-0.8,1.9-1.7,3.9-2.9,5.8
	c-1.1,1.9-2.4,3.8-3.9,5.6c-1.5,1.8-3.2,3.5-5.1,5.1c-1.9,1.5-4,2.9-6.2,4.1L53.2,68c-0.1,0.1-0.3,0.1-0.4,0.2
	c-0.3,0.1-0.6,0.3-0.9,0.4c-0.3,0.1-0.6,0.3-0.9,0.4l-0.9,0.4l-0.9,0.3c-0.3,0.1-0.6,0.2-0.9,0.3l-0.9,0.3c-0.2,0-0.3,0.1-0.5,0.1
	l-0.5,0.1c-2.5,0.7-5,1.1-7.5,1.3c-5.1,0.3-10.2-0.7-14.8-2.6c-0.3-0.1-0.6-0.3-1-0.4c-0.3-0.1-0.6-0.3-0.9-0.4
	c-0.3-0.2-0.6-0.3-0.9-0.5c-0.3-0.2-0.6-0.3-0.9-0.5c-0.6-0.3-1.2-0.6-1.8-1c-0.3-0.2-0.6-0.4-0.9-0.5c-0.3-0.2-0.6-0.4-0.8-0.6
	c-1.1-0.7-2.2-1.6-3.2-2.4c-0.3-0.2-0.5-0.4-0.7-0.7l-0.4-0.3L12.5,62l-0.2-0.2c-0.2-0.2-0.5-0.5-0.7-0.7c-0.1-0.1-0.2-0.2-0.4-0.3
	L11,60.4c-1.8-1.9-3.4-4-4.8-6.2c-1.4-2.2-2.5-4.5-3.3-6.9c-0.1-0.2-0.2-0.5-0.2-0.8c-0.1-0.3-0.2-0.6-0.2-1c0-0.2-0.1-0.4-0.1-0.6
	c0-0.2-0.1-0.4-0.1-0.6C2.1,43.9,2,43.5,2,43c-0.2-1.8-0.3-3.8-0.3-5.4c0-2.9,0.3-5.8,0.9-8.7c0.6-2.8,1.6-5.6,2.8-8.3
	c0.7-1.4,1.5-2.7,2.4-4l0.7-0.9c0.1-0.2,0.2-0.3,0.3-0.5l0.4-0.5l0.7-0.9l0.8-0.9l0.4-0.4l0.4-0.4l0.8-0.8l0.9-0.8l0.4-0.4
	c0.1-0.1,0.3-0.2,0.4-0.4l0.9-0.7c0.3-0.2,0.6-0.5,0.9-0.7L16.3,8c0.2-0.1,0.3-0.2,0.5-0.3c0.3-0.2,0.7-0.4,1-0.6
	c0.3-0.2,0.7-0.4,1-0.6l0.5-0.3C19.5,6,19.7,6,19.8,5.9c0.3-0.2,0.7-0.4,1-0.6c0.4-0.2,0.7-0.3,1.1-0.5l0.5-0.3
	c0.2-0.1,0.4-0.2,0.5-0.2c0.4-0.2,0.7-0.3,1.1-0.5c0.4-0.1,0.7-0.3,1.1-0.4l0.6-0.2c0.2-0.1,0.4-0.1,0.6-0.2
	c0.4-0.1,0.8-0.2,1.1-0.4c0.4-0.1,0.8-0.2,1.2-0.3l0.6-0.1l0.6-0.1c0.4-0.1,0.8-0.2,1.2-0.2c0.4-0.1,0.8-0.1,1.2-0.2
	c0.2,0,0.4-0.1,0.6-0.1l0.6-0.1c0.4,0,0.8-0.1,1.2-0.1c0.4,0,0.8-0.1,1.2-0.1c0.3,0,0.7,0,1,0c0.3,0,0.7,0,1,0.1
	c0.6,0.1,1.1,0.2,1.3,0.3c0.2,0.1,0.1,0.2-0.4,0.3c-0.3,0.1-0.6,0.1-1.1,0.1c-0.3,0-0.5,0.1-0.9,0.1c-0.2,0-0.3,0-0.5,0
	c-0.2,0-0.4,0-0.6,0.1C33.1,2.7,30.6,3.2,28,4c-2.5,0.8-4.9,1.8-7.3,3.1c0.1-0.1,0.3-0.3,0.6-0.5c0.3-0.2,0.7-0.4,1-0.6
	c0.2-0.1,0.4-0.2,0.6-0.3c0.2-0.1,0.4-0.2,0.6-0.3c0.4-0.2,0.7-0.3,1-0.5c-1.8,0.7-3.5,1.4-5,2.3c-1.6,0.9-3,1.9-4.5,3.1
	c2-1.7,4.1-3.1,6.4-4.3c-1.4,0.8-2.8,1.6-4.2,2.6c-1.4,1-2.7,2.1-4,3.3c-1.3,1.2-2.4,2.5-3.5,3.9c-1.1,1.4-2,2.9-2.9,4.4
	c-0.3,0.6-0.6,1.1-1,1.6c-0.3,0.5-0.7,1.1-1,1.7c-0.2,0.3-0.3,0.6-0.5,0.9c-0.1,0.2-0.2,0.3-0.2,0.5C4,25.1,4,25.3,3.9,25.5
	c-0.1,0.4-0.2,0.7-0.3,1.2c-0.1,0.4-0.2,0.8-0.2,1.3C4.7,23.6,7,19.4,10,15.9c3-3.6,6.7-6.6,10.8-8.8c0,0,0,0,0,0
	c3.6-2,7.2-3.2,11.2-3.9c-0.6,0.1-1.2,0.3-1.8,0.4C29.5,3.7,29,3.9,28.4,4c2.8-0.6,5.7-1,8.6-1c2.9,0,5.7,0.3,8.5,1
	c-4-0.7-8.1-0.8-12.2-0.2c-4.1,0.6-8.1,1.9-11.8,3.9c-3.7,2-7,4.6-9.8,7.8C9,18.7,6.9,22.3,5.6,26.1c1-2,2.1-4.4,3.4-6.5
	c1.3-2.2,2.9-4.1,4.5-5.3c-5.1,5.2-8.5,12-9.6,19.4c0-0.3,0-0.6,0.1-0.8c0-0.1,0-0.3,0-0.4L4,32c-0.6,2.3-0.8,4.7-0.7,7.1
	c0.1,2.4,0.5,4.8,1,7.1c0.1,0.4,0.2,0.8,0.3,1.2c-0.1-0.4-0.2-0.8-0.3-1.2c-1-4.2-1.1-8.5-0.5-12.6c-0.1,1.9-0.2,3.9-0.2,6.3
	c0-0.7,0.1-1.4,0.1-2.3C4,36.8,4,35.9,4.2,35c0.2-2.4,0.7-4.8,1.5-7.1c-0.1,0.4-0.3,0.9-0.4,1.3c-0.1,0.5-0.2,0.9-0.3,1.4l-0.1,0.3
	l-0.1,0.3c0,0.2-0.1,0.5-0.1,0.7c0,0.2-0.1,0.4-0.1,0.7c0,0.2,0,0.5-0.1,0.7c0,0.2,0,0.4-0.1,0.7l0,0.3l0,0.3c0,0.4,0,0.9-0.1,1.3
	c0,0.9,0,1.7,0.1,2.6c0.1-2.5,0.3-5,0.9-7.5c0.6-2.5,1.4-4.9,2.5-7.1c-0.6,1.2-1,2.5-1.5,3.8l-0.3,1c-0.1,0.3-0.2,0.7-0.3,1
	c-0.1,0.7-0.3,1.3-0.4,2c-1,4.5-1,9.2,0,13.8c0-0.2-0.1-0.3-0.1-0.5c0.1,0.3,0.2,0.7,0.3,1c0.1,0.4,0.2,0.9,0.3,1.3
	c0.1,0.4,0.3,0.9,0.4,1.3c0.2,0.4,0.3,0.9,0.5,1.3c0.1,0.2,0.2,0.4,0.3,0.6l0.3,0.6c0.2,0.4,0.4,0.8,0.5,1.1
	c0.2,0.4,0.4,0.7,0.6,1.1c0.2,0.3,0.4,0.7,0.7,1c0.2,0.3,0.5,0.7,0.7,1c0.1,0.2,0.3,0.5,0.4,0.7c-0.4-0.4-0.6-0.5,0,0.3
	c1.1,1.8,2.6,3.6,4.2,5.2c1.7,1.6,3.5,3.1,5.6,4.5c1.1,0.8,2.6,1.6,4.4,2.3c0.4,0.3,0.7,0.3,1,0.4c0.2,0.1,0.4,0.1,0.6,0.2
	c0.2,0.1,0.4,0.1,0.6,0.2c0.5,0.2,0.9,0.3,1.4,0.5c0.2,0.1,0.5,0.1,0.7,0.2l0.4,0.1c0.1,0,0.2,0,0.4,0.1c-0.1,0-0.2-0.1-0.4-0.1
	c-0.1,0-0.2-0.1-0.4-0.1c-0.2-0.1-0.5-0.1-0.7-0.2c-0.5-0.1-1-0.3-1.4-0.4c-0.4-0.1-0.7-0.2-1.1-0.4c0.1,0,0.3,0,0.4,0.1
	c0.2,0,0.4,0.1,0.6,0.2c-3.2-1.2-6.3-2.9-9.1-5.1c-1.4-1.1-2.7-2.3-3.9-3.6c-0.3-0.3-0.6-0.7-0.9-1l-0.8-1l-0.8-1.1
	c-0.1-0.2-0.3-0.4-0.4-0.5l-0.4-0.6c0.1,0.2,0.3,0.4,0.5,0.5c0.1,0.1,0.2,0.2,0.2,0.2c0.1,0.1,0.1,0.1,0.2,0.2
	c-0.1-0.1-0.2-0.3-0.3-0.4l-0.3-0.4c-0.2-0.3-0.5-0.5-0.7-0.8c-1.2-1.9-2.3-4-3.1-6.2c0.1,0.3,0.3,0.6,0.4,0.9
	c0.2,0.3,0.3,0.5,0.5,0.8l-0.2-0.6c-0.1-0.2-0.2-0.4-0.2-0.6l-0.4-1.2c-0.1-0.4-0.2-0.8-0.4-1.2c-0.1-0.2-0.1-0.4-0.2-0.6L6,46.3
	c-0.2-0.8-0.4-1.6-0.6-2.4l-0.2-1.2l-0.1-0.3c0-0.1,0-0.2,0-0.3l-0.1-0.6L5,40.9c0-0.2,0-0.4,0-0.6c0-0.4-0.1-0.8-0.1-1.2l0-1.2
	c0-0.2,0-0.4,0-0.6l0-0.6l0-0.6l0-0.6c0-0.4,0.1-0.8,0.1-1.2l0.2-1.2c0-0.2,0.1-0.4,0.1-0.6l0.1-0.6l0.1-0.6c0-0.2,0.1-0.4,0.1-0.6
	L6,29.4l0.3-1.1l0.2-0.5l0.2-0.5c0.1-0.4,0.3-0.7,0.4-1.1l0.5-1.1c0.1-0.4,0.3-0.7,0.5-1l0.3-0.5c0.1-0.2,0.2-0.3,0.3-0.5l0.6-1
	l0.1-0.2l0.2-0.2l0.3-0.5c0.4-0.7,0.8-1.3,1.3-1.9l0.7-0.9c0.1-0.1,0.2-0.3,0.3-0.4l0.4-0.4c0.2-0.3,0.5-0.6,0.7-0.9l0.8-0.8
	c-0.3,0.3-0.6,0.6-0.9,0.9c-0.3,0.3-0.6,0.6-0.9,0.9c-0.3,0.3-0.6,0.6-0.8,1c-0.1,0.2-0.3,0.3-0.4,0.5c-0.1,0.2-0.3,0.3-0.4,0.5
	c-0.2,0.3-0.5,0.7-0.7,1c-0.2,0.4-0.5,0.7-0.7,1.1c-0.2,0.4-0.4,0.8-0.7,1.1c-0.2,0.4-0.4,0.8-0.6,1.2c1.9-4.3,4.8-8.1,8.4-11.1
	c3.6-3,7.8-5.3,12.4-6.4c-0.4,0.2-0.8,0.4-1.2,0.6C27.3,7,27.2,7,27.1,7.1l-0.3,0.2c-0.2,0.1-0.4,0.2-0.6,0.3
	c-0.4,0.2-0.8,0.5-1.1,0.7c-0.3,0.2-0.6,0.4-0.8,0.6C24.4,9,27.1,8,25.6,8.7c-0.3,0.2-0.7,0.4-1,0.5c-0.3,0.2-0.6,0.4-0.9,0.5
	c-0.3,0.2-0.6,0.4-0.9,0.5c-0.3,0.2-0.6,0.3-0.9,0.5c-0.3,0.2-0.5,0.4-0.8,0.5c-0.1,0.1-0.3,0.2-0.4,0.3c-0.1,0.1-0.2,0.2-0.4,0.3
	c-0.2,0.2-0.5,0.3-0.7,0.5c-0.2,0.2-0.4,0.3-0.6,0.5c-0.2,0.2-0.4,0.3-0.6,0.5c-0.2,0.2-0.4,0.3-0.5,0.5c-0.2,0.2-0.3,0.3-0.5,0.5
	c-0.2,0.2-0.3,0.3-0.4,0.5c-0.1,0.2-0.3,0.3-0.4,0.5c-0.1,0.1-0.1,0.2-0.2,0.2c-0.1,0.1-0.1,0.2-0.2,0.2c-0.2,0.3-0.4,0.6-0.5,0.9
	c-0.1,0.3,1.3-0.6,2.4-1.2c0.6-0.3,1.2-0.5,1.5-0.6c0.3-0.1,0.4,0,0,0.4c-1.3,1.1-3.5,3.2-5.3,5.9c-0.2,0.2-0.3,0.4-0.4,0.6
	c-0.1,0.2-0.3,0.4-0.4,0.6c-0.1,0.2-0.3,0.4-0.4,0.6c-0.1,0.2-0.3,0.4-0.4,0.6c-0.1,0.1-0.1,0.3-0.2,0.6c-0.8,1.6-1.5,3.1-2,4.6
	c-0.1,0.4-0.2,0.7-0.3,1c-0.1,0.3-0.2,0.6-0.3,1c-0.1,0.6-0.3,1.1-0.4,1.6c-0.1,0.3-0.2,0.7-0.2,1c-0.1,0.3-0.1,0.7-0.2,1
	c-0.1,0.2-0.1,0.3-0.2,0.5C9,35,8.9,35.1,8.9,35.2c0,0.2,0,0.4,0,0.7l0,0.3l0,0.3C8.8,38.4,8.8,40.2,9,42l0.1,0.8
	c0,0.3,0,0.5,0.1,0.8c0,0.3,0.1,0.5,0.1,0.8c0,0.3,0.1,0.5,0.1,0.7c0.1,0,0.1-0.2,0.2,0c0.5,2.2,1.3,4.3,2.3,6.3
	c0.2,0.4,0.3,0.8,0.5,1.2c0.2,0.4,0.3,0.8,0.4,1.1c0.1,0.1,0.2,0.2,0.4,0.4c0.1,0.1,0.3,0.3,0.4,0.4c0.1,0.2,0.3,0.3,0.4,0.5
	c0.1,0.2,0.3,0.3,0.4,0.5c0.2,0.2,0.3,0.4,0.5,0.6c0.2,0.2,0.3,0.4,0.5,0.6c0.3,0.4,0.7,0.8,1.1,1.2c1.5,1.6,3.3,3.2,5,4.3l0,0
	c1.6,1.1,3.4,2.1,5.2,2.8c0.3,0.2,0.6,0.4,0.8,0.5c0.5,0.1,1,0.2,1.3,0.3c0.4,0.1,0.7,0.3,1.1,0.4c0.1,0,0.2,0.1,0.3,0.1
	c0.1,0,0.2,0.1,0.3,0.1c0.2,0.1,0.3,0.1,0.5,0.2c0.7,0.2,1.3,0.4,2,0.6c0.3,0,0.8-0.1,1.3-0.1c0.1,0,0.3,0,0.4,0.1
	c0.1,0,0.3,0,0.4,0c0.3,0,0.5,0,0.8,0.1c0.3,0,0.5,0,0.8,0c0.3,0,0.5,0,0.8,0c0.1,0,0.3,0,0.4,0l0.4,0c0.3,0,0.6,0,0.9,0
	c0.3,0,0.6,0,0.9,0c0.1,0,0.3,0,0.4,0l0.4,0c4-0.3,8-1.4,11.5-3.2c0.2,0,0.2,0.1,0.3,0.1c0.2-0.2,0.6-0.4,0.9-0.6
	c0.2-0.1,0.3-0.2,0.5-0.3c0.1-0.1,0.3-0.2,0.4-0.3c-0.1,0.1-0.1,0.2-0.1,0.2c0.4-0.3,0.7-0.5,0.9-0.7c0.3-0.2,0.5-0.3,0.7-0.5
	c0.5-0.3,0.9-0.5,1.6-1c0.3-0.2,0.5-0.6,0.7-0.8c0.1-0.1,0.3-0.2,0.4-0.4c0.4-0.3,0.8-0.5,1.2-0.8c0.4-0.3,0.7-0.7,1-1
	c0.3-0.4,0.6-0.8,0.9-1.2c0.3-0.4,0.6-0.8,0.9-1.3c1.3-1.7,2.4-3.5,3.4-5.4c0.2-0.4,0.3-0.7,0.5-1c0.1-0.3,0.3-0.5,0.4-0.8
	c0.1-0.2,0.3-0.4,0.4-0.7C67.5,47.3,67.6,47.1,67.7,46.8z"/>
<path class="st1" d="M17.8,59.6c1.3,1.4,2.8,2.6,4.4,3.7c-0.9-0.5-1.7-1.1-2.5-1.7c-0.1-0.1-0.2-0.1-0.3-0.2
	c-0.1-0.1-0.2-0.2-0.3-0.2c-0.2-0.2-0.3-0.3-0.5-0.5C18.3,60.3,18.1,59.9,17.8,59.6z"/>
<path class="st1" d="M21,14.6c0.7-0.3,1.5-0.6,2.3-1l-0.8,0.5l-0.7,0.5c-0.5,0.3-1,0.7-1.4,1c-0.9,0.7-1.8,1.5-2.6,2.3
	c-0.8,0.8-1.6,1.7-2.4,2.6l-0.5,0.7l-0.3,0.4L14.3,22c-0.2,0.2-0.3,0.5-0.5,0.7c-0.2,0.3-0.3,0.5-0.5,0.8l0,0
	c0.1-0.2,0.2-0.4,0.4-0.6c0.1-0.2,0.3-0.4,0.4-0.6c0.1-0.2,0.3-0.4,0.4-0.7c0.2-0.2,0.3-0.4,0.5-0.6c0.3-0.4,0.7-0.9,1-1.3
	c0.2-0.2,0.4-0.4,0.6-0.6c0.2-0.2,0.4-0.4,0.6-0.6C18.6,16.8,20.1,15.6,21,14.6z"/>
<path class="st1" d="M14.4,55.6c0.1,0,0.1,0.1,0.2,0.2c0,0,0,0,0,0C14.6,55.7,14.5,55.7,14.4,55.6z"/>
<path class="st1" d="M28,7.1C28.1,7,28.3,7,28.5,6.9c-0.6,0.2-1.2,0.4-1.8,0.7C26.3,7.7,26,7.9,25.7,8l-0.9,0.4
	c0.5-0.2,1-0.5,1.5-0.7c0.3-0.1,0.5-0.2,0.8-0.3C27.4,7.3,27.7,7.2,28,7.1z"/>
<path class="st1" d="M41.9,6.1l1,0.1l1,0.2l0.5,0.1c0.2,0,0.3,0.1,0.5,0.1l1,0.2c1.3,0.3,2.6,0.7,3.8,1.2c3.2,1.3,6,3.2,8.3,5.4
	c-2.2-1.9-4.8-3.5-7.5-4.8C47.8,7.4,44.9,6.5,41.9,6.1z"/>
<path class="st1" d="M29.2,10.8c0.2-0.1,0.5-0.1,0.7-0.2c0.2,0,0.5-0.1,0.7-0.1c0.5-0.1,1-0.1,1.5-0.2c-0.5,0.1-1,0.2-1.4,0.3
	L30,10.8c-0.2,0.1-0.5,0.1-0.7,0.2C29.4,10.9,29.2,10.8,29.2,10.8z"/>
<path class="st1" d="M18.3,12.3c0.2-0.2,0.4-0.3,0.6-0.5c-0.5,0.5-1,0.9-1.5,1.4c0.1-0.1,0.2-0.3,0.4-0.4
	C18,12.6,18.2,12.4,18.3,12.3z"/>
<path class="st1" d="M39.5,10c-0.4,0-0.7-0.1-1.1-0.1c-0.2,0-0.4,0-0.5,0l-0.5,0c0.2,0,0.4,0,0.6-0.1c0.2,0,0.4,0,0.6-0.1
	C38.9,9.8,39.2,9.9,39.5,10z"/>
<path class="st1" d="M50.2,12.8c0.2,0.1,0.4,0.2,0.6,0.3c0.2,0.1,0.4,0.2,0.6,0.4c0.1,0.1,0.2,0.1,0.3,0.2c0.1,0.1,0.2,0.1,0.3,0.2
	c0.2,0.1,0.4,0.2,0.6,0.4c-1-0.6-2-1.1-3-1.6c0.1,0,0.3,0,0.4,0.1C50.1,12.8,50.2,12.8,50.2,12.8z"/>
<path class="st1" d="M68.2,29.6c-0.3-1.2-0.8-3.3-1.9-5.5c-1-2.3-2.6-4.8-4.5-7.1c-2-2.3-4.3-4.3-6.7-5.9c-0.3-0.2-0.6-0.4-0.9-0.6
	c-0.1,0-0.1-0.1-0.2-0.1c-0.1,0-0.1-0.1-0.2-0.1c-0.1-0.1-0.3-0.2-0.4-0.2c-0.3-0.2-0.6-0.3-0.9-0.5c-0.1-0.1-0.3-0.2-0.4-0.2
	c-0.1-0.1-0.3-0.1-0.4-0.2c-0.3-0.1-0.6-0.3-0.8-0.4c-0.1-0.1-0.3-0.1-0.4-0.2c-0.1-0.1-0.3-0.1-0.4-0.2c-0.5-0.2-1-0.4-1.5-0.6
	c-1.4-0.5-2.7-0.9-3.8-1.2c-0.3-0.1-0.6-0.1-0.8-0.2c-0.3-0.1-0.5-0.1-0.8-0.2c-0.1,0-0.2-0.1-0.4-0.1c-0.1,0-0.2,0-0.4-0.1
	C42.3,6.1,42,6,41.8,6c-0.7-0.1-0.2,0,1,0.1c0.3,0.1,0.7,0.1,1.1,0.2c0.2,0,0.4,0.1,0.6,0.1c0.2,0.1,0.5,0.1,0.7,0.2
	c0.2,0.1,0.5,0.1,0.8,0.2c0.3,0.1,0.5,0.2,0.8,0.3c0.3,0.1,0.6,0.2,0.8,0.3c0.1,0,0.3,0.1,0.4,0.1c0.1,0.1,0.3,0.1,0.4,0.2
	c0.5,0.2,1.1,0.4,1.7,0.7c0.6,0.3,1.1,0.5,1.8,0.8c0.2,0.1,0.3,0.2,0.5,0.2c0.2,0.1,0.3,0.2,0.5,0.3c0.3,0.2,0.6,0.3,0.9,0.5
	c0.2,0.1,0.3,0.2,0.5,0.3c0.2,0.1,0.3,0.2,0.5,0.3c0.3,0.2,0.6,0.4,1,0.6c-0.4-0.3-0.8-0.6-1.2-0.8c-0.2-0.1-0.4-0.3-0.6-0.4
	c-0.2-0.1-0.4-0.2-0.6-0.4c-0.4-0.2-0.8-0.5-1.2-0.7c-0.4-0.2-0.8-0.4-1.2-0.6c-0.2-0.1-0.4-0.2-0.6-0.3c-0.2-0.1-0.4-0.2-0.6-0.3
	c-0.4-0.2-0.8-0.3-1.1-0.5c-0.1,0-0.2-0.1-0.3-0.1c-0.1,0-0.2-0.1-0.3-0.1c-0.2-0.1-0.4-0.1-0.5-0.2c-0.4-0.1-0.7-0.2-1-0.4
	c-1.9-0.5-3.9-0.9-6-1.1c-4.5-0.4-9,0.1-13.3,1.6c-4.2,1.4-8.1,3.7-11.5,6.7c-0.2,0.1-0.3,0.3-0.5,0.4c-0.2,0.2-0.3,0.3-0.5,0.5
	c-0.2,0.2-0.4,0.4-0.6,0.6c-0.2,0.2-0.4,0.4-0.6,0.6c-0.2,0.2-0.4,0.4-0.6,0.7c-0.2,0.2-0.4,0.5-0.6,0.7c-0.1,0.1-0.2,0.2-0.3,0.4
	c-0.1,0.1-0.2,0.3-0.3,0.4c-0.2,0.3-0.4,0.5-0.6,0.8c-0.2,0.3-0.4,0.5-0.6,0.8c-0.2,0.3-0.4,0.5-0.5,0.8c-0.2,0.3-0.3,0.5-0.5,0.8
	c-0.2,0.3-0.3,0.5-0.5,0.8c-0.1,0.3-0.3,0.5-0.4,0.7c-0.1,0.1-0.1,0.2-0.2,0.4c-0.1,0.1-0.1,0.2-0.2,0.3c-0.2,0.5-0.4,0.9-0.6,1.2
	c0,0,0,0,0-0.1c0-0.1,0.1-0.2,0.1-0.3c0.1-0.3,0.3-0.7,0.5-1.1c0.5-1,1.2-2.3,2.3-3.9c1.1-1.5,2.4-3.2,4.1-4.9
	c0.2-0.2,0.4-0.4,0.6-0.6c0.2-0.2,0.4-0.4,0.7-0.6c0.2-0.2,0.5-0.4,0.7-0.6c0.2-0.2,0.5-0.4,0.7-0.6c1-0.7,2-1.5,3.1-2.1
	c2.1-1.3,4.4-2.3,6.6-3.1c2.2-0.7,4.3-1.2,6.2-1.4c0.5-0.1,0.9-0.1,1.3-0.1c0.4,0,0.8-0.1,1.2-0.1c0.4,0,0.7,0,1.1,0
	c0.3,0,0.6,0,0.9,0c1.1,0,1.7,0.1,1.7,0.1c-0.4,0-0.7,0-1.1-0.1c0,0-0.1,0-0.2,0c-0.2,0-0.4,0-0.7,0c-0.3,0-0.6,0-1,0
	c-0.2,0-0.4,0-0.6,0c-0.2,0-0.5,0-0.7,0c-2,0.1-4.6,0.5-7.1,1.3c-0.3,0.1-0.6,0.2-0.9,0.3L27.1,7l-0.2,0.1c-0.2,0.1-0.3,0.1-0.5,0.2
	c-0.3,0.1-0.6,0.2-0.9,0.3C25.3,7.7,25,7.8,24.7,8c-1.1,0.5-2.2,1-3,1.5c-0.2,0.1-0.4,0.2-0.6,0.3c-0.2,0.1-0.4,0.2-0.5,0.3
	c-0.2,0.1-0.3,0.2-0.5,0.3c-0.1,0.1-0.3,0.2-0.4,0.3c-0.5,0.3-0.8,0.5-0.8,0.5c-0.2,0.2-0.5,0.4-0.7,0.5c-0.2,0.2-0.5,0.4-0.7,0.5
	c-0.2,0.2-0.5,0.4-0.7,0.6c-0.2,0.2-0.5,0.4-0.7,0.6c0,0,0,0,0.1-0.1c0.1-0.1,0.2-0.2,0.3-0.3c0.3-0.2,0.6-0.5,1-0.8
	c0.4-0.3,0.7-0.5,1-0.7c0.1-0.1,0.3-0.2,0.3-0.2c0.1-0.1,0.1-0.1,0.1-0.1c1.3-0.9,2.6-1.7,4-2.4c1.4-0.7,2.9-1.3,4.5-1.9
	c0.2-0.1,0.5-0.2,0.8-0.2c0.3-0.1,0.5-0.2,0.8-0.2c0.3-0.1,0.5-0.1,0.8-0.2l0.4-0.1c0.1,0,0.3-0.1,0.4-0.1c1.1-0.2,2.2-0.4,3.2-0.5
	c1.7-0.2,3.3-0.2,4.9-0.1c0,0,0.2,0,0.5,0c0.1,0,0.3,0,0.5,0c0.2,0,0.4,0,0.6,0.1c0.4,0,0.8,0.1,1.1,0.1c0.3,0,0.5,0.1,0.5,0.1
	c0.3,0,0.6,0.1,1,0.1c0,0,0,0,0,0C42,5.6,39.9,5.2,37,5.1c-2.9,0-6.6,0.5-10.2,1.6C25,7.4,23.3,8.1,21.7,9c-1.6,0.9-3.1,1.8-4.3,2.8
	c-2.5,1.9-4.2,3.8-4.9,4.7c-0.3,0.3-0.5,0.7-0.8,1c-0.3,0.3-0.5,0.7-0.7,1.1c-0.3,0.3-0.5,0.7-0.7,1.1c-0.1,0.2-0.2,0.4-0.3,0.5
	c-0.1,0.2-0.2,0.4-0.3,0.6c-0.1,0.2-0.2,0.4-0.3,0.6c-0.1,0.2-0.2,0.4-0.3,0.6c-0.2,0.4-0.4,0.8-0.6,1.2c-0.2,0.4-0.4,0.8-0.6,1.3
	c0,0.1-0.1,0.2-0.1,0.3c0,0.1-0.1,0.2-0.1,0.3c-0.1,0.2-0.2,0.4-0.3,0.7c-0.5,1.2-0.9,2.2-1.1,3.2c0,0.1,0,0.2-0.1,0.4
	c0,0.2-0.1,0.4-0.1,0.7c-0.1,0.3-0.2,0.6-0.2,0.9c-0.1,0.3-0.1,0.6-0.2,0.9c-0.1,0.3-0.1,0.6-0.2,0.9c0,0.3-0.1,0.6-0.1,0.9
	C5,34.3,5,34.9,4.9,35.5c-0.1,0.6,0,1.1,0,1.6c0,0.2,0,0.4,0,0.6c0,0.2,0,0.5,0,0.8c0,0.3,0,0.6-0.1,0.9c0,0.3,0,0.6,0,0.9
	c0,0.6,0,1.2,0,1.6c0,0.2,0,0.4,0,0.5c0,0.1,0,0.2,0.1,0.3c0.3,0.5,0.3,0.6,0.3,0.9c0,0.2,0,0.4,0.1,0.8c0,0.2,0.1,0.4,0.1,0.7
	c0,0.1,0.1,0.3,0.1,0.5c0,0.2,0.1,0.4,0.1,0.6c0.1,0.2,0.2,0.6,0.4,1.1c0.2,0.4,0.4,0.9,0.5,1.3c0.2,0.6,0.4,1.2,0.6,1.6
	c0.2,0.5,0.4,0.9,0.6,1.3C7.8,52,8,52.4,8.3,52.9c0.1,0.2,0.3,0.5,0.4,0.8c0.1,0.1,0.2,0.3,0.3,0.4c0.1,0.2,0.2,0.3,0.3,0.5
	c0.2,0.2,0.3,0.5,0.4,0.7c0.1,0.2,0.3,0.4,0.4,0.6c0.3,0.4,0.5,0.8,0.7,1.1c0.2,0.3,0.5,0.6,0.7,0.9c0.1,0.1,0.2,0.3,0.3,0.4
	c0.1,0.1,0.2,0.3,0.3,0.4c0.2,0.3,0.4,0.5,0.6,0.8c0.2,0.3,0.5,0.5,0.7,0.8c0.1,0.1,0.3,0.3,0.4,0.4c0.1,0.1,0.3,0.3,0.5,0.4
	c0.3,0.3,0.6,0.6,1.1,0.9c0.1,0.1,0.5,0.4,1,0.8c0.5,0.4,1.2,0.9,1.9,1.4c0.2,0.1,0.3,0.2,0.5,0.4c0.2,0.1,0.3,0.2,0.5,0.3
	c0.3,0.2,0.6,0.4,0.9,0.6c0.3,0.2,0.5,0.3,0.6,0.4C20.9,66,21,66,21,66c2.1,1.3,4,2.1,5.8,2.7c1.8,0.6,3.4,1.1,5.3,1.5
	c0.1,0,0.3,0,0.4,0.1c0.1,0,0.3,0,0.4,0c0.3,0,0.6,0.1,0.9,0.1c0.3,0,0.6,0.1,0.9,0.1c0.3,0,0.6,0,0.9,0.1c0.3,0,0.6,0,1,0
	c0.2,0,0.3,0,0.5,0l0.2,0l0.2,0c0.7,0,1.3,0,2,0c2.6-0.1,5.3-0.5,7.6-1.3c1.1-0.4,2.1-0.7,3-1c0.4-0.2,0.8-0.3,1.2-0.5
	c0.4-0.2,0.8-0.3,1.1-0.5c0.2-0.1,0.4-0.2,0.5-0.3c0.2-0.1,0.4-0.2,0.5-0.3c0.2-0.1,0.4-0.2,0.6-0.3c0.2-0.1,0.4-0.2,0.6-0.3
	c0.8-0.4,1.5-0.9,2.4-1.5c0.2-0.2,0.5-0.3,0.7-0.5c0.2-0.2,0.4-0.3,0.6-0.5c0.4-0.3,0.7-0.5,1-0.7c0.3-0.2,0.7-0.6,1.2-1.1
	c0.2-0.2,0.5-0.5,0.7-0.7c0.2-0.2,0.5-0.5,0.7-0.7l-0.1,0.3c0.3-0.3,0.8-0.9,1.1-1.2c0.3-0.3,0.2-0.2,0.2-0.1
	c-0.1,0.2-0.2,0.4,0.3-0.1c0.1-0.2,0.3-0.3,0.4-0.5c0.1-0.2,0.3-0.3,0.4-0.5c0.3-0.3,0.5-0.7,0.8-1c0.5-0.7,1-1.4,1.5-2.2
	c0.9-1.5,1.6-3.1,2.2-4.7c0-0.1,0-0.2,0.1-0.5c0.2-0.5,0.3-1,0.4-1.5c0-0.3-0.1-0.3-0.1-0.5C68.9,48,69,47.5,69,47
	c0-0.5,0-0.9-0.2-0.7c-0.1,0.1-0.3,0.8-0.6,1.6c-0.2,0.4-0.3,0.9-0.5,1.3c-0.2,0.4-0.4,0.8-0.5,1.1c-0.1,0.3,0-0.4,0-0.7
	c-0.6,1.5-0.8,1.6-0.6,0.9c-0.1,0.2-0.2,0.3-0.2,0.5c-0.1,0.1-0.1,0.2-0.1,0.2c0-0.1,0-0.4,0-0.4c-0.9,1.8-2,3.7-3.4,5.4
	c-1.3,1.7-2.7,3.3-4.2,4.6c-0.3,0.3-0.7,0.7-1.1,1.1c-0.2,0.2-0.4,0.4-0.6,0.6c-0.2,0.2-0.4,0.3-0.6,0.5c-0.1,0.1-0.2,0.2-0.4,0.3
	c-0.1,0.1-0.3,0.2-0.4,0.3c-0.3,0.2-0.6,0.4-0.8,0.5c-0.2,0.2-0.3,0.3-0.4,0.4c-0.1,0.1-0.1,0.2-0.2,0.3c-0.2,0.1-0.3,0.2-0.5,0.3
	c-0.2,0.1-0.4,0.2-0.6,0.3c-0.4,0.2-0.8,0.4-1.3,0.7c-0.2,0.1-0.5,0.2-0.7,0.3c-0.2,0.1-0.5,0.2-0.7,0.3c-0.2,0.1-0.5,0.2-0.7,0.3
	c-0.2,0.1-0.5,0.2-0.7,0.3c-0.5,0.2-0.9,0.3-1.3,0.5c-0.4,0.1-0.7,0.3-1,0.4c-0.3,0.1-0.5,0.2-0.7,0.3c-0.1,0.1-0.2,0.1-0.2,0.2
	c-0.3,0.1-0.6,0.1-0.8,0.2c-0.2,0.1-0.5,0.1-0.7,0.2c-0.2,0.1-0.4,0.1-0.6,0.1c-0.2,0-0.4,0.1-0.5,0.1c-0.4,0.1-0.7,0.2-1.1,0.2
	c-0.4,0.1-0.9,0.1-1.5,0.2c-1.7,0.2-3.5,0.2-5.5,0c-2-0.2-4.1-0.5-6.1-1.1c-2.2-0.6-4.2-1.4-6.2-2.5c-0.2-0.1-0.4-0.2-0.5-0.3
	c-0.1,0-0.2-0.1-0.3-0.1c-0.1-0.1-0.2-0.1-0.3-0.2c-0.3-0.2-0.7-0.4-1-0.6c-3.5-2.2-6.3-4.9-8.5-7.9c-2.2-3-3.8-6.3-4.8-9.7
	c-0.5-1.7-0.9-3.4-1.1-5.2C6,40.3,5.9,38.5,6,36.7c0.1-1.8,0.3-3.7,0.7-5.6c0.4-1.9,1-3.7,1.7-5.6c1.5-3.8,3.8-7.3,6.7-10.2
	c2.9-2.9,6.4-5.3,10.1-6.8C29,6.8,33,6,36.8,6c0.5,0,1,0,1.4,0c0.5,0,1,0,1.4,0.1c0.5,0,0.9,0.1,1.4,0.1c0.5,0.1,0.9,0.1,1.4,0.2
	c1.8,0.3,3.6,0.7,5.2,1.3C48.2,7.8,48.6,8,49,8.1c0.4,0.2,0.8,0.3,1.2,0.5c0.4,0.2,0.8,0.4,1.1,0.5c0.4,0.2,0.8,0.3,1.1,0.6
	c0.7,0.4,1.4,0.8,2.1,1.2c0.3,0.2,0.7,0.4,1,0.6c0.3,0.2,0.6,0.5,0.9,0.7c2.4,1.8,4.4,3.9,5.9,5.8c0.2,0.2,0.4,0.5,0.6,0.7
	c0.2,0.2,0.3,0.5,0.5,0.7c0.2,0.2,0.3,0.5,0.5,0.7c0.2,0.2,0.3,0.5,0.4,0.7c0.3,0.5,0.5,0.9,0.8,1.3c0.2,0.4,0.4,0.9,0.6,1.3
	c0.2,0.4,0.4,0.8,0.5,1.2c0.2,0.4,0.3,0.7,0.5,1c0.3,0.7,0.5,1.2,0.6,1.7c0,0,0,0,0,0.1c0,0.1,0.1,0.1,0.1,0.2
	c0.1,0.2,0.2,0.5,0.3,0.7C68,29.1,68.2,29.6,68.2,29.6z"/>
<path class="st2" d="M69.3,24.7L69.3,24.7c0.1,0.2,0.1,0.3,0.2,0.4c0.1,0.2,0.3,0.5,0.4,0.8c0.1,0.4,0.3,0.8,0.5,1.4
	c0,0,0-0.1,0.2,0.3c0.1,0.4,0.2,0.7,0.2,0.9c0,0.2,0.1,0.3,0.1,0.3c0.1,0.1,0.1,0.2,0.3,0.8c0-0.2-0.1-0.4-0.1-0.6
	c-0.1-0.2-0.1-0.4-0.1-0.5c0,0,0,0.1,0.1,0.4c0.1,0.2,0.1,0.5,0.2,0.8c0.1,0.3,0.2,0.6,0.2,0.8c0.1,0.2,0.1,0.4,0.1,0.4
	c0-0.3,0-0.6,0.1-0.2c0.1-0.3,0.4,0.5,0.6,0.8c-0.1-0.4-0.1-0.8-0.1-1c0.1,0,0.2,0.5,0.3,1c0,0,0-0.1,0-0.2c0,0.1,0,0.1,0,0.2
	c0.1,0.3,0.1,0.7,0.2,1.1c0-0.2,0-0.4,0-0.3c0,0-0.1-0.4-0.1-0.7c0-0.2-0.1-0.4-0.1-0.5c0-0.1,0-0.2,0-0.2c0,0,0,0,0,0.1l-0.1-0.4
	l0,0.3c0,0.1-0.1-0.1-0.1-0.3C72,30.1,72,30,72,29.8l-0.2-0.8c-0.1-0.1,0,0.4,0.1,0.8c0,0.2,0.1,0.4,0.1,0.4c0,0,0-0.1-0.1-0.4
	l-0.1-0.4c-0.2-0.6-0.4-1.3-0.6-1.7c0-0.3-0.2-0.7-0.3-1c-0.1-0.3-0.2-0.6-0.2-0.7c-0.7-2.2-2.1-4.8-3.2-6.8
	c-0.3-0.3-0.4-0.2-1.1-0.9c-0.1-0.2-0.3-0.4-0.2-0.4c0,0,0,0-0.1-0.1c0,0-0.1-0.1-0.2-0.2c-0.1-0.1-0.2-0.3-0.2-0.3
	c0.1,0.2,0.2,0.3,0.4,0.5c0.1,0.2,0.2,0.3,0.2,0.4c-0.6-0.9,0.2,0.5,0.1,0.4c0,0-0.2-0.3-0.4-0.6c-0.1-0.1-0.2-0.3-0.3-0.4
	c-0.1-0.1-0.1-0.2-0.1-0.2l0.1,0.2c0.8,1.1,1.5,2.2,2.1,3.4C68.3,22.2,68.8,23.4,69.3,24.7L69.3,24.7z"/>
<path class="st2" d="M33,2.2l0,0.1c-0.4,0-0.7,0.1-1.1,0.2c-0.2,0-0.4,0.1-0.5,0.1l-0.3,0l-0.3,0.1c-0.7,0.2-1.5,0.3-2.2,0.5
	c-1.5,0.4-2.9,0.9-4.4,1.5c-0.4,0.2-0.7,0.3-1.1,0.5l-0.3,0.1l-0.3,0.1c-0.2,0.1-0.4,0.2-0.5,0.3c-0.7,0.3-1.4,0.7-2.1,1.1
	c-0.4,0.2-0.7,0.4-1,0.6l-0.5,0.3l-0.5,0.3c-0.3,0.2-0.7,0.5-1,0.7c-0.3,0.2-0.7,0.5-1,0.7c-2.7,2-5.1,4.5-7.2,7.3
	c-2.1,2.8-3.8,6-4.9,9.4c-0.6,1.7-1.1,3.5-1.4,5.3C2,33.3,1.7,35.2,1.7,37c0,0.2,0,0.5,0,0.7l0,0.7c0,0.5,0,0.9,0,1.4
	c0,0.5,0,0.9,0.1,1.4l0.1,1.4C2.2,44.4,2.5,46.2,3,48c0.5,1.8,1.2,3.5,1.9,5.2l0.6,1.3l0.7,1.2L6.4,56l0.2,0.3l0.4,0.6l0.4,0.6
	L7.7,58l0.4,0.6l0.2,0.3l0.2,0.3c0.3,0.4,0.6,0.7,0.8,1.1c0.3,0.4,0.6,0.7,0.9,1.1l0.2,0.3l0.2,0.3l0.5,0.5c1.2,1.3,2.6,2.6,4,3.7
	L14.3,66c3.1,2.5,6.8,4.5,10.7,5.8c0.5,0.2,1,0.3,1.5,0.5c0.5,0.1,1,0.3,1.5,0.4l0.4,0.1c0.1,0,0.2,0.1,0.4,0.1
	c0.2,0.1,0.5,0.1,0.7,0.2c0.2,0.1,0.5,0.1,0.7,0.2c0.2,0,0.5,0.1,0.7,0.1c0.2,0,0.5,0.1,0.7,0.1l0.4,0.1l0.4,0c0.5,0,1,0.1,1.4,0.1
	c1,0,1.9,0.1,2.8,0.1c0,0-0.2,0-0.4,0c-0.1,0-0.3,0-0.4,0c-0.2,0-0.3,0-0.5-0.1c-0.3,0-0.7-0.1-1-0.1c-0.1,0-0.2,0-0.3,0
	c-0.1,0-0.1,0-0.1,0c0.3,0,0.7,0,1.1,0c0.2,0,0.4,0,0.7,0c0.2,0,0.5,0,0.7,0c0.5,0,1.1,0,1.6,0c0.6,0,1.2,0,1.8-0.1
	c0.3,0,0.6-0.1,0.9-0.1c0.3,0,0.6-0.1,0.9-0.1c0.3,0,0.6-0.1,0.9-0.1c0.3-0.1,0.6-0.1,0.9-0.2c0.3-0.1,0.6-0.1,0.9-0.2
	c0.3-0.1,0.6-0.1,0.8-0.2c0.3-0.1,0.5-0.1,0.8-0.2c0.3-0.1,0.5-0.1,0.8-0.2l-0.4,0.2c-0.2,0-0.3,0.1-0.5,0.1c-0.1,0-0.3,0.1-0.4,0.1
	c-0.3,0.1-0.5,0.1-0.6,0.1c-0.4,0.1-0.6,0.1-0.7,0.2c-0.3,0.1-0.1,0,0.1,0c0.5-0.1,1.4-0.2,0.3,0.2c0,0-0.1,0-0.1,0
	c-0.1,0-0.2,0.1-0.3,0.1c-0.2,0.1-0.5,0.1-0.5,0.1l0.6,0c0,0,0.1,0,0.1,0c0.1,0,0.2-0.1,0.3-0.1c0.2-0.1,0.5-0.1,0.5-0.1
	c-0.1,0.1,0,0.2-0.9,0.4c0,0,0.1,0,0.2,0c0.1,0,0.3-0.1,0.4-0.1c0.3-0.1,0.6-0.1,0.6-0.1c2.8-0.4,2.9-0.2,2.6,0.3
	c0.4-0.1,0.3-0.2,0.6-0.4c0.1-0.1,0.3-0.2,0.7-0.3c0.4-0.1,0.9-0.3,1.6-0.6l-0.3,0.2c0,0,0.2-0.1,0.5-0.2c0.3-0.1,0.7-0.3,1.1-0.5
	c0.2-0.1,0.4-0.2,0.6-0.3c0.2-0.1,0.3-0.2,0.5-0.3c0.3-0.2,0.5-0.3,0.5-0.3s0.4-0.1,0.7-0.3c0.4-0.2,0.7-0.3,0.7-0.3
	c0.3-0.2,0.5-0.3,0.7-0.5c0.2-0.1,0.4-0.3,0.6-0.4c0.4-0.3,0.9-0.5,1.4-0.9l0.2-0.4c1.2-0.8,2.4-1.7,3.5-2.7c0.6-0.5,1.2-1,1.7-1.6
	c0.3-0.3,0.6-0.6,0.8-0.9c0.3-0.3,0.5-0.6,0.8-0.9c0.3-0.3,0.5-0.6,0.8-0.9l0.4-0.5c0.1-0.2,0.3-0.3,0.4-0.5
	c0.5-0.6,0.9-1.3,1.4-1.9c0.2-0.3,0.4-0.6,0.6-1c0.2-0.3,0.4-0.6,0.6-1c0.1-0.2,0.2-0.3,0.3-0.5c0.1-0.2,0.2-0.3,0.3-0.5
	c0.2-0.3,0.4-0.6,0.5-0.9c0.1-0.3,0.2-0.7,0.5-1.2c0.1-0.2,0.2-0.5,0.3-0.8c0.1-0.3,0.2-0.6,0.4-0.9c0.5-1.2,1-2.7,1.4-4.2l-0.6,1.2
	c-0.2,0.4-0.4,0.9-0.6,1.4c-0.1,0.3-0.2,0.5-0.3,0.8c-0.1,0.3-0.3,0.6-0.4,0.9c-0.1,0.3-0.3,0.6-0.4,0.9c-0.2,0.3-0.3,0.6-0.5,1
	c-0.1,0.2-0.2,0.3-0.2,0.5c-0.1,0.2-0.2,0.3-0.3,0.5c-0.2,0.3-0.4,0.7-0.5,1c-1.5,2.7-3.6,5.4-5.5,7.3l0.1-0.2
	c0.4-0.4,0.7-0.8,1-1.2c0.2-0.2,0.3-0.4,0.5-0.6c0.2-0.2,0.4-0.5,0.6-0.7c0,0,0-0.1,0-0.2c0-0.1,0-0.2,0-0.2
	c-0.3,0.2-0.6,0.4-0.9,0.7c-0.2,0.2-0.3,0.3-0.5,0.5c-0.2,0.2-0.3,0.4-0.5,0.5c-0.4,0.4-0.7,0.8-1.1,1.2c-0.4,0.4-0.8,0.9-1.2,1.3
	c-1.7,1.7-3.4,3.2-4.3,3.7c-0.4,0.3-0.8,0.4-1,0.5C56,68.2,56,68.2,56,68.2c0-0.1,0.3-0.3,0.7-0.6c0.7-0.6,1.7-1.3,0.9-0.8
	c0.5-0.3,0.7-0.6,0.9-0.7c0.1-0.1,0.2-0.2,0.1-0.2c-0.1,0-0.3,0.1-0.5,0.3c-0.3,0.2-0.6,0.3-1,0.5c-0.2,0.1-0.4,0.2-0.6,0.3
	c-0.2,0.1-0.4,0.2-0.6,0.3c-0.4,0.2-0.9,0.5-1.3,0.7c-0.4,0.2-0.8,0.4-1.2,0.5c-0.4,0.1-0.7,0.3-0.9,0.3c-0.2,0.1-0.3,0.1-0.5,0.2
	c-0.2,0.1-0.3,0.1-0.5,0.2c-0.3,0.1-0.7,0.3-1.1,0.4c-0.4,0.1-0.8,0.3-1.2,0.4c-0.2,0.1-0.4,0.1-0.7,0.2c-0.2,0.1-0.4,0.1-0.7,0.2
	c-1.8,0.5-3.9,1-6,1.2c-2.1,0.3-4.4,0.3-6.5,0.2c-2.1-0.1-4.1-0.5-5.7-0.9c-2.8-0.5-5.7-1.6-8.6-3.2C19.4,66.9,18,66,16.7,65
	c-1.3-1-2.5-2.1-3.6-3.3c-1.1-1.2-2.2-2.5-3.1-3.8c-0.2-0.3-0.4-0.7-0.7-1c-0.1-0.2-0.2-0.3-0.3-0.5c-0.1-0.2-0.2-0.3-0.3-0.5
	c-0.2-0.3-0.4-0.7-0.6-1c-0.2-0.3-0.4-0.7-0.5-1c-0.7-1.4-1.3-2.8-1.8-4.1c-0.3-0.7-0.5-1.4-0.7-2c-0.1-0.2-0.1-0.3-0.1-0.5
	c0-0.2-0.1-0.3-0.1-0.5c-0.1-0.3-0.2-0.6-0.2-1c-0.1-0.3-0.1-0.6-0.2-1c0-0.2-0.1-0.3-0.1-0.5c0-0.2-0.1-0.3-0.1-0.5
	c-0.1-0.4-0.1-0.7-0.2-1.1c-0.1-0.4-0.1-0.7-0.2-1.1c0-0.2-0.1-0.4-0.1-0.6c0-0.2,0-0.4-0.1-0.6c0-0.4-0.1-0.8-0.1-1.2
	c0-0.8-0.1-1.6-0.1-2.3c0-1.6,0.1-3,0.3-4.3c0.1-0.6,0.3-1.2,0.4-1.8c0.2-0.5,0.3-1,0.5-1.4c0,0,0,0,0-0.1c0-0.1,0-0.2,0.1-0.3
	c0.1-0.2,0.2-0.6,0.3-1c0.1-0.2,0.1-0.4,0.2-0.7c0.1-0.2,0.2-0.5,0.3-0.8C5.8,26.2,5.9,26,6,25.7c0.1-0.3,0.2-0.5,0.3-0.8
	c0.1-0.3,0.2-0.5,0.4-0.8c0.1-0.3,0.3-0.5,0.4-0.8c0.1-0.2,0.2-0.5,0.4-0.7c0.1-0.2,0.2-0.4,0.3-0.6C8,21.6,8.2,21.2,8.3,21
	c0.1-0.2,0.2-0.3,0.2-0.3l0,0.2c1.2-2,2.5-3.9,4.1-5.7c1.6-1.8,3.4-3.4,5.3-4.8c3.8-2.9,8.2-4.8,12.4-5.8c1.8-0.4,3.1-0.6,4-0.8
	c0.1,0,0.2,0,0.4-0.1c0.1,0,0.2,0,0.3,0c0.2,0,0.4,0,0.6,0c0.2,0,0.4,0,0.6,0c0.2,0,0.4,0.1,0.6,0.1c3.8,0,7.8,0.6,11.7,1.8
	c3.9,1.2,7.6,3.1,10.5,5.4c0-0.1,0.9,0.4-0.1-0.5c-1.5-1.1-3.2-2.3-4.6-3.1c-0.3-0.2-0.7-0.4-0.9-0.6c-0.3-0.2-0.5-0.3-0.7-0.5
	c-0.4-0.3-0.7-0.5-0.7-0.6c0,0,0.3,0.2,0.7,0.3c0.2,0.1,0.3,0.2,0.4,0.2c0.1,0.1,0.2,0.1,0.2,0.1s-0.1-0.1-0.3-0.2
	c-0.2-0.1-0.5-0.3-0.8-0.5c-0.3-0.2-0.6-0.3-0.8-0.4c-0.2-0.1-0.4-0.2-0.4-0.2S50.8,5.1,50.4,5l-0.8-0.2C49.2,4.5,49,4.4,49,4.3
	c-0.7-0.3-1.3-0.5-2-0.7c-0.7-0.2-1.3-0.4-2-0.6c-1.3-0.4-2.7-0.7-4.2-0.9c-0.3,0-0.5,0-0.8,0c-0.3,0-0.6,0-0.9,0
	c-0.3,0-0.6,0-0.9,0c-0.1,0-0.2,0-0.2,0C38,2,38,2,37.9,2c-0.2,0-0.3,0-0.5,0c-0.3,0-0.7,0-1,0c-0.3,0-0.7,0-1.1,0
	C34.6,2,33.8,2.1,33,2.2z"/>
<path class="st3" d="M22.3,38.5c0,0.7,0.1,1,0.7,1h0.3c0.6,0,0.7-0.2,0.7-1v-2.6h2v2.9c0,2.1-0.5,2.7-2.4,2.7h-1
	c-1.9,0-2.4-0.6-2.4-2.7v-8c0-2.1,0.5-2.7,2.4-2.7h1c1.9,0,2.4,0.6,2.4,2.7v2.3h-2V31c0-0.7-0.1-1-0.7-1H23c-0.6,0-0.7,0.2-0.7,1
	V38.5z"/>
<path class="st3" d="M33,39c0,0.8,0.1,1.7,0.3,2.3h-2.2c-0.2-0.4-0.2-1.2-0.2-2v-2.4c0-0.8-0.2-1.2-0.8-1.2h-0.8v5.6h-2.1V28.2h3.5
	c1.9,0,2.4,0.6,2.4,2.7v1.4c0,1.5-0.3,2.2-1.1,2.5c0.9,0.3,1.1,1,1.1,2.5V39z M30.8,31.1c0-0.7-0.1-1-0.7-1h-1v3.6h1
	c0.6,0,0.7-0.2,0.7-1V31.1z"/>
<path class="st3" d="M36.2,33.5h1.9v2h-1.9v3.9h2.4v2h-4.5V28.2h4.5v2h-2.4V33.5z"/>
<path class="st3" d="M41.6,41.4c-1.7,0-2.2-0.5-2.2-2.5v-2.3c0-1.4,0.2-2.1,1.1-2.3c-0.8-0.3-1.1-0.9-1.1-2.3v-1.4
	c0-1.9,0.5-2.5,2.2-2.5h1c1.7,0,2.2,0.5,2.2,2.5V32c0,1.4-0.3,2.1-1.1,2.3c0.8,0.3,1.1,0.9,1.1,2.3V39c0,1.9-0.5,2.5-2.2,2.5H41.6z
	 M42.8,30.9c0-0.7-0.1-0.9-0.6-0.9H42c-0.6,0-0.6,0.2-0.6,0.9v1.7c0,0.7,0.1,0.9,0.6,0.9h0.2c0.6,0,0.6-0.2,0.6-0.9V30.9z
	 M42.8,36.2c0-0.7-0.1-0.9-0.6-0.9H42c-0.6,0-0.6,0.2-0.6,0.9v2.5c0,0.7,0.1,0.9,0.6,0.9h0.2c0.6,0,0.6-0.2,0.6-0.9V36.2z"/>
<path class="st3" d="M48.1,28.2H46v13.2h2.1V28.2z"/>
<path class="st3" d="M51.7,33.2c0.2,1.8,0.4,3.9,0.5,5.3c0.1-1.4,0.3-3.5,0.5-5.3l0.6-5h1.9l-1.7,13.2h-2.8l-1.7-13.2h2.1L51.7,33.2
	z"/>
<path class="st3" d="M58,33.5H60v2H58v3.9h2.4v2h-4.5V28.2h4.5v2H58V33.5z"/>
<path class="st3" d="M20.2,42.9h1.4c0.8,0,1,0.2,1,1.1v1.3c0,0.8-0.2,1.1-1,1.1h-0.5v2h-0.9V42.9z M21.4,45.6c0.3,0,0.3-0.1,0.3-0.4
	v-1c0-0.3,0-0.4-0.3-0.4h-0.4v1.8H21.4z"/>
<path class="st3" d="M29.3,47.4c0,0.3,0,0.7,0.1,1h-0.9c-0.1-0.2-0.1-0.5-0.1-0.8v-1c0-0.3-0.1-0.5-0.3-0.5h-0.3v2.3h-0.9v-5.4h1.4
	c0.8,0,1,0.2,1,1.1v0.6c0,0.6-0.1,0.9-0.5,1c0.4,0.1,0.5,0.4,0.5,1V47.4z M28.4,44.1c0-0.3,0-0.4-0.3-0.4h-0.4v1.5h0.4
	c0.2,0,0.3-0.1,0.3-0.4V44.1z"/>
<path class="st3" d="M34.5,42.9h-0.9v5.4h0.9V42.9z"/>
<path class="st3" d="M39.8,45.7c-0.1-0.4-0.1-0.7-0.2-1c0,0.3,0,0.7,0,1v2.6h-0.8v-5.4H40l0.5,2.4c0.1,0.4,0.1,0.7,0.2,1
	c0-0.3,0-0.7,0-1.1v-2.4h0.8v5.4h-1L39.8,45.7z"/>
<path class="st3" d="M46.1,48.3v-4.6h-0.6v-0.8h2v0.8H47v4.6H46.1z"/>
<path class="st3" d="M52.6,45.1h0.8v0.8h-0.8v1.6h1v0.8h-1.9v-5.4h1.9v0.8h-1V45.1z"/>
<path class="st3" d="M60.3,47.4c0,0.3,0,0.7,0.1,1h-0.9c-0.1-0.2-0.1-0.5-0.1-0.8v-1c0-0.3-0.1-0.5-0.3-0.5h-0.3v2.3h-0.9v-5.4h1.4
	c0.8,0,1,0.2,1,1.1v0.6c0,0.6-0.1,0.9-0.5,1c0.4,0.1,0.5,0.4,0.5,1L60.3,47.4L60.3,47.4z M59.4,44.1c0-0.3,0-0.4-0.3-0.4h-0.4v1.5
	h0.4c0.2,0,0.3-0.1,0.3-0.4V44.1z"/>
</svg>
