<svg width="24" height="16" viewBox="0 0 24 16" fill="none" xmlns="http://www.w3.org/2000/svg">
<path d="M23.4 15.7001H0.400002C0.200002 15.7001 0 15.5001 0 15.3001V0.500098C0 0.300098 0.200002 0.100098 0.400002 0.100098H23.5C23.7 0.100098 23.9 0.300098 23.9 0.500098V15.3001C23.9 15.5001 23.7 15.7001 23.4 15.7001Z" fill="#41479B"/>
<path d="M23.9001 0.500098C23.9001 0.300098 23.7001 0.100098 23.5001 0.100098H21.7001L14.1001 5.1001V0.100098H10.0001V5.1001L2.40007 0.100098H0.600075C0.400075 0.100098 0.200073 0.300098 0.200073 0.500098V1.6001L6.70007 5.9001H0.200073V10.0001H6.70007L0.200073 14.3001V15.4001C0.200073 15.6001 0.400075 15.8001 0.600075 15.8001H2.40007L10.0001 10.8001V15.8001H14.1001V10.8001L21.7001 15.8001H23.5001C23.7001 15.8001 23.9001 15.6001 23.9001 15.4001V14.3001L17.3001 9.9001H23.8001V5.8001H17.3001L23.8001 1.5001C23.9001 1.5001 23.9001 0.500098 23.9001 0.500098Z" fill="#F5F5F5"/>
<path d="M23.9 6.6H13.2V0H10.7V6.6H0V9.1H10.7V15.7H13.2V9.1H23.9V6.6Z" fill="#FF4B55"/>
<path d="M8.3 9.9001L0 15.3001C0 15.5001 0.200002 15.7001 0.400002 15.7001H1L9.9 9.9001H8.3ZM16.1 9.9001H14.6L23.5 15.7001C23.7 15.7001 23.9 15.5001 23.9 15.3001V15.0001L16.1 9.9001ZM0 0.900098L7.5 5.8001H9L0.200005 0.100098C0.100005 0.200098 0 0.300098 0 0.500098V0.900098ZM15.5 5.8001L23.9 0.400098C23.9 0.200098 23.7 0.100098 23.5 0.100098H22.9L14 5.9001L15.5 5.8001Z" fill="#FF4B55"/>
</svg>
