<svg width="14" height="8" viewBox="0 0 14 8" fill="none" xmlns="http://www.w3.org/2000/svg">
<path d="M1.12054 1.13841C1.04329 1.21702 1 1.32369 1 1.43489C1 1.54608 1.04329 1.6526 1.12054 1.73121L6.70335 7.42257C6.78032 7.50118 6.88495 7.54546 6.99402 7.54546C7.1031 7.54546 7.20773 7.50118 7.28484 7.42257L12.8654 1.72897C12.9487 1.65182 12.9973 1.54326 12.9999 1.42855C13.0025 1.31385 12.9588 1.20324 12.8791 1.12214C12.7994 1.04119 12.6906 0.997215 12.5782 1.00014C12.4657 1.00321 12.3593 1.05303 12.284 1.13822L6.99286 6.53631L1.70176 1.13822C1.62465 1.0596 1.52002 1.01533 1.41094 1.01533C1.30186 1.01533 1.19738 1.0596 1.12027 1.13822L1.12054 1.13841Z" fill="#7C7C7C" stroke="#8D8D8D" stroke-width="0.4"/>
</svg>
