<svg width="58" height="48" viewBox="0 0 58 48" fill="none" xmlns="http://www.w3.org/2000/svg">
<path d="M57.0844 3.33007V44.2703C56.9977 45.1377 56.6507 46.005 56.0436 46.6122C55.4364 47.2194 54.569 47.5663 53.7016 47.4796H10.593C10.1593 47.4796 9.72561 47.3928 9.29192 47.3061C8.85824 47.1326 8.51128 46.9591 8.16433 46.6122C7.81738 46.352 7.55717 45.9183 7.38369 45.5713C7.21022 45.1377 7.12348 44.704 7.03674 44.2703V3.33007C7.03674 2.89638 7.12348 2.46269 7.29696 2.029C7.47043 1.59531 7.73064 1.24836 8.0776 0.901406C8.42455 0.554455 8.7715 0.380976 9.20519 0.207501C9.63888 0.0340255 10.0726 -0.0527096 10.5063 0.0340281H53.5282C54.3955 0.0340281 55.2629 0.294247 55.9568 0.988149C56.7375 1.59531 57.0844 2.46269 57.0844 3.33007Z" fill="#309EE8"/>
<path d="M52.921 3.32999V44.2702C52.8343 45.2243 52.4006 46.005 51.7067 46.6989C51.0128 47.306 50.0587 47.653 49.1045 47.5662H10.9399C10.5062 47.5662 9.98582 47.4795 9.55213 47.3928C9.11844 47.306 8.68475 47.0458 8.3378 46.6989C7.99085 46.3519 7.73064 46.005 7.47042 45.658C7.29695 45.2243 7.12347 44.7906 7.12347 44.3569V3.41673C7.12347 2.98305 7.21021 2.54936 7.47042 2.11567C7.6439 1.68198 7.99085 1.33503 8.3378 0.988075C8.68475 0.641124 9.11844 0.467646 9.55213 0.294171C9.98582 0.120695 10.5062 0.0339603 10.9399 0.120698H49.1913C49.7117 0.120698 50.1454 0.207433 50.5791 0.294171C51.0128 0.467646 51.4465 0.727862 51.7934 0.988075C52.1404 1.33503 52.4006 1.68198 52.6608 2.11567C52.8343 2.46262 52.921 2.8963 52.921 3.32999Z" fill="#8CC9F2"/>
<path d="M21.9556 8.27417V10.2691H17.8789V12.3508H20.9147V14.2591H17.8789V18.3358H15.4503V8.27417H21.9556ZM28.0272 18.3358L25.9455 14.5193H25.3384V18.3358H22.9097V8.27417H26.9864C27.767 8.27417 28.4609 8.44765 28.9813 8.70786C29.5018 8.96807 29.9355 9.40176 30.1957 9.83545C30.4559 10.2691 30.6294 10.8763 30.6294 11.3967C30.6294 12.0906 30.4559 12.6978 30.0222 13.2182C29.6752 13.7386 29.0681 14.0856 28.3742 14.3458L30.7161 18.3358H28.0272ZM25.3384 12.7845H26.8129C27.2466 12.7845 27.5935 12.6978 27.8538 12.4376C28.114 12.1774 28.2007 11.9172 28.2007 11.4835C28.2007 11.1365 28.114 10.7896 27.8538 10.6161C27.5935 10.3559 27.3333 10.2691 26.8129 10.2691H25.3384V12.7845ZM34.4458 10.2691V12.2641H37.7419V14.1723H34.4458V16.3408H38.0888V18.3358H31.9304V8.27417H38.0888V10.2691H34.4458ZM41.8185 10.2691V12.2641H45.1146V14.1723H41.8185V16.3408H45.5482V18.3358H39.3899V8.27417H45.5482V10.2691H41.8185Z" fill="#309EE8"/>
<path d="M34.1856 0.0339355V7.58012L31.1498 4.63104L27.9405 7.58012V0.0339355H34.1856Z" fill="#309EE8"/>
<path d="M10.4194 19.897C7.99079 19.897 5.73561 20.9378 4.00085 22.6726C2.2661 24.4941 1.31198 26.9227 1.31198 29.4381C1.31198 31.2596 1.74567 32.9944 2.69978 34.5556L9.11838 45.5713V48H10.5062L18.2258 34.3822C18.4861 34.0352 18.5728 33.6883 18.7463 33.3413C19.2667 32.127 19.5269 30.9127 19.5269 29.6116C19.5269 28.3105 19.2667 27.0962 18.833 25.8819C18.3993 24.6675 17.7054 23.6267 16.838 22.6726C15.9707 21.8052 14.9298 21.0246 13.889 20.5909C12.8481 20.1572 11.6338 19.897 10.4194 19.897ZM10.4194 33.8617C9.55207 33.8617 8.68469 33.6015 7.99079 33.0811C7.29689 32.5607 6.68972 31.8668 6.42951 30.9994C6.08256 30.132 5.99582 29.2646 6.16929 28.3105C6.34277 27.4432 6.77646 26.5758 7.38362 25.9686C7.99079 25.3615 8.77143 24.841 9.6388 24.6675C10.5062 24.4941 11.3736 24.5808 12.1542 24.9278C12.9348 25.2747 13.6287 25.8819 14.0624 26.6625C14.5829 27.4431 14.7563 28.3105 14.7563 29.2646C14.7563 30.479 14.2359 31.6066 13.4553 32.4739C12.6746 33.3413 11.547 33.775 10.4194 33.775V33.8617Z" fill="#5EB3ED"/>
<path d="M9.03167 19.897C7.38365 19.897 5.82237 20.3307 4.43457 21.198C3.04677 22.0654 1.91918 23.2797 1.13854 24.841C0.357896 26.4023 -0.075793 28.0503 0.0109448 29.7851C0.0976825 31.5198 0.531371 33.1678 1.39875 34.6424L9.29188 48L16.9248 34.3822C17.185 34.0352 17.3585 33.6883 17.4452 33.3413C17.9657 32.127 18.2259 30.9127 18.2259 29.6116C18.2259 28.3105 17.9657 27.0962 17.532 25.8819C17.0983 24.6675 16.4044 23.6267 15.537 22.7593C14.6696 21.8919 13.7155 21.1113 12.5879 20.6776C11.4603 20.1572 10.246 19.897 9.03167 19.897ZM9.03167 33.8617C8.16429 33.8617 7.29691 33.6015 6.60301 33.0811C5.90911 32.5607 5.30195 31.8668 4.955 30.9994C4.60804 30.132 4.52131 29.2646 4.69478 28.3105C4.86826 27.4432 5.30195 26.5758 5.90911 25.9686C6.51627 25.2747 7.29691 24.841 8.16429 24.6675C9.03167 24.4941 9.89905 24.5808 10.6797 24.9278C11.4603 25.2747 12.1542 25.8819 12.6747 26.6625C13.1951 27.4431 13.3686 28.3105 13.3686 29.2646C13.3686 30.479 12.8481 31.6066 12.0675 32.4739C11.2869 33.3413 10.1593 33.775 9.03167 33.775V33.8617Z" fill="#309EE8"/>
</svg>
