<svg width="12" height="13" viewBox="0 0 12 13" fill="none" xmlns="http://www.w3.org/2000/svg">
<path d="M11.3 12.8574C9.86667 12.8574 8.46956 12.5379 7.10867 11.8988C5.74733 11.2601 4.54178 10.4156 3.492 9.36542C2.44178 8.31564 1.59733 7.11009 0.958667 5.74876C0.319556 4.38787 0 2.99076 0 1.55742C0 1.35742 0.0666666 1.19076 0.2 1.05742C0.333333 0.924089 0.5 0.857422 0.7 0.857422H3.4C3.55556 0.857422 3.69444 0.907422 3.81667 1.00742C3.93889 1.10742 4.01111 1.2352 4.03333 1.39076L4.46667 3.72409C4.48889 3.87964 4.48622 4.0212 4.45867 4.14876C4.43067 4.27676 4.36667 4.39076 4.26667 4.49076L2.66667 6.12409C3.13333 6.92409 3.71667 7.67409 4.41667 8.37409C5.11667 9.07409 5.88889 9.67964 6.73333 10.1908L8.3 8.62409C8.4 8.52409 8.53067 8.44898 8.692 8.39876C8.85289 8.34898 9.01111 8.3352 9.16667 8.35742L11.4667 8.82409C11.6222 8.85742 11.75 8.93231 11.85 9.04876C11.95 9.16564 12 9.30187 12 9.45742V12.1574C12 12.3574 11.9333 12.5241 11.8 12.6574C11.6667 12.7908 11.5 12.8574 11.3 12.8574Z" fill="#666666"/>
</svg>
