<svg width="12" height="15" viewBox="0 0 12 15" fill="none" xmlns="http://www.w3.org/2000/svg">
<path d="M3.66602 9.27604H8.33268M3.66602 11.276H5.99935M10.666 0.609375H1.33268C1.15587 0.609375 0.986302 0.679613 0.861278 0.804637C0.736254 0.929661 0.666016 1.09923 0.666016 1.27604V13.276C0.666016 13.4529 0.736254 13.6224 0.861278 13.7474C0.986302 13.8725 1.15587 13.9427 1.33268 13.9427H10.666C10.8428 13.9427 11.0124 13.8725 11.1374 13.7474C11.2624 13.6224 11.3327 13.4529 11.3327 13.276V1.27604C11.3327 1.09923 11.2624 0.929661 11.1374 0.804637C11.0124 0.679613 10.8428 0.609375 10.666 0.609375Z" stroke="#666666" stroke-linecap="round" stroke-linejoin="round"/>
<path d="M8 3.60938L5.33333 6.27604L4 4.94271" stroke="#666666" stroke-linecap="round" stroke-linejoin="round"/>
</svg>
