<svg width="14" height="14" viewBox="0 0 14 14" fill="none" xmlns="http://www.w3.org/2000/svg">
<path d="M13.4811 7.29118L12.7097 6.07438L13.1673 4.70877C13.1974 4.61845 13.1955 4.52048 13.1617 4.43144C13.1279 4.34241 13.0644 4.26779 12.9819 4.22022L11.7336 3.5006L11.5041 2.07863C11.4886 1.98461 11.4412 1.89879 11.3699 1.83561C11.2986 1.77244 11.2077 1.73576 11.1125 1.73177L9.67276 1.6754L8.80891 0.522582C8.75185 0.446294 8.6701 0.392148 8.57759 0.369369C8.48508 0.346589 8.38754 0.356584 8.30157 0.397652L7.00097 1.01621L5.69987 0.397144C5.61377 0.356519 5.51631 0.346814 5.4239 0.369663C5.33148 0.392512 5.24977 0.446518 5.19253 0.522582L4.32868 1.6754L2.88893 1.73177C2.79381 1.73557 2.70293 1.77213 2.63167 1.83524C2.56041 1.89836 2.51315 1.98416 2.49789 2.07812L2.26834 3.50009L1.02005 4.21971C0.93746 4.2672 0.873833 4.34179 0.839957 4.43083C0.80608 4.51987 0.804038 4.61789 0.834177 4.70826L1.29175 6.07387L0.520835 7.29118C0.469981 7.37175 0.448522 7.46742 0.46009 7.562C0.471657 7.65658 0.515541 7.74426 0.584316 7.8102L1.62388 8.80711L1.50708 10.2423C1.49931 10.3373 1.52458 10.432 1.57863 10.5105C1.63267 10.5889 1.71216 10.6463 1.80366 10.6729L3.18754 11.0716L3.75075 12.3976C3.78772 12.4855 3.85408 12.5578 3.93847 12.6021C4.02286 12.6465 4.12004 12.6602 4.2134 12.6408L5.62521 12.3514L6.73943 13.264C6.8151 13.3254 6.90804 13.3574 7.00097 13.3574C7.09391 13.3574 7.18634 13.3254 7.26252 13.264L8.37673 12.3514L9.78855 12.6408C9.98001 12.6815 10.1745 12.5784 10.2512 12.3976L10.8144 11.0716L12.1983 10.6729C12.2898 10.6464 12.3694 10.589 12.4234 10.5105C12.4775 10.432 12.5027 10.3373 12.4949 10.2423L12.3781 8.80711L13.4176 7.8102C13.4864 7.74426 13.5303 7.65658 13.5419 7.562C13.5534 7.46742 13.532 7.37175 13.4811 7.29118ZM9.9856 5.30499L7.09543 9.6349C6.98625 9.79639 6.81713 9.90456 6.64903 9.90456C6.48145 9.90456 6.29405 9.81061 6.17471 9.69076L4.05292 7.53495C3.98337 7.46362 3.94444 7.36794 3.94444 7.26833C3.94444 7.16871 3.98337 7.07303 4.05292 7.00171L4.57651 6.46846C4.61082 6.43396 4.65161 6.40658 4.69654 6.3879C4.74147 6.36922 4.78965 6.3596 4.8383 6.3596C4.88696 6.3596 4.93514 6.36922 4.98007 6.3879C5.025 6.40658 5.06579 6.43396 5.1001 6.46846L6.48094 7.87114L8.75813 4.45942C8.78512 4.41873 8.81994 4.38383 8.86057 4.35675C8.90119 4.32967 8.9468 4.31095 8.99474 4.30168C9.04267 4.29242 9.09198 4.29279 9.13977 4.30278C9.18756 4.31277 9.23288 4.33219 9.27309 4.35988L9.88707 4.7819C10.0562 4.89871 10.0999 5.13384 9.9856 5.30499Z" fill="#666666"/>
</svg>
