<svg width="12" height="14" viewBox="0 0 12 14" fill="none" xmlns="http://www.w3.org/2000/svg">
<path d="M11.2601 6.01271C11.116 5.67316 10.9399 5.34813 10.7341 5.04204L9.62877 5.78804C9.94733 6.26159 10.1708 6.79255 10.2868 7.35137C10.4049 7.93389 10.4049 8.5342 10.2868 9.11671C10.2289 9.39808 10.1431 9.67299 10.0308 9.93737C9.92156 10.1971 9.78691 10.4455 9.62877 10.6787C9.31278 11.1447 8.91096 11.5463 8.44477 11.862C7.97162 12.1804 7.44113 12.4039 6.88277 12.52C6.30055 12.6367 5.70098 12.6367 5.11877 12.52C4.28081 12.3479 3.51187 11.9334 2.90744 11.328C2.50817 10.9285 2.18949 10.4559 1.96877 9.93604C1.8574 9.67165 1.77211 9.39701 1.7141 9.11604C1.53812 8.24843 1.62684 7.34796 1.96877 6.53137C2.18864 6.01156 2.50718 5.5393 2.90677 5.14071C3.30618 4.74211 3.77824 4.42371 4.29744 4.20271C4.56077 4.09137 4.83743 4.00537 5.11743 3.94804C5.18877 3.93337 5.26144 3.92671 5.33344 3.91537V5.94271L8.66677 3.27604L5.33344 0.609375V2.56804C5.17137 2.58598 5.01011 2.61067 4.8501 2.64204C4.11954 2.79175 3.42565 3.08398 2.8081 3.50204C1.71109 4.24206 0.905123 5.34008 0.52793 6.60845C0.150737 7.87683 0.225733 9.23683 0.740102 10.456C1.02646 11.1349 1.44193 11.7516 1.96344 12.272C2.48423 12.7918 3.10007 13.2067 3.77744 13.494C4.84233 13.9446 6.01906 14.0606 7.15143 13.8267C8.05787 13.6394 8.90527 13.2347 9.62082 12.6476C10.3364 12.0605 10.8987 11.3084 11.2594 10.456C11.4061 10.1094 11.5188 9.74871 11.5928 9.38404C11.7473 8.62516 11.7473 7.84292 11.5928 7.08404C11.5168 6.717 11.4054 6.35821 11.2601 6.01271Z" fill="#666666"/>
</svg>
