<svg width="14" height="13" viewBox="0 0 14 13" fill="none" xmlns="http://www.w3.org/2000/svg">
<path d="M13.7586 1.8588H11.2306C11.3258 1.50964 11.2929 1.13453 11.1213 0.799596C10.8691 0.306335 10.3687 0 9.81571 0C9.48904 0 9.17949 0.106592 8.91987 0.308366L7 1.8019L5.07982 0.308366C4.82036 0.106592 4.51049 0 4.18413 0C3.63113 0 3.13087 0.306491 2.87887 0.799596C2.70729 1.13453 2.67431 1.50964 2.76951 1.8588H0.241267C0.107956 1.8588 0 1.96726 0 2.10136V6.28002C0 6.41396 0.107956 6.52258 0.241267 6.52258H0.623778V12.7576C0.623778 12.8915 0.731733 13 0.8652 13H13.1348C13.2681 13 13.3762 12.8917 13.3762 12.7576V6.52258H13.7586C13.8919 6.52258 14 6.41412 14 6.28002V2.10136C14 1.96726 13.892 1.8588 13.7586 1.8588ZM9.21558 0.692066C9.38949 0.55656 9.59716 0.485134 9.81571 0.485134C10.1869 0.485134 10.5229 0.69066 10.6921 1.02138C10.8525 1.3349 10.8405 1.6864 10.6591 1.98492C10.4379 2.35002 10.0214 2.53289 9.60229 2.43771L7.56264 1.97789L9.21558 0.692066ZM6.57129 2.44474L5.16756 5.42228L5.04576 5.05421C5.00516 4.93261 4.87698 4.86338 4.75316 4.89698L4.14898 5.06281L5.39902 2.70919L6.57129 2.44474ZM6.75873 3.17932V6.03745H5.41162L6.75873 3.17932ZM7.24158 3.17932L8.58853 6.03745H7.24158V3.17932ZM8.95487 5.05421L8.83276 5.42228L7.42887 2.44474L8.6016 2.7095L9.85102 5.06218L9.24731 4.89682C9.12209 4.86385 8.99516 4.93246 8.95487 5.05421ZM3.30836 1.02138C3.47729 0.690816 3.81298 0.485134 4.18429 0.485134C4.40284 0.485134 4.61051 0.556716 4.78442 0.692066L6.4372 1.97773L4.39756 2.43755C3.97833 2.53195 3.56222 2.34987 3.34087 1.98477C3.15949 1.68593 3.14751 1.3349 3.30836 1.02138ZM0.482689 2.34393H3.01311C3.28984 2.7195 3.70953 2.94831 4.17309 2.94831C4.28244 2.94831 4.39351 2.93597 4.50318 2.91143L4.77758 2.84938L3.45956 5.33038C3.41413 5.41556 3.42378 5.52028 3.48382 5.59561C3.54387 5.67126 3.64264 5.70314 3.73582 5.67845L4.65982 5.42494L4.86251 6.03745H0.482689V2.34393ZM1.10662 6.52258H6.75858V12.5149H1.10662V6.52258ZM12.8935 12.5149H7.24158V6.52258H12.8935V12.5149ZM13.5172 6.03761H9.13733L9.34049 5.42509L10.2639 5.6786C10.3569 5.70314 10.456 5.67141 10.5162 5.59577C10.5762 5.52043 10.5859 5.41572 10.5403 5.33054L9.22289 2.84969L9.49682 2.91127C9.60649 2.93597 9.7174 2.94816 9.82676 2.94816C10.2906 2.94816 10.7106 2.7195 10.9874 2.34377H13.5173L13.5172 6.03761Z" fill="#DC288A"/>
</svg>
