<svg width="70" height="70" viewBox="0 0 70 70" fill="none" xmlns="http://www.w3.org/2000/svg">
<circle cx="35" cy="35" r="35" fill="#FADC38"/>
<path d="M34.9968 19.1777C43.2062 19.1777 49.8633 25.9302 49.8633 34.2502C49.8633 38.3996 48.213 42.1589 45.5348 44.8826C46.0942 45.8259 47.4578 47.7836 49.5556 48.7198C49.9752 48.9113 49.9052 49.5284 49.4437 49.6064C47.0872 49.9966 43.1013 50.2448 41.1224 47.9893C39.2553 48.8475 37.1785 49.3227 34.9968 49.3227C26.7873 49.3227 20.1373 42.5703 20.1373 34.2502C20.1373 25.9231 26.7873 19.1777 34.9968 19.1777ZM42.1503 36.6335C43.2971 36.6335 44.2341 35.6901 44.2341 34.5198C44.2341 33.3494 43.3041 32.4061 42.1503 32.4061C40.9965 32.4061 40.0665 33.3494 40.0665 34.5198C40.0665 35.683 40.9965 36.6335 42.1503 36.6335ZM34.9968 36.6335C36.1436 36.6335 37.0806 35.6901 37.0806 34.5198C37.0806 33.3494 36.1506 32.4061 34.9968 32.4061C33.843 32.4061 32.9129 33.3494 32.9129 34.5198C32.9129 35.683 33.85 36.6335 34.9968 36.6335ZM27.8432 36.6335C28.997 36.6335 29.9271 35.6901 29.9271 34.5198C29.9271 33.3494 28.997 32.4061 27.8432 32.4061C26.6894 32.4061 25.7594 33.3494 25.7594 34.5198C25.7594 35.683 26.6964 36.6335 27.8432 36.6335Z" fill="black"/>
</svg>
