<?xml version="1.0" encoding="utf-8"?>
<!-- Generator: Adobe Illustrator 21.0.0, SVG Export Plug-In . SVG Version: 6.00 Build 0)  -->
<svg version="1.1" id="Layer_1" xmlns="http://www.w3.org/2000/svg" xmlns:xlink="http://www.w3.org/1999/xlink" x="0px" y="0px"
	 viewBox="0 0 1835.6 1744.3" style="enable-background:new 0 0 1835.6 1744.3;" xml:space="preserve">
<g>
	<g>
		<path d="M304.6,1098.4C304.4,1098.4,304.5,1098.4,304.6,1098.4C302.3,902.3,86,804.8,45,659.1c-0.7-2.6-1.8-5.1-2.6-7.6
			c-23.1-71.9-12.4-130.2,1.4-166.3c1.6-4.2,3.3-8.1,4.8-11.9c4.8-12.5,10.4-24.7,16.7-36.5c4.4-8.6,8.1-15.1,11.2-20
			c3.2-5.1,8.3-12.2,10-14.5l0,0l0,0l0,0C79.7,413,71.6,426.5,66,437.1c-4.8,9.5-10.4,21.4-16.7,36.7c-5.6,14.6-10.2,29.7-13.6,45
			c-11.6,65.5-0.3,89.7,6.3,121.7c1.2,3.7,2.3,7.7,3.7,11.9c9.7,30.2,26.4,76.4,109.2,167.1C197.3,865.8,310.7,973.2,304.6,1098.4
			C304.6,1098.4,304.8,1098.5,304.6,1098.4z"/>
		<g>
			<g>
				<path d="M5,639.5c-2.4,5.8,0.2,12.4,5.7,14.7c5.5,2.3,11.8-0.5,14.1-6.3c2.4-5.8-0.2-12.4-5.7-14.7
					C13.7,630.9,7.3,633.7,5,639.5z"/>
				<path d="M5,639.5l0.1,0c-1.2,2.9-1.1,5.9-0.1,8.6c1,2.6,3,4.8,5.8,6c2.7,1.1,5.6,1,8.2-0.1c2.5-1.2,4.7-3.3,5.8-6.1
					c1.1-2.9,1.1-5.9,0.1-8.6c-1-2.6-3-4.8-5.7-6c-2.7-1.2-5.6-1.1-8.2,0.1c-2.5,1.1-4.6,3.2-5.8,6.1L5,639.5l-0.1,0
					c1.2-2.9,3.4-5.1,6-6.3c2.6-1.2,5.6-1.3,8.3-0.1c2.8,1.2,4.8,3.4,5.8,6.1c1.1,2.7,1.1,5.8-0.1,8.8c-1.2,2.9-3.4,5.1-6,6.2
					c-2.6,1.1-5.6,1.3-8.4,0.1c-2.8-1.2-4.8-3.5-5.8-6.1c-1-2.7-1.1-5.8,0.1-8.8L5,639.5z"/>
			</g>
			<g>
				<path d="M0.9,598.4c-2,5.1,0.2,10.8,5,12.8c4.8,2,10.3-0.5,12.4-5.5c2-5.1-0.2-10.8-5-12.8C8.4,590.9,2.9,593.4,0.9,598.4z"/>
				<path d="M0.9,598.4L0.9,598.4c-0.9,2.5-0.9,5.2,0,7.5c0.9,2.3,2.6,4.2,5,5.2c2.3,1,4.9,0.9,7.1-0.1c2.2-1,4.1-2.9,5.1-5.4
					c1-2.5,0.9-5.2,0.1-7.5c-0.9-2.3-2.7-4.2-5-5.2c-2.3-1-4.9-0.9-7.1,0.1C3.8,594.1,2,596,0.9,598.4L0.9,598.4L0.9,598.4
					c0.9-2.6,2.9-4.5,5.1-5.5c2.2-1,4.9-1.1,7.2-0.1c2.5,1,4.2,3,5.1,5.3c0.9,2.4,1,5.1-0.1,7.7c-1,2.5-2.9,4.4-5.2,5.4
					c-2.3,1-4.9,1.1-7.3,0.1c-2.4-1-4.2-3-5.1-5.3C-0.2,603.7-0.3,601,0.9,598.4L0.9,598.4z"/>
			</g>
			<g>
				<path d="M10.6,524.9c-1.6,3.9,0.1,8.4,3.9,10c3.7,1.6,8-0.3,9.6-4.3c1.7-4-0.1-8.4-3.8-10C16.5,519,12.2,520.9,10.6,524.9z"/>
				<path d="M10.6,524.9L10.6,524.9c-0.7,2-0.7,4.1,0,5.8c0.7,1.8,2,3.3,3.9,4.1c1.9,0.7,3.9,0.6,5.6-0.1c1.7-0.8,3.2-2.2,4-4.2
					c0.8-2,0.7-4,0-5.8c-0.7-1.8-2-3.2-3.9-4.1c-1.8-0.8-3.8-0.7-5.5,0.1C12.9,521.5,11.5,522.9,10.6,524.9L10.6,524.9L10.6,524.9
					c0.7-2,2.2-3.5,4-4.3c1.8-0.8,3.8-0.9,5.7-0.1c1.9,0.8,3.3,2.3,4,4.1c0.7,1.9,0.8,4-0.1,6c-0.8,2-2.3,3.5-4.1,4.3
					c-1.7,0.8-3.8,0.9-5.7,0.1c-1.9-0.8-3.3-2.3-4-4.1C9.8,529,9.7,526.8,10.6,524.9L10.6,524.9z"/>
			</g>
			<g>
				<path d="M2.9,560.9c-1.8,4.5,0.2,9.6,4.4,11.5c4.2,1.8,9.2-0.4,11-4.9c1.8-4.5-0.2-9.6-4.4-11.4C9.7,554.2,4.8,556.4,2.9,560.9z
					"/>
				<path d="M2.9,560.9L2.9,560.9c-0.8,2.3-0.8,4.6,0,6.7c0.8,2,2.3,3.8,4.5,4.7c2.1,0.9,4.4,0.8,6.3-0.1c1.9-0.9,3.7-2.5,4.5-4.8
					c0.9-2.2,0.9-4.6,0.1-6.7c-0.8-2.1-2.3-3.8-4.4-4.6c-2.1-0.9-4.4-0.8-6.4,0.1C5.6,557,3.9,558.7,2.9,560.9L2.9,560.9L2.9,560.9
					c0.9-2.3,2.5-4,4.6-4.9c2-0.9,4.3-1,6.5-0.1c2.1,0.9,3.7,2.7,4.5,4.8c0.8,2.1,0.8,4.5-0.1,6.8c-0.9,2.3-2.6,3.9-4.7,4.9
					c-2,0.9-4.3,1-6.5,0.1c-2.2-0.9-3.7-2.6-4.5-4.7C2,565.6,2,563.2,2.9,560.9L2.9,560.9z"/>
			</g>
			<g>
				<path d="M20.8,494.1c-1.2,3,0.1,6.5,3,7.7c2.8,1.2,6.1-0.3,7.4-3.3c1.2-3.1-0.1-6.5-3-7.7C25.3,489.7,22.1,491.1,20.8,494.1z"/>
				<path d="M20.8,494.1L20.8,494.1c-0.6,1.5-0.5,3.1,0,4.5c0.5,1.4,1.6,2.5,3,3.1c1.4,0.6,2.9,0.5,4.3-0.1c1.3-0.6,2.5-1.7,3.1-3.2
					c0.6-1.5,0.5-3.1,0-4.5c-0.5-1.4-1.6-2.5-3-3.1c-1.4-0.6-3-0.5-4.3,0.1C22.6,491.6,21.5,492.7,20.8,494.1L20.8,494.1L20.8,494.1
					c0.5-1.6,1.7-2.7,3.1-3.3c1.4-0.6,2.9-0.7,4.4-0.1c1.4,0.6,2.5,1.7,3.1,3.2c0.5,1.4,0.6,3,0,4.6c-0.7,1.5-1.8,2.6-3.1,3.3
					c-1.3,0.6-2.9,0.6-4.3,0.1c-1.5-0.7-2.5-1.8-3.1-3.2C20.2,497.3,20.1,495.7,20.8,494.1L20.8,494.1z"/>
			</g>
			<g>
				<path d="M32.2,468.3c-0.9,2.3,0.1,4.9,2.3,5.8c2.1,0.9,4.7-0.2,5.6-2.5c1-2.2-0.1-4.9-2.3-5.8C35.7,464.9,33.2,466,32.2,468.3z"
					/>
				<path d="M32.2,468.3L32.2,468.3c-0.4,1.1-0.4,2.3,0,3.4c0.4,1,1.3,1.9,2.3,2.4c1.1,0.5,2.2,0.4,3.3-0.1c1-0.5,1.9-1.3,2.3-2.5
					c0.5-1.1,0.5-2.3,0.1-3.4c-0.4-1-1.2-1.9-2.3-2.4c-1-0.5-2.2-0.4-3.2,0C33.6,466.3,32.8,467.2,32.2,468.3L32.2,468.3L32.2,468.3
					c0.4-1.2,1.3-2.1,2.4-2.5c1.1-0.5,2.2-0.6,3.3-0.1c1.1,0.5,1.9,1.4,2.3,2.4c0.4,1.1,0.4,2.3,0,3.5c-0.5,1.1-1.3,2-2.4,2.5
					c-1,0.4-2.2,0.5-3.3,0c-1.1-0.5-1.9-1.3-2.3-2.4C31.8,470.7,31.7,469.4,32.2,468.3L32.2,468.3z"/>
			</g>
			<g>
				<path d="M44.8,449.5c-0.7,1.8,0,3.8,1.7,4.5c1.6,0.7,3.5-0.2,4.3-1.9c0.7-1.8-0.1-3.7-1.7-4.4C47.5,446.9,45.6,447.7,44.8,449.5
					z"/>
				<path d="M44.8,449.5L44.8,449.5c-0.3,0.9-0.3,1.9,0,2.6c0.3,0.8,0.9,1.5,1.7,1.8c0.8,0.3,1.7,0.3,2.5,0c0.8-0.3,1.4-1,1.8-1.9
					c0.3-0.8,0.3-1.8,0-2.6c-0.3-0.8-0.9-1.5-1.8-1.8c-0.8-0.4-1.7-0.3-2.5,0C45.8,448,45.2,448.7,44.8,449.5L44.8,449.5L44.8,449.5
					c0.3-0.9,1-1.5,1.8-1.9c0.8-0.4,1.7-0.4,2.5-0.1c0.8,0.4,1.5,1.1,1.8,1.8c0.3,0.9,0.3,1.8,0,2.7c-0.3,0.9-1,1.6-1.8,1.9
					c-0.8,0.4-1.6,0.4-2.5,0c-0.8-0.4-1.4-1-1.7-1.8C44.5,451.4,44.5,450.4,44.8,449.5L44.8,449.5z"/>
			</g>
			<g>
				<path d="M57,431.6c-0.6,1.6,0,3.3,1.5,3.9c1.4,0.6,3.1-0.1,3.7-1.6c0.6-1.5-0.1-3.3-1.5-3.9C59.2,429.3,57.6,430.1,57,431.6z"/>
				<path d="M57,431.6L57,431.6c-0.3,0.8-0.3,1.6,0,2.3c0.3,0.7,0.8,1.3,1.5,1.6c0.7,0.3,1.5,0.3,2.2,0c0.6-0.3,1.2-0.9,1.5-1.6
					c0.3-0.8,0.3-1.6,0-2.3c-0.3-0.7-0.8-1.3-1.5-1.6c-0.7-0.3-1.5-0.2-2.2,0.1C57.8,430.3,57.3,430.9,57,431.6L57,431.6L57,431.6
					c0.3-0.8,0.9-1.4,1.5-1.7c0.7-0.3,1.5-0.4,2.2,0c0.7,0.3,1.3,0.9,1.5,1.6c0.3,0.7,0.3,1.6,0,2.3c-0.3,0.8-0.9,1.3-1.6,1.6
					c-0.7,0.3-1.5,0.4-2.2,0c-0.8-0.3-1.3-0.9-1.6-1.6C56.6,433.2,56.6,432.4,57,431.6L57,431.6z"/>
			</g>
			<g>
				<path d="M68.6,416.1c-0.5,1.2,0,2.7,1.3,3.2c1.2,0.5,2.5-0.1,3-1.4c0.5-1.3-0.1-2.7-1.2-3.2C70.5,414.2,69.1,414.8,68.6,416.1z"
					/>
				<path d="M68.6,416.1L68.6,416.1c-0.2,0.6-0.2,1.3,0,1.9c0.2,0.5,0.6,1,1.3,1.3c0.6,0.2,1.2,0.2,1.8,0c0.5-0.2,1-0.7,1.2-1.3
					c0.2-0.6,0.2-1.2,0-1.8c-0.3-0.6-0.7-1.1-1.2-1.3c-0.6-0.3-1.2-0.3-1.8,0C69.3,415,68.8,415.5,68.6,416.1L68.6,416.1L68.6,416.1
					c0.2-0.6,0.7-1.1,1.3-1.4c0.6-0.2,1.2-0.3,1.8,0c0.6,0.3,1.1,0.7,1.2,1.3c0.2,0.6,0.2,1.3,0,1.9c-0.3,0.6-0.7,1.1-1.3,1.4
					c-0.6,0.2-1.2,0.3-1.8,0c-0.6-0.3-1-0.7-1.3-1.3C68.3,417.4,68.3,416.7,68.6,416.1L68.6,416.1z"/>
			</g>
		</g>
		<g>
			<g>
				<path d="M49.4,627.2c-0.7,5.4,2.8,10.2,8,10.8c5.2,0.6,10-3.3,10.7-8.7c0.8-5.4-2.8-10.2-7.9-10.8
					C54.9,617.9,50.1,621.8,49.4,627.2z"/>
				<path d="M49.4,627.2h0.1c-0.4,2.7,0.3,5.2,1.7,7.1c1.4,1.9,3.6,3.3,6.2,3.5c2.5,0.3,5-0.5,6.9-2.1c1.9-1.5,3.3-3.8,3.7-6.5
					c0.4-2.7-0.3-5.2-1.7-7.1c-1.4-1.9-3.6-3.3-6.1-3.6c-2.6-0.3-5,0.5-7,2.1c-1.9,1.6-3.3,3.9-3.7,6.5H49.4L49.4,627.2
					c0.3-2.7,1.7-5.1,3.7-6.7c2-1.6,4.5-2.5,7.1-2.2c2.6,0.3,4.8,1.6,6.3,3.7c1.4,2,2.1,4.6,1.8,7.3c-0.4,2.7-1.8,5.1-3.8,6.7
					c-1.9,1.6-4.5,2.5-7.1,2.2c-2.6-0.3-4.8-1.7-6.3-3.7C49.6,632.5,48.9,629.9,49.4,627.2L49.4,627.2z"/>
			</g>
			<g>
				<path d="M40.9,554.3c-0.6,4.2,2.2,8,6.2,8.5c4.1,0.4,7.8-2.6,8.4-6.8c0.6-4.2-2.2-8-6.2-8.4C45.2,547.1,41.5,550.1,40.9,554.3z"
					/>
				<path d="M40.9,554.3H41c-0.3,2.1,0.2,4.1,1.4,5.6c1.1,1.5,2.8,2.6,4.8,2.8c2,0.2,3.9-0.4,5.4-1.6c1.5-1.2,2.5-3,2.9-5.1
					c0.3-2.1-0.2-4.1-1.4-5.6c-1.1-1.5-2.8-2.6-4.8-2.8c-2-0.2-3.9,0.5-5.4,1.7c-1.5,1.2-2.6,3-2.9,5.1H40.9L40.9,554.3
					c0.2-2.1,1.3-3.9,2.9-5.2c1.5-1.3,3.5-1.9,5.5-1.7c2,0.2,3.8,1.3,4.9,2.9c1.1,1.5,1.7,3.6,1.4,5.7c-0.3,2.1-1.4,4-2.9,5.2
					c-1.5,1.3-3.5,1.9-5.5,1.6c-2-0.2-3.8-1.2-4.9-2.8C41.1,558.5,40.5,556.5,40.9,554.3L40.9,554.3z"/>
			</g>
			<g>
				<path d="M42.3,590.8c-0.7,4.8,2.5,9.1,7.1,9.7c4.6,0.5,8.9-2.9,9.6-7.8c0.7-4.8-2.5-9.2-7.1-9.7C47.2,582.5,43,586,42.3,590.8z"
					/>
				<path d="M42.3,590.8L42.3,590.8c-0.2,2.4,0.4,4.7,1.6,6.4c1.3,1.8,3.2,3,5.5,3.2c2.3,0.2,4.5-0.5,6.2-1.9c1.7-1.4,3-3.4,3.3-5.8
					c0.3-2.4-0.3-4.6-1.6-6.4c-1.2-1.8-3.2-2.9-5.5-3.1c-2.3-0.3-4.5,0.4-6.2,1.8C43.9,586.3,42.7,588.4,42.3,590.8L42.3,590.8h-0.1
					c0.3-2.4,1.6-4.5,3.4-5.9c1.7-1.4,4-2.2,6.3-1.9c2.3,0.2,4.3,1.5,5.6,3.3c1.3,1.8,2,4.1,1.6,6.5c-0.3,2.4-1.6,4.5-3.3,5.9
					c-1.8,1.5-4,2.2-6.4,1.9c-2.3-0.3-4.3-1.5-5.6-3.2c-1.3-1.8-1.9-4.1-1.6-6.5H42.3z"/>
			</g>
			<g>
				<path d="M43.4,522.2c-0.4,3.2,1.7,6.1,4.8,6.4c3.1,0.4,5.9-1.9,6.4-5.2c0.5-3.2-1.7-6.1-4.7-6.4C46.7,516.6,43.9,519,43.4,522.2
					z"/>
				<path d="M43.4,522.2L43.4,522.2c-0.2,1.6,0.2,3.1,1.1,4.3c0.8,1.1,2.1,2,3.6,2.1c1.5,0.2,3-0.4,4.2-1.3c1.1-0.9,1.9-2.3,2.2-3.9
					c0.2-1.6-0.2-3.1-1.1-4.3c-0.9-1.2-2.1-2-3.6-2.1c-1.6-0.2-3,0.3-4.2,1.3C44.5,519.2,43.7,520.6,43.4,522.2L43.4,522.2
					L43.4,522.2c0.2-1.6,1-3.1,2.2-4c1.2-0.9,2.7-1.4,4.3-1.3c1.6,0.2,2.9,1,3.7,2.2c0.9,1.2,1.3,2.8,1.1,4.4
					c-0.2,1.7-1.1,3.1-2.3,4c-1.2,1-2.7,1.5-4.2,1.3c-1.6-0.2-2.9-1-3.7-2.2C43.5,525.4,43.1,523.8,43.4,522.2L43.4,522.2z"/>
			</g>
			<g>
				<path d="M48.2,494.3c-0.4,2.5,1.3,4.7,3.6,4.9c2.3,0.3,4.5-1.5,4.9-3.9c0.4-2.4-1.2-4.7-3.6-4.9
					C50.8,490.1,48.6,491.9,48.2,494.3z"/>
				<path d="M48.2,494.3L48.2,494.3c-0.2,1.2,0.2,2.4,0.8,3.3c0.7,0.9,1.6,1.5,2.8,1.6c1.2,0.1,2.3-0.3,3.2-0.9
					c0.9-0.8,1.5-1.8,1.7-3c0.2-1.2-0.1-2.4-0.8-3.2c-0.7-0.9-1.6-1.5-2.8-1.6c-1.1-0.1-2.2,0.2-3.2,1
					C49.1,492.1,48.4,493.1,48.2,494.3L48.2,494.3L48.2,494.3c0.1-1.2,0.8-2.3,1.7-3c0.9-0.7,2-1.1,3.2-1c1.2,0.1,2.2,0.8,2.9,1.7
					c0.7,0.9,1,2.1,0.9,3.3c-0.2,1.2-0.8,2.3-1.7,3c-0.9,0.8-2,1.1-3.2,1c-1.2-0.1-2.2-0.8-2.9-1.7C48.4,496.7,48,495.6,48.2,494.3
					L48.2,494.3z"/>
			</g>
			<g>
				<path d="M56,472.9c-0.3,1.8,0.9,3.6,2.7,3.8c1.8,0.2,3.5-1.2,3.7-3.1c0.3-1.9-1-3.5-2.8-3.7C57.8,469.7,56.2,471,56,472.9z"/>
				<path d="M56,472.9L56,472.9c-0.1,0.9,0.1,1.8,0.6,2.5c0.5,0.7,1.2,1.2,2.1,1.2c0.9,0.1,1.8-0.2,2.4-0.7c0.6-0.5,1.1-1.3,1.2-2.3
					c0.1-0.9-0.1-1.8-0.6-2.5c-0.5-0.7-1.3-1.2-2.1-1.2c-0.9-0.1-1.7,0.2-2.4,0.7C56.6,471.2,56.1,472,56,472.9L56,472.9L56,472.9
					c0.1-1,0.5-1.8,1.3-2.3c0.6-0.6,1.5-0.9,2.4-0.7c0.9,0.1,1.7,0.6,2.2,1.2c0.5,0.7,0.8,1.6,0.6,2.5c-0.1,0.9-0.6,1.7-1.3,2.3
					c-0.7,0.5-1.6,0.8-2.5,0.7c-0.9-0.1-1.6-0.6-2.2-1.2C56,474.7,55.8,473.8,56,472.9L56,472.9z"/>
			</g>
			<g>
				<path d="M63.4,452.4c-0.2,1.6,0.9,3.1,2.5,3.3c1.5,0.2,3-1,3.2-2.6c0.2-1.6-0.9-3.1-2.4-3.3C65.1,449.6,63.6,450.8,63.4,452.4z"
					/>
				<path d="M63.4,452.4L63.4,452.4c-0.1,0.8,0.2,1.6,0.6,2.2c0.4,0.6,1.1,1,1.9,1.1c0.7,0.1,1.5-0.2,2.1-0.7c0.6-0.4,1-1.2,1.1-1.9
					c0.1-0.8-0.1-1.6-0.5-2.2c-0.4-0.5-1.1-0.9-1.8-1c-0.8-0.1-1.6,0.1-2.1,0.6C64,450.9,63.5,451.6,63.4,452.4L63.4,452.4
					L63.4,452.4c0.1-0.8,0.6-1.6,1.1-2c0.6-0.5,1.4-0.7,2.2-0.7c0.8,0.1,1.4,0.5,1.9,1.1c0.5,0.6,0.7,1.4,0.5,2.2
					c-0.1,0.8-0.5,1.5-1.1,2c-0.6,0.5-1.4,0.7-2.2,0.6c-0.8-0.1-1.5-0.5-1.9-1.1C63.4,454,63.3,453.3,63.4,452.4L63.4,452.4z"/>
			</g>
			<g>
				<path d="M71,434.4c-0.2,1.3,0.7,2.5,1.9,2.6c1.3,0.2,2.5-0.8,2.7-2.1c0.2-1.3-0.7-2.5-2-2.7C72.3,432.1,71.1,433,71,434.4z"/>
				<path d="M71,434.4L71,434.4c-0.1,0.6,0.1,1.3,0.4,1.8c0.4,0.5,0.9,0.8,1.5,0.9c0.6,0.1,1.3-0.1,1.7-0.5c0.5-0.4,0.8-1,0.9-1.6
					c0.1-0.7-0.1-1.3-0.4-1.8c-0.3-0.5-0.9-0.8-1.5-0.9c-0.6-0.1-1.2,0.1-1.7,0.5C71.4,433.1,71.1,433.7,71,434.4L71,434.4L71,434.4
					c0.1-0.7,0.4-1.3,0.9-1.7c0.5-0.4,1.1-0.6,1.7-0.5c0.6,0.1,1.2,0.4,1.6,0.9c0.4,0.5,0.5,1.1,0.4,1.8c-0.1,0.7-0.4,1.3-0.9,1.6
					c-0.5,0.4-1.1,0.6-1.8,0.6c-0.7-0.1-1.2-0.5-1.5-0.9C71,435.7,70.8,435,71,434.4L71,434.4z"/>
			</g>
		</g>
	</g>
	<path d="M344.8,1244.2c-11.1-77.7-65.3-171-76-248.4c-8.5-47.4-8.9-96.2,0.2-143.3c5.6-29,14.9-57.4,28.3-84.4
		c34.4-70.7,95.8-129.4,167.6-170.2c72.2-40.7,145.5-76.1,199-121c54.5-43.7,93.1-90.8,119.9-132.6c26.4-42.1,42.8-77.9,52.8-103.2
		c1.5-3.9,2.9-7.5,4.2-10.9l0,0c-11.2,30-35.9,80.3-79.8,140.5c-35.9,48.2-88.9,100.5-161.2,145.2c-71,45.4-166,79.7-233.7,146.1
		c-56,51.9-93.5,119.6-107.7,192.3c-3.3,17-5.3,34.3-6,51.6c-2.2,45.8,3.7,92.3,16.4,137.5c12,45.5,35,94.8,50.8,137.3
		c47.7,128.3,16.2,191.2,14.9,219.8C345.3,1357.8,354.3,1310.6,344.8,1244.2z"/>
	<g>
		<path d="M850.1,161.1c-8.1,9.1-38.1,20.4-56.3,33.1c15.1-8.9,38.3-17.8,61.3-30.8c1.5,0.6,3.1,1.2,4.7,1.7c1.6,0.5,3.3,0.8,5,1.1
			c-4,21.8-42.3,68.2-73.8,89.6c-1.9,1.3,49-27.9,77.7-83.9c0.9,31.1-3.2,93.7-30.8,124.4c24.8-27,39.4-90.4,33.4-127.8
			c42.7,32.1,36.4,90.9,23.7,114.2c-1.1,2,17.9-29.4,8.7-75.7c-3.7-13.7-12.9-25.7-21.8-37.9c4.8,0,5.6-2.2,9.8-3.5
			c67.8,24.7,85.3,164.4-27.5,168.5c-16.5-1-32.3-6.7-51.8-26.3c-17.4-8-47.7,6.4-74.4-15.6c-19-15.7-4.3-34.8-5.8-35.4
			c-43.6-87,65.2-80.9,111.5-101.9C846.3,157.7,846.3,159,850.1,161.1z"/>
		<path d="M886.6,162.2L886.6,162.2c50.8-11.5,81.9,21.5,81.9,21.5l0,0c-14.9-23.6-58.1-30.9-74.7-26.4c0-0.2,0,0,0,0l0,0l0,0l0,0
			c20.2-22.8,114.9-0.7,122,30.9c-4.4-19.6-56.8-59.2-110.8-40.8c41.1-26.5,89.7-9.9,99.6-1.5c3.1,2.7-8.1-11.5-41.5-15.4
			c-10.6-0.5-33.5,1.6-50.8,10.5l0,0c64-34.4,196.7-11.6,148.1,62.9l0,0l0,0c38.9,68.6-51.3,106.1-75.4,90.2
			C1053.9,252.1,918.8,155.5,886.6,162.2z"/>
		<path d="M844.3,126.5L844.3,126.5L844.3,126.5c-21.9-42.4-93.6-39.5-90.7-39.3c29,2.4,63.1,11.2,78.1,31.4
			c-36.9-26-121.6-22.5-167.8-15.3c74.4-11.6,163.1,2,178.3,31.4c-39.1-32.2-130.1,3.2-127.6,2.2c36.3-15.3,115.6-16.9,128.5,3.3
			l0,0l0,0c0,0,0,0,0,0c-13-10.2-45.6-8.2-77.9,7.1c0,0,55.3-23.4,78.7-2.2l0,0c-30.7-18.1-177.3,80.4-196.8,9.9l0,0
			c-46.2-3.9-44.1-25.2-37-48.3l0,0C643.2,11.3,839.7,76.1,844.3,126.5z"/>
		<path d="M755.4,147.9C755.3,148,755.3,148,755.4,147.9L755.4,147.9z"/>
		<path d="M843.8,2.1c59.9,1,70.4,77.2,32.3,120.6l0,0c3.3-7,11.6-31.6,12-40.3c-2-27-12.5-50.6-11.9-49.1c2.5,6,11.7,53.9,2.7,68.1
			c-7-25.9-13.4-52-31.4-72.4c20.5,23.3,23.7,60.4,27.3,82.2c-11-52.7-72-79.2-70.5-78.3c57.7,34.3,73.4,80.5,61.5,97.6l0,0l0,0l0,0
			c-3.6-37.8-68.7-84.1-136.6-93.1l0,0c-6.3-47.4,39.7-39.1,61.6-29.3C797.5-6.5,842.9,3.5,843.8,2.1z"/>
		<path d="M1009.4,51.1c-99.7-13.7-117.4,60.6-119.1,78.4l0,0l0,0c25.5-55.9,94.3-60.4,88.9-59.3c-46.3,9.6-83.6,52.2-89.2,73.6l0,0
			c29.5-33.1,137.4-55,172.9-16.2C1082.3,76.6,1002.1,88.3,1009.4,51.1z"/>
		<path d="M966.2,49.4c1.4-0.7,2.7-1.5,4.1-2.2C968.9,47.8,967.6,48.6,966.2,49.4z"/>
		<path d="M961.5,52.1c0.9-0.5,1.8-1.1,2.7-1.6C963.3,51,962.5,51.5,961.5,52.1z"/>
	</g>
	<g>
		<path d="M356.3,820.1c27.3-1.9,51.7,9.6,64.7,43.4l0,0l0,0c46-37.6-0.4-77.3-21.7-54.1l0,0l0,0l0,0c-7.1-46.2-39-44.9-41.6-45.2
			c-14.4,0.1-22.7,2.1-32.2,6.8c-16.4,8.1-28.3,20-39.2,37.5c-6.7,10.9-13.9,31.2-13.9,31.2l0,0c-3.4,11,0.1,15,5.6,11.4
			C301.3,833.2,328.8,822.1,356.3,820.1z"/>
		<path d="M270.7,849.2c0,0,28.4-60.8,76.3-60.6C347,788.6,308.7,783.6,270.7,849.2z"/>
	</g>
	<g>
		<path d="M770.6,661.5L770.6,661.5c-24.2-26.3-60.9-48-95.9-55.3l0,0l0,0c-20.7-4.7-40.5-6.7-58.1-7.1c-12-0.2-23.1,0.3-32.7,1.3
			l0,0c-23.1,2.1-51.7,8.1-80.2,17.8c-14.3,4.8-28.7,10.3-42.7,16.1c-13.8,6-27.1,12.7-40.8,17.9c-13.5,5.3-27.6,9.1-41.9,9.3l0,0
			c-0.9,0-1.7,0-2.5,0c0.1-0.4,0.3-0.8,0.5-1.2c7.3,0,14.6-1,21.8-2.7c23.9-5.8,45.8-19,69.9-28.9c24-9.9,48.5-18.5,71-23.9
			c18.7-4.6,45-9.3,76.3-8.7c5.8,0.1,11.9,0.4,18.2,0.9l0,0c19.5,1.9,40.5,5.2,61.5,12.5c20.9,7.3,41.2,19.1,57.8,33.1
			c33.7,28.3,52.6,61.6,64.6,84.6l0,0c1.6,3.1,5.3,11.2,6.5,14.7C812.9,717.1,795.3,687.7,770.6,661.5z"/>
		<g>
			<path d="M861.3,769.4c-5.4-5.3-11.5-24.6-18.8-36.4c5.1,9.8,9.9,24.6,17.2,39.4c-0.4,0.9-0.8,1.9-1.2,2.9c-0.4,1-0.6,2-0.9,3.1
				c-13.4-3.2-41.3-28.8-53.5-49.2c-0.8-1.2,15.8,31.7,49.9,51.5c-19.5-0.5-58.6-5.2-76.9-23.5c16.1,16.4,55.3,27.7,79,25.3
				c-21.6,25.6-58.2,19.7-72.4,11c-1.2-0.8,17.8,12.2,47.1,8c8.6-1.8,16.5-7.2,24.4-12.3c-0.2,3,1.2,3.6,1.9,6.2
				c-17.8,41.6-105.8,47.9-104.6-22.9c1.2-10.3,5.3-20.1,18.2-31.6c5.6-10.6-2.4-30.1,12.3-46c10.4-11.4,21.9-1.5,22.3-2.5
				c56-24.3,48.5,43.6,60,73.3C863.6,767.1,862.7,767,861.3,769.4z"/>
			<path d="M859.3,792.2L859.3,792.2c5.5,32.3-16.2,50.6-16.2,50.6l0,0c15.3-8.6,21.4-35.4,19-45.9c0.1,0,0,0,0,0l0,0l0,0l0,0
				c13.6,13.4-3.4,72.1-23.5,75.4c12.5-2.1,39-33.6,29.4-68c15.2,26.7,3.2,56.5-2.5,62.5c-1.8,1.9,7.5-4.7,11-25.5
				c0.7-6.6,0.2-21.1-4.8-32.2l0,0c19.4,41.2,0.6,123.6-44.5,90.6l0,0l0,0c-44.3,22.1-64.7-35.7-53.9-50.2
				C797.4,893.9,862.5,812.6,859.3,792.2z"/>
			<path d="M883.1,766.9L883.1,766.9L883.1,766.9c27.3-12.3,27.9-57.3,27.7-55.5c-2.5,18.2-9.2,39.1-22.3,47.9
				c17.6-22.3,18.3-75.4,15.3-104.6c4.7,47-6.8,102.1-25.7,110.6c21.5-23.4,2.4-81.6,3-80c8.3,23.3,6.6,73-6.5,80.4l0,0l0,0
				c-0.1,0,0,0,0,0c6.8-7.8,6.7-28.3-1.8-49c0,0,12.8,35.4-1.3,49.4l0,0c12.3-18.6-44.4-113.9,0.5-123.6l0,0
				c4-28.8,17.3-26.8,31.5-21.5l0,0C962.2,644.8,914.9,765.7,883.1,766.9z"/>
			<path d="M872.8,710.5C872.7,710.4,872.7,710.4,872.8,710.5L872.8,710.5z"/>
			<path d="M961.1,770.8c-2.6,37.5-50.7,41.5-76.6,16.1l0,0c4.2,2.3,19.4,8.3,24.8,8.9c17-0.3,32.2-6.1,31.2-5.8
				c-3.8,1.3-34.1,5.5-42.7-0.6c16.4-3.6,33-6.6,46.5-17.3c-15.3,12-38.7,12.7-52.5,14.3c33.5-5.1,52.1-42.4,51.5-41.5
				c-23.5,35-53,43.2-63.3,35.2l0,0l0,0l0,0c23.8-1,55-40.2,63-82.4l0,0c29.9-2.3,23.2,26.2,16.3,39.5
				C968.1,742.1,960.2,770.2,961.1,770.8z"/>
			<path d="M924.8,872.9c12-62-34-75.6-45.1-77.3l0,0l0,0c34.1,17.9,34.7,61.2,34.1,57.7c-4.4-29.3-29.9-54.1-43-58.4l0,0
				c19.8,19.6,29.8,88,4.3,108.8C906.4,917.6,901.7,867,924.8,872.9z"/>
			<path d="M927.3,845.8c0.4,0.9,0.9,1.8,1.3,2.7C928.2,847.7,927.8,846.7,927.3,845.8z"/>
			<path d="M925.8,842.9c0.3,0.6,0.6,1.2,0.9,1.8C926.4,844,926.1,843.5,925.8,842.9z"/>
		</g>
	</g>
	<g>
		<path d="M379,285.3L379,285.3c28.7,36,48.5,86.3,50.1,131.1l0,0l0,0c1.4,26.7-0.3,51.4-3.8,73.2c-2.4,14.9-5.5,28.4-9,39.9v0
			c-7.8,27.9-22,61.9-40.8,94.7c-9.4,16.5-19.6,33-30.3,48.8c-10.8,15.7-22.4,30.5-32.2,46.1c-9.8,15.5-17.9,31.9-21.3,49.5l0,0
			c-0.2,1-0.4,2.1-0.6,3.1c0.6-0.1,1.1-0.3,1.7-0.4c1.7-9,4.5-17.8,8.4-26.3c12.8-28.1,34.8-52,52.8-79.5
			c18.1-27.2,34.6-55.5,46.6-81.9c10-22.1,22-53.3,28.1-92c1.2-7.3,2.1-14.8,2.8-22.7l0,0c1.9-24.5,2.4-51.1-2.5-78.6
			c-4.8-27.5-15.5-55.2-29.8-79c-29-48.1-67.8-79.2-94.9-99.3h0c-3.6-2.6-13.3-9.1-17.5-11.4C316.7,220.3,350.8,248.9,379,285.3z"/>
		<g>
			<path d="M260.1,148.5c5.7,8,29.2,19.9,42.7,31.7c-11.5-8.5-29.6-17.9-47.1-30.4c-1.3,0.3-2.6,0.6-4,0.8c-1.4,0.2-2.8,0.3-4.2,0.4
				c1.2,17.3,28,57.6,51.6,77.5c1.4,1.2-37.3-26.8-55.4-73.4c-3.7,24.2-6.3,73.4,13.3,100.3c-17.7-23.7-23.5-74.6-15.1-103.2
				c-37.9,20.6-38.4,67.1-30.2,86.7c0.7,1.6-11.9-24.8,0.1-60c4.3-10.2,12.9-18.7,21.4-27.3c-3.9-0.4-4.4-2.3-7.6-3.8
				C168,160,140.5,267.1,232,282c13.6,1,27-1.9,44.7-15.2c14.9-4.4,38.3,9.9,62.1-4.4c17-10.3,6.8-26.7,8.2-27
				c43.8-63.3-45.5-69.8-81.2-91C263.5,146.2,263.4,147.3,260.1,148.5z"/>
			<path d="M230.2,145.7L230.2,145.7c-40.4-14.3-68.8,8.2-68.8,8.2l0,0c14.4-16.9,50.4-18.1,63.4-12.8c0-0.1,0,0,0,0l0,0l0,0l0,0
				c-14.3-19.9-93.7-12.5-102.5,11.5c5.4-14.8,52-40.3,94.3-20.3c-31.1-25-72.2-17.1-81.1-11.5c-2.8,1.7,7.7-8.1,35.3-7.7
				c8.7,0.7,27.2,4.7,40.5,13.5l0,0C162.4,93,51.9,97,84.5,160.2l0,0l0,0c-38.3,49.5,31.7,88.1,52.9,78.1
				C85.2,198.4,204.5,137,230.2,145.7z"/>
			<path d="M268.1,122.2L268.1,122.2L268.1,122.2c22-30.8,80.1-21.1,77.7-21.2c-23.9-1.2-52.5,2.1-66.7,16.4
				c32.7-16.5,101.3-5,138.3,5.5c-59.6-16.8-133.3-15.4-148.4,6c35-21.1,105.8,16,103.9,14.9c-28.2-15.7-92.8-25.2-105.1-10.7l0,0
				l0,0c0,0,0,0,0,0c11.6-6.6,38-1.7,62.8,13.6c0,0-42.9-24-64-9.9l0,0c26.8-10.9,137,81.1,159.6,28.1l0,0
				c38,1.7,38.4-15.1,34.8-33.8l0,0C443.1,53.1,276.7,83.3,268.1,122.2z"/>
			<path d="M338.6,148C338.7,148.1,338.7,148.2,338.6,148L338.6,148z"/>
			<path d="M280.4,25.1c-48.9-5.4-64.7,52.9-37.8,90.7l0,0c-2.1-5.8-6.4-25.8-5.9-32.6c4.1-20.8,15-38.2,14.3-37.1
				c-2.6,4.4-14.7,40.8-8.7,52.8c8.2-19.5,15.9-39.1,32.6-53.3c-18.9,16-25.1,44.7-30.1,61.3c14-40,66.2-54.3,64.9-53.8
				c-50.3,20.8-67.5,55.2-59.5,69.8l0,0l0,0l0,0c6.6-29.1,64.1-58.4,120.3-58.5l0,0c9.7-36.3-28.6-34.6-47.4-29.2
				C318.9,23.2,281,26.3,280.4,25.1z"/>
			<path d="M140.6,46.2c82.6-0.4,90,59.5,89.7,73.5l0,0l0,0c-15.5-46.2-71.2-57-66.9-55.5c36.8,12.2,63.2,49.4,65.8,66.6l0,0
				c-20.9-28.9-106.8-57.1-139.5-30.6C78.8,58.5,143.1,76,140.6,46.2z"/>
			<path d="M176.1,49.4c-1.1-0.7-2.1-1.5-3.1-2.2C173.9,47.9,175,48.6,176.1,49.4z"/>
			<path d="M179.6,51.9c-0.7-0.5-1.4-1-2.1-1.5C178.2,50.9,178.9,51.4,179.6,51.9z"/>
		</g>
	</g>
	<g>
		<path d="M358.2,468.7c-23.3-13.6-50.3-14-77.1,10.1l0,0l0,0c-23.9-53.2,35.4-68,43.7-38.2l0,0l0,0l0,0
			c27.2-37.7,55-22.7,57.4-21.7c12.8,6.3,19.2,11.7,25.6,20c10.9,14.3,16.1,30,17.9,50.1c1,12.6-1.8,33.6-1.8,33.6l0,0
			c-2,11.2-6.9,13.2-10.1,7.6C401.3,504.1,381.8,482.4,358.2,468.7z"/>
		<path d="M421.2,531.5c0,0,2.3-66-40.4-86.6C380.8,444.9,417.1,457.2,421.2,531.5z"/>
	</g>
	<g>
		<path d="M772.2,429c18.8,4.3,34.2,17.6,39.2,44.4l0,0l0,0c35.7-17.2,8.5-55.3-8.6-43.1l0,0l0,0l0,0c0.4-34.4-21.5-40.1-23.3-40.9
			c-9.8-2.9-15.7-3.2-22.7-1.9c-12.1,2.4-21.6,8.4-31,18.6c-5.8,6.4-13,19.4-13,19.4l0,0c-3.6,7.2-1.7,10.7,2.5,9.3
			C733.2,426.8,753.2,424.7,772.2,429z"/>
		<path d="M710.5,431.9c0,0,26.2-37.5,58.9-27.3C769.5,404.5,743.9,393,710.5,431.9z"/>
	</g>
</g>
<g>
	<g>
		<path d="M919.6,1163.1c-82.8-90.7-99.5-136.9-109.2-167.1c-1.4-4.2-2.5-8.2-3.7-11.9c-5.6-26.9-14.4-48.3-10.2-93.2
			c-0.6,0.2-1.3,0.3-1.9,0.5c-2.5,29.7,0,64.8,12.6,103.9c0.8,2.5,1.8,5,2.6,7.6c41,145.7,257.3,243.2,259.6,439.3
			C1075.4,1316.9,962,1209.6,919.6,1163.1z"/>
		<g>
			<g>
				<path d="M769.7,983.3c-2.4,5.8,0.2,12.4,5.7,14.7c5.5,2.3,11.8-0.5,14.1-6.3c2.4-5.8-0.2-12.4-5.7-14.7
					C778.4,974.6,772,977.5,769.7,983.3z"/>
				<path d="M769.7,983.3l0.1,0c-1.2,2.9-1.1,5.9-0.1,8.6c1,2.6,3,4.8,5.8,6c2.7,1.1,5.6,1,8.2-0.1c2.5-1.2,4.7-3.3,5.8-6.1
					c1.1-2.9,1.1-5.9,0.1-8.6c-1-2.6-3-4.8-5.7-6c-2.7-1.2-5.6-1.1-8.2,0.1c-2.5,1.1-4.6,3.2-5.8,6.1L769.7,983.3l-0.1,0
					c1.2-2.9,3.4-5.1,6-6.3c2.6-1.2,5.6-1.3,8.3-0.1c2.8,1.2,4.8,3.4,5.8,6.1c1.1,2.7,1.1,5.8-0.1,8.8c-1.2,2.9-3.4,5.1-6,6.2
					c-2.6,1.1-5.6,1.3-8.4,0.1c-2.8-1.2-4.8-3.5-5.8-6.1c-1-2.7-1.1-5.8,0.1-8.8L769.7,983.3z"/>
			</g>
			<g>
				<path d="M765.6,942.2c-2,5.1,0.2,10.8,5,12.8c4.8,2,10.3-0.5,12.4-5.5c2-5.1-0.2-10.8-5-12.8
					C773.1,934.7,767.6,937.1,765.6,942.2z"/>
				<path d="M765.6,942.2L765.6,942.2c-0.9,2.5-0.9,5.2,0,7.5c0.9,2.3,2.6,4.2,5,5.2c2.3,1,4.9,0.9,7.1-0.1c2.2-1,4.1-2.9,5.1-5.4
					c1-2.5,0.9-5.2,0.1-7.5c-0.9-2.3-2.7-4.2-5-5.2c-2.3-1-4.9-0.9-7.1,0.1C768.5,937.9,766.7,939.7,765.6,942.2L765.6,942.2
					L765.6,942.2c0.9-2.6,2.9-4.5,5.1-5.5c2.2-1,4.9-1.1,7.2-0.1c2.5,1,4.2,3,5.1,5.3c0.9,2.4,1,5.1-0.1,7.7c-1,2.5-2.9,4.4-5.2,5.4
					c-2.3,1-4.9,1.1-7.3,0.1c-2.4-1-4.2-3-5.1-5.3C764.5,947.4,764.4,944.7,765.6,942.2L765.6,942.2z"/>
			</g>
			<g>
				<path d="M767.6,904.6c-1.8,4.5,0.2,9.6,4.4,11.5c4.2,1.8,9.2-0.4,11-4.9c1.8-4.5-0.2-9.6-4.4-11.4
					C774.4,897.9,769.5,900.1,767.6,904.6z"/>
				<path d="M767.6,904.6L767.6,904.6c-0.8,2.3-0.8,4.6,0,6.7c0.8,2,2.3,3.8,4.5,4.7c2.1,0.9,4.4,0.8,6.3-0.1
					c1.9-0.9,3.7-2.5,4.5-4.8c0.9-2.2,0.9-4.6,0.1-6.7c-0.8-2.1-2.3-3.8-4.4-4.6c-2.1-0.9-4.4-0.8-6.4,0.1
					C770.3,900.8,768.6,902.4,767.6,904.6L767.6,904.6L767.6,904.6c0.9-2.3,2.5-4,4.6-4.9c2-0.9,4.3-1,6.5-0.1
					c2.1,0.9,3.7,2.7,4.5,4.8c0.8,2.1,0.8,4.5-0.1,6.8c-0.9,2.3-2.6,3.9-4.7,4.9c-2,0.9-4.3,1-6.5,0.1c-2.2-0.9-3.7-2.6-4.5-4.7
					C766.7,909.3,766.7,906.9,767.6,904.6L767.6,904.6z"/>
			</g>
		</g>
		<g>
			<g>
				<path d="M814.1,970.9c-0.7,5.4,2.8,10.2,8,10.8c5.2,0.6,10-3.3,10.7-8.7c0.8-5.4-2.8-10.2-7.9-10.8
					C819.7,961.6,814.8,965.5,814.1,970.9z"/>
				<path d="M814.1,970.9h0.1c-0.4,2.7,0.3,5.2,1.7,7.1c1.4,1.9,3.6,3.3,6.2,3.5c2.5,0.3,5-0.5,6.9-2.1c1.9-1.5,3.3-3.8,3.7-6.5
					c0.4-2.7-0.3-5.2-1.7-7.1c-1.4-1.9-3.6-3.3-6.1-3.6c-2.6-0.3-5,0.5-7,2.1c-1.9,1.6-3.3,3.9-3.7,6.5H814.1L814.1,970.9
					c0.3-2.7,1.7-5.1,3.7-6.7c2-1.6,4.5-2.5,7.1-2.2c2.6,0.3,4.8,1.6,6.3,3.7c1.4,2,2.1,4.6,1.8,7.3c-0.4,2.7-1.8,5.1-3.8,6.7
					c-1.9,1.6-4.5,2.5-7.1,2.2c-2.6-0.3-4.8-1.7-6.3-3.7C814.3,976.2,813.6,973.7,814.1,970.9L814.1,970.9z"/>
			</g>
			<g>
				<path d="M805.6,898.1c-0.6,4.2,2.2,8,6.2,8.5c4.1,0.4,7.8-2.6,8.4-6.8c0.6-4.2-2.2-8-6.2-8.4
					C809.9,890.8,806.2,893.9,805.6,898.1z"/>
				<path d="M805.6,898.1h0.1c-0.3,2.1,0.2,4.1,1.4,5.6c1.1,1.5,2.8,2.6,4.8,2.8c2,0.2,3.9-0.4,5.4-1.6c1.5-1.2,2.5-3,2.9-5.1
					c0.3-2.1-0.2-4.1-1.4-5.6c-1.1-1.5-2.8-2.6-4.8-2.8c-2-0.2-3.9,0.5-5.4,1.7c-1.5,1.2-2.6,3-2.9,5.1H805.6L805.6,898.1
					c0.2-2.1,1.3-3.9,2.9-5.2c1.5-1.3,3.5-1.9,5.5-1.7c2,0.2,3.8,1.3,4.9,2.9c1.1,1.5,1.7,3.6,1.4,5.7c-0.3,2.1-1.4,4-2.9,5.2
					c-1.5,1.3-3.5,1.9-5.5,1.6c-2-0.2-3.8-1.2-4.9-2.8C805.8,902.2,805.2,900.2,805.6,898.1L805.6,898.1z"/>
			</g>
			<g>
				<path d="M807,934.5c-0.7,4.8,2.5,9.1,7.1,9.7c4.6,0.5,8.9-2.9,9.6-7.8c0.7-4.8-2.5-9.2-7.1-9.7
					C811.9,926.3,807.7,929.8,807,934.5z"/>
				<path d="M807,934.5L807,934.5c-0.2,2.4,0.4,4.7,1.6,6.4c1.3,1.8,3.2,3,5.5,3.2c2.3,0.2,4.5-0.5,6.2-1.9c1.7-1.4,3-3.4,3.3-5.8
					c0.3-2.4-0.3-4.6-1.6-6.4c-1.2-1.8-3.2-2.9-5.5-3.1c-2.3-0.3-4.5,0.4-6.2,1.8C808.6,930.1,807.4,932.2,807,934.5L807,934.5h-0.1
					c0.3-2.4,1.6-4.5,3.4-5.9c1.7-1.4,4-2.2,6.3-1.9c2.3,0.2,4.3,1.5,5.6,3.3c1.3,1.8,2,4.1,1.6,6.5c-0.3,2.4-1.6,4.5-3.3,5.9
					c-1.8,1.5-4,2.2-6.4,1.9c-2.3-0.3-4.3-1.5-5.6-3.2c-1.3-1.8-1.9-4.1-1.6-6.5H807z"/>
			</g>
		</g>
	</g>
	<path d="M1109.5,1588c-11.1-77.7-65.3-171-76-248.4c-8.5-47.4-8.9-96.2,0.2-143.3c5.6-29,14.9-57.4,28.3-84.4
		c34.4-70.7,95.8-129.4,167.6-170.2c72.2-40.7,145.5-76.1,199-121c54.5-43.7,93.1-90.8,119.9-132.6c26.4-42.1,42.8-77.9,52.8-103.2
		c1.5-3.9,2.9-7.5,4.2-10.9l0,0c-11.2,30-35.9,80.3-79.8,140.5c-35.9,48.2-88.9,100.5-161.2,145.2c-71,45.4-166,79.7-233.7,146.1
		c-56,51.9-93.5,119.6-107.7,192.3c-3.3,17-5.3,34.3-6,51.6c-2.2,45.8,3.7,92.3,16.4,137.5c12,45.5,35,94.8,50.8,137.3
		c47.7,128.3,16.2,191.2,14.9,219.8C1110,1701.5,1119,1654.4,1109.5,1588z"/>
	<g>
		<path d="M1614.8,504.8c-8.1,9.1-38.1,20.4-56.3,33.1c15.1-8.9,38.3-17.8,61.3-30.8c1.5,0.6,3.1,1.2,4.7,1.7c1.6,0.5,3.3,0.8,5,1.1
			c-4,21.8-42.3,68.2-73.8,89.6c-1.9,1.3,49-27.9,77.7-83.9c0.9,31.1-3.2,93.7-30.8,124.4c24.8-27,39.4-90.4,33.4-127.8
			c42.7,32.1,36.4,90.9,23.7,114.2c-1.1,2,17.9-29.4,8.7-75.7c-3.7-13.7-12.9-25.7-21.8-37.9c4.8,0,5.6-2.2,9.8-3.5
			c67.8,24.7,85.3,164.4-27.5,168.5c-16.5-1-32.3-6.7-51.8-26.3c-17.4-8-47.7,6.4-74.4-15.6c-19-15.7-4.3-34.8-5.8-35.4
			c-43.6-87,65.2-80.9,111.5-101.9C1611,501.4,1611,502.7,1614.8,504.8z"/>
		<path d="M1651.3,506L1651.3,506c50.8-11.5,81.9,21.5,81.9,21.5l0,0c-14.9-23.6-58.1-30.9-74.7-26.4c0-0.2,0,0,0,0l0,0l0,0l0,0
			c20.2-22.8,114.9-0.7,122,30.9c-4.4-19.6-56.8-59.2-110.8-40.8c41.1-26.5,89.7-9.9,99.6-1.5c3.1,2.7-8.1-11.5-41.5-15.4
			c-10.6-0.5-33.5,1.6-50.8,10.5l0,0c64-34.4,196.7-11.6,148.1,62.9l0,0l0,0c38.9,68.6-51.3,106.1-75.4,90.2
			C1818.6,595.8,1683.5,499.2,1651.3,506z"/>
		<path d="M1609,470.3L1609,470.3L1609,470.3c-21.9-42.4-93.6-39.5-90.7-39.3c29,2.4,63.1,11.2,78.1,31.4
			c-36.9-26-121.6-22.5-167.8-15.3c74.4-11.6,163.1,2,178.3,31.4c-39.1-32.2-130.1,3.2-127.6,2.2c36.3-15.3,115.6-16.9,128.5,3.3
			l0,0l0,0c0,0,0,0,0,0c-13-10.2-45.6-8.2-77.9,7.1c0,0,55.3-23.4,78.7-2.2l0,0c-30.7-18.1-177.3,80.4-196.8,9.9l0,0
			c-46.2-3.9-44.1-25.2-37-48.3l0,0C1407.9,355,1604.4,419.8,1609,470.3z"/>
		<path d="M1520.1,491.6C1520,491.7,1520,491.8,1520.1,491.6L1520.1,491.6z"/>
		<path d="M1608.5,345.8c59.9,1,70.4,77.2,32.3,120.6l0,0c3.3-7,11.6-31.6,12-40.3c-2-27-12.5-50.6-11.9-49.1
			c2.5,6,11.7,53.9,2.7,68.1c-7-25.9-13.4-52-31.4-72.4c20.5,23.3,23.7,60.4,27.3,82.2c-11-52.7-72-79.2-70.5-78.3
			c57.7,34.3,73.4,80.5,61.5,97.6l0,0l0,0l0,0c-3.6-37.8-68.7-84.1-136.6-93.1l0,0c-6.3-47.4,39.7-39.1,61.6-29.3
			C1562.2,337.2,1607.6,347.2,1608.5,345.8z"/>
		<path d="M1774.1,394.8c-99.7-13.7-117.4,60.6-119.1,78.4l0,0l0,0c25.5-55.9,94.3-60.4,88.9-59.3c-46.3,9.6-83.6,52.2-89.2,73.6
			l0,0c29.5-33.1,137.4-55,172.9-16.2C1847,420.3,1766.8,432.1,1774.1,394.8z"/>
		<path d="M1730.9,393.1c1.4-0.7,2.7-1.5,4.1-2.2C1733.6,391.6,1732.3,392.3,1730.9,393.1z"/>
		<path d="M1726.2,395.8c0.9-0.5,1.8-1.1,2.7-1.6C1728,394.8,1727.2,395.3,1726.2,395.8z"/>
	</g>
	<g>
		<path d="M1121,1163.9c27.3-1.9,51.7,9.6,64.7,43.4l0,0l0,0c46-37.6-0.4-77.3-21.7-54.1l0,0l0,0l0,0c-7.1-46.2-39-44.9-41.6-45.2
			c-14.4,0.1-22.7,2.1-32.2,6.8c-16.4,8.1-28.3,20-39.2,37.5c-6.7,10.9-13.9,31.2-13.9,31.2l0,0c-3.4,11,0.1,15,5.6,11.4
			C1066,1176.9,1093.5,1165.8,1121,1163.9z"/>
		<path d="M1035.4,1192.9c0,0,28.4-60.8,76.3-60.6C1111.7,1132.3,1073.5,1127.4,1035.4,1192.9z"/>
	</g>
	<g>
		<path d="M1535.3,1005.2L1535.3,1005.2c-24.2-26.3-60.9-48-95.9-55.3l0,0l0,0c-20.7-4.7-40.5-6.7-58.1-7.1
			c-12-0.2-23.1,0.3-32.7,1.3l0,0c-23.1,2.1-51.7,8.1-80.2,17.8c-14.3,4.8-28.7,10.3-42.7,16.1c-13.8,6-27.1,12.7-40.8,17.9
			c-13.5,5.3-27.6,9.1-41.9,9.3l0,0c-0.9,0-1.7,0-2.5,0c0.1-0.4,0.3-0.8,0.5-1.2c7.3,0,14.6-1,21.8-2.7c23.9-5.8,45.8-19,69.9-28.9
			c24-9.9,48.5-18.5,71-23.9c18.7-4.6,45-9.3,76.3-8.7c5.8,0.1,11.9,0.4,18.2,0.9l0,0c19.5,1.9,40.5,5.2,61.5,12.5
			c20.9,7.3,41.2,19.1,57.8,33.1c33.7,28.3,52.6,61.6,64.6,84.6l0,0c1.6,3.1,5.3,11.2,6.5,14.7
			C1577.6,1060.9,1560,1031.4,1535.3,1005.2z"/>
		<g>
			<path d="M1626,1113.1c-5.4-5.3-11.5-24.6-18.8-36.4c5.1,9.8,9.9,24.6,17.2,39.4c-0.4,0.9-0.8,1.9-1.2,2.9c-0.4,1-0.6,2-0.9,3.1
				c-13.4-3.2-41.3-28.8-53.5-49.2c-0.8-1.2,15.8,31.7,49.9,51.5c-19.5-0.5-58.6-5.2-76.9-23.5c16.1,16.4,55.3,27.7,79,25.3
				c-21.6,25.6-58.2,19.7-72.4,10.9c-1.2-0.8,17.8,12.2,47.1,8c8.6-1.8,16.5-7.2,24.4-12.3c-0.2,3,1.2,3.6,1.9,6.2
				c-17.8,41.6-105.8,47.9-104.6-22.9c1.2-10.3,5.3-20.1,18.2-31.6c5.6-10.6-2.4-30.1,12.3-46c10.4-11.4,21.9-1.5,22.3-2.5
				c56-24.3,48.5,43.6,60,73.3C1628.3,1110.8,1627.4,1110.8,1626,1113.1z"/>
			<path d="M1624,1135.9L1624,1135.9c5.5,32.3-16.2,50.6-16.2,50.6l0,0c15.3-8.6,21.4-35.4,19-45.9c0.1,0,0,0,0,0l0,0l0,0l0,0
				c13.6,13.4-3.4,72.1-23.5,75.4c12.5-2.1,39-33.6,29.4-68c15.2,26.7,3.2,56.5-2.5,62.5c-1.8,1.9,7.5-4.7,11-25.5
				c0.7-6.6,0.2-21.1-4.8-32.2l0,0c19.4,41.2,0.6,123.6-44.5,90.6l0,0l0,0c-44.3,22.1-64.7-35.7-53.9-50.2
				C1562.1,1237.7,1627.2,1156.4,1624,1135.9z"/>
			<path d="M1647.8,1110.6L1647.8,1110.6L1647.8,1110.6c27.3-12.3,27.9-57.3,27.7-55.5c-2.5,18.2-9.2,39.1-22.3,47.9
				c17.6-22.3,18.3-75.4,15.3-104.6c4.7,47-6.8,102.1-25.7,110.6c21.5-23.4,2.4-81.6,3-80c8.3,23.3,6.6,73-6.5,80.4l0,0l0,0
				c-0.1,0,0,0,0,0c6.8-7.8,6.7-28.3-1.8-49c0,0,12.8,35.4-1.3,49.4l0,0c12.3-18.6-44.4-113.9,0.5-123.6l0,0
				c4-28.8,17.3-26.8,31.5-21.5l0,0C1726.9,988.6,1679.6,1109.5,1647.8,1110.6z"/>
			<path d="M1637.5,1054.2C1637.4,1054.2,1637.4,1054.2,1637.5,1054.2L1637.5,1054.2z"/>
			<path d="M1725.8,1114.5c-2.6,37.5-50.7,41.5-76.6,16.1l0,0c4.2,2.3,19.4,8.3,24.8,8.9c17-0.3,32.2-6.1,31.2-5.8
				c-3.8,1.3-34.1,5.5-42.7-0.6c16.4-3.6,33-6.6,46.5-17.3c-15.3,12-38.7,12.7-52.5,14.3c33.5-5.1,52.1-42.4,51.5-41.5
				c-23.5,35-53,43.2-63.3,35.2l0,0l0,0l0,0c23.8-1,55-40.2,63-82.4l0,0c29.9-2.3,23.2,26.2,16.3,39.5
				C1732.8,1085.9,1724.9,1113.9,1725.8,1114.5z"/>
			<path d="M1689.5,1216.6c12-62-34-75.6-45.1-77.3l0,0l0,0c34.1,17.9,34.7,61.2,34.1,57.7c-4.4-29.3-29.9-54.1-43-58.4l0,0
				c19.8,19.6,29.8,88,4.3,108.8C1671.1,1261.4,1666.4,1210.8,1689.5,1216.6z"/>
			<path d="M1692,1189.6c0.4,0.9,0.9,1.8,1.3,2.7C1692.9,1191.4,1692.5,1190.5,1692,1189.6z"/>
			<path d="M1690.5,1186.6c0.3,0.6,0.6,1.2,0.9,1.8C1691.1,1187.8,1690.8,1187.2,1690.5,1186.6z"/>
		</g>
	</g>
	<g>
		<path d="M1143.7,629L1143.7,629c28.7,36,48.5,86.3,50.1,131.1l0,0l0,0c1.4,26.7-0.3,51.4-3.8,73.2c-2.4,14.9-5.5,28.4-9,39.9v0
			c-7.8,27.9-22,61.9-40.8,94.7c-9.4,16.5-19.6,33-30.3,48.8c-10.8,15.7-22.4,30.5-32.2,46.1c-9.8,15.5-17.9,31.9-21.3,49.5l0,0
			c-0.2,1-0.4,2.1-0.6,3.1c0.6-0.1,1.1-0.3,1.7-0.4c1.7-9,4.5-17.8,8.4-26.3c12.8-28.1,34.8-52,52.8-79.5
			c18.1-27.2,34.6-55.5,46.6-81.9c10-22.1,22-53.3,28.1-92c1.2-7.3,2.1-14.8,2.8-22.7l0,0c1.9-24.5,2.4-51.1-2.5-78.6
			c-4.8-27.5-15.5-55.2-29.8-79c-29-48.1-67.8-79.2-94.9-99.3h0c-3.6-2.6-13.3-9.1-17.5-11.4C1081.4,564.1,1115.5,592.6,1143.7,629z
			"/>
		<g>
			<path d="M1024.8,492.3c5.7,8,29.2,19.9,42.7,31.7c-11.5-8.5-29.6-17.9-47.1-30.4c-1.3,0.3-2.6,0.6-4,0.8
				c-1.4,0.2-2.8,0.3-4.2,0.4c1.2,17.3,28,57.6,51.6,77.5c1.4,1.2-37.3-26.8-55.4-73.4c-3.7,24.2-6.3,73.4,13.3,100.3
				c-17.7-23.7-23.5-74.6-15.1-103.2c-37.9,20.6-38.4,67.1-30.2,86.7c0.7,1.6-11.9-24.8,0.1-60c4.3-10.2,12.9-18.7,21.4-27.3
				c-3.9-0.4-4.4-2.3-7.6-3.8c-57.7,12.3-85.2,119.4,6.4,134.3c13.6,1,27-1.9,44.7-15.2c14.9-4.4,38.3,9.9,62.1-4.4
				c17-10.3,6.8-26.7,8.2-27c43.8-63.3-45.5-69.8-81.2-91C1028.2,490,1028.1,491,1024.8,492.3z"/>
			<path d="M994.9,489.4L994.9,489.4c-40.4-14.3-68.8,8.2-68.8,8.2l0,0c14.4-16.9,50.4-18.1,63.4-12.8c0-0.1,0,0,0,0l0,0l0,0l0,0
				c-14.3-19.9-93.7-12.5-102.5,11.5c5.4-14.8,52-40.3,94.3-20.3c-31.1-25-72.2-17.1-81.1-11.5c-2.8,1.7,7.7-8.1,35.3-7.7
				c8.7,0.7,27.2,4.7,40.5,13.5l0,0c-48.9-33.5-159.3-29.4-126.8,33.7l0,0l0,0C810.9,553.4,880.9,592,902,582
				C849.9,542.1,969.2,480.7,994.9,489.4z"/>
			<path d="M1032.8,465.9L1032.8,465.9L1032.8,465.9c22-30.8,80.1-21.1,77.7-21.2c-23.9-1.2-52.5,2.1-66.7,16.4
				c32.7-16.5,101.3-5,138.3,5.5c-59.6-16.8-133.3-15.4-148.4,6c35-21.1,105.8,16,103.9,14.9c-28.2-15.7-92.8-25.2-105.1-10.7l0,0
				l0,0c0,0,0,0,0,0c11.6-6.6,38-1.7,62.8,13.6c0,0-42.9-24-64-9.9l0,0c26.8-10.9,137,81.1,159.6,28.1l0,0
				c38,1.7,38.4-15.1,34.8-33.8l0,0C1207.8,396.8,1041.4,427,1032.8,465.9z"/>
			<path d="M1103.3,491.7C1103.4,491.9,1103.4,491.9,1103.3,491.7L1103.3,491.7z"/>
			<path d="M1045.1,368.9c-48.9-5.4-64.7,52.9-37.8,90.7l0,0c-2.1-5.8-6.4-25.8-5.9-32.6c4.1-20.8,15-38.2,14.3-37.1
				c-2.6,4.4-14.7,40.8-8.7,52.8c8.2-19.5,15.9-39.1,32.6-53.3c-18.9,16-25.1,44.7-30.1,61.3c14-40,66.2-54.3,64.9-53.8
				c-50.3,20.8-67.5,55.2-59.5,69.8l0,0l0,0l0,0c6.6-29.1,64.1-58.4,120.3-58.5l0,0c9.7-36.3-28.6-34.6-47.4-29.2
				C1083.6,367,1045.7,370.1,1045.1,368.9z"/>
			<path d="M905.3,389.9c82.6-0.4,90,59.5,89.7,73.5l0,0l0,0c-15.5-46.2-71.2-57-66.9-55.5c36.8,12.2,63.2,49.4,65.8,66.6l0,0
				C973,445.7,887.1,417.5,854.5,444C843.5,402.3,907.8,419.8,905.3,389.9z"/>
			<path d="M940.8,393.1c-1.1-0.7-2.1-1.5-3.1-2.2C938.6,391.6,939.7,392.3,940.8,393.1z"/>
			<path d="M944.3,395.7c-0.7-0.5-1.4-1-2.1-1.5C942.9,394.7,943.6,395.1,944.3,395.7z"/>
		</g>
	</g>
	<g>
		<path d="M1122.9,812.4c-23.3-13.6-50.3-14-77.1,10.1l0,0l0,0c-23.9-53.2,35.4-68,43.7-38.2l0,0l0,0l0,0
			c27.2-37.7,55-22.7,57.4-21.7c12.8,6.3,19.2,11.7,25.6,20c10.9,14.3,16.1,30,17.9,50.1c1,12.6-1.8,33.6-1.8,33.6l0,0
			c-2,11.2-6.9,13.2-10.1,7.6C1166,847.8,1146.5,826.1,1122.9,812.4z"/>
		<path d="M1185.9,875.2c0,0,2.3-66-40.4-86.6C1145.5,788.7,1181.8,800.9,1185.9,875.2z"/>
	</g>
	<g>
		<path d="M1536.9,772.8c18.8,4.3,34.2,17.6,39.2,44.4l0,0l0,0c35.7-17.2,8.5-55.3-8.6-43.1l0,0l0,0l0,0
			c0.4-34.4-21.5-40.1-23.3-40.9c-9.8-2.9-15.7-3.2-22.7-1.9c-12.1,2.4-21.6,8.4-31,18.6c-5.8,6.4-13,19.4-13,19.4l0,0
			c-3.6,7.2-1.7,10.7,2.5,9.3C1497.9,770.6,1517.9,768.4,1536.9,772.8z"/>
		<path d="M1475.2,775.6c0,0,26.2-37.5,58.9-27.3C1534.2,748.3,1508.6,736.8,1475.2,775.6z"/>
	</g>
</g>
</svg>
