<?xml version="1.0" encoding="utf-8"?>
<!-- Generator: Adobe Illustrator 21.0.0, SVG Export Plug-In . SVG Version: 6.00 Build 0)  -->
<svg version="1.1" id="Layer_1" xmlns="http://www.w3.org/2000/svg" xmlns:xlink="http://www.w3.org/1999/xlink" x="0px" y="0px"
	 viewBox="0 0 1489.1 1489.4" style="enable-background:new 0 0 1489.1 1489.4;" xml:space="preserve">
<path d="M727.3,723.8c0,9.6,7.8,17.4,17.1,17.4c9.6,0,17.4-7.8,17.4-17.4c0-16-6.5-30.7-16.7-41.2c-10.7-10.9-24.9-17.6-41-17.6
	c-16,0-30.5,6.7-41,17.6c-10.2,10.5-16.7,25.2-16.7,41.2c0,27.6,10.9,52.8,28.5,70.8c17.8,18.3,42.3,29.6,69.5,29.6
	c27.2,0,51.9-11.4,69.5-29.6c17.8-18,28.7-43.2,28.7-70.8c0-39-15.6-74.4-40.5-100c-25.2-25.8-59.7-41.9-98-41.9
	c-38.3,0-73,16-98.2,41.9c-24.9,25.6-40.3,61-40.3,100c0,50.5,19.8,96.4,52.3,129.6c32.3,33.4,77,54.1,126.5,54.1
	s94.4-20.7,126.7-54.1c32.3-33.2,52.3-79,52.3-129.6c0-61.9-24.5-118.2-64.1-158.7c-39.9-41-94.6-66.3-155.2-66.3
	S588.6,524.1,549,565c-39.6,40.5-64.1,96.8-64.1,158.7c0,73.7,28.9,140.3,75.9,188.3c47,48.5,112,78.4,183.7,78.4
	c71.9,0,136.9-29.8,183.9-78.4c47-48.1,75.9-114.7,75.9-188.3c0-84.8-33.6-161.8-87.7-217.7c-54.3-55.9-129.6-90.4-212.4-90.4
	c-83,0-158.1,34.5-212.4,90.4s-87.7,132.9-87.7,217.7c0,96.6,38.1,183.9,99.5,247.1c61.7,63.4,146.9,102.9,240.9,102.9
	c94.2,0,179.4-39.4,240.9-102.9c61.7-63.2,99.7-150.5,99.7-247.1c0-107.8-42.5-205.5-111.5-276.5
	c-68.8-70.8-164.1-114.7-269.4-114.7s-200.6,43.9-269.6,114.7c-68.8,71-111.3,168.8-111.3,276.5c0,119.6,47,227.7,123.1,306.1
	c76.4,78.4,181.7,126.9,298.1,126.9c116.4,0,222-48.5,298.1-126.9c76.1-78.4,123.3-186.6,123.3-306.1
	c0-130.7-51.6-249.3-135.1-335.3c-83.5-85.9-199-139.1-326.6-139.1s-243.1,53.2-326.6,139.1c-83.5,85.9-135.1,204.6-135.1,335.3
	c0,142.5,56.1,271.4,146.9,364.9c90.8,93.5,216.4,151.2,355.1,151.2s264.5-57.7,355.3-151.2c90.8-93.5,146.9-222.4,146.9-364.9
	c0-153.8-60.8-293-158.7-394c-98.2-100.8-234-163.4-383.8-163.4c-149.8,0-285.6,62.6-383.8,163.4c-98.2,101.1-158.7,240.2-158.7,394
	c0,165.4,65,315.2,170.5,423.7c105.5,108.4,251.3,175.7,412.3,175.7c161.2,0,307-67.2,412.5-175.7
	c105.3-108.4,170.5-258.2,170.5-423.7c0-176.8-69.7-336.8-182.6-452.8C1032.3,154.9,876.3,83,704.2,83
	c-172.3,0-328.2,71.9-441,187.9C150.5,386.9,80.8,547,80.8,723.8c0,188.3,74.1,358.9,194.1,482.4
	c120.2,123.6,286.3,199.9,469.5,199.9c183.4,0,349.5-76.4,469.5-199.9c120.2-123.6,194.4-294.1,194.4-482.4
	c0-199.7-78.8-380.5-206.2-511.6S898.7,0,704.2,0S333.5,81,205.9,212.2C78.6,343.3,0,524.1,0,723.8C0,935,83.3,1126.3,218,1265
	c134.7,138.5,320.8,224.4,526.5,224.4c205.7,0,392-85.9,526.7-224.4c134.7-138.7,218-329.9,218-541.2c0-9.4-7.8-17.1-17.1-17.1
	c-9.6,0-17.4,7.8-17.4,17.1c0,202.1-79.5,384.9-208.2,517.2c-128.5,132.2-305.9,213.9-502,213.9c-195.9,0-373.6-81.7-502-213.9
	S34.3,925.9,34.3,723.8c0-190.3,75-362.9,196.4-487.6C351.7,111.5,519.2,34.5,704.2,34.5c184.8,0,352.2,77,473.3,201.7
	c121.3,124.7,196.4,297.2,196.4,487.6c0,179.2-70.3,341.1-184.3,458.4c-114,117.1-271.2,189.5-445,189.5
	c-173.6,0-331-72.4-444.8-189.5c-114-117.3-184.6-279.2-184.6-458.4c0-167.4,66.1-319,172.8-428.8
	c106.4-109.5,253.8-177.4,416.3-177.4s309.7,67.9,416.3,177.4C1227.1,404.7,1293,556.3,1293,723.8c0,156.1-61.4,297.4-160.7,399.6
	c-99.3,102-236.4,165.2-387.8,165.2c-151.4,0-288.5-63.2-387.6-165.2c-99.5-102.2-161-243.6-161-399.6c0-144.5,57-275.4,149.2-370
	c91.7-94.6,218.8-152.9,359.1-152.9s267.2,58.3,359.1,152.9c91.9,94.6,148.9,225.5,148.9,370c0,133.1-52.3,253.6-137.1,340.8
	c-84.6,87-201.5,140.7-330.6,140.7s-246-53.7-330.6-140.7c-84.6-87.3-136.9-207.7-136.9-340.8c0-121.6,47.9-231.5,125.1-311.2
	c77.3-79.5,184.1-128.7,302.1-128.7c118,0,224.6,49.2,301.9,128.7c77.5,79.7,125.3,189.7,125.3,311.2
	c0,110.2-43.4,209.9-113.5,282.1c-69.9,71.9-166.5,116.4-273.4,116.4c-106.6,0-203.5-44.5-273.4-116.4
	C400.9,933.7,357.8,834,357.8,723.8c0-98.6,38.7-187.9,101.5-252.5c62.6-64.3,149.2-104.2,244.9-104.2
	c95.5,0,182.1,39.9,244.9,104.2c62.8,64.6,101.5,153.8,101.5,252.5c0,87.3-34.3,166.3-89.7,223.3c-55.4,56.8-131.8,92.2-216.4,92.2
	c-84.4,0-161-35.4-216.2-92.2c-55.4-57-89.7-136-89.7-223.3c0-75.7,29.6-144,77.9-193.7c47.9-49.4,114.4-79.9,187.7-79.9
	s139.6,30.5,187.7,79.9c48.1,49.6,77.9,118,77.9,193.7c0,64.3-25.2,122.4-66.1,164.5c-40.7,41.9-97.1,67.7-159.2,67.7
	s-118.4-25.8-159-67.7c-41-42.1-66.1-100.2-66.1-164.5c0-52.8,20.7-100.4,54.1-134.9c33.4-34.3,79.7-55.7,130.7-55.7
	c51,0,97.1,21.4,130.5,55.7c33.6,34.5,54.3,82.1,54.3,134.9c0,41.4-16.3,78.8-42.5,105.7c-26,26.7-62.1,43.4-102,43.4
	s-75.9-16.7-102-43.4c-26-26.9-42.3-64.3-42.3-105.7c0-29.6,11.6-56.5,30.5-76.1c18.7-19.4,44.7-31.2,73.5-31.2
	c28.7,0,54.5,11.8,73.2,31.2c18.9,19.6,30.7,46.5,30.7,76.1c0,18.5-7.1,35-18.7,47c-11.6,11.8-27.4,18.9-45,18.9
	c-17.4,0-33.4-7.1-44.7-18.9c-11.6-12-18.7-28.5-18.7-47c0-6.7,2.7-12.9,6.9-17.4c4-4.2,9.8-6.9,16.3-6.9c6.2,0,12,2.7,16.3,6.9
	C724.6,710.8,727.3,717.1,727.3,723.8L727.3,723.8z"/>
</svg>
