<?xml version="1.0" encoding="utf-8"?>
<!-- Generator: Adobe Illustrator 24.3.0, SVG Export Plug-In . SVG Version: 6.00 Build 0)  -->
<svg version="1.1" id="Layer_1" xmlns="http://www.w3.org/2000/svg" xmlns:xlink="http://www.w3.org/1999/xlink" x="0px" y="0px"
	 viewBox="0 0 35.21 57.53" style="enable-background:new 0 0 35.21 57.53;" xml:space="preserve">
<style type="text/css">
	.st0{fill:#010202;}
</style>
<g>
	<path class="st0" d="M27.39,24.34c-0.18-0.02-0.5,0.14-0.41,0.25c0.05,0.06,0.33,0.31,0.77,0.28c0.37-0.03,0.9-0.33,0.98-0.41
		C28.85,24.32,27.57,24.36,27.39,24.34z"/>
	<path class="st0" d="M28.27,25.57c-0.06-0.12-0.13-0.11-0.26-0.1c-0.17,0.02-0.46,0.08-0.84,0.09c-0.38,0-0.64-0.07-0.83-0.13
		c0,0,0.39,0.51,0.75,0.62c0.47,0.14,1.04,0,1.04,0S28.37,25.76,28.27,25.57z"/>
	<path class="st0" d="M27.54,26.47c-0.27,0-0.46-0.05-0.54,0.03c-0.08,0.08,0.48,0.27,0.61,0.4c0.13,0.14,0.37,0.17,0.41,0.1
		C28.34,26.4,27.65,26.47,27.54,26.47z"/>
	<path class="st0" d="M18.23,16.94c-0.81,1.38-0.79,2.88-0.61,3.92c0.13,0.8,0.36,1.33,0.36,1.33s0.19,0,0.44-0.02
		c0.44-0.03,1.08-0.11,1.28-0.34c0.32-0.36,0.51-1.35,1.81-1.6c0.09-0.02,0.23,0.06,0.41,0.18c-1.07,0.44-1.49,1.92-2.3,2.29
		c-0.36,0.17-0.66,0.24-0.91,0.24c0.28,0.58,0.65,1.1,1.06,1.67c0.48,0.68,0.58,0.95,0.84,1.54c0.21-0.99-0.47-2.45-0.71-2.93
		c0.23,0.39,0.72,0.97,1.02,1.45c0.25,0.38,0.53,1.21-0.2,2.84c-0.27,0.6-0.96,1.25-0.96,1.25c0.72-0.2,1.61-0.97,1.61-0.98
		c0,0-0.72,0.88-1.44,1.82c-0.05,0.07-0.12,0.2-0.18,0.36c-0.28-0.51-0.45-1.05-0.43-1.63c-0.57,0.03-1.02-0.08-1.13,0.06
		c-0.31,0.42-0.31,3.26-0.31,3.26s-0.7-0.52-0.86-1.61c-0.16-1.1,0.04-1.91,0.04-1.91s-0.79-0.02-1.82,0.35
		c-1.03,0.37-1.31,1.57-1.31,1.57c-1.24-0.62-0.63-2.02-0.63-2.02l-1.28,0.15l0.66,2.91c0,0,0.43,0.77,1.63,1.34
		c1.2,0.57,2.97,1.21,2.97,1.21s2.56-0.48,4.24-1.36c0,0,0,0,0,0c1.82-0.85,3.86-2.48,3.86-2.48c0-1.14-0.29-1.11,1.24-1.29
		c0.47-0.06,1.54-0.18,1.54-0.18c-0.08-0.1-0.18-0.36-1.67-0.33c-2.72,0.05-3.35-2.48-2.88-2.72c0.65-0.34,0.81-0.7,0.43-1.6
		c-0.38-0.9,1.46-1.72,1.87-1.77c0,0,0.35,0.28,0.56,0.4c0.2,0.12,0.66,0.3,0.76,0.34c0.41,0.15,0.76-0.01,0.9-0.11
		c0.14-0.11,0.23-0.55,0.27-0.57c0.04-0.02,0.32-0.25,0.46-0.37c0,0-0.57-0.53-0.84-0.64c-0.27-0.11-1.39,0.01-1.64,0.03
		c-0.03,0-0.06,0.01-0.09,0.02c0,0,0,0,0,0c0.36-0.35,1.86-0.63,2.43-0.72c0.85-0.08,1.67-0.14,2.35-0.18
		c0.1-0.01,0.19-0.01,0.28-0.02c0.36-0.03,0.67-0.06,0.91-0.09c0.14-0.02,0.25-0.03,0.34-0.05c0.65-0.12-2.9-0.88-2.9-0.88
		s0,0-0.01,0c-0.13-0.02-1.19-0.15-2.32-0.21c-0.33-0.02-0.9-0.03-1.49-0.04c-1.06-0.02-2.2-0.04-2.2-0.04
		c0.07-0.04,0.15-0.08,0.25-0.12c0.59-0.27,1.57-0.53,2.41-0.74c0.89-0.21,1.63-0.36,1.63-0.36c-1.29-0.61-2.81-0.61-2.81-0.61
		c0.49-0.33,1.29-0.5,1.85-0.58c0.38-0.05,0.66-0.07,0.66-0.07c-2.46-0.83-6.61-0.38-6.61-0.38c1.09-0.74,5.85-1.09,5.85-1.09
		l0.29,0.04l0.76,0.1c-0.14-0.1-0.3-0.18-0.47-0.25C25.22,13.8,19.98,13.98,18.23,16.94z M21.32,22.68
		c0.08,0.34,0.72,1.36,0.72,1.36c-0.25-0.26-0.75-0.49-1.09-1.55c-0.17-0.52,0.12-1.05,0.34-1.15c0.7-0.35,0.94,0.37,0.94,0.37
		c-0.18-0.09-0.45-0.08-0.67,0.11C21.43,21.93,21.2,22.16,21.32,22.68z"/>
	<path class="st0" d="M11.54,36.96c0.64,1.31,0.87,1.94,1.51,3.21c0.63,1.27,1.06,1.31,2.25,3.69c1.19,2.38,1.22,5.55,1.22,5.55
		s-0.56-0.4-1.83-3.99c-1.27-3.6-2.47-6.19-2.39-5.9c0.08,0.29,1.04,6.72,1.35,8.63c0.32,1.91,1.35,2.54,1.98,3.48
		c0.64,0.94,2.78,1.62,2.78,1.62s1.75,0.29,1.23-0.24c-0.51-0.53-2.07-2.39-2.07-2.39s1.87,0.62,3.02,1.65
		c1.15,1.03,1,1.19,2.82,0.74c0.84-0.21,1.47-0.5,1.91-0.77c-0.36-0.09-0.94-0.28-1.78-0.67c-1.63-0.76-2.78-2.9-2.78-2.9
		s1.6,1.67,3.47,2.44c0.68,0.28,1.26,0.4,1.73,0.45c-0.27-0.26-1.03-0.98-2.68-2.37c-2.14-1.8-2.57-4.31-2.57-4.31
		c2.23,2.62,4.08,5.17,5.61,5.41c1.52,0.24,3.91-0.01,3.91-0.01s-1.51-0.79-2.94-1.57c-1.43-0.77-2.44-4.1-2.44-4.1
		s0.82,1.27,4.12,2.17c0,0-0.43-0.45-1.08-1.72c-0.61-1.2-0.92-1.76-0.92-1.76c1.77-0.28,3.3,0,3.3,0c0.03-1.07,0.69-2.37,0.69-2.37
		s-2.53,0.64-4.5,1.28c-4,1.31-5.91,1.08-5.91,1.08s3.72-0.79,5.48-1.81c1.29-0.75,2.7-1.14,2.7-1.14s-1.73-0.15-3.22-0.38
		c-1.49-0.23-3.21-2.64-3.21-2.64s2.37,1.22,4.66,1.34c2.29,0.11,4.24,0.03,4.59-0.77c0.34-0.8,1.49-2.69,1.09-4.24
		c-0.4-1.55-1.48-3.41-2.52-3.6c-1.14-0.2-4.06,0.33-4.06,0.33s2.62,0.11,3.83,0.92c1.2,0.8,2.01,3.32,2.01,3.32s-1.43-2-3.27-2.52
		c-1.83-0.52-2.81-1.21-4.12-0.75c-1.32,0.46-4.05,2.27-4.05,2.27s1.1,1.48,1.22,2.9c0,0-1.9-2.67-2.71-2.44
		c-0.8,0.23-0.8,0.23-0.8,0.23c0.97,0.69,3.22,4.33,3.22,5.94c0,0.62-0.26,1.16-0.58,1.59c0.03-0.13,0.06-0.26,0.08-0.39
		c0,0,0,0,0,0c0,0,0,0,0,0c0.05-0.35,0.07-0.72,0.06-1.01c-0.03-0.69-0.29-1.27-0.29-1.27s-0.44,1.84-1.09,2.04
		c-0.64,0.2-2.47-0.06-2.51-0.07c-0.51-0.13-0.97-0.27-1.33-0.41c-1.3-0.5-3.07-2.68-4.07-4.03h0.02c-0.63-0.86-1.37-2.63-1.67-3.74
		c0.49,0.97,1.07,1.94,1.67,2.66c1.83,2.17,3.22,3.72,3.77,3.9c0.55,0.18,3.02,1.01,3.48,0.96c0.46-0.05,0.58-0.73,0.64-2.04
		c0.06-1.31-0.75-2.44-1.25-3.15c0,0-0.36-0.1-1.03-0.51c-0.68-0.4-3.69-2.4-3.69-2.4s0.56,0.76,1.53,1.87
		c0.97,1.12,1.7,2.32,1.7,2.32s-2.62-2.64-3.56-3.67c-0.71-0.77-1.53-3.2-1.89-4.37c-0.64,0.45-1.54,0.66-1.54,0.66
		c0.47-0.21,0.95-0.78,1.34-1.3l-2.83,1.13c0,0,0.44,1.27,1.12,2.78c-0.21-0.25-0.48-0.59-0.77-0.98c-0.41-0.56-1.1-1.5-1.1-1.5
		c-0.56-0.02-1.47,0.29-1.47,0.29s-0.96,3.24-1.26,4.33c-0.3,1.1,0.69,2.2,0.69,2.2l2.53,0.5c0,0-0.65-1.55-0.8-2.26
		c-0.15-0.71-0.9-2.23-0.9-2.23s2,2.54,2.21,3.45c0.2,0.91,0.81,1.08,0.81,1.08h2.03C11.46,36.8,11.5,36.88,11.54,36.96z
		 M18.76,42.4c-0.01,0.23-0.19,0.41-0.42,0.41c-0.23,0-0.42-0.19-0.42-0.42c0-0.12,0.05-0.23,0.14-0.31
		c0.08-0.07,0.18-0.11,0.29-0.11c0.23,0,0.42,0.19,0.42,0.42C18.76,42.39,18.76,42.39,18.76,42.4z M17.75,45.93
		c0-0.23,0.19-0.42,0.42-0.42c0.23,0,0.42,0.19,0.42,0.42s-0.19,0.42-0.42,0.42C17.94,46.35,17.75,46.16,17.75,45.93z M18.47,49.81
		c-0.23,0-0.42-0.19-0.42-0.42c0-0.23,0.19-0.42,0.42-0.42c0.23,0,0.42,0.19,0.42,0.42C18.89,49.63,18.7,49.81,18.47,49.81z"/>
	<path class="st0" d="M3.83,32.37c0.44-0.52,2.19-2.95,2.91-3.96c0.26-0.03,0.41-0.03,0.63,0.03c0.17,0.05,0.36,0.29,0.66,0.18
		c0.3-0.11,2.18-0.66,2.59-1.1c0,0-0.64-1.38-0.96-1.76c-0.33-0.38-0.26-0.78-0.87-1.57c-0.61-0.8-1.54-0.7-1.92-0.46
		c-0.38,0.24-0.77,0.59-0.77,0.59s0.5,0.03,1.06,0.27c0.56,0.24,1.15,1.12,1.15,1.12s-0.41-0.41-1.06-0.59
		c-0.65-0.18-0.83-0.18-1.18,0.15c-0.35,0.33-0.47,0.59-0.47,0.59s0.92,0,1.12,0.38c0.21,0.38,0.27,0.77,0.27,0.77
		s-0.5-0.3-1.01-0.44c-0.5-0.15-0.71-0.09-0.86,0.33C4.98,27.3,5,27.27,5.36,27.67c0.02,0.02,0.04,0.04,0.05,0.06
		c-0.76,1.01-2.23,2.96-2.64,3.36c0,0,0.61-1.61,1.22-2.81s0.66-1.57,0.81-2.23c0,0-2.16,2.58-3.23,3.6S0.03,31.56,0,32.37
		c-0.05,1.54,0.55,2.02,0.55,2.02c-0.18-0.94,0.24-1.61,0.24-1.61c0.1,0.79,0.69,2.42,1.7,2.47c1.01,0.05,1.01-0.58,1.66-1.39
		c0.28-0.35,0.92-1.79,1.23-2.62L3.83,32.37z"/>
	<path class="st0" d="M7.83,22.72c1.05,0.15,2.14,1.67,2.14,1.67l0.66-0.73c0,0-0.2-0.23-0.55-0.94c-0.35-0.71-1.28-1.14-1.28-1.14
		c1.15-0.08,2.42,1.14,2.42,1.14s-0.18-1.01-1.04-1.62c-0.86-0.61-1.57-0.71-2.34-0.66c-0.77,0.05-0.66,0.98-1.46,1.77
		c-0.12,0.11-0.64,0.25-0.64,0.91c0,0.66-0.22,1.02-0.22,1.02s0.4-0.26,0.76-0.48C6.63,23.43,7.83,22.72,7.83,22.72z"/>
	<path class="st0" d="M15.75,13.47c1.38-1.73,4.68-6.56,5.59-8.01c1.01-1.61,1.85-2.77,2.29-3.77c0.53-1.22-1.16-2.34-2.18-1.25
		c-0.73,0.78-1.78,2.51-2.48,3.64c-1.21,1.96-4.02,6.51-5,8.75c-0.98,2.24-4.2,7.3-4.2,7.3s0.27,0,0.85,0.58
		C10.62,20.71,14.37,15.19,15.75,13.47z M20.8,4.1c0.78-1.37,1.58-3.09,1.05-3.55c0,0,0.24-0.07,0.73,0.17
		c0.57,0.28,0.49,1.09-0.43,2.56c-3.33,5.32-6.64,9.54-6.64,9.54S20.02,5.47,20.8,4.1z"/>
	<path class="st0" d="M30.75,56.16c-1.34-0.5-4.49-0.73-4.49-0.73s2.14-0.43,3.58-0.26c1.44,0.17,2.75,0.42,2.75,0.42
		s-0.38-0.34-0.63-0.84c-0.25-0.5-0.84-1.21-1.16-1.42c0,0-2.4,0.67-4.01,1.33c-0.28,0.11-0.55,0.21-0.84,0.28
		c0.02-0.16,0.07-0.6-0.01-0.94c-0.1-0.42-0.35-0.9-0.35-0.9l0.78-0.42c0,0,0.37,0.84,0.42,1.19c0.05,0.35,0,0.78,0,0.78
		s0.6-0.47,0.95-0.67c0.35-0.2,1.92-1.24,2.07-1.3c0.15-0.07-0.57-1.57-0.57-1.57s-1,0.64-1.17,0.72c-0.17,0.08,0,1.19,0,1.19
		l-0.78-0.98c0,0-1.34,0.49-1.94,0.76c-0.6,0.27-3.49,0.95-3.49,0.95c0.1,0.1,0.25,0.85,0.57,1.24c0.08,0.1,0.18,0.19,0.28,0.26
		c-0.26,0-0.53,0-0.82-0.01c-0.24-0.21-0.6-0.59-0.63-0.92c-0.04-0.49,0-0.75,0-0.75s-0.69,0.26-1.99,0.15
		c-0.98-0.08-1.75-0.43-2.39-0.7C16.26,52.77,15,52.34,15,52.34c-0.19,0.3-0.68,1.17-0.26,1.35c0.12,0.06,0.86,0.45,1.31,0.64
		c0.45,0.19,0.45,0.19,0.45,0.19s-0.08-0.3-0.19-0.9c-0.11-0.6-0.05-0.44-0.05-0.44l0.71,0.32c0,0,0.09,0.68,0.28,1.02
		c0.1,0.17,0.26,0.34,0.4,0.47c-2.1-0.26-3.58-0.66-3.58-0.66c0.84,0.34,3.22,1.57,3.22,1.57s-4.42-0.96-4.76-0.95
		c-0.34,0.01-2.82,2.57-2.82,2.57s15.12-0.04,17.97,0c2.86,0.04,7.52,0.03,7.52,0.03S32.09,56.66,30.75,56.16z M17.89,55.01v-1.25
		c0,0,0.22,0.93,0.37,1.29C18.14,55.04,18.02,55.03,17.89,55.01z"/>
</g>
</svg>
