<?xml version="1.0" encoding="utf-8"?>
<!-- Generator: Adobe Illustrator 21.0.0, SVG Export Plug-In . SVG Version: 6.00 Build 0)  -->
<svg version="1.1" id="Layer_1" xmlns="http://www.w3.org/2000/svg" xmlns:xlink="http://www.w3.org/1999/xlink" x="0px" y="0px"
	 viewBox="0 0 360.7 347.6" style="enable-background:new 0 0 360.7 347.6;" xml:space="preserve">
<g>
	<path d="M55.9,189.1v145.4c0.1,5.6,3.7,9,6.6,10.7c3.1,1.7,6.4,2.5,10,2.5h66.3c2.2,0,4.5-0.9,6.1-2.5c1.6-1.6,2.5-3.9,2.5-6.1
		v-69.9h66V339c0,2.2,0.9,4.5,2.5,6.1c1.6,1.6,3.9,2.5,6.2,2.5h66.2c3.6,0,6.9-0.8,10-2.5c2.9-1.7,6.5-5.1,6.6-10.7V189.1
		L180.4,75.9L55.9,189.1z"/>
	<path d="M353.1,149L196.1,6.1c-8.9-8.1-22.6-8.1-31.5,0L7.6,149c-9.5,8.6-10.2,23.3-1.4,32.7v0.1c4.6,4.9,10.9,7.5,17.2,7.5
		c5.7,0,11.3-2,15.8-6L180.4,54.6l141.3,128.6c9.4,8.6,24.3,8,32.9-1.4C363.3,172.3,362.7,157.6,353.1,149L353.1,149z"/>
</g>
</svg>
