<?xml version="1.0" encoding="utf-8"?>
<!-- Generator: Adobe Illustrator 21.0.0, SVG Export Plug-In . SVG Version: 6.00 Build 0)  -->
<svg version="1.1" id="Layer_1" xmlns="http://www.w3.org/2000/svg" xmlns:xlink="http://www.w3.org/1999/xlink" x="0px" y="0px"
	 viewBox="0 0 1654.1 1523.8" style="enable-background:new 0 0 1654.1 1523.8;" xml:space="preserve">
<style type="text/css">
	.st0{fill:#231F20;}
</style>
<g>
	<path class="st0" d="M1578.2,194.6l-28.7-25.3l-390.7,442.8l0.4,7.8c3.4,65.2-8.9,127.4-35.1,185.9c0.5,0.5,2.6,3.5,3.2,4.1
		c1.8,1.9,2.8,2.5,4,3.8c1.6,1.7,3,3.6,4.7,5.3c3.2,3.1,4.9,5,7.7,8.4c0.8,0.7,1.6,1.3,2.4,2.1c1.2,1.1,2.1,2.4,3.1,3.7
		c1.1,0.7,2.1,1.3,3.1,2.2c0.3,0.3,0.6,0.7,0.9,1.1c31.5-65,47.2-137.3,44.7-210.6L1578.2,194.6z"/>
	<path class="st0" d="M1459.6,76l-431.3,380.3c-59.6-2.1-118.9,7.8-175.6,29.5c-24.4,9.4-47.7,20.8-69.9,34.1c1.4,0.3,2.7,0.7,4,1.1
		c4.6,1.3,7.9,3.8,12.2,5.9c4.7,2.2,10.4,3.8,15,6.2c3.5,1.8,7.6,5,11.4,5.7c0.5,0.1,0.9,0.3,1.3,0.6c12.9-6.6,26.1-12.5,39.7-17.7
		c54.1-20.7,110.6-29.8,167.7-26.6l7.8,0.4L1485,104.7L1459.6,76z"/>
	<path class="st0" d="M853.1,1169.7c-4.3-3.3-7.9-8-12-11.7c-2.7-2.4-4.9-5.4-7.5-7.9c-1.1-1-2-2.1-3-3.3c-0.6-0.7-1.2-0.5-1.8-1.3
		c0,0-1-1.1-1.1-1.1c-0.7-0.3-0.2-0.8-0.5-1.3l-326.5,326.5l-316-316l345.7-345.7c-0.5-0.5-0.9-1-1.3-1.6c-4-5.5-6-12.4-7.9-18.9
		c-1.1-3.6-2-7.4-3.5-10.8c-0.6-1.2-1.3-2.3-1.8-3.6c-0.2-0.5-1.5-4.9,0-3.2c-0.3-0.3-0.5-0.6-0.6-0.9l-384.7,384.7l370.2,370.2
		l352.5-353C852.6,1170.5,853.4,1170.2,853.1,1169.7z"/>
</g>
<g>
	<path class="st0" d="M1577,222.1l-145-145L1509.1,0l145,145L1577,222.1z M1486.2,77.1l90.8,90.8l23-23l-90.8-90.8L1486.2,77.1z"/>
</g>
<g>
	<path class="st0" d="M957.3,587.1C869.7,499.5,749.1,452,625.8,456.4L194.6,76l-25.3,28.7l442.8,390.7l7.8-0.4
		c115.3-6,228.6,37.4,312.4,119.2l209.2,209.2c-0.5,1.2,1,2.4,2.3,4c0.8,0.7,1.6,1.3,2.4,2.1c1.2,1.1,2.1,2.4,3.1,3.7
		c1.1,0.7,2.1,1.3,3.1,2.2c0.8,0.8,1.5,1.8,1.9,2.8l315.5,315.5l-316.1,316l-302.4-302.4c-3.5-2.9-6.7-6.1-10.2-9.3
		c-2.7-2.4-4.9-5.4-7.5-7.9c-1.1-1-2-2.1-3-3.3c-0.3-0.4-0.7-0.8-1-1.2l-1.6-1.6c-0.2-0.2-0.4-0.4-0.6-0.6L614.2,930.2
		c-40.9-40.9-72.1-88.8-92.7-142.5c-20.4-53.3-29.6-111.3-26.6-167.7l0.4-7.8L104.7,169.2L76,194.6l380.3,431.3
		c-2.1,59.9,7.8,118.9,29.5,175.6c22.6,58.8,56.7,111.2,101.4,155.9l566.5,566.5l370.2-370.2L957.3,587.1z"/>
</g>
<g>
	<path class="st0" d="M77.1,222.2L0,145.1l145-145l77.1,77.1L77.1,222.2z M54.2,145.1l23,22.9l90.8-90.8L145,54.3L54.2,145.1z"/>
</g>
</svg>
