<?xml version="1.0" encoding="utf-8"?>
<!-- Generator: Adobe Illustrator 17.0.0, SVG Export Plug-In . SVG Version: 6.00 Build 0)  -->
<!DOCTYPE svg PUBLIC "-//W3C//DTD SVG 1.1//EN" "http://www.w3.org/Graphics/SVG/1.1/DTD/svg11.dtd">
<svg version="1.1" id="Layer_1" xmlns="http://www.w3.org/2000/svg" xmlns:xlink="http://www.w3.org/1999/xlink" x="0px" y="0px"
	 width="537.373px" height="556.685px" viewBox="0 0 537.373 556.685" enable-background="new 0 0 537.373 556.685"
	 xml:space="preserve">
<polygon points="452.065,320.102 427.102,454.74 468.113,330.802 458.307,250.553 "/>
<path d="M401.245,98.081c0,0,19.669,0.041,33.493,11.802c-15.583-15.704-56.535-46.492-133.175-38.868
	c0,0,28.944-27.023,69.363-28.216c0,0-49.044-12.045-126.022,23.251c0,0-10.847-13.712-70.662-16.549
	c0,0,26.975,9.049,34.109,18.558c0,0-40.423-8.32-72.527-4.75c0,0,29.726,5.943,41.614,13.078c0,0-76.701,10.08-104.322,78.76
	c-27.618,68.683,2.077,174.468,2.077,174.468l24.604,133.26l163.237,93.812l161.146-97.523l-149.259,68.99l2.591-39.088
	c0,0-45.595-7.109-78.778-32.755c0,0,81.964,13.364,142.09-39.429c0,0,16.131,7.84,23.262,18.542c0,0,0-27.346-49.93-39.234
	c0,0,21.018,12.86,18.418,16.852c0,0-24.334,23.051-64.189,27.435l-40.994-20.093l31.544,9.236l40.659-29.27l-44.585,16.943
	l-38.339-12.484l15.427-143.575l3.967,59.485l18.945-18.45l53.501,32.101l-29.423-30.316l83.634,61.888l65.273-41.38l-42.803,18.725
	l45.476-52.608l3.917-18.643c0,0-47.608,2.591-106.457,22.209c-16.808,5.604-65.985-25.857-65.985-25.857l-1.614-57.767l7.858,31.02
	l7.132-26.751c0,0,9.809,19.619,32.103,27.641c0,0-15.157-24.075-14.268-37.451c0,0,12.484,24.969,18.725,25.857
	c0,0-7.132-18.723-3.566-27.639c0,0,52.211,11.382,75.144,40.464c0,0,6.887-23.523-4.705-50.274c0,0,16.941,16.942,16.05,32.991
	c0,0,6.243-15.157-2.675-31.209c0,0,74.528,53.175,71.926,114.431C483.941,263.661,507.348,165.845,401.245,98.081z
	 M251.445,534.096l-139.095-82.03L92.733,329.909l35.665,116.806L251.445,534.096z"/>
<radialGradient id="SVGID_1_" cx="438.4979" cy="114.2363" r="4.0681" gradientUnits="userSpaceOnUse">
	<stop  offset="0" style="stop-color:#000000;stop-opacity:0.2"/>
	<stop  offset="1" style="stop-color:#000000;stop-opacity:0.2"/>
</radialGradient>
<path fill="url(#SVGID_1_)" d="M434.737,109.882c5.119,5.158,7.521,8.708,7.521,8.708
	C440.149,115.12,437.552,112.278,434.737,109.882z"/>
<circle fill="#70C1FF" cx="360.673" cy="304.489" r="6.68"/>
<circle fill="#FFF421" cx="360.673" cy="333.037" r="6.68"/>
<path fill="#579200" d="M346.399,312.081c3.69,0,6.681,2.996,6.681,6.683c0,3.688-2.991,6.683-6.681,6.683
	c-3.687,0-6.678-2.995-6.678-6.683C339.721,315.077,342.712,312.081,346.399,312.081z"/>
<path fill="#EA0006" d="M374.945,312.081c3.688,0,6.681,2.996,6.681,6.683c0,3.688-2.993,6.683-6.681,6.683
	c-3.687,0-6.678-2.995-6.678-6.683C368.267,315.077,371.258,312.081,374.945,312.081z"/>
<path fill="#FFFFFF" d="M176.143,308.928l-7.137-0.016l0.009-7.134c0.005-1.363-1.101-2.469-2.464-2.469l-6.727-0.016
	c-1.358,0-2.466,1.099-2.476,2.466l-0.007,7.139l-7.134-0.016c-1.365-0.005-2.474,1.106-2.476,2.464l-0.009,6.727
	c-0.005,1.363,1.099,2.471,2.466,2.473l7.137,0.009l-0.016,7.138c0,1.361,1.104,2.474,2.471,2.478l6.722,0.004
	c1.365,0,2.469-1.101,2.476-2.466l0.007-7.137l7.138,0.011c1.361,0.002,2.469-1.099,2.471-2.464l0.011-6.724
	C178.609,310.029,177.505,308.923,176.143,308.928z"/>
<g>
	<path d="M62.889,247.125l-52.186,23.933l32.096,109.675l49.935-8.916L62.889,247.125z M45.474,371.816l-27.639-98.081l37.448-16.05
		l-25.86,22.291L45.474,371.816z"/>
	<polygon points="19.618,294.243 0,307.618 24.075,366.467 11.593,310.293 	"/>
</g>
<g>
	<path d="M444.64,371.816l49.932,8.916l32.098-109.675l-52.191-23.933L444.64,371.816z M507.946,279.976l-25.86-22.291l37.453,16.05
		l-27.644,98.081L507.946,279.976z"/>
	<polygon points="517.755,294.243 537.373,307.618 513.296,366.467 525.78,310.293 	"/>
</g>
<path d="M271.952,0C138.007,0,29.423,108.584,29.423,242.528c0,7.221,0.46,14.321,1.097,21.375c2.689-2.306,5.948-4.079,9.91-4.938
	c-0.176-3.676-0.307-7.368-0.307-11.09c0-128.037,103.791-231.828,231.828-231.828c128.04,0,231.828,103.79,231.828,231.828
	c0,4.847-0.195,9.645-0.497,14.411c3.841,0.54,7.148,1.805,9.908,3.669c0.763-7.718,1.292-15.507,1.292-23.427
	C514.482,108.584,405.898,0,271.952,0z"/>
</svg>
