<?xml version="1.0" standalone="no"?>
<!DOCTYPE svg PUBLIC "-//W3C//DTD SVG 20010904//EN"
 "http://www.w3.org/TR/2001/REC-SVG-20010904/DTD/svg10.dtd">
<svg version="1.0" xmlns="http://www.w3.org/2000/svg"
 width="361.000000pt" height="348.000000pt" viewBox="0 0 361.000000 348.000000"
 preserveAspectRatio="xMidYMid meet">

<g transform="translate(0.000000,348.000000) scale(0.100000,-0.100000)"
fill="#000000" stroke="none">
<path d="M1739 3471 c-14 -4 -35 -13 -46 -19 -44 -24 -1629 -1474 -1655 -1515
-73 -112 -26 -273 96 -328 54 -25 148 -24 201 0 24 11 331 284 748 665 390
355 713 648 717 651 5 3 287 -248 627 -557 340 -310 665 -605 721 -656 57 -52
119 -100 137 -108 48 -20 141 -17 190 5 82 37 135 122 135 217 0 95 5 90 -866
882 -446 405 -824 743 -840 751 -36 16 -130 23 -165 12z"/>
<path d="M1182 2153 l-622 -566 2 -752 c3 -737 3 -753 23 -775 11 -13 38 -31
60 -41 36 -17 72 -19 403 -19 242 0 370 4 384 11 44 24 48 56 48 429 l0 350
328 -2 327 -3 5 -372 c5 -340 7 -374 23 -390 16 -17 48 -18 385 -21 400 -3
422 -1 473 54 l24 26 3 753 2 753 -602 548 c-332 301 -612 555 -623 565 -20
18 -32 7 -643 -548z"/>
</g>
</svg>
