<?xml version="1.0" encoding="utf-8"?>
<!-- Generator: Adobe Illustrator 17.0.0, SVG Export Plug-In . SVG Version: 6.00 Build 0)  -->
<!DOCTYPE svg PUBLIC "-//W3C//DTD SVG 1.1//EN" "http://www.w3.org/Graphics/SVG/1.1/DTD/svg11.dtd">
<svg version="1.1" id="Layer_1" xmlns="http://www.w3.org/2000/svg" xmlns:xlink="http://www.w3.org/1999/xlink" x="0px" y="0px"
	 width="999px" height="999px" viewBox="0 0 999 999" enable-background="new 0 0 999 999" xml:space="preserve">
<g>
	<path fill-rule="evenodd" clip-rule="evenodd" d="M704.783,32.368c7.945,6.363,14.192,14.356,19.587,22.312
		c1.415-1.417,3.434,0.155,3.812,1.63c4.025,6.742,11.089,12.291,15.241,19.033c18.488,24.272,3.53,56.304-8.169,78.897
		l-9.798,11.419c5.763,2.833,14.899,6.635,14.686,14.686c-3.803,6.907-5.17,14.794-11.428,20.683
		c-16.753,5.384-23.224,30.237-43.518,24.485c-3.589,7.382-8.265,14.241-14.144,20.663c-2.716,10.885-5.442,21.769-8.158,32.643
		c17.132,11.37,19.587,29.763,29.365,44.615c7.789,4.346,13.823,12.786,21.226,17.956l48.97,25.562
		c27.899,13.387,46.176,40.86,42.975,72.903c5.277,61.531-6.636,118.66-23.398,172.471
		c-13.115,53.529-15.075,109.136-28.288,162.664c-5.324,22.254-10.719,44.565-18.489,65.831c1.959,31.12,4.133,64.966-19.053,87.045
		c-15.075,17.19-33.895,29.928-48.418,47.322l-2.173-1.622c-0.106-42.818-7.343-85.899-4.355-128.391
		c-1.252,2.163-7.78,3.036-3.803,6.52c-2.94,2.774-5.22-2.775-8.168-3.259c-15.231-14.145-28.666-31.441-45.691-42.433
		c1.688-3.754-2.891-3.967-4.357-5.985c-2.124,2.562-6.587,1.31-9.788,2.726l-56.032,30.461c-3.86,0.224-7.848,1.844-11.438,1.087
		c-0.979,2.775-4.354,3.754-6.527,3.259c-1.028-2.064,1.532-4.616-2.174-5.441c-5.122,45.167-14.629,88.52-27.201,130.573
		c-1.358,5.277-4.404,9.895-7.072,14.697c1.086,1.193,4.239,0.592,3.812,2.716c-26.987,1.029-50.817-8.759-73.993-18.499
		c-35.476-17.84-67.789-53.647-74.532-92.479c-2.29-6.373-2.071-13.775-4.36-20.13l-1.63,1.621
		c0.277-20.722,9.526-37.757,13.062-57.119c5.331-25.251,11.53-50.114,13.601-76.714c-2.013-2.388,0.165-6.685-0.543-10.331
		l6.524-64.202c2.018-43.526,0.708-87.094-1.087-130.573c-8.478,23.612-29.485,44.284-54.402,47.884
		c1.256-1.853,3.482-2.348,4.351-3.813c-26.706-5.819-50.76,16.152-76.162,2.173c-4.404,0.873-6.747-5.219-9.254-8.158
		c-14.688-32.265-2.44-69.633,14.691-96.844c3.59-5.607,9.304-8.372,14.688-10.875c13.542-10.506,16.812-25.242,23.394-38.619
		l-3.808-3.822c-8.265,1.853-11.369,11.205-15.23,16.87c-9.739-1.3-19.096-4.85-25.024-14.144
		c-6.64-10.283-8.323-24.65-2.725-35.913c0.388-3.967,7.019-4.016,5.447-8.158c4.569-3.211,10.767-1.135,15.23-4.898
		c-3.317-3.26-5.394-7.014-5.985-11.418c-7.781,4.297-15.944,1.406-23.395-1.63c-4.297-2.949-10.011-7.295-9.793-13.067
		c1.523-2.173,4.676-0.262,6.528-1.63c2.775-1.028,5.549-2.125,7.62-4.898c-0.063-12.67-11.65-24.641-2.726-36.99
		c2.614-2.881,5.442-5.229,8.706-6.538c-1.901-4.181-6.854-0.97-9.793-2.716c-3.478-1.571-9.196-2.987-9.25-6.519
		c1.145-4.851,7.402-9.963,12.519-11.418c2.716,0.155,5.762-0.446,8.158,0.534c0.543-1.795-0.82-4.142-1.634-5.986
		c-1.092-5.821-0.543-12.301,1.634-17.413c1.412,0.438,2.391-1.251,2.716-2.172c6.311,6.413,15.613,5.539,23.937,7.063
		c-1.789-11.748,5.932-20.935,15.235-26.648c6.204-6.965,9.085-16.269,17.952-21.216c2.071,0.494,4.686,0.766,5.442,3.269
		c-0.111,1.3,0.597,2.222,1.091,3.26c2.988-4.618,2.503-11.156,8.158-14.145c5.278-1.145,11.157-0.543,15.236,2.717
		c3.75,2.774,5.874,6.849,4.889,10.884c2.178,0.485,6.15-0.814,7.072,2.717c4.739-7.994,10.501-18.17,18.504-25.028h2.717
		c-0.922,6.907-3.424,16.598,2.177,22.855c2.285-1.912,4.026-5.491,7.072-7.072c9.308-7.402,14.852,19.266,18.495,2.172
		c2.944-2.551,6.912-4.239,10.885-2.716c4.564,1.299,7.125,6.306,9.793,9.788c1.363-8.207,9.575-13.542,14.692-20.12
		c2.061,0.485,4.676,0.747,5.438,3.259c2.066,6.034,0.927,13.378-1.086,19.043c7.348-3.317,13.057-10.011,19.048-15.783
		c6.956,2.774,4.67,12.184,6.519,18.499c-0.107,6.907-3.531,12.456-7.067,17.957c1.465,1.135,3.968-0.223,4.895,2.163
		c3.584-2.764,7.12-9.565,12.509-7.605c1.794,1.465,3.861,2.28,5.433,4.347v2.716c1.319,0.989,3.279,0.388,4.909,0.543
		c0.33-0.756,1.571-3.308,2.716-1.629c4.947,5.772,11.757,11.757,14.144,19.053c4.346,3.046,11.641,0.213,14.143,6.519
		c1.416,4.569-1.843,8.216-5.433,9.797c-2.396,0.98-5.452,0.379-8.169,0.543c0.059,2.066-0.329,5.656,1.63,7.615
		c20.469-12.185,36.999-33.837,62.571-33.73c0.077-13.834,1.494-31.209,0.68-44.963c-5.607-0.68-5.104-11.69-4.221-27.309
		c0.688-12.155,1.077-27.987,2.455-38.173c2.502-3.259,7.557-0.805,10.884,0c3.201-5.645,0.737-13.231,3.784-19.925
		c1.328-23.437,0.998-38.658,13.075-55.149c8.324-19.363,28.453-30.955,48.419-32.644C654.572,14.79,682.364,18.001,704.783,32.368
		L704.783,32.368z"/>
	<path fill-rule="evenodd" clip-rule="evenodd" fill="#F15B67" d="M466.481,296.774c-3.852,5.927-1.513,13.329-0.543,19.043
		c-5.976,2.881-13.809,2.561-17.946,8.702c0.766,7.567,12.902,9.633,7.615,19.043c-8.813,0.602-9.128-9.041-16.316-12.514v-3.27
		c4.952-5.325,10.875-8.323,16.316-12.504c0.282-7.353,5.288-12.737,9.255-18.5H466.481L466.481,296.774z M275.534,269.031
		c2.392,3.152,1.742,8.206,1.091,11.97c-0.548-2.018,1.358-5.51-1.635-5.985c-0.979,0.378-0.378,1.465-0.542,2.163
		c-1.475-0.863-1.198-2.396-2.727-3.259c-1.896,2.017,1.092,4.733,1.635,7.081c-1.848,4.132-5.219,8.1-9.793,9.245l-2.173-8.159
		l-1.091,1.629c-0.111-4.025-4.244-7.13-2.173-11.427c4.462-2.503,7.456-12.185,13.058-7.615L275.534,269.031L275.534,269.031z
		 M368.022,248.348c-4.244,11.049-10.229,21.381-17.956,31.013v3.269c5.384,1.795,9.143-4.617,12.514-8.168v11.428
		c-12.567,8.595-27.579,21.225-43.523,11.98c-7.397-8.983-16.21-14.532-26.115-17.423c-3.152-2.066-3.104-6.14-2.172-9.245
		c1.464-0.495,2.391-2.348,4.345-1.64c1.64,4.744,4.846,10.729,10.342,11.98l1.091-1.096c-6.965-9.031-11.534-19.741-8.706-32.1
		c1.193-1.514,3.642-3.919,5.98-2.173c2.396,2.561,5.821,4.249,9.245,2.726c7.237-4.191,11.864-14.697,21.769-12.514
		C347.131,237.473,359.209,240.083,368.022,248.348L368.022,248.348z M460.506,222.243c-0.271,3.201-4.676,4.559-5.98,7.615
		c-3.264,8.537-1.63,19.528,4.894,25.562c2.891-3.802-0.699-7.615-1.086-11.417c-0.931-4.899-0.98-10.827,2.173-14.687
		c2.066,4.132,5.219-1.038,8.711,0.543c-0.058,11.146,7.344,19.208,13.601,27.745c-0.707,2.561,1.795,6.907-2.183,7.615
		c-4.297,0.98-9.458,0.932-12.504-2.726c-2.193,1.31-2.736,3.977-1.65,5.995c0.291,3.425,6.869,2.493,3.822,6.529
		c-1.261,2.328-0.825,5.432-3.822,7.072c-3.308,0.805-2.27-4.036-4.889-5.442c-0.048-5.606,0.931-11.913-4.889-16.317
		c-2.018-0.553-3.647-3.54-5.991-1.639c2.939-10.012-12.014-13.387-8.702-23.398c6.364-2.774,10.987-8.595,15.235-14.144
		C458.333,221.535,460.564,220.225,460.506,222.243L460.506,222.243z M398.488,196.128c3.104,4.026,4.409,9.837,9.789,11.962
		c4.898,1.086,9.803,2.183,14.692,3.269c2.454,1.688,0,3.968,0,5.995c-3.638,5.258-10.88,5.258-15.778,8.159
		c-11.098,1.076-25.62,5.646-34.816-2.736c0.543-2.551-1.363-7.004,1.63-7.615c4.409,6.587,13.28,6.538,20.682,5.442
		c3.851-0.155,6.955-2.552,8.701-5.986c1.086-4.628-2.828-7.722-5.447-10.331c-1.737-1.746-4.996-1.251-7.072-0.543
		c-1.354,0.65-3.26,2.057-3.26,3.803c2.556,2.61,8.265,1.193,8.706,5.442c-5.282,0.272-12.572,2.173-16.865-1.629
		c11.801-2.62,0.703-22.525,15.774-17.403L398.488,196.128L398.488,196.128z"/>
	<path fill-rule="evenodd" clip-rule="evenodd" fill="#F48792" d="M461.592,322.346c-0.107,6.257,3.919,10.826,7.082,15.784
		c-1.368,4.675-0.272,10.166,3.26,13.047c4.831,3.919,12.844,5.171,18.49,2.173c1.862-0.32,3.279-1.795,4.899-2.717
		c-0.757,6.248-4.783,12.622-10.875,15.231c-10.991,4.792-15.405-7.45-22.312-13.058c-3.91-7.285,3.648-17.297-4.346-22.846
		c-1.416-1.852-3.264-2.561-4.894-3.802C455.18,323.811,458.662,323.054,461.592,322.346L461.592,322.346z M416.44,246.718
		c-1.635,7.897,4.903,12.359,4.903,19.586c1.901,3.541,4.618,6.256,8.153,8.158c3.43,1.096,7.562,0.553,10.336-1.629
		c1.858-3.802,4.739-7.169,8.159-10.341c1.038,3.056,4.244,0.873,5.985,2.183c1.096,5.598,0.548,11.912-1.629,16.869
		c-9.852,0-21.003,2.435-31.004,0c-1.528-3.327-1.475-7.236-2.183-10.884c-1.688-8.711-18.713-10.167-9.249-20.139
		C411.764,248.406,413.771,246.776,416.44,246.718L416.44,246.718z M379.988,201.57c0.655,3.473-2.828,5.268-5.442,5.976
		c-3.914-1.038-6.907,1.319-8.702,4.356c-1.742,6.034-2.227,13.979,3.808,17.956c-4.841-0.543-10.283-7.508-15.774-10.341
		c5.054-6.306,6.796-21.701,16.865-25.019L379.988,201.57L379.988,201.57z M339.735,210.815c-1.305,5.005-5.229,10.283-2.178,15.773
		c-0.058,2.067-1.848,3.376-3.264,4.899h-2.178c2.226-6.044,0.975-13.28-3.269-17.957l-7.067-5.442
		c2.61-2.881,5.603-10.816,10.336-4.889C336.194,203.2,338.319,207.76,339.735,210.815L339.735,210.815z M273.905,290.246
		l2.173-1.097c2.013,6.539,0.33,14.261-3.813,19.596c-5.975,5.927-11.471,12.941-20.124,12.514l-4.351-6.528
		c8.649-2.396,13.329-10.671,15.774-18.5c0.922-0.708,2.071-0.602,2.726,0.543l7.067-8.168
		C273.415,289.218,273.25,289.926,273.905,290.246L273.905,290.246z"/>
	<path fill-rule="evenodd" clip-rule="evenodd" fill="#EACCBA" d="M699.36,188.231c-3.046,4.831-6.083,9.652-9.275,14.425
		c5.347,0,12.709-10.846,15.24-15.24c-0.494,3.648-2.338,6.752-1.64,10.884c-4.511,1.746-9.836,2.619-12.504,7.615
		c4.898-1.251,14.464-0.979,17.947-7.071c0.165-6.335,3.656-21.759,11.981-21.759c1.96,9.352-7.247,14.095-9.255,21.759
		c4.559,2.57,23.476-19.819,8.711-27.202c-2.678,0.272-5.064,1.358-7.081,3.26c0.979-3.318,5.22-3.26,7.625-5.442
		c4.782,2.512,9.564,5.016,13.6,9.254c-9.896,17.035-22.711,37.514-44.081,41.889c-4.831-3.696,1.261-8.867,0-13.058
		c-12.185,13.707-15.657,35.913-35.894,42.975c-19.266,7.731-47.671,11.321-66.927,1.096c-19.663-1.969-31.188-46.642-29.917-62.018
		c0.766,0.213,1.087-0.708,1.629-1.096c-1.542-36.776,12.534-109.64,42.433-133.28c39.608-10.836,62.619,24.699,98.474,26.115
		c5.655,14.911,19.091,28.938,13.058,47.874c-2.552,6.577-5.55,12.941-9.255,19.043c-0.097,9.73-3.415,18.054-7.615,26.105
		c-2.493,3.492-6.199,4.036-8.701,7.615C687.447,188.533,696.741,186.252,699.36,188.231L699.36,188.231z M596.396,195.449
		l8.44,4.967c8.614,0.524,11.796-0.825,17.394,1.29c1.387,0.504,9.458,3.531,15.24,6.635c3.977,2.124,8.303-1.465,7.274-0.019
		c-0.931,0.543-2.734,7.993-4.151,7.382l-2.726-3.803c-3.978,0.921-8.003-1.465-11.972-2.183l-22.845-0.543
		c-4.414-5.112-9.585-8.585-14.698-11.961c-0.318,2.833,1.476,6.15,2.184,9.245c7.78,4.463,17.297,4.948,24.484,10.894
		c0.971,3.308-1.959,3.095-3.821,4.346c-12.825-1.532-19.285-6.926-23.39-11.427c-2.832-3.434-3.375-7.78-4.355-11.971
		c-1.571-0.33-3.909-1.194-3.802-3.26c0.058-1.533-0.33-3.589,1.629-3.813C586.229,193.46,591.933,192.141,596.396,195.449
		L596.396,195.449z M610.655,176.542c-1.785,2.561-3.638,0.708-5.432-0.552c0-5.491-14.261-4.618-4.356-9.245
		C608.211,167.559,604.835,173.273,610.655,176.542L610.655,176.542z M629.165,178.172c-0.708,1.096-0.873,2.386-2.182,3.259
		c-3.483-0.32-5.831-3.531-9.789-2.716v-3.812C621.869,174.359,625.848,175.456,629.165,178.172L629.165,178.172z M639.497,176.542
		c-1.408,2.386-2.94,5.762-5.986,6.528c0.495-4.025,3.541-9.089,1.63-14.153l2.183-1.63
		C639.768,169.684,639.826,173.651,639.497,176.542L639.497,176.542z M636.771,137.913c-2.882,7.732-7.179,15.289-11.962,22.302
		c0.28-8.265,5.055-15.987,10.331-22.845C635.742,137.419,636.45,137.206,636.771,137.913L636.771,137.913z M620.996,127.572
		c2.679,11.108-1.299,22.633-9.797,29.928c0-4.191,4.094-8.003,4.908-12.514c1.203-5.821,4.783-12.669,1.087-18.5
		C617.572,123.003,620.24,125.942,620.996,127.572L620.996,127.572z M663.428,139c8.877,3.105,15.465,11.428,20.14,17.414
		c-0.873,2.172-3.978,2.716-5.976,1.629c-2.794-3.046-2.028-4.327-5.346-7.101c-4.763,2.484-12.785-1.649-15.881-5.956
		c1.786-1.252,0.651-3.376-1.085-3.813c-1.863-0.204-4.191,0.659-5.452-1.077c-0.873-2.784,2.405-2.561,3.822-3.269
		C655.872,139.98,660.499,137.477,663.428,139L663.428,139z M697.169,146.071c0.427,2.348,1.347,5.772-0.554,7.072
		c-9.565-16.918-27.356-23.068-44.615-26.115c-1.949-0.921-0.911-3.317,0-4.346C670.452,122.295,688.67,129.318,697.169,146.071
		L697.169,146.071z M610.112,107.443c0.873,2.668,3.765,4.957,5.995,6.528l-2.716,2.727l-1.106-1.087l-1.086,1.629
		c-9.682-7.673-21.265-18.121-34.264-13.057C584.871,97.218,604.351,95.695,610.112,107.443L610.112,107.443z M609.025,126.485
		c2.348-0.97,2.406,1.853,3.813,2.726v3.803c-4.687,1.746-3.317-4.297-7.072-4.898c-6.801-6.306-11.544,4.472-19.586-2.173
		c0.165-0.708-0.437-1.795,0.543-2.173c-2.008-1.252-4.792-4.618-7.071-1.64l-3.26-3.259c3.472-2.289,9.459,0.378,11.417-4.356
		C594.999,118.211,603.535,119.792,609.025,126.485L609.025,126.485z"/>
	<path fill-rule="evenodd" clip-rule="evenodd" fill="#54524F" d="M689,31.281c21.168,7.722,31.334,30.577,43.518,47.331
		c1.154-1.736,2.521-3.318,2.736-5.442c20.818,27.259,3.811,71.729-17.967,93.575c-0.853,1.96,1.746-3.919,0-4.89
		c-5.626,7.208-10.555,14.726-15.347,22.293c-2.269-1.504-1.475-3.26-5.325-3.26c12.038-11.806,9.69-31.227,20.129-44.061
		c11.06-19.208-0.698-39.716-10.874-55.489c4.676-0.281,9.031-1.368,13.057-3.269l-2.183-2.183
		c-28.559,0.271-50.376-15.774-74.532-26.105c-16.782-6.218-30.79-4.443-41.897-0.261c-17.597,6.635-21.826,30.664-29.199,44.089
		c1.271-14.502,5.219-37.687,11.117-46.777C602.381,15.779,650.73,12.365,689,31.281L689,31.281z"/>
	<path fill-rule="evenodd" clip-rule="evenodd" fill="#EACCBA" d="M560.618,125.399c-1.639,8.866-5.528,23.223-7.168,32.09
		c0.494-9.361,1.387-24.039,1.717-32.633L560.618,125.399L560.618,125.399z"/>
	<path fill-rule="evenodd" clip-rule="evenodd" fill="#C59677" d="M553.197,182.362c-3.628-3.725-0.126-10.758-0.028-16.161
		L553.197,182.362L553.197,182.362z"/>
	<path fill-rule="evenodd" clip-rule="evenodd" fill="#668B4C" d="M356.595,201.027c0.708,7.993-12.897,10.768-8.702,19.576
		c5.059,6.314,11.258,12.194,19.038,13.057c1.198,1.854-2.552,5.016,1.091,6.529c4.143-0.553,11.365,11.039,18.5,11.971
		c8.968,1.523,12.946-9.032,21.211-9.245c12.843-4.686-0.922-19.149,15.235-19.596c3.996-3.919,7.363-9.487,2.716-14.144
		l16.875-15.221c7.218,17.616-6.456,24.106-15.778,34.273c0.432,9.865,12.087-4.336,17.408-1.64
		c-4.836,5.87-9.759,2.901-7.616,12.514c-5.689-3.773-16.758-5.5-19.038,3.27c-7.338,0.408-14.08,5.917-15.584,13.126
		c-5.753,0.941-17.351,3.473-21.963,7.538c0,8.061,9.954,8.168,12.515,14.697c1.358,15.492-3.594,31.315,18.495,29.927
		c-8.266,8.372-11.263,19.635-9.245,31.547c-21.808,1.513-10.811-31.488-16.327-42.975c-4.729-3.317-11.258-2.939-16.865-4.355
		c0.165-3.376,2.018-9.081,0.543-13.601c-10.06-13.873,18.233-28.395-3.259-38.629c-7.833-3.366-15.614-6.685-24.48-7.615
		c4.012-5.297,2.227-21.051,0-27.202c-0.378-8.051,4.196-14.085,8.702-20.138C349.799,191.18,351.977,196.613,356.595,201.027
		L356.595,201.027z"/>
	<path fill-rule="evenodd" clip-rule="evenodd" fill="#B2C79D" d="M417.536,204.287c-2.396,2.29-5.772,0.436-8.173-0.543
		c-2.227-8.11,5.117-14.095,10.889-19.052C420.96,191.229,419.268,198.088,417.536,204.287L417.536,204.287z"/>
	<path fill-rule="evenodd" clip-rule="evenodd" fill="#F05B72" d="M323.956,193.402c0.82,7.13-10.394,9.904-7.072,17.413
		c2.828,4.297,8.867,4.404,9.788,9.788c0.922,3.259,0.985,8.003-2.173,9.798c-4.569-0.98-10.725-1.145-13.062,3.803
		c2.284,1.145,4.409,2.513,7.077,2.726c-3.1,2.823-4.739,8.207-9.793,7.615c-2.721-2.832-6.364-4.995-10.336-3.26
		c-2.396,1.358-4.623,4.182-5.986,5.975c0.975-2.056-2.561-3.637-3.808-5.432c4.516-13.552,32.75-9.691,21.216-28.841
		c0.213-2.939-0.655-6.363,1.086-8.701l-1.63-1.63c-3.536,3.308-4.628,8.372-3.264,13.048c0.975,2.231,1.581,5.229,0.548,7.615
		c-8.376,2.232-16.651,5.937-22.307,13.611c-1.092-2.561-3.27-6.316-1.635-9.798c4.137-3.483,9.739-4.404,13.058-8.702
		c-1.849-4.462-9.517,0.214-8.163-6.528v-2.183c6.15-0.543,14.526,1.97,16.864-5.432c0.82-5.772,2.449-11.205,4.899-16.326
		C314.648,185.351,321.396,188.231,323.956,193.402L323.956,193.402z"/>
	<path fill-rule="evenodd" clip-rule="evenodd" fill="#D3293D" d="M295.115,195.042c1.528,3.046-0.974,5.752,2.183,8.159h-10.341
		C289.082,200.251,291.09,195.798,295.115,195.042L295.115,195.042z"/>
	<path fill-rule="evenodd" clip-rule="evenodd" fill="#749D52" d="M284.241,217.897c-3.372,1.407-7.184,4.017-8.707,7.616
		c-2.231,7.45,0.873,14.628,6.534,19.033c2.663,2.775,5.001,7.616,9.788,7.616c-0.437,4.297,0.709,8.003,1.086,11.971
		c-3.152,0.756-5.549,3.317-7.615,5.985c-1.305,2.717-1.795,7.121,0,9.788c3.802,7.344,11.369,7.839,17.403,10.885
		c-4.128,1.193-6.301,5.771-7.616,9.788c0.277,4.744-0.921,10.069,2.183,13.601c8.644,5.394,19.911,2.29,29.922,5.442
		c-6.044,12.029-15.836,22.477-15.783,36.999c-3.207-0.767-4.346-4.356-6.528-6.529c-4.89-9.148-3.26-20.954-9.794-29.384
		c-1.139-0.156-2.061,0.116-2.716,1.096c5.66,9.41-8.92,12.078-13.062,19.043c-5.815,5.103-7.285,11.321-4.889,18.49
		c-2.018-0.495-4.788-6.199-5.986-9.789c-1.363-13.212,2.721-25.513,9.793-35.912c-0.384-8.479,5.932-18.16,0.543-26.658
		c3.212-4.404,4.783-10.118,3.269-15.773c-1.096-3.482-4.196-6.587-4.904-9.254c-2.876-5.054-12.131-0.65-11.422-8.702
		c-3.153-4.074-7.451-6.956-12.514-4.899c-3.59,3.492-5.763,7.566-7.073,11.98c-3.914-1.697-7.785-4.84-8.701-9.254
		c-0.824-4.026-0.824-9.031,0-13.058l2.173,1.63c7.45,0.931,15.182,2.609,22.302,2.726c1.533,5.82,7.838,11.631,13.605,13.047
		c4.133,0.068,8.323,0.398,10.88-3.259c0.33-1.028-0.495-1.523-1.086-2.183c-6.859-0.155-14.469-0.757-17.409-8.149
		c-2.886-5.346-1.746-13.009,1.087-17.966l12.514-11.961L284.241,217.897L284.241,217.897z"/>
	<path fill-rule="evenodd" clip-rule="evenodd" fill="#C59677" d="M568.767,242.916c2.29,7.722,10.672,9.953,16.327,14.144
		c3.104,1.251,6.636,1.407,9.245,3.812c23.941,4.724,52.618,4.511,71.825-10.351c-13.445,24.708-12.145,55.557-15.793,84.339
		c-4.734,15.608-23.224,20.178-30.461,32.633c-5.937,1.097-12.3-1.901-16.316-5.432c-31.78-27.094-57.129-59.738-54.956-102.286
		c4.414-10.332,7.557-21.167,9.255-32.643C561.104,232.089,564.305,238.016,568.767,242.916L568.767,242.916z"/>
	<path fill-rule="evenodd" clip-rule="evenodd" fill="#D3293D" d="M483.361,243.459c2.173,5.869,8.382,4.452,13.058,5.442
		c1.3,3.366-1.959,3.105-3.813,3.813c-10.118,3.91-14.745-8.168-19.043-14.163c0.33,0.669,1.028,0.504,1.63,0.552
		c1.688-3.695-3.366-5.927-1.63-10.331C475.678,234.156,482.429,237.58,483.361,243.459L483.361,243.459z M484.991,301.664
		c-0.33,2.076,1.145,3.386,2.716,4.366c1.96,0.213,2.669-2.397,4.356-2.726l11.961,0.543c1.203,5.491-2.541,12.292,1.096,17.414
		c-0.058,3.638-4.189,4.133-5.984,7.063c2.385-4.347,5.17-9.187,3.259-14.688c-2.223-3.589-5.821-6.092-9.789-6.519
		c-7.887-0.165-16.046,1.242-19.586,9.235c-1.475,3.647-2.066,9.74,0.543,13.067c0.932,0.698,1.581,2.008,2.726,2.173
		c3.968-4.569,0.65-12.679,7.072-15.773c3.803-0.175,7.605-2.018,11.428-0.543c3.153,7.072-6.752,10.72-3.279,17.947
		c1.805,2.455,4.258,5.442,7.081,6.529c-5.335,7.295-14.085,10.176-22.845,8.711c-2.561-0.766-1.794-3.87-2.183-5.985
		c1.203-0.824,3.977,1.63,5.985,0c3.153-2.124,5.927-5.287,7.072-8.701c-4.297-5.335-7.121,5.869-11.428,2.163
		c-3.366-4.948-9.895-9.943-6.519-16.317c6.791-5.491-1.203-11.039,2.173-17.957c0.98-1.688,1.028-4.239,3.26-4.889
		C478.414,296.774,482.042,298.405,484.991,301.664L484.991,301.664z M261.391,256.526c2.386,7.44-9.415,10.38-9.793,17.394
		c0.922,7.236,5.875,16.646-2.177,21.768c-2.562,0.98-5.816,0.378-8.702,0.543c-1.198-3.647-0.713-9.798,3.808-11.971
		c2.333-0.165,4.788,2.609,6.528,0.543c0.267-2.881-2.066-5.17-4.355-6.528c-3.046-0.33-5.496,0.766-7.616,2.726
		c-3.754,3.046-5.117,7.722-4.35,11.961c3.313,2.396-3.153,9.089,4.35,8.701c5.768,1.31,11.913,0.33,16.322-3.259
		c2.609-1.844,3.478-4.521,4.351-7.073c-0.655,7.073-1.906,15.289-9.792,17.957c-6.524,2.231-15.885,3.318-17.408,11.971
		c-0.869-10.943-7.184-20.246-5.438-31.567c11.913-3.259,9.139-22.351,22.303-21.749c0.703,1.087,0.868,2.386,2.177,3.259
		c1.354-1.31,1.907-2.939,1.63-4.899c-4.24-2.231-1.194-6.849-0.544-9.778C253.441,252.005,260.022,252.713,261.391,256.526
		L261.391,256.526z M337.013,307.659c6.966-2.503,13.927-5.016,20.125-9.254c0.495,4.462-2.396,8.003-5.986,10.341
		c-16.103,9.352-35.689,2.173-51.133,0.543c0.16-6.15-1.256-13.387,5.438-16.326C313.673,302.324,323.515,311.578,337.013,307.659
		L337.013,307.659z M410.454,234.747c-4.675,5.772-13.382,3.929-18.495,9.798c-6.635,3.318-11.641-2.998-14.682-7.615
		c-0.936-1.087-0.984-2.998-2.73-3.27c10.118,0.767,23.889-0.766,35.365-3.802C410.896,231.158,410.289,233.117,410.454,234.747
		L410.454,234.747z M402.31,260.338c2.115,2.774,4.942,6.189,8.143,7.606c-7.707,7.004-7.168,23.622,3.27,16.86
		c-4.384-5.054-4.045-7.625-0.548-12.514c6.965,24.64,19.402,13.843,41.351,15.784l4.894-5.443
		c7.081,11.69-14.027,30.306-25.572,27.745c-7.833-9.419-20.721-6.635-31.547-8.711c-10.885-4.404-1.363-20.178-8.164-27.744
		c-2.828-4.453-9.356-5.87-10.884-10.332c4.715-2.337,10.321-3.424,15.109-4.753C398.949,260.794,400.763,260.562,402.31,260.338
		L402.31,260.338z"/>
	<path fill-rule="evenodd" clip-rule="evenodd" fill="#D5D6D2" d="M550.821,235.844c-0.709,2.551-0.66,5.384-2.184,7.615
		c-1.464-3.435-4.074,0.106-5.984,0.543c-8.974,16.375-13.485,36.233-14.688,55.499c-1.63,27.735-1.63,55.489,0,83.224l5.995,79.44
		l-0.544,27.746c-2.832,44.613-5.276,89.276-9.797,133.833c-1.689,15.665-4.25,31.497-5.442,46.786
		c-0.049,31.014-2.24,62.027-3.26,93.042c-2.24-30.636-6.762-60.34-15.783-88.133l-18.5-60.941
		c-19.741-55.925-21.584-123.395-15.24-186.072c10.826-9.943,20.682-21.264,26.668-33.73c3.754-1.843,1.912-4.725,1.64-7.616
		c-4.85-3.201-10.564-8.915-14.154-14.134c7.616-0.708,15.017-5.345,18.5-12.524c5.656-6.577-0.66-16.094,9.797-20.672
		c-0.388-2.28-1.038-4.453-3.278-5.976l-3.803-1.096c1.959-3.367,7.236-4.404,9.254-8.702c3.589-10.021,16.531-22.525,12.515-36.999
		c-2.891-4.133-5.112,3.046-8.711,2.173c2.454-6.024,1.63-13.377,4.899-19.033c-0.438-2.231-3.27-2.667-4.899-1.629l-2.174,3.259
		c-7.237,2.008-15.171,2.338-21.769,5.986c-3.201-11.107,11.107-10.554,16.316-17.404c12.689-10.835,25.746-20.741,41.356-24.484
		H550.821L550.821,235.844z M715.658,393.065c7.13,12.078,11.32,25.349,19.596,37c-2.076,4.025,1.513,8.381,1.086,13.057
		c2.232,38.677,4.133,81.274-7.081,116.43l-20.129,81.06c-6.424,41.016-27.58,75.89-36.447,115.886l-2.716,19.577
		c2.503-94.118,5.433-188.293,7.625-282.353c1.62-40.375,8.304-80.906,7.604-120.776c-3.859-26.444-2.502-56.478-19.586-79.44
		c-0.766-1.523-0.493-3.909-2.716-4.356l-0.543,0.543l0.543-4.889C692.804,315.759,697.109,357.376,715.658,393.065L715.658,393.065
		z"/>
	<path fill-rule="evenodd" clip-rule="evenodd" fill="#F05B72" d="M445.818,253.79c1.849,6.315-7.455,9.905-9.788,14.697
		c-2.779,0.495-6.858-0.33-8.163-3.812c-0.979-5.442,6.529-10.011,2.178-14.154c-4.19-0.97-5.607,3.482-7.62,5.452
		c-0.165-4.191-2.008-8.333-0.538-12.514c0.432-1.853,2.382-2.174,3.797-2.716C434.071,241.063,441.249,246.67,445.818,253.79
		L445.818,253.79z"/>
	<path fill-rule="evenodd" clip-rule="evenodd" d="M337.557,244.002c-0.276,1.3,1.358,2.386-0.543,3.259
		c7.121-1.26,14.905,1.476,18.501,8.159c0.16,10.613-2.944,21.72-13.063,28.297c-4.729,2.174-11.205,5.171-16.321,1.63
		c6.369-3.696,14.474-5.384,20.134-11.971c-7.402,0.544-16.87,7.567-24.485,1.086c-3.861-2.502-5.719-8.701-10.884-9.245
		l-0.543,10.885c-3.158-2.727-4.079-6.413-4.351-10.341c0.932-2.726,0.16-6.141,2.721-8.159c2.774,0.601,4.899,2.444,7.072,3.803
		c-2.285-5.714,3.313-11.369,7.62-15.23c1.252-2.659,4.016-3.967,6.519-4.89C333.148,240.626,335.438,242.159,337.557,244.002
		L337.557,244.002z"/>
	<path fill-rule="evenodd" clip-rule="evenodd" fill="#D3293D" d="M337.013,247.805c-3.05,1.038-6.475,3.328-7.62,6.529
		c6.208,2.028,16.428-4.191,20.673,4.355c-0.655,9.468-11.093,9.139-17.403,11.971c-5.777,1.086-10.012-2.775-13.063-7.072
		c1.363-2.386-0.543-6.15,1.635-8.169c1.358,2.891,3.696,10.07,9.245,11.438c3.647,1.086,7.949,0.543,10.884-1.64
		c1.305-1.794,4.133-2.94,3.803-5.442c-3.857-3.754-7.286,4.841-12.504,1.097c-4.361-2.62-5.117-7.412-4.361-11.428
		C330.646,247.484,334.075,246.553,337.013,247.805L337.013,247.805z"/>
	<path fill-rule="evenodd" clip-rule="evenodd" fill="#B2C79D" d="M239.083,265.218c-2.391,2.668-4.185,5.548-5.437,8.702
		c0.053-1.96-2.178-2.881-3.269-4.356c-3.808-0.708-7.945-0.65-11.423-2.163c1.581-2.94,4.627-4.686,7.615-5.452
		C231.468,261.298,235.494,262.656,239.083,265.218L239.083,265.218z"/>
	<path fill-rule="evenodd" clip-rule="evenodd" fill="#B2C79D" d="M479.005,273.92c2.503,1.522,4.52-1.252,7.072-1.087
		c-0.698,1.087-0.66,2.988-2.173,3.27c-3.104,0.262-5.549,0.591-8.158-1.087l-1.096-2.183l5.985-1.087
		C481.722,272.455,478.733,272.397,479.005,273.92L479.005,273.92z"/>
	<path fill-rule="evenodd" clip-rule="evenodd" fill="#B2C79D" d="M511.105,276.645c-2.561,7.945-3.046,18.335-11.97,22.312
		c-2.396-2.891-6.471-1.804-9.255-0.552c-1.999-3.425-8.75-5.113-5.976-10.332C490.113,278.547,501.695,279.633,511.105,276.645
		L511.105,276.645z"/>
	<path fill-rule="evenodd" clip-rule="evenodd" fill="#2F663C" d="M483.904,282.087c-2.668,2.445-5.171,5.006-4.899,8.702
		l-11.961,0.542c0.863-3.424,6.46-5.82,7.062-9.788C477.366,281.699,480.635,283.562,483.904,282.087L483.904,282.087z"/>
	<path fill-rule="evenodd" clip-rule="evenodd" fill="#749D52" d="M509.477,312.005c0.105-2.823,0.164-7.945-2.174-10.875
		c4.404-3.823,4.075-10.447,10.875-10.884C516.868,298.181,516.053,306.243,509.477,312.005L509.477,312.005z"/>
	<path fill-rule="evenodd" clip-rule="evenodd" fill="#B2C79D" d="M382.167,297.308c-0.112,9.148,3.482,24.815-3.265,33.74
		l-4.898,5.985c-8.159-1.096-17.733-1.096-21.759-9.797c-2.013-3.803-0.709-6.955-1.092-11.418
		c4.628-3.531,10.182-7.189,11.428-13.058c-0.708,9.575,4.516,16.695,10.885,23.399c1.14,0.106,2.071-0.126,2.711-1.097
		c-4.889-9.574-12.073-20.449-8.702-31.013C371.883,296.28,377.486,295.63,382.167,297.308L382.167,297.308z"/>
	<path fill-rule="evenodd" clip-rule="evenodd" fill="#B2C79D" d="M442.011,316.904c-4.68,2.551-9.792,6.48-10.884,11.961
		c-0.267,2.561,1.149,4.472,2.178,6.529c-8.158,1.639-17.248,6.645-20.129,15.239c-5.606-7.79-7.993-24.212-2.177-34.282
		c1.256-2.716,4.19-5.433,3.808-8.159C425.525,307.116,430.583,321.318,442.011,316.904L442.011,316.904z"/>
	<path fill-rule="evenodd" clip-rule="evenodd" fill="#2F663C" d="M263.02,349.004l-9.792,3.26
		c-2.008-3.211-4.623-6.199-4.356-10.331c1.528-2.561,1.475-5.831,2.183-8.712c4.623-8.925,17.622-8.265,22.302-17.947
		C265.416,324.626,261.603,336.432,263.02,349.004L263.02,349.004z"/>
	<path fill-rule="evenodd" clip-rule="evenodd" fill="#8EAF6D" d="M243.439,316.904c0.592,3.861,2.663,7.072,5.981,9.798
		c-2.013,4.123-4.026,8.207-4.351,13.048c-10.448-0.815-20.896-1.62-28.293-9.789c3.051-2.017,7.78-2.231,10.341-6.528
		c1.417,3.104,5.055,4.841,8.158,3.269C240.282,324.296,236.149,316.079,243.439,316.904L243.439,316.904z"/>
	<path fill-rule="evenodd" clip-rule="evenodd" fill="#628D4E" d="M345.168,317.99c-1.354,6.529,1.096,12.786,5.985,17.404
		c-1.741,7.732-6.688,14.59-12.504,20.139c-0.659-6.316-3.754-12.893-5.985-17.403c-2.071-5.831-0.927-13.009,1.081-18.51
		C338.046,320.221,341.151,317.932,345.168,317.99L345.168,317.99z"/>
	<path fill-rule="evenodd" clip-rule="evenodd" fill="#D5DADA" d="M412.088,366.951h0.543c-5.496,6.743-10.331,14.746-15.235,21.226
		c-5.757,7.004-12.732,13.601-21.221,15.24c-1.353-7.577,4.627-14.203,3.274-21.779c4.346-14.735-4.356-28.181-11.428-40.249
		c1.411-0.611,3.531-1.31,4.351,0.544c3.589-3.871,8.43-5.714,11.422-9.798C389.999,344.59,401.864,356.183,412.088,366.951
		L412.088,366.951z M371.287,356.62c-19.202,8.537-18.499,35.146-35.913,45.158c-2.988,1.309-3.478-2.348-4.346-3.813
		c-4.622-9.74,2.774-21.759-3.808-31.557c-1.906-3.259-5.277-7.615-9.255-8.158c3.706-2.338,7.838-5.927,11.428-9.789
		c2.343,4.404,2.28,9.837,2.178,15.231c2.392,3.046,6.039-0.874,8.707-2.173c7.29-6.092,12.893-13.824,14.144-22.855
		C365.626,337.577,364.544,351.129,371.287,356.62L371.287,356.62z"/>
	<path fill-rule="evenodd" clip-rule="evenodd" fill="#BDC7C9" d="M427.324,354.99c-0.709-0.165-1.799,0.437-2.178-0.553
		c1.955,4.734-6.092,6.315-5.438,11.427c4.351-1.087,9.953,2.774,15.23,2.726c4.947,4.85,8.105,10.389,13.053,15.23
		c-13.489,9.08-20.993,25.465-35.36,33.739c2.615-5.616,5.22-11.864,4.904-17.965c2.605-10.38,11.801-25.358,0.544-34.264
		c-5.884-6.868-11.762-14.105-17.418-21.225c0.708-0.166,1.799,0.436,2.182-0.544c2.499,4.521,5.331,11.311,11.423,11.972
		c2.561-8.217,11.365-12.844,18.49-15.784C432.756,344.425,431.243,350.75,427.324,354.99L427.324,354.99z M474.106,376.206
		c2.503,7.12,18.829,12.563,9.254,20.672c-7.838,11.466-16.646,23.883-29.384,30.47h-4.894c-1.523-10.991,4.244-20.294,7.62-29.927
		c2.066-3.919,5.219-9.411,1.63-13.601c-1.417-1.523-2.775-2.929-4.899-2.716l-10.875-14.697
		c5.544-2.114,12.844-5.878,14.144-12.514C461.379,361.838,470.954,368.144,474.106,376.206L474.106,376.206z M308.721,359.335
		c-15.943,8.11-8.92,29.975-16.865,43.527c-9.628,2.609-16.157-7.779-21.764-14.143c-7.125-10.118-8.755-22.904-19.582-31.014
		c4.57-1.795,9.197-3.589,13.053-7.072c0.762,4.948,4.302,10.177,9.25,11.971c2.343-0.107,4.681-0.165,5.985,2.173
		c4.026-2.231-0.602-4.996-0.543-7.615c-3.866-10.933,10.278-16.22,15.778-23.389C295.717,343.126,298.278,355.038,308.721,359.335
		L308.721,359.335z M327.759,344.648c-3.424,2.881-6.198,7.557-10.331,8.702c0.921-7.014,4.244-13,7.615-19.034L327.759,344.648
		L327.759,344.648z"/>
	<path fill-rule="evenodd" clip-rule="evenodd" fill="#628D4E" d="M444.732,344.105c3.094,1.193,5.219,4.675,8.702,4.898
		c-0.704,7.78-10.278,8.915-15.774,12.514c-1.47-1.096-3.104-1.571-4.356-3.269c3.323-5.112,6.971-10.166,6.529-16.86
		C441.249,342.844,443.107,344.814,444.732,344.105L444.732,344.105z"/>
	<path fill-rule="evenodd" clip-rule="evenodd" fill="#94AFB9" d="M253.227,366.407c5.166,10.119,9.031,20.73,16.321,29.928
		c-4.026,1.911-8.818,6.587-11.423,10.884c-3.977-7.955-12.946-9.526-15.779-17.956c-3.695-7.664-6.475-16.375-4.894-25.571
		C241.426,358.036,250.783,359.947,253.227,366.407L253.227,366.407z M323.956,371.85l0.543,2.716
		c-9.361,2.134-16.977,12.358-23.942,17.966c1.964-11.06,0.975-27.095,14.697-29.384
		C320.255,363.255,322.487,367.882,323.956,371.85L323.956,371.85z M374.546,368.59c1.629,10.224-2.444,18.121-4.894,26.657
		c-3.264-4.743-4.075-13.716-9.793-19.042c3.211-4.569,4.138-10.555,9.793-13.601C373.95,361.567,372.917,366.572,374.546,368.59
		L374.546,368.59z M407.19,407.219c-1.577-4.462-4.729-8.274-8.158-11.971c5.224-7.944,11.422-15.181,17.408-22.845
		C416.604,385.343,410.289,395.636,407.19,407.219L407.19,407.219z M444.732,406.676l-3.813,11.971
		c-3.371-2.949-6.742-5.879-10.875-7.072c6.689-7.673,13.489-16.268,21.759-22.312C450.281,394.268,446.527,400.632,444.732,406.676
		L444.732,406.676z"/>
	<path fill-rule="evenodd" clip-rule="evenodd" fill="#B3B2AC" d="M540.479,383.277c0.485,10.661,0.708,21.381,4.899,30.461
		l-1.641,1.64c4.414,7.451,12.418,3.648,19.598,5.442c1.784,3.463,3.589,7.023,7.062,9.788c11,36.67,23.563,73.61,35.369,110.436
		c0.155,39.337-0.271,78.684-0.543,118.069l-4.356,59.835c-3.259,26.279-5.655,52.715-9.788,78.895
		c-21.769,7.063-39.938,22.787-60.94,31.549c-5.103,2.619-11.699-0.438-16.316,0.543l5.984-62.008l2.727-85.97
		c-1.901-41.888,11.699-77.423,11.428-118.602l4.889-87.589l-0.543-34.273l-5.441-73.999
		C535.969,372.5,537.647,378.165,540.479,383.277L540.479,383.277z M670.51,430.607c1.795,2.881,3.425-1.309,5.433-1.086
		c-6.092,136.5-7.12,273.109-14.144,409.658c-4.404-2.493-6.422,4.026-10.342,4.357c-14.793-17.19-31.817-38.182-52.762-45.148
		l6.528-44.07l7.062-78.345l1.649-62.017c0.155-25.349,0.368-50.659-4.365-73.988c14.92-20.19,24.32-42.666,33.187-65.298
		c5.384-15.715,11.049-31.333,15.783-47.321L670.51,430.607L670.51,430.607z M640.593,579.672c0.911,1.144-1.475,3.268-2.183,4.897
		c-2.94,2.184-7.228,2.718-10.885,1.64c-0.378-1.037-1.3-1.862-2.173-2.726c0.708-1.086,2.998-2.008,1.631-3.26
		C630.63,576.189,636.664,576.47,640.593,579.672L640.593,579.672z M639.497,642.241c0.437,3.59-0.272,7.18-3.813,8.702
		c-3.59,0.65-6.519,1.261-9.788-0.543c1.252-3.037,1.31-9.079,6.528-9.788C634.927,640.884,637.915,639.846,639.497,642.241
		L639.497,642.241z M639.497,711.875c0,4.19-6.646,2.726-4.9,7.615c-3.472,3.657-8.322,2.348-12.514,1.086l-1.087-1.629
		c1.689-3.638,7.18-1.514,7.072-5.976C631.222,712.583,636.014,711.447,639.497,711.875L639.497,711.875z M632.967,781.518
		c1.582,2.502-0.271,5.5-2.715,6.528c-4.579,0.66-8.323-2.832-10.342-5.985c2.445-3.26,6.694-3.871,10.342-2.716
		C631.396,779.452,632.046,780.799,632.967,781.518L632.967,781.518z"/>
	<path fill-rule="evenodd" clip-rule="evenodd" fill="#BDC7C9" d="M232.555,368.59c0.383,17.461,10.932,32.634,23.941,42.984
		c-19.591-4.957-24-25.795-25.577-42.984H232.555L232.555,368.59z"/>
	<path fill-rule="evenodd" clip-rule="evenodd" fill="#ABB5A7" d="M610.655,371.306c-0.969,0.543-2.871,1.096-4.346,1.64
		C606.96,371.578,608.87,371.035,610.655,371.306L610.655,371.306z M624.257,372.402c1.639,0.32,2.832-0.388,3.812-1.639
		l2.727,2.726L624.257,372.402L624.257,372.402z"/>
	<path fill-rule="evenodd" clip-rule="evenodd" fill="#3A4B5B" d="M603.051,377.835c0.697,8.158-4.25,18.005,2.173,24.485
		c-7.566,4.297-17.132,9.293-27.201,10.331c-8.217,2.076-18.064,0.117-25.572,3.813l-3.813-1.629c0.825-13.659-1.63-27.91,0-41.889
		C566.711,371.529,587.49,370.006,603.051,377.835L603.051,377.835z M631.338,379.465c-0.116,8.489,0.641,17.364-2.726,24.484
		c-6.471,0.873-13.435,1.135-20.13-0.533c0.98-8.779,0.388-18.839,0.543-27.211C616.477,375.497,623.888,378.379,631.338,379.465
		L631.338,379.465z M677.028,375.662c-1.134,16.317,3.164,34.923-4.889,48.417c-12.3-4.249-24.592-8.536-35.912-15.24
		c-2.058-1.299-2.387-3.424-2.717-5.422c5.607-6.539,6.15-15.784,4.9-24.495C650.817,376.7,663.865,376.05,677.028,375.662
		L677.028,375.662z"/>
	<path fill-rule="evenodd" clip-rule="evenodd" fill="#D5D6D2" d="M324.5,380.562c0.708,1.901-1.848,2.987-3.264,3.259
		c-6.587,5.015-7.397,13.058-5.981,20.672l1.082,1.63c-3.104,0.708-5.118,4.734-6.529,7.615c-1.741,4.579-1.794,11.156,2.178,14.688
		c-0.16,5.607-6.422,5.878-10.336,7.081c-12.136,2.173-24.975-2.183-36.456,1.629l14.692-21.215
		c-0.548-4.143-2.178-5.607,0.543-9.245c2.779,1.572,8.595,2.988,13.058,1.629C301.863,397.751,312.476,385.78,324.5,380.562
		L324.5,380.562z"/>
	<path fill-rule="evenodd" clip-rule="evenodd" fill="#D2A98E" d="M331.028,407.219c5.661,3.202,8.924-4.249,14.139-2.183
		c14.309,7.344,33.681,4.084,50.057,4.889c-0.655,5.501-0.325,11.817-4.899,15.241c-17.792,2.443-38.944,3.259-54.407-4.899
		c-1.79,1.475-5.272,1.251-5.437,4.346c2.449,3.163,7.241,0.669,10.341,2.192c13.436,7.605,33.293,6.257,48.417,3.26
		c1.247,5.82,0.112,11.912-1.086,17.403c-14.745,0.922-32.861,3.435-46.244-2.173c-3.1,0.33-7.072-1.135-9.245,2.173
		c4.127,4.307,10.874,2.241,15.23,5.995c10.768,2.61,24.267,1.999,35.36,0.534c2.988,4.355,1.086,10.118,1.634,15.24
		c-16.162-1.358-34.001-0.282-49.513,3.259c-0.102,1.145,0.117,2.066,1.091,2.726c6.583,1.357,13.441,1.892,20.673,1.63
		c-6.859,3.493-15.012,5.491-23.394,3.802c-11.316-7.227-18.329-19.149-17.951-32.643l1.091,1.087l1.63-2.163
		c-5.282-10.671,1.417-21.653-3.26-31.557c0.922-2.017,1.79-3.968,2.711-5.996l2.722,2.193c2.183-5.335,0.276-12.311,1.639-17.966
		l2.173-4.346C324.223,395.568,323.956,403.736,331.028,407.219L331.028,407.219z"/>
	<path fill-rule="evenodd" clip-rule="evenodd" fill="#DBDDDE" d="M630.795,411.575c6.693,6.839,14.523,10.71,22.856,13.591
		c-11.923,38.745-27.92,75.569-45.168,112.074c-9.196-35.369-20.721-70.021-31.004-105.002c-2.018-3.861-2.018-9.954-7.624-10.885
		c12.242-1.901,25.629-3.317,34.825-13.6C612.354,411.459,622.568,411.943,630.795,411.575L630.795,411.575z M544.826,271.203
		c-2.271,32.372,14.91,58.477,38.095,80.518c6.363,6.034,13.815,10.554,21.215,15.23c-17.305-0.33-40.588-6.034-59.843,2.173
		c-0.709,2.076-3.92,3.114-2.727,5.986c-0.922-2.551-4.017-4.832-2.717-7.616l-6.518-8.702c0.806-35.146-3.279-73.659,9.778-104.458
		l4.898-7.073C546.301,254.12,543.914,263.2,544.826,271.203L544.826,271.203z M677.028,369.676
		c-12.883-0.553-27.414-1.91-38.618,3.27c-1.582-3.541-5.113-8.168-9.245-8.711c9.953-5.442,21.322-15.502,25.571-26.658
		c2.814-14.318,6.141-28.453,7.063-43.528C676.708,315.216,674.855,343.29,677.028,369.676L677.028,369.676z"/>
	<path fill-rule="evenodd" clip-rule="evenodd" fill="#AA7E64" d="M404.473,413.194c-0.441,1.533-2.56,1.475-3.812,2.183v-6.539
		C403.547,407.703,404.032,411.409,404.473,413.194L404.473,413.194z M400.661,405.036c-1.897,0-0.592-2.774-2.721-2.716
		c-2.939-0.059-4.948,2.232-8.159,1.629l5.991-5.441C398.536,399.701,399.143,402.796,400.661,405.036L400.661,405.036z
		 M359.859,385.993c2.397,6.102,4.41,12.408,8.164,17.956c-8.105,0.65-15.288-0.863-22.307-2.725
		c3.696-4.841,6.146-10.167,9.25-15.231H359.859L359.859,385.993z"/>
	<path fill-rule="evenodd" clip-rule="evenodd" fill="#D5D6D2" d="M427.324,415.377c5.059,5.82,14.086,7.557,15.783,15.774
		c2.764,3.531,7.285,4.627,11.418,3.259l7.067-3.259c-9.624,50.978-8.595,112.403,5.452,161.034
		c17.674,64.248,42.703,125.52,45.69,195.86c-3.094,32.808-8.052,65.335-13.057,97.931c-4.404,24.911-10.555,49.066-16.317,73.435
		l-7.072,16.87c-50.158-11.582-105.71-35.583-128.396-88.131c-6.102-14.747-10.011-30.413-13.601-46.245
		c1.576-9.187,6.034-17.19,8.158-26.115c6.199-22.797,12.078-45.749,15.779-69.642l6.529-54.403
		c2.881-30.344,3.371-61.688,3.803-93.03c-1.795-31.005-0.378-63.376-5.433-93.032c1.353-9.953,5.976-18.548,6.524-28.831
		c6.689-0.272,13.004-1.359,19.048-3.27c7.877-6.305-2.178-17.996,6.524-23.933c2.44-6.034,2.44-15.181,0-21.225
		c3.861-2.115,3.045-9.236,8.702-6.519c2.668-1.417,2.935,0.65,4.898,2.172c7.887,1.902,13.436-5.053,19.043-10.341L427.324,415.377
		L427.324,415.377z M780.401,385.45c12.292,8.381,13,21.546,21.226,31.548l1.086,63.656c-1.629,31.072-8.982,59.806-14.695,89.238
		c-8.489,27.745-16.26,55.703-21.217,84.311c-7.896,23.894-6.8,51.473-11.427,76.715l-20.12,100.102l5.975-66.363
		c1.359-35.903,1.252-71.875,1.631-107.729l3.822-80.517l6.52-53.859c3.977-23.011,10.127-45.973,16.858-68.003
		c-4.511,3.483-5.762,9.303-8.148,14.144c-12.785,36.989-17.422,77.355-21.225,118.06c-1.582,35.312-3.211,70.671-4.347,106.089
		l-0.543,66.916c0.427,22.458-8.488,43.849-5.995,66.374c-3.909,30.733-8.964,61.959-16.859,91.391
		c7.828-21.429,15.559-42.926,18.489-66.373c1.65,29.928-1.737,57.789-23.933,77.802c-12.174,10.835-24.862,22.962-35.902,34.273
		c-2.232-34.429-9.575-69.148-6.538-103.916l3.821-58.205c7.78-61.203,43.13-114.083,51.143-175.189l14.144-59.834
		c10.981-38.91,11.312-86.231,5.976-127.857c-0.543-1.794-1.678-3.424-1.629-5.442c0.757,0.224,1.086-0.708,1.629-1.085
		c-13.601-33.779-32.584-65.23-43.527-100.104C720.615,357.871,754.402,362.876,780.401,385.45L780.401,385.45z"/>
	<path fill-rule="evenodd" clip-rule="evenodd" fill="#D5D6D2" d="M308.177,470.866c-0.984,23.06-15.342,41.239-13.604,64.743
		l2.183,4.357c-1.256,1.076-3.381,1.357-3.813,3.258c2.775,3.531,8.648-0.271,11.423,3.269c1.853-4.083,7.621-3.269,11.428-4.898
		c12.568-3.968,24.645-10.448,33.73-21.769c-7.237,14.639-21.813,24.438-34.817,33.186c-1.741-3.919-6.204-3.695-9.797-4.355
		c-23.665-1.901-43.63,10.07-68.003,6.539c-9.196-4.298-9.842-15.018-11.418-23.932c-3.269-28.686,6.092-53.443,17.408-76.715
		c3.041-2.396,5.82-5.384,9.788-5.452c15.454-14.145,41.622,2.289,56.581-13.048C315.628,446.605,308.066,459.002,308.177,470.866
		L308.177,470.866z"/>
	<path fill-rule="evenodd" clip-rule="evenodd" fill="#919C96" d="M336.465,485.01c9.633,0.495,18.883,0.059,25.572-6.529
		c-4.841,21.488-19.64,49.29-44.61,55.5c-4.676,1.736-9.745,2.667-14.697,3.803c-3.75-25.35,14.963-47.379,10.889-72.902
		C317.316,474.077,325.751,483.604,336.465,485.01L336.465,485.01z"/>
	<polygon fill-rule="evenodd" clip-rule="evenodd" fill="#FFFFFF" points="365.302,481.207 366.388,476.309 366.388,479.024 
		365.302,481.207 	"/>
	<path fill-rule="evenodd" clip-rule="evenodd" fill="#352B22" d="M744.489,98.401c1.979,24.515-11.341,52.424-27.202,68.343
		c-0.853,1.96,1.746-3.919,0-4.89c-5.626,7.208-10.555,14.726-15.347,22.293c-2.269-1.504-1.475-3.26-5.325-3.26
		c12.038-11.806,9.69-31.227,20.129-44.061c11.06-19.208-0.698-39.716-10.874-55.489c4.676-0.281,9.031-1.368,13.057-3.269
		l-2.183-2.183c-28.559,0.271-50.376-15.774-74.532-26.105c-16.782-6.218-30.79-4.443-41.897-0.261
		c-17.597,6.635-21.826,30.664-29.199,44.089c1.009-11.457,3.687-28.355,7.674-39.424c8.836-6.674,19.818-11.204,33.749-16.88
		c25.804-10.506,35,8.77,65.18,14.028c30.198,5.258,42.44,13.581,42.44,13.581l-0.872,11.379c0,0,3.938,6.141,6.121,19.286
		c2.183,13.135,3.502,30.228,3.502,30.228s7.451-4.822,14.008-21.904C743.576,102.166,744.101,100.313,744.489,98.401
		L744.489,98.401z"/>
	<path fill-rule="evenodd" clip-rule="evenodd" fill="#C59677" d="M699.36,188.231c-3.046,4.831-6.083,9.652-9.275,14.425
		c5.347,0,12.709-10.846,15.24-15.24c-0.494,3.648-2.338,6.752-1.64,10.884c-4.511,1.746-9.836,2.619-12.504,7.615
		c4.898-1.251,14.464-0.979,17.947-7.071c0.165-6.335,3.656-21.759,11.981-21.759c1.96,9.352-7.247,14.095-9.255,21.759
		c4.559,2.57,23.476-19.819,8.711-27.202c-2.678,0.272-5.064,1.358-7.081,3.26c0.979-3.318,5.22-3.26,7.625-5.442
		c4.782,2.512,9.564,5.016,13.6,9.254c-9.896,17.035-22.711,37.514-44.081,41.889c-4.831-3.696,1.261-8.867,0-13.058
		c-12.185,13.707-15.657,35.913-35.894,42.975c-19.266,7.731-47.671,11.321-66.927,1.096c-3.278-0.33-6.324-1.853-9.138-4.23
		c-4.112-5.277-4.637-10.322-4.637-10.322s7.44,6.577,14.435,8.333c6.994,1.755,17.063,6.131,17.063-2.619
		c0-5.927-1.183-16.424-1.959-22.623c2.27,0.67,4.793,1.194,7.625,1.542c1.833-1.241,4.714-1.047,3.86-4.22
		c0.33-0.029,0.66-0.058,0.971-0.126c2.871-0.514,2.173-4.608,1.145-7.828l8.721,0.193c3.969,0.718,7.994,3.104,11.972,2.183
		l2.726,3.803c1.417,0.611,3.221-6.839,4.151-7.382c1.028-1.446-3.298,2.144-7.274,0.019c-5.782-3.104-13.853-6.131-15.24-6.635
		c-0.611-0.233-1.203-0.437-1.776-0.591l-8.799-6.092c0,0-4.801,1.746-8.749-1.32c-3.94-3.065-0.874-0.446,1.318-5.257
		c2.183-4.821,0.437-12.699,0.437-12.699l-10.069-7.014c0,0,2.638-1.756,6.131-3.502c3.502-1.755,3.939,2.629,3.939,2.629
		s10.497,6.567,17.938,4.822c7.44-1.756,3.056-13.145,3.056-13.145s0-0.194,0.126-0.738c4.394-6.616,8.313-13.688,10.992-20.886
		c-0.321-0.708-1.029-0.495-1.631-0.543c-0.427,0.563-0.853,1.135-1.27,1.707c5.054-10.001,8.1-11.524,17.083-13.28
		c0.117,0.504,0.427,0.931,1.047,1.231c17.259,3.046,35.05,9.197,44.615,26.115c1.9-1.3,0.981-4.725,0.554-7.072
		c-0.951-1.862-2.009-3.599-3.183-5.229c1.96-3.182,5.918-10.574,11.303-25.552c2.491-6.946,2.88-13.572,2.239-19.392
		c5.258,10.05,10.012,20.575,5.957,33.313c-2.552,6.577-5.55,12.941-9.255,19.043c-0.097,9.73-3.415,18.054-7.615,26.105
		c-2.493,3.492-6.199,4.036-8.701,7.615C687.447,188.533,696.741,186.252,699.36,188.231L699.36,188.231z M651.467,149.457
		c0,0,5.695,3.939,12.253,4.822c6.567,0.873,13.998,3.939,13.998,3.939s-0.436,5.258,3.065,10.079
		c3.502,4.812,1.31,18.393-7.441,21.031c-8.749,2.629-14.87,14.901-20.119,7.004c-5.248-7.886-8.75-15.337-5.685-28.908
		C650.604,153.842,651.467,149.457,651.467,149.457L651.467,149.457z M610.655,176.542c-1.785,2.561-3.638,0.708-5.432-0.552
		c0-5.491-14.261-4.618-4.356-9.245C608.211,167.559,604.835,173.273,610.655,176.542L610.655,176.542z M629.165,178.172
		c-0.708,1.096-0.873,2.386-2.182,3.259c-3.483-0.32-5.831-3.531-9.789-2.716v-3.812
		C621.869,174.359,625.848,175.456,629.165,178.172L629.165,178.172z M639.497,176.542c-1.408,2.386-2.94,5.762-5.986,6.528
		c0.495-4.025,3.541-9.089,1.63-14.153l2.183-1.63C639.768,169.684,639.826,173.651,639.497,176.542L639.497,176.542z M663.428,139
		c8.877,3.105,15.465,11.428,20.14,17.414c-0.873,2.172-3.978,2.716-5.976,1.629c-2.794-3.046-2.328-4.919-5.646-7.692
		c-3.86,3.075-12.484-1.058-15.58-5.365c1.786-1.252,0.651-3.376-1.085-3.813c-1.863-0.204-4.191,0.659-5.452-1.077
		c-0.873-2.784,2.405-2.561,3.822-3.269C655.872,139.98,660.499,137.477,663.428,139L663.428,139z M619.483,125.525
		c-0.737-3.589-2.192-7.325-5.035-9.896l-1.057,1.068l-1.106-1.087l-1.086,1.629c-2.135-1.698-4.346-3.521-6.664-5.286
		c-6.451-0.379-12.292,2.202-14.785,3.502c6.732,3.085,14.271,4.938,19.275,11.03c2.348-0.97,2.406,1.853,3.813,2.726v3.27
		c2.318,2.183,4.316,3.124,5.597,3.521c0.641-3.25,0.66-6.519-1.241-9.517C617.427,124.371,618.495,124.633,619.483,125.525
		L619.483,125.525z"/>
	<path fill-rule="evenodd" clip-rule="evenodd" fill="#EACCBA" d="M568.767,242.916c1.533,5.189,5.811,7.887,10.167,10.38
		c0.059,1.232,0.078,1.93,0.078,1.93s-5.258,9.207,5.258,34.205c10.525,25,17.103,49.989,17.103,49.989
		s-23.681-10.526-39.464-31.567c-3.646-4.86-6.645-9.934-9.196-14.968c-3.162-10.341-4.675-21.342-4.074-33.109
		c4.414-10.332,7.557-21.167,9.255-32.643C561.104,232.089,564.305,238.016,568.767,242.916L568.767,242.916z"/>
	<path fill-rule="evenodd" clip-rule="evenodd" fill="#9E6D51" d="M652,318.932c-0.465,5.335-0.95,10.671-1.629,15.929
		c-4.734,15.608-23.224,20.178-30.461,32.633c-5.937,1.097-12.3-1.901-16.316-5.432c-3.144-2.668-6.209-5.394-9.188-8.178
		c10.972,1.261,24.515,0.349,35.903-7.887C639.72,339.206,646.82,328.894,652,318.932L652,318.932z"/>
	<path fill-rule="evenodd" clip-rule="evenodd" fill="#838C99" d="M556.099,372.393c13.562-0.941,27.997-1.233,40.238,2.716
		l-34.429,1.154L556.099,372.393L556.099,372.393z M608.987,379.174l4.22,2.338l18.111-1.057c0-0.33,0.02-0.66,0.02-0.99
		c-7.45-1.086-14.861-3.968-22.313-3.259C609.007,377.175,608.987,378.165,608.987,379.174L608.987,379.174z M638.729,381.55
		l6.054,2.6l27.036-8.313c-11.398,0.417-22.651,1.155-33.409,3.085C638.536,379.794,638.633,380.677,638.729,381.55L638.729,381.55z
		"/>
	<path fill-rule="evenodd" clip-rule="evenodd" fill="#FFFFFF" d="M534.106,286.113c2.648,11.156,8.188,24.902,18.596,41.471
		c9.992,15.929,18.132,28.113,24.641,37.377c9.556,0.553,18.801,1.843,26.793,1.989c-7.4-4.676-14.852-9.196-21.215-15.23
		c-23.185-22.041-40.365-48.146-38.095-80.518c-0.583-5.161,0.193-10.758,1.027-15.939c-0.901-0.96-1.746-1.853-2.531-2.677
		l-1.213,1.746C537.919,264.257,535.493,274.967,534.106,286.113L534.106,286.113z M639.186,372.597
		c5.694-4.579,10.933-9.924,14.803-16.074c15.793-24.99,9.206-42.092,9.206-42.092s-2.114,3.608-5.607,8.953
		c-0.931,4.734-1.92,9.449-2.852,14.193c-4.249,11.156-15.618,21.215-25.571,26.658c4.132,0.543,7.663,5.17,9.245,8.711
		C638.672,372.82,638.924,372.713,639.186,372.597L639.186,372.597z"/>
	<path fill-rule="evenodd" clip-rule="evenodd" fill="#D5D6D2" d="M574.161,442.967c10.041,32.604,21.129,65.393,31.606,98.076
		c0.155,39.337-0.271,78.684-0.543,118.069l-1.785,24.513c-5.472,18.675-12.592,22.827-12.592,22.827s10.525-99.968-10.525-159.172
		c-21.042-59.194-30.257-99.987-30.257-99.987L574.161,442.967L574.161,442.967z M613.954,591.556
		c0.523,2.473,1.154,5.666,1.882,9.661c6.588,35.516,9.216,71.04,9.216,71.04s34.205-42.093,38.143-110.504
		c3.958-68.409,10.526-110.511,10.526-110.511l-18.199-14.154c-4.025,12.622-8.469,25.077-12.767,37.582
		c-8.866,22.632-18.267,45.108-33.187,65.298C612.906,556.398,613.779,573.822,613.954,591.556L613.954,591.556z M640.593,579.672
		c0.911,1.144-1.475,3.268-2.183,4.897c-2.94,2.184-7.228,2.718-10.885,1.64c-0.378-1.037-1.3-1.862-2.173-2.726
		c0.708-1.086,2.998-2.008,1.631-3.26C630.63,576.189,636.664,576.47,640.593,579.672L640.593,579.672z M639.497,642.241
		c0.437,3.59-0.272,7.18-3.813,8.702c-3.59,0.65-6.519,1.261-9.788-0.543c1.252-3.037,1.31-9.079,6.528-9.788
		C634.927,640.884,637.915,639.846,639.497,642.241L639.497,642.241z"/>
	<path fill-rule="evenodd" clip-rule="evenodd" fill="#AFB0AE" d="M550.316,238.298c-0.32,1.813-0.631,3.618-1.679,5.161
		c-1.464-3.435-4.074,0.106-5.984,0.543c-8.974,16.375-13.485,36.233-14.688,55.499c-1.63,27.735-1.63,55.489,0,83.224l5.995,79.44
		l-0.544,27.746c-2.832,44.613-5.276,89.276-9.797,133.833c-1.689,15.665-4.25,31.497-5.442,46.786
		c-0.049,31.014-2.24,62.027-3.26,93.042c-0.96-13.165-2.338-26.154-4.317-38.901c0-8.576,0-18.015,0-26.095
		c0-21.061,21.051-164.45,15.783-268.375c-1.416-28.104-8.371-82.011-5.627-126.5c2.233-5.219,3.415-10.807,1.776-16.724
		c-0.058-0.067-0.106-0.146-0.154-0.213c2.144-16.064,6.052-30.015,12.619-39.812C538.288,242.062,544.068,238.502,550.316,238.298
		L550.316,238.298z M677.553,738.367c3.531-44.1,9.72-127.73,10.651-187.139c1.31-84.204,1.31-132.873,1.31-149.975
		c0-8.188-2.115-18.762-4.307-27.58c0.611,39.638-6.005,79.926-7.615,120.048c-2.192,94.061-5.122,188.235-7.625,282.353
		l2.716-19.577C674.051,750.339,675.7,744.304,677.553,738.367L677.553,738.367z M680.638,333.648
		c1.416-0.194,3.056-0.048,4.929,0.515c13.153,3.939,17.093,34.195,22.369,72.358c5.258,38.144,10.516,134.182,23.671,76.297
		c1.883-8.264,3.783-15.725,5.646-22.554c-0.271-5.781-0.582-11.505-0.912-17.141c0.427-4.676-3.162-9.032-1.086-13.057
		c-8.275-11.651-12.466-24.921-19.596-37c-18.549-35.689-22.854-77.306-52.764-108.262l-0.543,4.889l0.543-0.543
		c2.223,0.447,1.95,2.833,2.716,4.356C674.506,305.467,678.407,319.339,680.638,333.648L680.638,333.648z"/>
	<path fill-rule="evenodd" clip-rule="evenodd" fill="#FFFFFF" d="M694.771,345.997c0,0,10.525,21.06,6.577,77.626
		c-3.948,56.556-5.248,73.659-5.248,73.659s-7.896-63.142-3.957-98.667c3.957-35.505-2.63-61.814-2.63-61.814L694.771,345.997
		L694.771,345.997z M503.985,342.31c0.932-0.95,2.173-1.823,3.86-2.561c-0.388-2.28-1.038-4.453-3.278-5.976l-2.464-0.709
		c-0.117-0.553-0.263-1.096-0.389-1.629c2.357-2.464,6.558-3.735,8.304-7.46c0.699-1.969,1.766-4.025,2.988-6.179
		c-0.213,15.308,1.689,31.469,4.172,53.2c5.257,46.039-1.32,105.245-1.32,105.245S511.58,385.237,503.985,342.31L503.985,342.31z
		 M516.334,288.577c-0.766,0.495-1.591,0.796-2.512,0.572c2.454-6.024,1.63-13.377,4.899-19.033
		c-0.438-2.231-3.27-2.667-4.899-1.629l-2.174,3.259c-3.191,0.883-6.519,1.436-9.808,2.096c1.213-4.647,2.668-9.177,4.355-13.514
		l0,0c9.43-8.052,19.053-15.579,29.781-20.459c-4.19,5.151-8.429,12.573-12.222,23.253
		C520.438,272.464,518.023,280.759,516.334,288.577L516.334,288.577z"/>
	<path fill-rule="evenodd" clip-rule="evenodd" fill="#A6A6A6" d="M630.795,411.575c6.693,6.839,14.523,10.71,22.856,13.591
		c-3.26,10.574-6.81,20.993-10.623,31.323c-4.045-14.919-12.718-27.608-12.718-27.608s-43.411-2.639-38.144,24.999
		c1.805,9.507,2.222,21.526,1.979,33.178c-5.55-18.277-11.292-36.504-16.667-54.82c-2.018-3.861-2.018-9.954-7.624-10.885
		c12.242-1.901,25.629-3.317,34.825-13.6C612.354,411.459,622.568,411.943,630.795,411.575L630.795,411.575z"/>
	<path fill-rule="evenodd" clip-rule="evenodd" fill="#D2A98E" d="M673.284,189.337c-4.113,8.838-11.243,24.786-13.813,34.787
		c-3.705,14.426-19.344,23.486-27.57,25.95c-8.226,2.474-14.396,0.417-14.396,0.417s17.519-9.827,20.401-20.837
		c2.891-11,11.671-20.537,12.523-25.3c0.835-4.763,0.884-6.441,1.271-10.399c0.494,0.795,0.999,1.581,1.523,2.376
		C658.462,204.199,664.573,192.005,673.284,189.337L673.284,189.337z"/>
	<path fill-rule="evenodd" clip-rule="evenodd" fill="#FFFFFF" d="M231.406,481.926c3.152-9.43,7.173-18.509,11.49-27.376
		c3.041-2.396,5.82-5.384,9.788-5.452c7.387-6.761,17.234-6.519,27.124-6.121c-9.056,3.841-19.382,8.944-27.051,14.842
		c-17.107,13.164-18.427,39.462-18.427,39.462S232.953,490.724,231.406,481.926L231.406,481.926z"/>
	<path fill-rule="evenodd" clip-rule="evenodd" fill="#B3B7B2" d="M293.602,542.002c-0.305,0.32-0.538,0.72-0.659,1.223
		c2.775,3.531,8.648-0.271,11.423,3.269c1.853-4.083,7.621-3.269,11.428-4.898c12.568-3.968,24.645-10.448,33.73-21.769
		c-7.237,14.639-21.813,24.438-34.817,33.186c-1.741-3.919-6.204-3.695-9.797-4.355c-23.665-1.901-43.63,10.07-68.003,6.539
		c-5.491-2.561-7.931-7.432-9.342-12.835c4.331,0.65,9.973,0.33,17.297-1.659c28.937-7.896,48.674,1.32,48.674,1.32L293.602,542.002
		L293.602,542.002z"/>
	<path fill-rule="evenodd" clip-rule="evenodd" fill="#B3B7B2" d="M308.75,421.334c0.237,2.706,1.212,5.296,3.235,7.091
		c-0.16,5.607-6.422,5.878-10.336,7.081c-3.808,0.679-7.673,0.708-11.549,0.572C294.679,431.228,300.737,426.136,308.75,421.334
		L308.75,421.334z"/>
	<path fill-rule="evenodd" clip-rule="evenodd" fill="#C6CACB" d="M317.001,471.342c3.667,5.617,8.993,10.564,15.366,12.718
		l-13.833,5.714C318.534,489.773,316.05,484.419,317.001,471.342L317.001,471.342z"/>
	<path fill-rule="evenodd" clip-rule="evenodd" fill="#5F6F6E" d="M353.069,502.549c-7.698,14.474-19.557,27.435-35.641,31.432
		c-4.676,1.736-9.745,2.667-14.697,3.803c-1.877-12.69,1.877-24.552,5.583-36.428c2.75,7.635,6.557,14.553,11.534,15.667
		C330.931,519.487,336.247,509.262,353.069,502.549L353.069,502.549z"/>
	<path fill-rule="evenodd" clip-rule="evenodd" fill="#B3B7B2" d="M455.752,481.421c-1.863,37.931,1.65,77.364,11.292,110.765
		c17.674,64.248,42.703,125.52,45.69,195.86c-3.094,32.808-8.052,65.335-13.057,97.931c-3.676,20.809-8.576,41.073-13.445,61.387
		c0.524-21.546,1.513-48.611,3.318-75.144c3.948-57.884-10.526-89.46-10.526-89.46s-15.784,101.306-46.04,146.026
		c-7.208,10.661-14.857,18.325-22.531,23.748c-26.701-14.357-49.823-34.865-62.56-64.384c-6.102-14.747-10.011-30.413-13.601-46.245
		c1.576-9.187,6.034-17.19,8.158-26.115c6.199-22.797,12.078-45.749,15.779-69.642l6.529-54.403
		c2.881-30.344,3.371-61.688,3.803-93.03c-1.795-31.005-0.378-63.376-5.433-93.032c1.353-9.953,5.976-18.548,6.524-28.831
		c5.326-0.213,10.419-0.961,15.317-2.212c6.437,18.373,13.979,42.568,19.072,67.383c10.521,51.308,21.051,53.927,40.782,109.192
		c19.737,55.237,32.892,124.977,31.572,56.557c-1.32-68.4-30.252-130.234-23.68-198.644
		C453.71,498.786,454.734,489.579,455.752,481.421L455.752,481.421z M778.967,440.726c0,15.773-10.517,74.977-11.837,113.131
		c-1.317,38.153,19.733-26.318,28.938-76.307c6.189-33.585,5.248-51.124,3.163-63.822c0.728,1.125,1.521,2.222,2.396,3.269
		l1.086,63.656c-1.629,31.072-8.982,59.806-14.695,89.238c-8.489,27.745-16.26,55.703-21.217,84.311
		c-7.896,23.894-6.8,51.473-11.427,76.715l-20.12,100.102l5.975-66.363c1.359-35.903,1.252-71.875,1.631-107.729l3.822-80.517
		l6.52-53.859c3.977-23.011,10.127-45.973,16.858-68.003c-4.511,3.483-5.762,9.303-8.148,14.144
		c-12.785,36.989-17.422,77.355-21.225,118.06c-1.582,35.312-3.211,70.671-4.347,106.089l-0.543,66.916
		c0.427,22.458-8.488,43.849-5.995,66.374c-0.698,5.5-1.437,11.021-2.23,16.55c-2.115-30.451-3.405-61.814-2.533-87.55
		c2.629-77.618,5.259-114.441,5.259-114.441s-47.36,136.81-53.947,197.335c-3.414,31.46-6.121,64.704-8.119,90.674
		c-2.609-23.069-5.189-46.215-3.172-69.391l3.821-58.205c7.78-61.203,43.13-114.083,51.143-175.189l14.144-59.834
		c5.995-21.264,8.818-45.031,9.256-69.012c6.1-15.162,11.31-27.25,14.502-33.991c11.824-24.99,21.042-47.35,21.042-47.35
		S778.967,424.933,778.967,440.726L778.967,440.726z M730.733,881.494c-0.515-5.549-1.019-11.242-1.494-17.015
		c0.893-4.386,1.63-8.818,2.192-13.33C732.014,861.607,731.965,871.794,730.733,881.494L730.733,881.494z"/>
	<path fill-rule="evenodd" clip-rule="evenodd" fill="#C8D2CF" d="M345.396,881.708c-4.714-12.834-8.033-26.261-11.103-39.803
		c1.576-9.187,6.034-17.19,8.158-26.115c6.199-22.797,12.078-45.749,15.779-69.642l6.529-54.403
		c2.881-30.344,3.371-61.688,3.803-93.03c-0.936-16.229-0.995-32.848-1.562-49.252c6.151,50.424,12.684,137.356-1.111,217.514
		C356.832,819.642,350.702,856.438,345.396,881.708L345.396,881.708z"/>
	<path fill-rule="evenodd" clip-rule="evenodd" fill="#987560" d="M384.912,463.455c-0.102,1.941-0.228,3.91-0.024,5.782
		c-16.162-1.358-34.001-0.282-49.513,3.259c-0.102,1.145,0.117,2.066,1.091,2.726c6.583,1.357,13.441,1.892,20.673,1.63
		c-6.859,3.493-15.012,5.491-23.394,3.802c-11.316-7.227-18.329-19.149-17.951-32.643l1.091,1.087l1.63-2.163
		c-2.493-5.035-2.314-10.147-1.925-15.172c1.357,5.579,3.157,13.096,4.579,19.479c2.624,11.835,11.83,17.103,49.978,14.473
		C376.676,465.327,381.196,464.532,384.912,463.455L384.912,463.455z"/>
	<path fill-rule="evenodd" clip-rule="evenodd" fill="#EFECEC" d="M439.654,373.897c2.672,3.347,5.132,6.79,8.338,9.924
		c-1.431,0.97-2.799,1.999-4.118,3.124c-2.27-3.541-4.953-8.217-5.195-10.855C438.553,374.624,438.917,373.955,439.654,373.897
		L439.654,373.897z M254.435,361.228c2.483-1.32,5.132-2.901,6.902-4.492c1.906-1.717,0.693-2.823-1.833-3.124
		c-2.857,1.698-5.942,2.901-8.993,4.094C251.971,358.792,253.266,359.985,254.435,361.228L254.435,361.228z"/>
	<path fill-rule="evenodd" clip-rule="evenodd" fill="#FFFFFF" d="M412.088,366.951h0.543c-1.717,2.105-3.366,4.336-4.976,6.606
		c-4.715-6.053-10.904-14.396-11.418-17.239c-0.393-2.163,2.711-1.377,6.64,0.97C405.967,360.577,409.096,363.798,412.088,366.951
		L412.088,366.951z M323.21,361.159c2.997-3.764,5.791-7.79,5.791-7.79s-3.356,0.563-6.834,1.853
		c-1.426,1.145-2.842,2.164-4.201,3.027C319.892,358.511,321.671,359.666,323.21,361.159L323.21,361.159z M365.559,360.102
		c-2.586-4.161-5.297-9.138-5.044-12.62c0.276-3.813,2.842-1.805,5.646,1.232c1.324,2.978,2.721,5.947,5.126,7.907
		C369.143,357.57,367.256,358.753,365.559,360.102L365.559,360.102z"/>
	<path fill-rule="evenodd" clip-rule="evenodd" fill="#56707A" d="M253.227,366.407c0.47,0.922,0.931,1.863,1.392,2.784
		c-5.112,4.327-10.297,8.964-15.089,13.358c-2.091-5.898-3.212-12.252-2.077-18.858
		C241.426,358.036,250.783,359.947,253.227,366.407L253.227,366.407z M301.484,385.732c6.65-7.441,13.611-14.522,19.838-19.16
		c-1.411-1.94-3.317-3.366-6.068-3.424C304.176,364.991,302.688,375.808,301.484,385.732L301.484,385.732z M364.521,367.649
		c1.499,1.833,2.837,3.851,4.001,5.976c1.586,2.919,3.647,4.433,5.942,5.014c0.524-3.143,0.66-6.451,0.082-10.049
		c-1.63-2.018-0.597-7.023-4.894-5.986C367.285,363.876,365.748,365.66,364.521,367.649L364.521,367.649z M409.236,381.444
		l5.03,5.044c1.319-4.462,2.241-9.07,2.173-14.086C414.048,375.468,411.618,378.456,409.236,381.444L409.236,381.444z
		 M446.924,393.23l2.033,3.036c1.14-2.493,2.202-4.87,2.847-7.004C450.126,390.495,448.496,391.823,446.924,393.23L446.924,393.23z"
		/>
	<path fill-rule="evenodd" clip-rule="evenodd" fill="#F4AEAB" d="M466.481,296.774c-2.309,3.551-2.386,7.645-1.872,11.583
		c-1.93,2.027-4.346,3.832-7.217,4.55c-0.553,0.136-1.086,0.271-1.581,0.388c0.99-6.354,5.452-11.283,9.051-16.521H466.481
		L466.481,296.774z M470.498,237.91c-0.281,2.202-0.184,4.54,0.495,6.975c3.541,12.601,6.043,18.645,6.043,18.645
		s-13.096-10.069-12.087-24.689c0.232-3.385,0.698-6.383,1.242-9.012c0.97-0.301,1.978-0.447,3.026,0.029
		C469.198,232.72,469.683,235.388,470.498,237.91L470.498,237.91z M454.035,231.274c-0.718,1.154-1.299,2.348-1.678,3.541
		c-3.022,9.575-2.013,14.609-2.013,14.609s-5.558-6.607-5.709-15.493c5.054-3.065,8.968-8.022,12.611-12.785
		c1.087,0.388,3.318-0.922,3.26,1.096c-0.271,3.201-4.676,4.559-5.98,7.615C454.345,230.315,454.181,230.799,454.035,231.274
		L454.035,231.274z M420.242,210.748c1.023,2.968,0.767,6.334-2.144,9.458c-0.553,0.592-1.131,1.204-1.727,1.815
		c-3.109,1.193-6.495,1.901-9.182,3.492c-6.892,0.66-15.099,2.686-22.54,2.115c-2.842-2.852-4.831-5.413-4.831-5.413
		s16.618,1.019,24.679-5.025c3.541-2.658,5.438-5.811,6.437-8.498C414.039,209.379,417.143,210.068,420.242,210.748L420.242,210.748
		z M362.58,278.75c-2.546,4.987-6.495,11.079-12.043,15.347c-2.455,1.514-4.962,2.92-7.538,4.074
		c-14.857,5.142-21.119-5.927-21.119-5.927s3.021,5.045,19.644-5.035c3.134-1.901,5.986-3.832,8.542-5.724v1.145
		c5.384,1.795,9.143-4.617,12.514-8.168V278.75L362.58,278.75z M363.167,259.232c-3.26-5.025-8.998-11.651-18.117-15.347
		c-8.871-3.599-15.904-4.919-21.623-4.025c3.172-2.668,6.689-4.511,11.408-3.473c12.295,1.086,24.373,3.696,33.187,11.961
		C366.597,252.054,364.986,255.691,363.167,259.232L363.167,259.232z M309.715,249.444c-4.962,9.022-4.971,24.166-4.971,24.166
		l5.044,10.069c0,0-3.017-2.929-6.311-7.586c-5.146-8.061-8.027-17.326-5.636-27.744c1.193-1.514,3.642-3.919,5.98-2.173
		C305.422,247.882,307.494,249.212,309.715,249.444L309.715,249.444z M272.546,266.043c-2.876,0.679-5.587,2.929-6.592,8.576
		c-1.047,5.888-1.13,11.098-0.873,15.133c-0.49,0.203-0.995,0.358-1.518,0.495l-2.173-8.159l-1.091,1.629
		c-0.111-4.025-4.244-7.13-2.173-11.427c4.462-2.503,7.456-12.185,13.058-7.615L272.546,266.043L272.546,266.043z"/>
	<path fill-rule="evenodd" clip-rule="evenodd" fill="#EA878B" d="M251.17,308.814c-3.478-1.475-7.314-3.658-9.962-6.772
		c-0.708-0.087-1.421-0.223-2.125-0.378c-7.503,0.388-1.037-6.305-4.35-8.701c-0.383-2.164-0.224-4.434,0.523-6.548
		c-0.18-1.222-0.296-2.329-0.374-3.27c-1.78,3.008-4.07,5.549-7.766,6.548c-0.194,1.29-0.29,2.551-0.3,3.784
		c2.042,7.799,4.35,15.938,7.906,17.908c1.28,0.718,2.527,1.388,3.725,1.959c3.527-1.959,7.936-2.842,11.516-4.055
		C250.385,309.144,250.787,308.988,251.17,308.814L251.17,308.814z M446.313,293.253c0,0-4.03,14.609-23.17,10.593
		c-18.083-3.822-22.681-3.589-26.105-8.633c-1.092-5.171,0.665-12-0.782-17.277c2.401,1.562,5.758,3.764,9.935,6.539
		c0.626,1.076,1.571,1.775,2.842,1.901c0.655,0.427,1.324,0.873,2.018,1.339C423.143,295.775,446.313,293.253,446.313,293.253
		L446.313,293.253z M491.219,332.542c-0.863,0.427-1.727,0.932-2.59,1.523c-1.018,0.698-2.008,1.309-2.959,1.862
		c-1.406,2.571-3.647,4.879-6.121,6.548c-2.008,1.63-4.782-0.824-5.985,0c0.214,1.135,0.087,2.552,0.33,3.745
		c1.824,1.145,3.997,2.085,6.248,2.6c7.208,0,14.008-2.997,18.451-9.07c-2.823-1.086-5.277-4.074-7.081-6.529
		C491.413,332.988,491.296,332.765,491.219,332.542L491.219,332.542z"/>
	<path fill-rule="evenodd" clip-rule="evenodd" fill="#F4AEAB" d="M316.268,208.167c0.01,0.815,0.189,1.698,0.616,2.649
		c0.689,1.038,1.562,1.833,2.508,2.523c-2.503,2.124,1.145,8.74-3.561,16.442c-0.184,0.301-0.383,0.573-0.596,0.844
		c-1.28,0.534-2.406,1.358-3.24,2.6c-4.744,2.367-11.51,1.533-15.788,0.63c8.216-4.588,19.169-6.461,15.681-16.568
		c-0.024-0.204-0.048-0.398-0.092-0.612C311.025,212.406,313.246,209.777,316.268,208.167L316.268,208.167z"/>
	<path fill-rule="evenodd" clip-rule="evenodd" fill="#2F663C" d="M286.802,250.007c1.373,1.261,2.988,2.154,5.054,2.154
		c-0.437,4.297,0.709,8.003,1.086,11.971c-3.152,0.756-5.549,3.317-7.615,5.985c-1.305,2.717-1.795,7.121,0,9.788
		c3.802,7.344,11.369,7.839,17.403,10.885c-4.128,1.193-6.301,5.771-7.616,9.788c0.059,0.912,0.048,1.833,0.035,2.775
		c-5.351,2.367-11.205,5.103-16.827,7.692c0.699-7.819,5.321-16.423,0.476-24.068c3.212-4.404,4.783-10.118,3.269-15.773
		c-1.096-3.482-4.196-6.587-4.904-9.254c-1.518-2.668-4.801-2.707-7.474-3.318c-1.082-2.232-2.173-4.637-3.23-7.188
		c-0.427-1.048-0.786-1.97-1.097-2.785c2.726,3.26,6.558,5.879,10.171,6.761c4.133,0.068,8.323,0.398,10.88-3.259
		c0.32-0.999-0.447-1.495-1.033-2.124C285.842,250.036,286.312,250.026,286.802,250.007L286.802,250.007z M296.101,312.335
		c0.3,0.66,0.693,1.28,1.198,1.843c8.644,5.394,19.911,2.29,29.922,5.442c-0.296,0.592-0.606,1.164-0.921,1.746
		c-4.463,0.611-10.327,3.715-13.998,14.717c-2.421,7.266-3.537,13.493-3.983,18.47c-1.203-1.397-2.12-3.182-3.409-4.462
		c-4.89-9.148-3.26-20.954-9.794-29.384c-0.659-0.097-1.256-0.049-1.76,0.213C293.142,317.059,294.262,314.372,296.101,312.335
		L296.101,312.335z"/>
	<path fill-rule="evenodd" clip-rule="evenodd" fill="#2F663C" d="M354.097,227.287c3.734,3.337,7.978,5.83,12.834,6.373
		c1.198,1.854-2.552,5.016,1.091,6.529c2.173-0.291,5.19,2.755,8.595,5.859c-0.809,1.242-1.648,2.532-2.503,3.871
		c0.15-3.735-1.799-7.188-8.27-10.273c-6.451-2.784-12.873-5.52-19.882-6.917c2.11-1.426,4.317-2.911,6.646-4.462
		C353.117,227.928,353.612,227.598,354.097,227.287L354.097,227.287z M401.282,245.234c1.931-1.3,4.007-2.251,6.452-2.318
		c3.715-1.358,5.194-3.531,5.825-5.947c1.475,1.29,2.92,2.756,4.317,4.317c-0.131,0.33-0.248,0.699-0.34,1.087
		c-7.338,0.408-14.08,5.917-15.584,13.126c-0.243,0.038-0.5,0.077-0.762,0.116c0.126-0.999,0.233-2.057,0.286-3.163
		C401.621,249.706,401.515,247.31,401.282,245.234L401.282,245.234z M389.156,273.58c1.431,1.086,2.653,2.396,3.347,4.152
		c1.358,15.492-3.594,31.315,18.495,29.927c-8.266,8.372-11.263,19.635-9.245,31.547h-0.01c-2.304-5.054-5.151-11.204-8.328-17.733
		c-1.853-3.841-3.987-6.674-6.155-8.779c0-6.49-0.004-12.66-1.834-16.462c-4.729-3.317-11.258-2.939-16.865-4.355
		c0.165-3.376,2.018-9.081,0.543-13.601c-2.076-2.862-2.518-5.763-2.1-8.634c1.978,3.152,7.533,3.356,12.306,4.472
		C382.322,274.821,385.828,274.783,389.156,273.58L389.156,273.58z"/>
	<path fill-rule="evenodd" clip-rule="evenodd" fill="#668B4C" d="M442.011,316.904c-4.68,2.551-9.792,6.48-10.884,11.961
		c-0.267,2.561,1.149,4.472,2.178,6.529c-8.158,1.639-17.248,6.645-20.129,15.239c-1.503-2.085-2.779-4.811-3.72-7.867
		c0.82-3.531,1.843-7.586,3.105-12.233c2.973-10.981,7.683-16.442,12.412-18.994C430.132,315.061,434.803,319.688,442.011,316.904
		L442.011,316.904z"/>
</g>
</svg>
