<svg width="3455" height="2530" viewBox="0 0 3455 2530" fill="none" xmlns="http://www.w3.org/2000/svg">
<mask id="mask0_165_26139" style="mask-type:luminance" maskUnits="userSpaceOnUse" x="0" y="0" width="3455" height="2530">
<path d="M3454.87 0.0300293H0V2529.82H3454.87V0.0300293Z" fill="white"/>
</mask>
<g mask="url(#mask0_165_26139)">
<path d="M3202.68 5.96998C3202.68 5.96998 3209.49 -34.8099 3264.83 -36.6999C3320.18 -38.5799 3325.34 -62.74 3325.34 -62.74L3323.42 -91.49C3323.42 -91.49 3334.92 -102.65 3294.94 -105.28C3254.96 -107.9 3161.16 -67.02 3177 -28.48C3198.22 23.23 3202.68 5.96998 3202.68 5.96998Z" fill="#8943C2"/>
</g>
<mask id="mask1_165_26139" style="mask-type:luminance" maskUnits="userSpaceOnUse" x="0" y="0" width="3455" height="2530">
<path d="M3454.87 0.0300293H0V2529.82H3454.87V0.0300293Z" fill="white"/>
</mask>
<g mask="url(#mask1_165_26139)">
<path d="M3175.84 -42.28C3175.84 -42.28 3169.66 -15.34 3177.12 19.52C3180.73 36.5 3223.88 68.6501 3270.45 50.1001C3270.45 50.1001 3278.5 50.2001 3284.91 29.8501C3291.33 9.5201 3295.45 -6.56997 3290.11 -9.96997C3290.11 -9.96997 3278.84 -0.779902 3259.57 -0.399902C3247.4 -0.159902 3239.16 -2.41998 3218.66 -8.47998C3185.55 -18.23 3173.85 -33.57 3175.84 -42.28Z" fill="#B459FF"/>
</g>
<mask id="mask2_165_26139" style="mask-type:luminance" maskUnits="userSpaceOnUse" x="0" y="0" width="3455" height="2530">
<path d="M3454.87 0.0300293H0V2529.82H3454.87V0.0300293Z" fill="white"/>
</mask>
<g mask="url(#mask2_165_26139)">
<path d="M659.131 159.45C659.131 159.45 680.871 138.96 713.521 162.05C746.181 185.14 759.701 173.49 759.701 173.49L771.161 156.12C771.161 156.12 782.641 154.72 760.801 135.76C738.941 116.8 667.141 99.3399 659.421 128.42C649.021 167.43 659.131 159.45 659.131 159.45Z" fill="#8943C2"/>
</g>
<mask id="mask3_165_26139" style="mask-type:luminance" maskUnits="userSpaceOnUse" x="0" y="0" width="3455" height="2530">
<path d="M3454.87 0.0300293H0V2529.82H3454.87V0.0300293Z" fill="white"/>
</mask>
<g mask="url(#mask3_165_26139)">
<path d="M664.76 119.98C664.76 119.98 649.43 132.77 638.5 156.08C633.16 167.43 643.939 204.77 678.829 214.43C678.829 214.43 683.42 218 695.99 209.09C708.56 200.2 717.96 192.75 716.37 188.46C716.37 188.46 705.87 188.83 694.61 180.62C687.51 175.44 683.76 170.55 674.61 158.12C659.84 138.05 659.81 124.12 664.76 119.98Z" fill="#B459FF"/>
</g>
<mask id="mask4_165_26139" style="mask-type:luminance" maskUnits="userSpaceOnUse" x="0" y="0" width="3455" height="2530">
<path d="M3454.87 0.0300293H0V2529.82H3454.87V0.0300293Z" fill="white"/>
</mask>
<g mask="url(#mask4_165_26139)">
<path d="M774.062 153.08C774.062 153.08 777.262 160.86 755.272 179.74C745.172 188.42 730.292 189.77 719.362 182.15C715.582 179.51 711.302 176.02 706.572 171.46C681.682 147.42 671.342 116.84 680.492 102.4C699.082 73.0299 711.822 64.2001 718.622 61.3301C718.622 61.3301 697.012 74.9799 711.952 108.92C728.992 147.61 766.252 167.21 774.062 153.08Z" fill="#B459FF"/>
</g>
<mask id="mask5_165_26139" style="mask-type:luminance" maskUnits="userSpaceOnUse" x="0" y="0" width="3455" height="2530">
<path d="M3454.87 0.0300293H0V2529.82H3454.87V0.0300293Z" fill="white"/>
</mask>
<g mask="url(#mask5_165_26139)">
<path d="M2850.63 380.52C2850.63 380.52 2839.16 365.08 2809.38 362.51C2779.6 359.96 2761.75 374.7 2728.62 346.43C2728.62 346.43 2745.07 380.37 2779.88 384.89C2814.69 389.42 2836.96 376.91 2857.12 399.95L2850.63 380.52Z" fill="#B459FF"/>
</g>
<mask id="mask6_165_26139" style="mask-type:luminance" maskUnits="userSpaceOnUse" x="0" y="0" width="3455" height="2530">
<path d="M3454.87 0.0300293H0V2529.82H3454.87V0.0300293Z" fill="white"/>
</mask>
<g mask="url(#mask6_165_26139)">
<path d="M1221.36 664.43C1221.36 664.43 1241.24 693.25 1208.69 726.99C1176.13 760.73 1187.21 778.46 1187.21 778.46L1205.31 794.82C1205.31 794.82 1204.88 808.38 1230.75 786.44C1256.6 764.49 1289.59 684.38 1257.27 670.27C1213.92 651.31 1221.36 664.43 1221.36 664.43Z" fill="#8943C2"/>
</g>
<mask id="mask7_165_26139" style="mask-type:luminance" maskUnits="userSpaceOnUse" x="0" y="0" width="3455" height="2530">
<path d="M3454.87 0.0300293H0V2529.82H3454.87V0.0300293Z" fill="white"/>
</mask>
<g mask="url(#mask7_165_26139)">
<path d="M1266.1 677.98C1266.1 677.98 1254 657.95 1228.93 641.14C1216.73 632.94 1171.56 638.79 1154.15 677.5C1154.15 677.5 1149.2 682.18 1157.28 698.33C1165.35 714.48 1172.32 726.68 1177.57 725.61C1177.57 725.61 1179.01 713.38 1190.52 701.8C1197.78 694.49 1204.12 691.01 1220.15 682.63C1246.04 669.07 1262.18 671.5 1266.1 677.98Z" fill="#B459FF"/>
</g>
<mask id="mask8_165_26139" style="mask-type:luminance" maskUnits="userSpaceOnUse" x="0" y="0" width="3455" height="2530">
<path d="M3454.87 0.0300293H0V2529.82H3454.87V0.0300293Z" fill="white"/>
</mask>
<g mask="url(#mask8_165_26139)">
<path d="M1208.32 798.74C1208.32 798.74 1198.74 801.06 1180.76 772.23C1172.5 758.98 1173.59 741.5 1184.35 730.19C1188.09 726.28 1192.88 721.94 1199.02 717.26C1231.3 692.71 1268.58 686.16 1283.68 699.32C1314.41 726.09 1322.37 742.42 1324.49 750.81C1324.49 750.81 1312.51 723.34 1270.52 734.62C1222.65 747.5 1193.33 787.18 1208.32 798.74Z" fill="#B459FF"/>
</g>
<mask id="mask9_165_26139" style="mask-type:luminance" maskUnits="userSpaceOnUse" x="0" y="0" width="3455" height="2530">
<path d="M3454.87 0.0300293H0V2529.82H3454.87V0.0300293Z" fill="white"/>
</mask>
<g mask="url(#mask9_165_26139)">
<path d="M1758.32 1013.27C1758.32 1013.27 1767.25 1033.97 1800.54 1044.92C1833.83 1055.86 1858.15 1043.84 1888.34 1085.02C1888.34 1085.02 1878.71 1041.87 1840.21 1027.34C1801.7 1012.81 1772.94 1021.07 1756.13 989.36L1758.32 1013.27Z" fill="#B459FF"/>
</g>
<mask id="mask10_165_26139" style="mask-type:luminance" maskUnits="userSpaceOnUse" x="0" y="0" width="3455" height="2530">
<path d="M3454.87 0.0300293H0V2529.82H3454.87V0.0300293Z" fill="white"/>
</mask>
<g mask="url(#mask10_165_26139)">
<path d="M2999.39 1119.64C2968.16 1105.74 2953.39 1095.24 2930.01 1070.32C2922.96 1080.23 2919.44 1085.19 2912.39 1095.11C2935.78 1120.03 2950.54 1130.53 2981.77 1144.43C2988.81 1134.51 2992.34 1129.55 2999.39 1119.64Z" fill="#FF4F5D"/>
</g>
<mask id="mask11_165_26139" style="mask-type:luminance" maskUnits="userSpaceOnUse" x="0" y="0" width="3455" height="2530">
<path d="M3454.87 0.0300293H0V2529.82H3454.87V0.0300293Z" fill="white"/>
</mask>
<g mask="url(#mask11_165_26139)">
<path d="M470.801 115.22C508.741 121.26 527.811 128.38 560.431 148.65C565.221 135.83 567.611 129.44 572.381 116.62C539.771 96.3501 520.691 89.23 482.761 83.2C477.971 96.01 475.581 102.41 470.801 115.22Z" fill="#FF4F5D"/>
</g>
<mask id="mask12_165_26139" style="mask-type:luminance" maskUnits="userSpaceOnUse" x="0" y="0" width="3455" height="2530">
<path d="M3454.87 0.0300293H0V2529.82H3454.87V0.0300293Z" fill="white"/>
</mask>
<g mask="url(#mask12_165_26139)">
<path d="M2189.14 712.27C2199.2 768 2198.58 797.99 2186.25 853.25C2206.4 853.67 2216.47 853.87 2236.62 854.29C2248.95 799.02 2249.57 769.02 2239.51 713.3C2219.36 712.9 2209.28 712.69 2189.14 712.27Z" fill="#FF4F5D"/>
</g>
<mask id="mask13_165_26139" style="mask-type:luminance" maskUnits="userSpaceOnUse" x="0" y="0" width="3455" height="2530">
<path d="M3454.87 0.0300293H0V2529.82H3454.87V0.0300293Z" fill="white"/>
</mask>
<g mask="url(#mask13_165_26139)">
<path d="M1572.83 44.74C1549.66 70.78 1534.89 81.8601 1503.45 96.8701C1510.89 106.78 1514.62 111.75 1522.08 121.66C1553.53 106.66 1568.3 95.56 1591.47 69.53C1584.02 59.61 1580.29 54.66 1572.83 44.74Z" fill="#FF4F5D"/>
</g>
<mask id="mask14_165_26139" style="mask-type:luminance" maskUnits="userSpaceOnUse" x="0" y="0" width="3455" height="2530">
<path d="M3454.87 0.0300293H0V2529.82H3454.87V0.0300293Z" fill="white"/>
</mask>
<g mask="url(#mask14_165_26139)">
<path d="M866.448 294.36C837.298 335.03 817.898 353.09 775.238 379.26C787.378 392.3 793.438 398.82 805.578 411.86C848.218 385.68 867.628 367.61 896.778 326.95C884.648 313.92 878.578 307.39 866.448 294.36Z" fill="#FF4F5D"/>
</g>
<mask id="mask15_165_26139" style="mask-type:luminance" maskUnits="userSpaceOnUse" x="0" y="0" width="3455" height="2530">
<path d="M3454.87 0.0300293H0V2529.82H3454.87V0.0300293Z" fill="white"/>
</mask>
<g mask="url(#mask15_165_26139)">
<path d="M3029.94 465.94C3115.34 486.78 3156.2 503.21 3221.98 543.14C3239.62 525.98 3248.45 517.4 3266.09 500.25C3200.32 460.34 3159.46 443.91 3074.06 423.06C3056.41 440.21 3047.59 448.78 3029.94 465.94Z" fill="#FF4F5D"/>
</g>
<mask id="mask16_165_26139" style="mask-type:luminance" maskUnits="userSpaceOnUse" x="0" y="0" width="3455" height="2530">
<path d="M3454.87 0.0300293H0V2529.82H3454.87V0.0300293Z" fill="white"/>
</mask>
<g mask="url(#mask16_165_26139)">
<path d="M1734.49 -9.97998C1746.87 -5.32998 1752.81 -1.60001 1762.41 7.48999C1764.91 3.49999 1766.16 1.51002 1768.65 -2.47998C1759.05 -11.57 1753.11 -15.2899 1740.74 -19.9399C1738.24 -15.9499 1736.99 -13.96 1734.49 -9.97998Z" fill="#FFCB00"/>
</g>
<mask id="mask17_165_26139" style="mask-type:luminance" maskUnits="userSpaceOnUse" x="0" y="0" width="3455" height="2530">
<path d="M3454.87 0.0300293H0V2529.82H3454.87V0.0300293Z" fill="white"/>
</mask>
<g mask="url(#mask17_165_26139)">
<path d="M288.219 87.3601C301.349 94.8301 307.389 100.1 316.589 112.08C320.119 108.02 321.889 106 325.419 101.94C316.209 89.9599 310.179 84.7 297.039 77.22C293.509 81.28 291.749 83.3001 288.219 87.3601Z" fill="#FFCB00"/>
</g>
<mask id="mask18_165_26139" style="mask-type:luminance" maskUnits="userSpaceOnUse" x="0" y="0" width="3455" height="2530">
<path d="M3454.87 0.0300293H0V2529.82H3454.87V0.0300293Z" fill="white"/>
</mask>
<g mask="url(#mask18_165_26139)">
<path d="M659.969 334.8C673.099 342.28 679.129 347.54 688.339 359.52C691.869 355.46 693.639 353.44 697.169 349.38C687.969 337.4 681.929 332.14 668.799 324.66C665.269 328.72 663.499 330.74 659.969 334.8Z" fill="#FFCB00"/>
</g>
<mask id="mask19_165_26139" style="mask-type:luminance" maskUnits="userSpaceOnUse" x="0" y="0" width="3455" height="2530">
<path d="M3454.87 0.0300293H0V2529.82H3454.87V0.0300293Z" fill="white"/>
</mask>
<g mask="url(#mask19_165_26139)">
<path d="M2038.64 1859.9C2029.26 1879.32 2022.35 1888.42 2006.19 1902.67C2012.29 1907.31 2015.35 1909.63 2021.46 1914.27C2037.64 1900.01 2044.55 1890.91 2053.92 1871.5C2047.81 1866.86 2044.76 1864.53 2038.64 1859.9Z" fill="#FFCB00"/>
</g>
<mask id="mask20_165_26139" style="mask-type:luminance" maskUnits="userSpaceOnUse" x="0" y="0" width="3455" height="2530">
<path d="M3454.87 0.0300293H0V2529.82H3454.87V0.0300293Z" fill="white"/>
</mask>
<g mask="url(#mask20_165_26139)">
<path d="M2258.73 311.37C2246.52 282.74 2237.18 269.15 2214.82 247.5C2223.96 241.23 2228.52 238.09 2237.65 231.82C2260 253.47 2269.34 267.06 2281.55 295.69C2272.42 301.95 2267.86 305.09 2258.73 311.37Z" fill="#FFCB00"/>
</g>
<mask id="mask21_165_26139" style="mask-type:luminance" maskUnits="userSpaceOnUse" x="0" y="0" width="3455" height="2530">
<path d="M3454.87 0.0300293H0V2529.82H3454.87V0.0300293Z" fill="white"/>
</mask>
<g mask="url(#mask21_165_26139)">
<path d="M1195.86 96.49C1210.7 71.32 1215.76 56.69 1219.68 27.73C1229.5 31.13 1234.41 32.83 1244.24 36.24C1240.33 65.19 1235.26 79.82 1220.43 105C1210.6 101.59 1205.69 99.89 1195.86 96.49Z" fill="#FFCB00"/>
</g>
<mask id="mask22_165_26139" style="mask-type:luminance" maskUnits="userSpaceOnUse" x="0" y="0" width="3455" height="2530">
<path d="M3454.87 0.0300293H0V2529.82H3454.87V0.0300293Z" fill="white"/>
</mask>
<g mask="url(#mask22_165_26139)">
<path d="M3155.98 1632.07C3142.63 1642.76 3136.81 1649.72 3128.65 1664.75C3123.98 1660.84 3121.65 1658.89 3116.98 1654.98C3125.14 1639.95 3130.95 1633 3144.31 1622.3C3148.98 1626.21 3151.32 1628.16 3155.98 1632.07Z" fill="#FFCB00"/>
</g>
<mask id="mask23_165_26139" style="mask-type:luminance" maskUnits="userSpaceOnUse" x="0" y="0" width="3455" height="2530">
<path d="M3454.87 0.0300293H0V2529.82H3454.87V0.0300293Z" fill="white"/>
</mask>
<g mask="url(#mask23_165_26139)">
<path d="M1461.4 251.31C1442.21 278.25 1435.06 294.25 1427.82 326.51C1417.07 321.72 1411.7 319.32 1400.95 314.52C1408.19 282.25 1415.34 266.25 1434.52 239.31C1445.28 244.11 1450.65 246.51 1461.4 251.31Z" fill="#FFCB00"/>
</g>
<mask id="mask24_165_26139" style="mask-type:luminance" maskUnits="userSpaceOnUse" x="0" y="0" width="3455" height="2530">
<path d="M3454.87 0.0300293H0V2529.82H3454.87V0.0300293Z" fill="white"/>
</mask>
<g mask="url(#mask24_165_26139)">
<path d="M1884.33 1487.14C1875.99 1496.69 1872.65 1502.52 1868.66 1514.56C1864.74 1512.32 1862.78 1511.2 1858.86 1508.97C1862.85 1496.94 1866.18 1491.09 1874.53 1481.54C1878.45 1483.77 1880.41 1484.89 1884.33 1487.14Z" fill="#FFCB00"/>
</g>
<mask id="mask25_165_26139" style="mask-type:luminance" maskUnits="userSpaceOnUse" x="0" y="0" width="3455" height="2530">
<path d="M3454.87 0.0300293H0V2529.82H3454.87V0.0300293Z" fill="white"/>
</mask>
<g mask="url(#mask25_165_26139)">
<path d="M2048.21 55.3501C2032.79 44.6801 2023.65 40.7599 2005.3 36.9099C2007.93 30.7799 2009.25 27.7101 2011.89 21.5801C2030.25 25.4301 2039.37 29.36 2054.8 40.03C2052.17 46.15 2050.85 49.2201 2048.21 55.3501Z" fill="#FFCB00"/>
</g>
<mask id="mask26_165_26139" style="mask-type:luminance" maskUnits="userSpaceOnUse" x="0" y="0" width="3455" height="2530">
<path d="M3454.87 0.0300293H0V2529.82H3454.87V0.0300293Z" fill="white"/>
</mask>
<g mask="url(#mask26_165_26139)">
<path d="M2677.06 -3.72998C2645.69 6.91002 2630.51 15.73 2605.71 37.7C2599.79 27.51 2596.83 22.41 2590.91 12.21C2615.7 -9.76004 2630.88 -18.58 2662.26 -29.22C2668.18 -19.02 2671.14 -13.92 2677.06 -3.72998Z" fill="#FFCB00"/>
</g>
<mask id="mask27_165_26139" style="mask-type:luminance" maskUnits="userSpaceOnUse" x="0" y="0" width="3455" height="2530">
<path d="M3454.87 0.0300293H0V2529.82H3454.87V0.0300293Z" fill="white"/>
</mask>
<g mask="url(#mask27_165_26139)">
<path d="M3276.49 258.51C3278.01 237.88 3276.64 227.02 3270.04 207.42C3277.35 206.49 3281 206.03 3288.3 205.12C3294.9 224.72 3296.27 235.59 3294.75 256.21C3287.44 257.13 3283.79 257.59 3276.49 258.51Z" fill="#FFCB00"/>
</g>
<mask id="mask28_165_26139" style="mask-type:luminance" maskUnits="userSpaceOnUse" x="0" y="0" width="3455" height="2530">
<path d="M3454.87 0.0300293H0V2529.82H3454.87V0.0300293Z" fill="white"/>
</mask>
<g mask="url(#mask28_165_26139)">
<path d="M3082.6 1078.25C3085.78 1081.57 3087.87 1082.7 3092.41 1083.51C3091.2 1085.76 3090.59 1086.88 3089.39 1089.14C3084.86 1088.32 3082.76 1087.19 3079.57 1083.88C3080.79 1081.63 3081.39 1080.51 3082.6 1078.25Z" fill="#FF4F5D"/>
</g>
<mask id="mask29_165_26139" style="mask-type:luminance" maskUnits="userSpaceOnUse" x="0" y="0" width="3455" height="2530">
<path d="M3454.87 0.0300293H0V2529.82H3454.87V0.0300293Z" fill="white"/>
</mask>
<g mask="url(#mask29_165_26139)">
<path d="M3249.98 723.82C3263.42 709.49 3267.72 700.35 3270.18 680.87C3280.04 685.5 3284.98 687.83 3294.85 692.46C3292.38 711.96 3288.08 721.09 3274.65 735.43C3264.77 730.79 3259.84 728.46 3249.98 723.82Z" fill="#FF4F5D"/>
</g>
<mask id="mask30_165_26139" style="mask-type:luminance" maskUnits="userSpaceOnUse" x="0" y="0" width="3455" height="2530">
<path d="M3454.87 0.0300293H0V2529.82H3454.87V0.0300293Z" fill="white"/>
</mask>
<g mask="url(#mask30_165_26139)">
<path d="M3437.34 339.42C3422.84 333.02 3414.73 332.19 3399.22 335.52C3400.12 326.76 3400.57 322.39 3401.48 313.64C3416.97 310.31 3425.08 311.15 3439.58 317.55C3438.68 326.29 3438.24 330.67 3437.34 339.42Z" fill="#FF4F5D"/>
</g>
<mask id="mask31_165_26139" style="mask-type:luminance" maskUnits="userSpaceOnUse" x="0" y="0" width="3455" height="2530">
<path d="M3454.87 0.0300293H0V2529.82H3454.87V0.0300293Z" fill="white"/>
</mask>
<g mask="url(#mask31_165_26139)">
<path d="M3377.91 1133.12C3356.23 1137.47 3346.32 1143.03 3331.32 1159.26C3325.32 1148.57 3322.31 1143.21 3316.32 1132.51C3331.32 1116.28 3341.23 1110.73 3362.91 1106.37C3368.9 1117.08 3371.9 1122.43 3377.91 1133.12Z" fill="#FF4F5D"/>
</g>
<mask id="mask32_165_26139" style="mask-type:luminance" maskUnits="userSpaceOnUse" x="0" y="0" width="3455" height="2530">
<path d="M3454.87 0.0300293H0V2529.82H3454.87V0.0300293Z" fill="white"/>
</mask>
<g mask="url(#mask32_165_26139)">
<path d="M3250.59 1363.7C3245.76 1369.74 3244.35 1373.47 3243.97 1381.19C3239.96 1379.67 3237.95 1378.91 3233.94 1377.4C3234.3 1369.67 3235.71 1365.95 3240.56 1359.91C3244.56 1361.42 3246.57 1362.18 3250.59 1363.7Z" fill="#FF4F5D"/>
</g>
<mask id="mask33_165_26139" style="mask-type:luminance" maskUnits="userSpaceOnUse" x="0" y="0" width="3455" height="2530">
<path d="M3454.87 0.0300293H0V2529.82H3454.87V0.0300293Z" fill="white"/>
</mask>
<g mask="url(#mask33_165_26139)">
<path d="M3453.31 893.12C3451.3 887.56 3449.45 885.15 3444.56 881.82C3447.15 879.81 3448.45 878.82 3451.04 876.8C3455.93 880.13 3457.78 882.54 3459.79 888.11C3457.2 890.11 3455.9 891.11 3453.31 893.12Z" fill="#FF4F5D"/>
</g>
<mask id="mask34_165_26139" style="mask-type:luminance" maskUnits="userSpaceOnUse" x="0" y="0" width="3455" height="2530">
<path d="M3454.87 0.0300293H0V2529.82H3454.87V0.0300293Z" fill="white"/>
</mask>
<g mask="url(#mask34_165_26139)">
<path d="M3106.53 887.77C3111.68 883.28 3113.5 880.27 3115.04 873.62C3118.28 875.57 3119.9 876.55 3123.16 878.5C3121.62 885.15 3119.81 888.16 3114.66 892.65C3111.4 890.7 3109.78 889.72 3106.53 887.77Z" fill="#FF4F5D"/>
</g>
<mask id="mask35_165_26139" style="mask-type:luminance" maskUnits="userSpaceOnUse" x="0" y="0" width="3455" height="2530">
<path d="M3454.87 0.0300293H0V2529.82H3454.87V0.0300293Z" fill="white"/>
</mask>
<g mask="url(#mask35_165_26139)">
<path d="M3112.86 1076.42C3129.79 1063.93 3136.09 1055.13 3142.48 1035.09C3151.97 1041.89 3156.7 1045.29 3166.2 1052.09C3159.82 1072.13 3153.52 1080.92 3136.57 1093.41C3127.09 1086.61 3122.35 1083.21 3112.86 1076.42Z" fill="#FF4F5D"/>
</g>
<mask id="mask36_165_26139" style="mask-type:luminance" maskUnits="userSpaceOnUse" x="0" y="0" width="3455" height="2530">
<path d="M3454.87 0.0300293H0V2529.82H3454.87V0.0300293Z" fill="white"/>
</mask>
<g mask="url(#mask36_165_26139)">
<path d="M2842.08 997.52C2831.72 1006.18 2828.02 1012.05 2824.72 1025.14C2818.38 1021.15 2815.2 1019.16 2808.86 1015.17C2812.17 1002.09 2815.86 996.2 2826.23 987.55C2832.56 991.53 2835.74 993.53 2842.08 997.52Z" fill="#FFCB00"/>
</g>
<mask id="mask37_165_26139" style="mask-type:luminance" maskUnits="userSpaceOnUse" x="0" y="0" width="3455" height="2530">
<path d="M3454.87 0.0300293H0V2529.82H3454.87V0.0300293Z" fill="white"/>
</mask>
<g mask="url(#mask37_165_26139)">
<path d="M2512.48 1079.73C2536.06 1074.48 2546.76 1068.19 2562.76 1050.11C2569.56 1061.65 2572.97 1067.43 2579.77 1078.97C2563.75 1097.04 2553.06 1103.35 2529.49 1108.6C2522.69 1097.04 2519.29 1091.28 2512.48 1079.73Z" fill="#FF4F5D"/>
</g>
<mask id="mask38_165_26139" style="mask-type:luminance" maskUnits="userSpaceOnUse" x="0" y="0" width="3455" height="2530">
<path d="M3454.87 0.0300293H0V2529.82H3454.87V0.0300293Z" fill="white"/>
</mask>
<g mask="url(#mask38_165_26139)">
<path d="M1874.26 821.45C1886.94 828.37 1894.25 829.75 1908.57 827.9C1907.08 835.78 1906.36 839.72 1904.88 847.59C1890.54 849.43 1883.25 848.05 1870.57 841.14C1872.04 833.26 1872.78 829.32 1874.26 821.45Z" fill="#FFCB00"/>
</g>
<mask id="mask39_165_26139" style="mask-type:luminance" maskUnits="userSpaceOnUse" x="0" y="0" width="3455" height="2530">
<path d="M3454.87 0.0300293H0V2529.82H3454.87V0.0300293Z" fill="white"/>
</mask>
<g mask="url(#mask39_165_26139)">
<path d="M1644.57 1375.2C1639.95 1373 1637.33 1372.64 1632.28 1373.57C1632.65 1370.75 1632.85 1369.33 1633.23 1366.51C1638.27 1365.58 1640.89 1365.94 1645.52 1368.15C1645.14 1370.97 1644.95 1372.39 1644.57 1375.2Z" fill="#FF4F5D"/>
</g>
<mask id="mask40_165_26139" style="mask-type:luminance" maskUnits="userSpaceOnUse" x="0" y="0" width="3455" height="2530">
<path d="M3454.87 0.0300293H0V2529.82H3454.87V0.0300293Z" fill="white"/>
</mask>
<g mask="url(#mask40_165_26139)">
<path d="M1475.92 926.01C1470.37 903.58 1464.09 893.49 1446.43 878.6C1457.32 871.82 1462.77 868.45 1473.65 861.67C1491.31 876.58 1497.59 886.66 1503.14 909.1C1492.25 915.86 1486.8 919.25 1475.92 926.01Z" fill="#FF4F5D"/>
</g>
<mask id="mask41_165_26139" style="mask-type:luminance" maskUnits="userSpaceOnUse" x="0" y="0" width="3455" height="2530">
<path d="M3454.87 0.0300293H0V2529.82H3454.87V0.0300293Z" fill="white"/>
</mask>
<g mask="url(#mask41_165_26139)">
<path d="M1701.36 1384.25C1704.81 1377.9 1705.48 1374.22 1704.55 1367.06C1708.49 1367.79 1710.46 1368.15 1714.4 1368.88C1715.36 1376.05 1714.68 1379.71 1711.23 1386.07C1707.28 1385.34 1705.31 1384.97 1701.36 1384.25Z" fill="#FF4F5D"/>
</g>
<mask id="mask42_165_26139" style="mask-type:luminance" maskUnits="userSpaceOnUse" x="0" y="0" width="3455" height="2530">
<path d="M3454.87 0.0300293H0V2529.82H3454.87V0.0300293Z" fill="white"/>
</mask>
<g mask="url(#mask42_165_26139)">
<path d="M1593.54 1030.15C1596.95 1041.33 1600.41 1046.25 1609.72 1053.3C1604.41 1057.02 1601.76 1058.87 1596.44 1062.59C1587.12 1055.54 1583.68 1050.62 1580.25 1039.45C1585.57 1035.72 1588.23 1033.86 1593.54 1030.15Z" fill="#FF4F5D"/>
</g>
<mask id="mask43_165_26139" style="mask-type:luminance" maskUnits="userSpaceOnUse" x="0" y="0" width="3455" height="2530">
<path d="M3454.87 0.0300293H0V2529.82H3454.87V0.0300293Z" fill="white"/>
</mask>
<g mask="url(#mask43_165_26139)">
<path d="M1223.76 1385.2C1238.67 1382.72 1245.57 1379.14 1256.19 1368.37C1260.05 1375.82 1261.98 1379.54 1265.84 1386.99C1255.23 1397.75 1248.33 1401.34 1233.41 1403.81C1229.56 1396.37 1227.62 1392.66 1223.76 1385.2Z" fill="#FF4F5D"/>
</g>
<mask id="mask44_165_26139" style="mask-type:luminance" maskUnits="userSpaceOnUse" x="0" y="0" width="3455" height="2530">
<path d="M3454.87 0.0300293H0V2529.82H3454.87V0.0300293Z" fill="white"/>
</mask>
<g mask="url(#mask44_165_26139)">
<path d="M623.762 1106.09C644.342 1100.48 653.532 1094.46 666.902 1077.84C673.392 1087.74 676.642 1092.7 683.122 1102.6C669.742 1119.23 660.562 1125.24 639.982 1130.86C633.492 1120.95 630.252 1115.99 623.762 1106.09Z" fill="#FF4F5D"/>
</g>
<mask id="mask45_165_26139" style="mask-type:luminance" maskUnits="userSpaceOnUse" x="0" y="0" width="3455" height="2530">
<path d="M3454.87 0.0300293H0V2529.82H3454.87V0.0300293Z" fill="white"/>
</mask>
<g mask="url(#mask45_165_26139)">
<path d="M331.961 1370.87C330.561 1366.23 329.141 1364.18 325.281 1361.24C327.491 1359.71 328.601 1358.94 330.811 1357.41C334.661 1360.34 336.091 1362.4 337.491 1367.04C335.281 1368.56 334.171 1369.34 331.961 1370.87Z" fill="#FF4F5D"/>
</g>
<mask id="mask46_165_26139" style="mask-type:luminance" maskUnits="userSpaceOnUse" x="0" y="0" width="3455" height="2530">
<path d="M3454.87 0.0300293H0V2529.82H3454.87V0.0300293Z" fill="white"/>
</mask>
<g mask="url(#mask46_165_26139)">
<path d="M160.911 1017.49C165.151 1027.73 168.831 1032.06 178.261 1037.86C173.591 1041.85 171.251 1043.85 166.571 1047.83C157.151 1042.03 153.451 1037.69 149.211 1027.46C153.891 1023.46 156.241 1021.47 160.911 1017.49Z" fill="#FF4F5D"/>
</g>
<mask id="mask47_165_26139" style="mask-type:luminance" maskUnits="userSpaceOnUse" x="0" y="0" width="3455" height="2530">
<path d="M3454.87 0.0300293H0V2529.82H3454.87V0.0300293Z" fill="white"/>
</mask>
<g mask="url(#mask47_165_26139)">
<path d="M286.37 1103.51C280.92 1115.17 280.11 1121.74 282.54 1134.37C275.45 1133.49 271.91 1133.05 264.81 1132.17C262.38 1119.54 263.2 1112.97 268.64 1101.3C275.74 1102.19 279.29 1102.63 286.37 1103.51Z" fill="#FF4F5D"/>
</g>
<mask id="mask48_165_26139" style="mask-type:luminance" maskUnits="userSpaceOnUse" x="0" y="0" width="3455" height="2530">
<path d="M3454.87 0.0300293H0V2529.82H3454.87V0.0300293Z" fill="white"/>
</mask>
<g mask="url(#mask48_165_26139)">
<path d="M392.472 1813.7C396.442 1829.81 400.942 1837.04 413.612 1847.75C405.792 1852.6 401.882 1855.04 394.062 1859.9C381.392 1849.19 376.892 1841.94 372.922 1825.84C380.742 1820.97 384.652 1818.55 392.472 1813.7Z" fill="#FF4F5D"/>
</g>
<mask id="mask49_165_26139" style="mask-type:luminance" maskUnits="userSpaceOnUse" x="0" y="0" width="3455" height="2530">
<path d="M3454.87 0.0300293H0V2529.82H3454.87V0.0300293Z" fill="white"/>
</mask>
<g mask="url(#mask49_165_26139)">
<path d="M1036.89 62.9299C1014.85 65.0699 1004.42 69.61 987.83 84.27C982.93 73.01 980.48 67.3801 975.59 56.1201C992.19 41.4501 1002.62 36.91 1024.64 34.77C1029.53 46.04 1031.99 51.6699 1036.89 62.9299Z" fill="#FF4F5D"/>
</g>
<mask id="mask50_165_26139" style="mask-type:luminance" maskUnits="userSpaceOnUse" x="0" y="0" width="3455" height="2530">
<path d="M3454.87 0.0300293H0V2529.82H3454.87V0.0300293Z" fill="white"/>
</mask>
<g mask="url(#mask50_165_26139)">
<path d="M1441.48 496.95C1434.52 515.97 1434.14 526.38 1439.69 545.87C1428.46 545.46 1422.83 545.26 1411.61 544.84C1406.07 525.36 1406.45 514.94 1413.39 495.92C1424.62 496.33 1430.23 496.54 1441.48 496.95Z" fill="#FF4F5D"/>
</g>
<mask id="mask51_165_26139" style="mask-type:luminance" maskUnits="userSpaceOnUse" x="0" y="0" width="3455" height="2530">
<path d="M3454.87 0.0300293H0V2529.82H3454.87V0.0300293Z" fill="white"/>
</mask>
<g mask="url(#mask51_165_26139)">
<path d="M203.399 1384.41C201.569 1364.98 197.599 1355.77 184.719 1341.12C194.659 1336.83 199.629 1334.68 209.579 1330.4C222.449 1345.06 226.439 1354.27 228.259 1373.7C218.309 1377.99 213.339 1380.13 203.399 1384.41Z" fill="#FF4F5D"/>
</g>
<mask id="mask52_165_26139" style="mask-type:luminance" maskUnits="userSpaceOnUse" x="0" y="0" width="3455" height="2530">
<path d="M3454.87 0.0300293H0V2529.82H3454.87V0.0300293Z" fill="white"/>
</mask>
<g mask="url(#mask52_165_26139)">
<path d="M1691.54 2214.93C1677.58 2220.56 1671.66 2225.53 1663.67 2238.26C1658.32 2231.87 1655.63 2228.66 1650.27 2222.27C1658.27 2209.53 1664.2 2204.56 1678.15 2198.94C1683.5 2205.33 1686.18 2208.54 1691.54 2214.93Z" fill="#FF4F5D"/>
</g>
<mask id="mask53_165_26139" style="mask-type:luminance" maskUnits="userSpaceOnUse" x="0" y="0" width="3455" height="2530">
<path d="M3454.87 0.0300293H0V2529.82H3454.87V0.0300293Z" fill="white"/>
</mask>
<g mask="url(#mask53_165_26139)">
<path d="M2485.26 1823.99C2479.71 1817.6 2475.99 1815.38 2467.76 1813.46C2470.17 1809.44 2471.37 1807.43 2473.8 1803.41C2482.03 1805.32 2485.75 1807.56 2491.31 1813.93C2488.89 1817.95 2487.68 1819.97 2485.26 1823.99Z" fill="#FF4F5D"/>
</g>
<mask id="mask54_165_26139" style="mask-type:luminance" maskUnits="userSpaceOnUse" x="0" y="0" width="3455" height="2530">
<path d="M3454.87 0.0300293H0V2529.82H3454.87V0.0300293Z" fill="white"/>
</mask>
<g mask="url(#mask54_165_26139)">
<path d="M982.928 971.61C981.208 948.12 976.658 936.91 961.488 918.9C973.578 913.98 979.638 911.52 991.748 906.59C1006.91 924.6 1011.48 935.81 1013.19 959.3C1001.09 964.22 995.028 966.68 982.928 971.61Z" fill="#FF4F5D"/>
</g>
<mask id="mask55_165_26139" style="mask-type:luminance" maskUnits="userSpaceOnUse" x="0" y="0" width="3455" height="2530">
<path d="M3454.87 0.0300293H0V2529.82H3454.87V0.0300293Z" fill="white"/>
</mask>
<g mask="url(#mask55_165_26139)">
<path d="M859.18 1481.31C868.81 1479.44 873.23 1477 879.92 1469.85C882.55 1474.61 883.88 1476.99 886.51 1481.76C879.8 1488.91 875.39 1491.36 865.77 1493.22C863.13 1488.45 861.81 1486.08 859.18 1481.31Z" fill="#FF4F5D"/>
</g>
<mask id="mask56_165_26139" style="mask-type:luminance" maskUnits="userSpaceOnUse" x="0" y="0" width="3455" height="2530">
<path d="M3454.87 0.0300293H0V2529.82H3454.87V0.0300293Z" fill="white"/>
</mask>
<g mask="url(#mask56_165_26139)">
<path d="M3065.21 2178.24C3049.34 2196.76 3044.53 2208.35 3042.56 2232.64C3030.06 2227.44 3023.81 2224.85 3011.32 2219.64C3013.3 2195.33 3018.12 2183.75 3033.98 2165.22C3046.48 2170.43 3052.72 2173.04 3065.21 2178.24Z" fill="#FF4F5D"/>
</g>
<mask id="mask57_165_26139" style="mask-type:luminance" maskUnits="userSpaceOnUse" x="0" y="0" width="3455" height="2530">
<path d="M3454.87 0.0300293H0V2529.82H3454.87V0.0300293Z" fill="white"/>
</mask>
<g mask="url(#mask57_165_26139)">
<path d="M2286.44 519.57C2271.76 504.55 2262.19 499.52 2241.49 495.97C2246.92 485.66 2249.62 480.49 2255.04 470.17C2275.74 473.72 2285.3 478.75 2299.98 493.77C2294.57 504.09 2291.85 509.25 2286.44 519.57Z" fill="#FF4F5D"/>
</g>
<mask id="mask58_165_26139" style="mask-type:luminance" maskUnits="userSpaceOnUse" x="0" y="0" width="3455" height="2530">
<path d="M3454.87 0.0300293H0V2529.82H3454.87V0.0300293Z" fill="white"/>
</mask>
<g mask="url(#mask58_165_26139)">
<path d="M1670.9 270.91C1652.25 270.73 1643.09 273.6 1627.88 284.4C1624.78 274.51 1623.23 269.59 1620.14 259.69C1635.35 248.9 1644.51 246.04 1663.16 246.23C1666.27 256.1 1667.8 261.04 1670.9 270.91Z" fill="#FF4F5D"/>
</g>
<mask id="mask59_165_26139" style="mask-type:luminance" maskUnits="userSpaceOnUse" x="0" y="0" width="3455" height="2530">
<path d="M3454.87 0.0300293H0V2529.82H3454.87V0.0300293Z" fill="white"/>
</mask>
<g mask="url(#mask59_165_26139)">
<path d="M1839.49 577.6C1853.93 592.03 1863.29 596.81 1883.45 600.01C1878.3 610.1 1875.73 615.14 1870.59 625.24C1850.43 622.03 1841.07 617.26 1826.62 602.82C1831.77 592.73 1834.35 587.69 1839.49 577.6Z" fill="#FF4F5D"/>
</g>
<mask id="mask60_165_26139" style="mask-type:luminance" maskUnits="userSpaceOnUse" x="0" y="0" width="3455" height="2530">
<path d="M3454.87 0.0300293H0V2529.82H3454.87V0.0300293Z" fill="white"/>
</mask>
<g mask="url(#mask60_165_26139)">
<path d="M1723.57 774.29C1714.07 785.8 1711.25 792.94 1710.32 807.83C1702.62 804.79 1698.77 803.26 1691.07 800.22C1692.01 785.34 1694.83 778.2 1704.32 766.69C1712.01 769.73 1715.86 771.24 1723.57 774.29Z" fill="#FF4F5D"/>
</g>
<mask id="mask61_165_26139" style="mask-type:luminance" maskUnits="userSpaceOnUse" x="0" y="0" width="3455" height="2530">
<path d="M3454.87 0.0300293H0V2529.82H3454.87V0.0300293Z" fill="white"/>
</mask>
<g mask="url(#mask61_165_26139)">
<path d="M1619.81 609.12C1597.98 602.01 1586.18 601.99 1564.34 609.04C1564.35 596.31 1564.36 589.95 1564.38 577.21C1586.23 570.16 1598.02 570.18 1619.85 577.28C1619.83 590 1619.82 596.38 1619.81 609.12Z" fill="#FFCB00"/>
</g>
<mask id="mask62_165_26139" style="mask-type:luminance" maskUnits="userSpaceOnUse" x="0" y="0" width="3455" height="2530">
<path d="M3454.87 0.0300293H0V2529.82H3454.87V0.0300293Z" fill="white"/>
</mask>
<g mask="url(#mask62_165_26139)">
<path d="M3431.77 1948.83C3423.92 1954.63 3421.01 1958.72 3418.06 1968.02C3413.65 1964.87 3411.45 1963.3 3407.03 1960.15C3409.97 1950.85 3412.9 1946.76 3420.74 1940.96C3425.16 1944.12 3427.35 1945.69 3431.77 1948.83Z" fill="#FF4F5D"/>
</g>
<mask id="mask63_165_26139" style="mask-type:luminance" maskUnits="userSpaceOnUse" x="0" y="0" width="3455" height="2530">
<path d="M3454.87 0.0300293H0V2529.82H3454.87V0.0300293Z" fill="white"/>
</mask>
<g mask="url(#mask63_165_26139)">
<path d="M2491.4 776.88C2475.31 767.57 2465.98 765.57 2447.48 767.48C2449.65 757.39 2450.73 752.35 2452.89 742.28C2471.38 740.38 2480.72 742.37 2496.8 751.69C2494.63 761.77 2493.54 766.82 2491.4 776.88Z" fill="#FF4F5D"/>
</g>
<mask id="mask64_165_26139" style="mask-type:luminance" maskUnits="userSpaceOnUse" x="0" y="0" width="3455" height="2530">
<path d="M3454.87 0.0300293H0V2529.82H3454.87V0.0300293Z" fill="white"/>
</mask>
<g mask="url(#mask64_165_26139)">
<path d="M1459.9 1518.14C1458.23 1529.95 1459.28 1536.01 1464.87 1546.56C1458.35 1547.71 1455.08 1548.26 1448.56 1549.41C1442.98 1538.87 1441.92 1532.82 1443.59 1521C1450.11 1519.85 1453.38 1519.28 1459.9 1518.14Z" fill="#FF4F5D"/>
</g>
<mask id="mask65_165_26139" style="mask-type:luminance" maskUnits="userSpaceOnUse" x="0" y="0" width="3455" height="2530">
<path d="M3454.87 0.0300293H0V2529.82H3454.87V0.0300293Z" fill="white"/>
</mask>
<g mask="url(#mask65_165_26139)">
<path d="M2896.59 99.8701C2883.27 119.29 2879.83 130.89 2880.43 154.43C2867.9 150.71 2861.64 148.86 2849.11 145.14C2848.52 121.61 2851.96 110 2865.28 90.5901C2877.79 94.3101 2884.07 96.1601 2896.59 99.8701Z" fill="#FF4F5D"/>
</g>
<mask id="mask66_165_26139" style="mask-type:luminance" maskUnits="userSpaceOnUse" x="0" y="0" width="3455" height="2530">
<path d="M3454.87 0.0300293H0V2529.82H3454.87V0.0300293Z" fill="white"/>
</mask>
<g mask="url(#mask66_165_26139)">
<path d="M2094.36 574.18C2083.61 571.58 2077.94 572 2067.72 576.2C2067.26 570.08 2067.02 567.02 2066.56 560.9C2076.79 556.7 2082.46 556.27 2093.21 558.88C2093.67 565 2093.89 568.05 2094.36 574.18Z" fill="#FFCB00"/>
</g>
<mask id="mask67_165_26139" style="mask-type:luminance" maskUnits="userSpaceOnUse" x="0" y="0" width="3455" height="2530">
<path d="M3454.87 0.0300293H0V2529.82H3454.87V0.0300293Z" fill="white"/>
</mask>
<g mask="url(#mask67_165_26139)">
<path d="M2823.07 1670.71C2840.04 1685.1 2850.63 1689.44 2872.81 1691.14C2868.12 1702.56 2865.77 1708.27 2861.08 1719.69C2838.9 1718 2828.32 1713.65 2811.35 1699.26C2816.04 1687.84 2818.39 1682.13 2823.07 1670.71Z" fill="#FF4F5D"/>
</g>
<mask id="mask68_165_26139" style="mask-type:luminance" maskUnits="userSpaceOnUse" x="0" y="0" width="3455" height="2530">
<path d="M3454.87 0.0300293H0V2529.82H3454.87V0.0300293Z" fill="white"/>
</mask>
<g mask="url(#mask68_165_26139)">
<path d="M1718.87 401.66C1725.65 417.03 1731.39 423.46 1745.89 431.93C1738.94 438.14 1735.47 441.25 1728.52 447.45C1714.03 438.99 1708.27 432.56 1701.5 417.2C1708.44 410.98 1711.92 407.88 1718.87 401.66Z" fill="#FF4F5D"/>
</g>
<mask id="mask69_165_26139" style="mask-type:luminance" maskUnits="userSpaceOnUse" x="0" y="0" width="3455" height="2530">
<path d="M3454.87 0.0300293H0V2529.82H3454.87V0.0300293Z" fill="white"/>
</mask>
<g mask="url(#mask69_165_26139)">
<path d="M892.032 1732.95C886.192 1724.45 881.982 1721.21 872.262 1717.78C875.752 1713.23 877.492 1710.97 880.972 1706.43C890.692 1709.88 894.902 1713.11 900.742 1721.6C897.252 1726.14 895.522 1728.41 892.032 1732.95Z" fill="#FF4F5D"/>
</g>
<mask id="mask70_165_26139" style="mask-type:luminance" maskUnits="userSpaceOnUse" x="0" y="0" width="3455" height="2530">
<path d="M3454.87 0.0300293H0V2529.82H3454.87V0.0300293Z" fill="white"/>
</mask>
<g mask="url(#mask70_165_26139)">
<path d="M588.439 1978.92C570.799 1964.71 559.919 1960.57 537.309 1959.43C541.779 1947.68 544.029 1941.81 548.499 1930.06C571.109 1931.22 581.999 1935.37 599.639 1949.56C595.159 1961.31 592.919 1967.18 588.439 1978.92Z" fill="#FF4F5D"/>
</g>
<mask id="mask71_165_26139" style="mask-type:luminance" maskUnits="userSpaceOnUse" x="0" y="0" width="3455" height="2530">
<path d="M3454.87 0.0300293H0V2529.82H3454.87V0.0300293Z" fill="white"/>
</mask>
<g mask="url(#mask71_165_26139)">
<path d="M181.101 2229.96C174.521 2208.59 167.911 2199.17 150.051 2185.73C160.201 2178.6 165.271 2175.03 175.431 2167.9C193.301 2181.34 199.911 2190.75 206.491 2212.13C196.331 2219.27 191.251 2222.83 181.101 2229.96Z" fill="#FF4F5D"/>
</g>
<mask id="mask72_165_26139" style="mask-type:luminance" maskUnits="userSpaceOnUse" x="0" y="0" width="3455" height="2530">
<path d="M3454.87 0.0300293H0V2529.82H3454.87V0.0300293Z" fill="white"/>
</mask>
<g mask="url(#mask72_165_26139)">
<path d="M386.219 259.32C379.309 279.17 379.079 289.99 385.139 310.11C373.469 309.87 367.649 309.74 355.969 309.49C349.919 289.36 350.159 278.55 357.059 258.69C368.729 258.94 374.559 259.07 386.219 259.32Z" fill="#FF4F5D"/>
</g>
<mask id="mask73_165_26139" style="mask-type:luminance" maskUnits="userSpaceOnUse" x="0" y="0" width="3455" height="2530">
<path d="M3454.87 0.0300293H0V2529.82H3454.87V0.0300293Z" fill="white"/>
</mask>
<g mask="url(#mask73_165_26139)">
<path d="M34.0814 1234.75C38.7414 1237.31 41.4314 1237.81 46.7114 1237.15C46.1614 1240.05 45.8914 1241.51 45.3214 1244.41C40.0414 1245.07 37.3514 1244.56 32.6914 1242C33.2514 1239.1 33.5314 1237.65 34.0814 1234.75Z" fill="#FF4F5D"/>
</g>
<mask id="mask74_165_26139" style="mask-type:luminance" maskUnits="userSpaceOnUse" x="0" y="0" width="3455" height="2530">
<path d="M3454.87 0.0300293H0V2529.82H3454.87V0.0300293Z" fill="white"/>
</mask>
<g mask="url(#mask74_165_26139)">
<path d="M15.6 702.36C14.9 717.15 16.9001 724.51 25.0201 736.9C17.0901 739.06 13.1101 740.15 5.19006 742.31C-2.92994 729.91 -4.92992 722.56 -4.22992 707.76C3.70008 705.61 7.66003 704.52 15.6 702.36Z" fill="#FF4F5D"/>
</g>
<mask id="mask75_165_26139" style="mask-type:luminance" maskUnits="userSpaceOnUse" x="0" y="0" width="3455" height="2530">
<path d="M3454.87 0.0300293H0V2529.82H3454.87V0.0300293Z" fill="white"/>
</mask>
<g mask="url(#mask75_165_26139)">
<path d="M2438.25 1753C2443.07 1761.01 2446.71 1764.16 2455.3 1767.81C2451.9 1771.73 2450.2 1773.69 2446.81 1777.6C2438.2 1773.95 2434.56 1770.8 2429.75 1762.79C2433.15 1758.88 2434.85 1756.92 2438.25 1753Z" fill="#01B5D6"/>
</g>
<mask id="mask76_165_26139" style="mask-type:luminance" maskUnits="userSpaceOnUse" x="0" y="0" width="3455" height="2530">
<path d="M3454.87 0.0300293H0V2529.82H3454.87V0.0300293Z" fill="white"/>
</mask>
<g mask="url(#mask76_165_26139)">
<path d="M2739.61 1486.78C2747.83 1481.21 2750.97 1477.17 2754.36 1467.83C2758.71 1471.22 2760.89 1472.91 2765.24 1476.3C2761.85 1485.65 2758.71 1489.68 2750.48 1495.26C2746.14 1491.86 2743.96 1490.16 2739.61 1486.78Z" fill="#01B5D6"/>
</g>
<mask id="mask77_165_26139" style="mask-type:luminance" maskUnits="userSpaceOnUse" x="0" y="0" width="3455" height="2530">
<path d="M3454.87 0.0300293H0V2529.82H3454.87V0.0300293Z" fill="white"/>
</mask>
<g mask="url(#mask77_165_26139)">
<path d="M1519.57 384.94C1511.17 386.53 1507.31 388.65 1501.47 394.87C1499.19 390.71 1498.05 388.63 1495.77 384.47C1501.62 378.25 1505.49 376.14 1513.87 374.54C1516.15 378.71 1517.29 380.79 1519.57 384.94Z" fill="#01B5D6"/>
</g>
<mask id="mask78_165_26139" style="mask-type:luminance" maskUnits="userSpaceOnUse" x="0" y="0" width="3455" height="2530">
<path d="M3454.87 0.0300293H0V2529.82H3454.87V0.0300293Z" fill="white"/>
</mask>
<g mask="url(#mask78_165_26139)">
<path d="M765.332 445.12C773.242 463.65 780.052 471.46 797.332 481.83C788.902 489.18 784.682 492.85 776.262 500.19C758.982 489.82 752.172 482.01 744.262 463.48C752.692 456.13 756.902 452.46 765.332 445.12Z" fill="#01B5D6"/>
</g>
<mask id="mask79_165_26139" style="mask-type:luminance" maskUnits="userSpaceOnUse" x="0" y="0" width="3455" height="2530">
<path d="M3454.87 0.0300293H0V2529.82H3454.87V0.0300293Z" fill="white"/>
</mask>
<g mask="url(#mask79_165_26139)">
<path d="M589.329 853.01C600.169 868.7 607.959 874.65 625.949 881C619.519 889.4 616.31 893.6 609.89 902.01C591.9 895.67 584.11 889.71 573.27 874.03C579.69 865.62 582.899 861.42 589.329 853.01Z" fill="#01B5D6"/>
</g>
<mask id="mask80_165_26139" style="mask-type:luminance" maskUnits="userSpaceOnUse" x="0" y="0" width="3455" height="2530">
<path d="M3454.87 0.0300293H0V2529.82H3454.87V0.0300293Z" fill="white"/>
</mask>
<g mask="url(#mask80_165_26139)">
<path d="M819.77 1861.03C831.23 1857.79 836.309 1854.39 843.689 1845.03C847.349 1850.53 849.2 1853.27 852.87 1858.77C845.49 1868.12 840.399 1871.52 828.949 1874.76C825.269 1869.27 823.44 1866.52 819.77 1861.03Z" fill="#01B5D6"/>
</g>
<mask id="mask81_165_26139" style="mask-type:luminance" maskUnits="userSpaceOnUse" x="0" y="0" width="3455" height="2530">
<path d="M3454.87 0.0300293H0V2529.82H3454.87V0.0300293Z" fill="white"/>
</mask>
<g mask="url(#mask81_165_26139)">
<path d="M1285.68 1066.92C1284.56 1093.75 1288.26 1107.04 1303.08 1129.42C1288.72 1133.41 1281.55 1135.41 1267.2 1139.4C1252.38 1117.02 1248.68 1103.72 1249.81 1076.9C1264.16 1072.9 1271.34 1070.91 1285.68 1066.92Z" fill="#01B5D6"/>
</g>
<mask id="mask82_165_26139" style="mask-type:luminance" maskUnits="userSpaceOnUse" x="0" y="0" width="3455" height="2530">
<path d="M3454.87 0.0300293H0V2529.82H3454.87V0.0300293Z" fill="white"/>
</mask>
<g mask="url(#mask82_165_26139)">
<path d="M3107.88 159.74C3093.86 160.87 3087.18 163.63 3076.49 172.77C3073.5 165.57 3071.99 161.97 3069 154.76C3079.69 145.62 3086.38 142.85 3100.39 141.72C3103.39 148.93 3104.89 152.53 3107.88 159.74Z" fill="#01B5D6"/>
</g>
<mask id="mask83_165_26139" style="mask-type:luminance" maskUnits="userSpaceOnUse" x="0" y="0" width="3455" height="2530">
<path d="M3454.87 0.0300293H0V2529.82H3454.87V0.0300293Z" fill="white"/>
</mask>
<g mask="url(#mask83_165_26139)">
<path d="M2817.96 692.31C2833.68 694.03 2841.65 692.38 2855.39 684.56C2857.17 693.15 2858.07 697.45 2859.84 706.04C2846.1 713.88 2838.14 715.53 2822.4 713.81C2820.63 705.2 2819.74 700.91 2817.96 692.31Z" fill="#01B5D6"/>
</g>
<mask id="mask84_165_26139" style="mask-type:luminance" maskUnits="userSpaceOnUse" x="0" y="0" width="3455" height="2530">
<path d="M3454.87 0.0300293H0V2529.82H3454.87V0.0300293Z" fill="white"/>
</mask>
<g mask="url(#mask84_165_26139)">
<path d="M1172.98 253.36C1166.81 268.8 1166.24 277.33 1170.31 293.45C1161.11 292.84 1156.5 292.54 1147.29 291.92C1143.22 275.8 1143.79 267.28 1149.95 251.83C1159.17 252.44 1163.77 252.76 1172.98 253.36Z" fill="#01B5D6"/>
</g>
<mask id="mask85_165_26139" style="mask-type:luminance" maskUnits="userSpaceOnUse" x="0" y="0" width="3455" height="2530">
<path d="M3454.87 0.0300293H0V2529.82H3454.87V0.0300293Z" fill="white"/>
</mask>
<g mask="url(#mask85_165_26139)">
<path d="M2272.3 1037.58C2278.37 1057.82 2284.54 1066.76 2301.33 1079.59C2291.68 1086.25 2286.86 1089.59 2277.22 1096.25C2260.43 1083.43 2254.25 1074.49 2248.19 1054.25C2257.83 1047.58 2262.65 1044.25 2272.3 1037.58Z" fill="#01B5D6"/>
</g>
<mask id="mask86_165_26139" style="mask-type:luminance" maskUnits="userSpaceOnUse" x="0" y="0" width="3455" height="2530">
<path d="M3454.87 0.0300293H0V2529.82H3454.87V0.0300293Z" fill="white"/>
</mask>
<g mask="url(#mask86_165_26139)">
<path d="M1159.26 1695.57C1155.29 1678.17 1150.58 1670.29 1137.16 1658.54C1145.66 1653.46 1149.92 1650.93 1158.41 1645.85C1171.84 1657.61 1176.54 1665.49 1180.52 1682.89C1172.01 1687.96 1167.76 1690.5 1159.26 1695.57Z" fill="#01B5D6"/>
</g>
<mask id="mask87_165_26139" style="mask-type:luminance" maskUnits="userSpaceOnUse" x="0" y="0" width="3455" height="2530">
<path d="M3454.87 0.0300293H0V2529.82H3454.87V0.0300293Z" fill="white"/>
</mask>
<g mask="url(#mask87_165_26139)">
<path d="M1050.91 525.29C1046.56 507.8 1041.66 499.94 1027.88 488.34C1036.36 483.05 1040.61 480.41 1049.09 475.11C1062.87 486.72 1067.77 494.58 1072.12 512.07C1063.64 517.35 1059.41 520 1050.91 525.29Z" fill="#01B5D6"/>
</g>
<mask id="mask88_165_26139" style="mask-type:luminance" maskUnits="userSpaceOnUse" x="0" y="0" width="3455" height="2530">
<path d="M3454.87 0.0300293H0V2529.82H3454.87V0.0300293Z" fill="white"/>
</mask>
<g mask="url(#mask88_165_26139)">
<path d="M881.58 1292.35C864.86 1283.2 855.22 1281.37 836.32 1283.77C838.29 1273.38 839.28 1268.18 841.25 1257.79C860.16 1255.39 869.78 1257.23 886.5 1266.38C884.54 1276.77 883.55 1281.95 881.58 1292.35Z" fill="#01B5D6"/>
</g>
<mask id="mask89_165_26139" style="mask-type:luminance" maskUnits="userSpaceOnUse" x="0" y="0" width="3455" height="2530">
<path d="M3454.87 0.0300293H0V2529.82H3454.87V0.0300293Z" fill="white"/>
</mask>
<g mask="url(#mask89_165_26139)">
<path d="M524.049 1564.97C536.649 1569.57 543.539 1569.81 556.439 1566.15C556.169 1573.59 556.039 1577.31 555.769 1584.74C542.869 1588.42 535.979 1588.17 523.379 1583.57C523.639 1576.13 523.769 1572.41 524.049 1564.97Z" fill="#01B5D6"/>
</g>
<mask id="mask90_165_26139" style="mask-type:luminance" maskUnits="userSpaceOnUse" x="0" y="0" width="3455" height="2530">
<path d="M3454.87 0.0300293H0V2529.82H3454.87V0.0300293Z" fill="white"/>
</mask>
<g mask="url(#mask90_165_26139)">
<path d="M310.61 830.81C293.6 828.02 284.83 829.35 269.42 837.07C267.97 827.61 267.25 822.89 265.82 813.43C281.24 805.7 290 804.37 307.03 807.16C308.46 816.62 309.18 821.35 310.61 830.81Z" fill="#01B5D6"/>
</g>
<mask id="mask91_165_26139" style="mask-type:luminance" maskUnits="userSpaceOnUse" x="3293" y="1131" width="27" height="38">
<path d="M3293.17 1164.74C3300.8 1166.31 3304.62 1167.09 3312.26 1168.66C3319.19 1156.44 3320.65 1149.36 3319.09 1135.4C3311.45 1133.82 3307.64 1133.04 3300 1131.47C3301.55 1145.44 3300.11 1152.51 3293.17 1164.74Z" fill="white"/>
</mask>
<g mask="url(#mask91_165_26139)">
<path d="M3320.65 1131.47H3293.17V1168.66H3320.65V1131.47Z" fill="url(#paint0_linear_165_26139)"/>
</g>
<mask id="mask92_165_26139" style="mask-type:luminance" maskUnits="userSpaceOnUse" x="2092" y="1336" width="60" height="73">
<path d="M2092.92 1351.85C2110.57 1370.71 2116.2 1382.73 2119.42 1408.36C2132.4 1402.28 2138.89 1399.24 2151.86 1393.15C2148.64 1367.52 2143.01 1355.49 2125.36 1336.64C2112.38 1342.72 2105.9 1345.77 2092.92 1351.85Z" fill="white"/>
</mask>
<g mask="url(#mask92_165_26139)">
<path d="M2151.86 1336.65H2092.92V1408.37H2151.86V1336.65Z" fill="url(#paint1_linear_165_26139)"/>
</g>
<mask id="mask93_165_26139" style="mask-type:luminance" maskUnits="userSpaceOnUse" x="2554" y="539" width="62" height="77">
<path d="M2554.49 555C2572.75 575.18 2578.5 587.96 2581.44 615.03C2595.24 608.84 2602.12 605.75 2615.91 599.55C2612.95 572.48 2607.22 559.7 2588.95 539.52C2575.16 545.7 2568.27 548.81 2554.49 555Z" fill="white"/>
</mask>
<g mask="url(#mask93_165_26139)">
<path d="M2607.72 518.65L2641.58 604.97L2562.68 635.91L2528.82 549.59L2607.72 518.65Z" fill="url(#paint2_linear_165_26139)"/>
</g>
<mask id="mask94_165_26139" style="mask-type:luminance" maskUnits="userSpaceOnUse" x="1992" y="395" width="70" height="69">
<path d="M1992.53 420.09C2004.1 442.9 2013.36 452.22 2036.08 463.89C2046.14 453.9 2051.17 448.89 2061.23 438.89C2038.49 427.21 2029.23 417.89 2017.68 395.09C2007.62 405.1 2002.6 410.09 1992.53 420.09Z" fill="white"/>
</mask>
<g mask="url(#mask94_165_26139)">
<path d="M2028.88 360.8L2095.58 431.5L2024.88 498.19L1958.19 427.49L2028.88 360.8Z" fill="url(#paint3_linear_165_26139)"/>
</g>
<mask id="mask95_165_26139" style="mask-type:luminance" maskUnits="userSpaceOnUse" x="394" y="534" width="76" height="58">
<path d="M394.809 555.65C399.609 569.97 401.999 577.12 406.799 591.43C434.009 591.16 447.269 586.71 469.129 570.53C464.339 556.21 461.929 549.05 457.139 534.75C435.279 550.93 422.019 555.38 394.809 555.65Z" fill="white"/>
</mask>
<g mask="url(#mask95_165_26139)">
<path d="M469.139 534.75H394.809V591.43H469.139V534.75Z" fill="url(#paint4_linear_165_26139)"/>
</g>
<mask id="mask96_165_26139" style="mask-type:luminance" maskUnits="userSpaceOnUse" x="340" y="401" width="37" height="48">
<path d="M340.578 409.47C340.708 426.55 343.478 434.89 353.598 448.65C362.598 445.65 367.098 444.17 376.088 441.17C365.968 427.4 363.188 419.08 363.068 401.99C354.058 404.98 349.568 406.48 340.578 409.47Z" fill="white"/>
</mask>
<g mask="url(#mask96_165_26139)">
<path d="M369.749 388.41L393.939 440.34L346.909 462.24L322.719 410.31L369.749 388.41Z" fill="url(#paint5_linear_165_26139)"/>
</g>
<mask id="mask97_165_26139" style="mask-type:luminance" maskUnits="userSpaceOnUse" x="94" y="195" width="101" height="36">
<path d="M95.2177 218.65C94.9377 218.5 94.7476 218.44 94.7076 218.44C94.6476 218.44 94.7977 218.53 95.2177 218.65ZM113.718 196.81L94.3477 213.35L95.2277 218.66C95.6077 218.77 96.2177 218.92 97.1077 219.06C99.1277 219.39 102.598 219.71 108.198 219.66C120.378 219.56 156.728 217.24 185.708 230.26C185.708 230.26 203.788 218.42 187.818 201.18C187.818 201.18 182.328 195.8 145.208 195.8C136.538 195.79 126.158 196.09 113.718 196.81Z" fill="white"/>
</mask>
<g mask="url(#mask97_165_26139)">
<path d="M88.8477 196.7L200.918 178.33L209.278 229.36L97.2076 247.72L88.8477 196.7Z" fill="url(#paint6_linear_165_26139)"/>
</g>
<mask id="mask98_165_26139" style="mask-type:luminance" maskUnits="userSpaceOnUse" x="108" y="201" width="92" height="106">
<path d="M179.368 233.2C167.818 243.67 114.828 272 108.708 279.54C108.708 279.54 106.948 287.07 116.388 306.21C116.388 306.21 117.788 293.17 135.988 284.46C154.178 275.76 191.588 260.36 197.258 240.08C197.258 240.08 199.208 234.44 199.108 227.72C199.018 221.32 195.578 206.99 187.808 201.18C187.808 201.18 201.438 213.21 179.368 233.2Z" fill="white"/>
</mask>
<g mask="url(#mask98_165_26139)">
<path d="M66.3984 220.31L184.218 164.7L241.978 287.07L124.158 342.69L66.3984 220.31Z" fill="url(#paint7_linear_165_26139)"/>
</g>
<mask id="mask99_165_26139" style="mask-type:luminance" maskUnits="userSpaceOnUse" x="73" y="109" width="101" height="36">
<path d="M92.9771 110.9L76.407 119.74L74.4771 132.73C73.5671 132.25 73.6371 132.69 76.3571 133.14C78.3771 133.47 81.8471 133.79 87.4471 133.75C99.6171 133.65 135.977 131.33 164.947 144.35C164.947 144.35 183.037 132.51 167.057 115.27C167.057 115.27 161.567 109.89 124.477 109.89C115.817 109.88 105.427 110.18 92.9771 110.9Z" fill="white"/>
</mask>
<g mask="url(#mask99_165_26139)">
<path d="M68.0664 110.78L180.186 92.4099L188.546 143.44L76.4264 161.81L68.0664 110.78Z" fill="url(#paint8_linear_165_26139)"/>
</g>
<mask id="mask100_165_26139" style="mask-type:luminance" maskUnits="userSpaceOnUse" x="87" y="115" width="92" height="106">
<path d="M158.63 147.3C147.07 157.77 94.0897 186.09 87.9697 193.64C87.9697 193.64 86.2097 201.17 95.6497 220.3C95.6497 220.3 97.0497 207.26 115.25 198.55C133.45 189.85 170.86 174.45 176.53 154.17C176.53 154.17 178.48 148.53 178.38 141.81C178.29 135.42 174.85 121.08 167.08 115.27C167.07 115.26 180.7 127.3 158.63 147.3Z" fill="white"/>
</mask>
<g mask="url(#mask100_165_26139)">
<path d="M45.6602 134.4L163.48 78.79L221.24 201.16L103.42 256.77L45.6602 134.4Z" fill="url(#paint9_linear_165_26139)"/>
</g>
<mask id="mask101_165_26139" style="mask-type:luminance" maskUnits="userSpaceOnUse" x="66" y="48" width="90" height="86">
<path d="M137.698 60.1699C126.138 70.6399 73.1583 98.96 67.0283 106.51C67.0283 106.51 65.2683 114.04 74.7083 133.18C74.7083 133.18 76.1183 120.14 94.3083 111.43C112.498 102.73 149.908 87.33 155.578 67.04L147.448 48.45C145.518 51.96 142.428 55.8799 137.698 60.1699Z" fill="white"/>
</mask>
<g mask="url(#mask101_165_26139)">
<path d="M32.5664 63.8899L139.126 13.5901L188.286 117.74L81.7264 168.04L32.5664 63.8899Z" fill="url(#paint10_linear_165_26139)"/>
</g>
<mask id="mask102_165_26139" style="mask-type:luminance" maskUnits="userSpaceOnUse" x="1971" y="79" width="127" height="116">
<path d="M1971.93 86.3C1970.94 83.69 1970.56 87.42 1985.98 100.96C2000.26 113.49 2044.99 148.53 2065.2 193.79C2065.2 193.79 2098.56 198.79 2097.87 162.13C2097.87 162.13 2096.64 143.92 2016.14 80.0901L1976.43 79.21L1971.93 86.3Z" fill="white"/>
</mask>
<g mask="url(#mask102_165_26139)">
<path d="M2007.36 21.28L2152.67 113.6L2061.74 256.72L1916.43 164.4L2007.36 21.28Z" fill="url(#paint11_linear_165_26139)"/>
</g>
<mask id="mask103_165_26139" style="mask-type:luminance" maskUnits="userSpaceOnUse" x="1905" y="162" width="194" height="63">
<path d="M2054.77 190.64C2043.19 190.73 2016.47 185.78 1990.05 180.83C1960.96 175.38 1932.23 169.93 1924.38 171.2C1924.38 171.2 1914.5 178.14 1905.62 210.21C1905.62 210.21 1920.79 196.49 1951.03 205.25C1981.24 214.01 2040.78 234.94 2068.45 217.21C2068.45 217.21 2076.58 212.68 2083.45 204.75C2089.98 197.22 2100.87 176.95 2097.86 162.12C2097.86 162.13 2101.22 190.29 2054.77 190.64Z" fill="white"/>
</mask>
<g mask="url(#mask103_165_26139)">
<path d="M1921.34 108.96L2121.01 167.98L2085.5 288.12L1885.83 229.1L1921.34 108.96Z" fill="url(#paint12_linear_165_26139)"/>
</g>
<mask id="mask104_165_26139" style="mask-type:luminance" maskUnits="userSpaceOnUse" x="2074" y="0" width="89" height="73">
<path d="M2074.59 0.0300293C2093.39 17.45 2117.06 42.66 2130.27 72.23C2130.27 72.23 2163.63 77.2301 2162.94 40.5701C2162.94 40.5701 2162.28 30.7 2129.8 0.0300293H2074.59Z" fill="white"/>
</mask>
<g mask="url(#mask104_165_26139)">
<path d="M2100.2 -40.28L2198.58 22.23L2138.03 117.53L2039.65 55.03L2100.2 -40.28Z" fill="url(#paint13_linear_165_26139)"/>
</g>
<mask id="mask105_165_26139" style="mask-type:luminance" maskUnits="userSpaceOnUse" x="1970" y="40" width="194" height="63">
<path d="M2119.85 69.0901C2108.26 69.1801 2081.55 64.23 2055.12 59.28C2026.04 53.83 1997.3 48.3799 1989.46 49.6499C1989.46 49.6499 1979.58 56.5899 1970.71 88.6599C1970.71 88.6599 1985.89 74.93 2016.12 83.7C2046.34 92.46 2105.87 113.39 2133.54 95.6699C2133.54 95.6699 2141.67 91.1299 2148.54 83.1899C2155.07 75.6599 2165.95 55.3901 2162.95 40.5601C2162.94 40.5701 2166.3 68.7401 2119.85 69.0901Z" fill="white"/>
</mask>
<g mask="url(#mask105_165_26139)">
<path d="M1986.43 -12.6001L2186.1 46.4199L2150.59 166.56L1950.91 107.54L1986.43 -12.6001Z" fill="url(#paint14_linear_165_26139)"/>
</g>
<mask id="mask106_165_26139" style="mask-type:luminance" maskUnits="userSpaceOnUse" x="0" y="0" width="3455" height="2530">
<path d="M3454.87 0.0300293H0V2529.82H3454.87V0.0300293Z" fill="white"/>
</mask>
<g mask="url(#mask106_165_26139)">
<path d="M746.729 832.47C746.729 832.47 763.429 807.43 733.569 794.08C733.569 794.08 718.4 788.15 636.3 828.9L620.52 860.64L624.53 866.95C622.04 866.76 624.899 868.48 641.689 861.17C657.229 854.4 702.519 831.6 746.729 832.47Z" fill="#E32A3A"/>
</g>
<mask id="mask107_165_26139" style="mask-type:luminance" maskUnits="userSpaceOnUse" x="0" y="0" width="3455" height="2530">
<path d="M3454.87 0.0300293H0V2529.82H3454.87V0.0300293Z" fill="white"/>
</mask>
<g mask="url(#mask107_165_26139)">
<path d="M675.02 937.58C675.02 937.58 676.87 948.19 699.4 967.54C699.4 967.54 694.09 950.08 712.64 929C731.19 907.93 770.7 867.81 766.89 838.74C766.89 838.74 766.31 830.45 762.52 821.9C758.92 813.77 746.689 797.28 733.569 794.07C733.569 794.07 757.579 802.05 740.229 839.69C731.129 859.4 678.74 924.58 675.02 937.58Z" fill="#FF4F5D"/>
</g>
<mask id="mask108_165_26139" style="mask-type:luminance" maskUnits="userSpaceOnUse" x="0" y="0" width="3455" height="2530">
<path d="M3454.87 0.0300293H0V2529.82H3454.87V0.0300293Z" fill="white"/>
</mask>
<g mask="url(#mask108_165_26139)">
<path d="M673.301 733.75C673.301 733.75 690.001 708.72 660.151 695.36C660.151 695.36 644.98 689.43 562.88 730.19L546.48 750.56L551.11 768.24C548.62 768.05 551.481 769.77 568.271 762.46C583.811 755.69 629.091 732.89 673.301 733.75Z" fill="#E32A3A"/>
</g>
<mask id="mask109_165_26139" style="mask-type:luminance" maskUnits="userSpaceOnUse" x="0" y="0" width="3455" height="2530">
<path d="M3454.87 0.0300293H0V2529.82H3454.87V0.0300293Z" fill="white"/>
</mask>
<g mask="url(#mask109_165_26139)">
<path d="M601.602 838.87C601.602 838.87 603.442 849.48 625.972 868.83C625.972 868.83 620.662 851.36 639.222 830.29C657.772 809.21 697.272 769.1 693.472 740.03C693.472 740.03 692.892 731.75 689.102 723.19C685.502 715.05 673.272 698.57 660.152 695.36C660.152 695.36 684.162 703.34 666.812 740.98C657.722 760.69 605.322 825.87 601.602 838.87Z" fill="#FF4F5D"/>
</g>
<mask id="mask110_165_26139" style="mask-type:luminance" maskUnits="userSpaceOnUse" x="0" y="0" width="3455" height="2530">
<path d="M3454.87 0.0300293H0V2529.82H3454.87V0.0300293Z" fill="white"/>
</mask>
<g mask="url(#mask110_165_26139)">
<path d="M527.262 738.71C527.262 738.71 529.112 749.32 551.642 768.67C551.642 768.67 546.332 751.21 564.882 730.13C583.432 709.06 622.942 668.93 619.132 639.87L598.582 620.49C598.022 626.04 596.202 632.75 592.482 640.82C583.392 660.53 531.002 725.71 527.262 738.71Z" fill="#FF4F5D"/>
</g>
<defs>
<linearGradient id="paint0_linear_165_26139" x1="3293.17" y1="1150" x2="3319.66" y2="1150" gradientUnits="userSpaceOnUse">
<stop stop-color="#CE38BF"/>
<stop offset="0.704" stop-color="#E050CA"/>
<stop offset="1" stop-color="#E85CCF"/>
</linearGradient>
<linearGradient id="paint1_linear_165_26139" x1="2092.92" y1="1372.51" x2="2151.86" y2="1372.51" gradientUnits="userSpaceOnUse">
<stop stop-color="#CE38BF"/>
<stop offset="0.704" stop-color="#E050CA"/>
<stop offset="1" stop-color="#E85CCF"/>
</linearGradient>
<linearGradient id="paint2_linear_165_26139" x1="2570.11" y1="539.351" x2="2598.79" y2="612.491" gradientUnits="userSpaceOnUse">
<stop stop-color="#CE38BF"/>
<stop offset="0.704" stop-color="#E050CA"/>
<stop offset="1" stop-color="#E85CCF"/>
</linearGradient>
<linearGradient id="paint3_linear_165_26139" x1="1997.26" y1="398.156" x2="2068.97" y2="474.161" gradientUnits="userSpaceOnUse">
<stop stop-color="#CE38BF"/>
<stop offset="0.704" stop-color="#E050CA"/>
<stop offset="1" stop-color="#E85CCF"/>
</linearGradient>
<linearGradient id="paint4_linear_165_26139" x1="394.811" y1="563.08" x2="469.141" y2="563.08" gradientUnits="userSpaceOnUse">
<stop stop-color="#CE38BF"/>
<stop offset="0.704" stop-color="#E050CA"/>
<stop offset="1" stop-color="#E85CCF"/>
</linearGradient>
<linearGradient id="paint5_linear_165_26139" x1="355.162" y1="418.561" x2="370.155" y2="450.752" gradientUnits="userSpaceOnUse">
<stop stop-color="#CE38BF"/>
<stop offset="0.704" stop-color="#E050CA"/>
<stop offset="1" stop-color="#E85CCF"/>
</linearGradient>
<linearGradient id="paint6_linear_165_26139" x1="95.2903" y1="221.713" x2="193.083" y2="205.69" gradientUnits="userSpaceOnUse">
<stop stop-color="#5C5894"/>
<stop offset="0.4723" stop-color="#6862C1"/>
<stop offset="1" stop-color="#7E78E1"/>
</linearGradient>
<linearGradient id="paint7_linear_165_26139" x1="105.172" y1="276.727" x2="212.741" y2="225.954" gradientUnits="userSpaceOnUse">
<stop stop-color="#7E78E1"/>
<stop offset="0.0901" stop-color="#7068DC"/>
<stop offset="0.179" stop-color="#6661B8"/>
<stop offset="0.2592" stop-color="#6560B6"/>
<stop offset="0.2885" stop-color="#645FAF"/>
<stop offset="0.3014" stop-color="#625DA9"/>
<stop offset="0.3104" stop-color="#6761BA"/>
<stop offset="0.3235" stop-color="#6C66CA"/>
<stop offset="0.3399" stop-color="#6F69D6"/>
<stop offset="0.3628" stop-color="#716BDD"/>
<stop offset="0.4256" stop-color="#726BDF"/>
<stop offset="0.4871" stop-color="#716ADD"/>
<stop offset="0.5092" stop-color="#6F68D6"/>
<stop offset="0.5249" stop-color="#6B64CB"/>
<stop offset="0.5273" stop-color="#6A63C8"/>
<stop offset="0.5846" stop-color="#6C65C9"/>
<stop offset="0.6054" stop-color="#726CCE"/>
<stop offset="0.6203" stop-color="#7E78D7"/>
<stop offset="0.6323" stop-color="#8E88E3"/>
<stop offset="0.6353" stop-color="#948EE7"/>
<stop offset="0.6881" stop-color="#928CE6"/>
<stop offset="0.7073" stop-color="#8B85E5"/>
<stop offset="0.7209" stop-color="#807AE1"/>
<stop offset="0.7222" stop-color="#7E78E1"/>
<stop offset="0.9024" stop-color="#645EB1"/>
<stop offset="1" stop-color="#5F5A9C"/>
</linearGradient>
<linearGradient id="paint8_linear_165_26139" x1="74.6423" y1="136.01" x2="172.437" y2="119.987" gradientUnits="userSpaceOnUse">
<stop stop-color="#5C5894"/>
<stop offset="0.4723" stop-color="#6862C1"/>
<stop offset="1" stop-color="#7E78E1"/>
</linearGradient>
<linearGradient id="paint9_linear_165_26139" x1="84.4059" y1="191.035" x2="191.975" y2="140.261" gradientUnits="userSpaceOnUse">
<stop stop-color="#7E78E1"/>
<stop offset="0.0901" stop-color="#7068DC"/>
<stop offset="0.179" stop-color="#6661B8"/>
<stop offset="0.2592" stop-color="#6560B6"/>
<stop offset="0.2885" stop-color="#645FAF"/>
<stop offset="0.3014" stop-color="#625DA9"/>
<stop offset="0.3104" stop-color="#6761BA"/>
<stop offset="0.3235" stop-color="#6C66CA"/>
<stop offset="0.3399" stop-color="#6F69D6"/>
<stop offset="0.3628" stop-color="#716BDD"/>
<stop offset="0.4256" stop-color="#726BDF"/>
<stop offset="0.4871" stop-color="#716ADD"/>
<stop offset="0.5092" stop-color="#6F68D6"/>
<stop offset="0.5249" stop-color="#6B64CB"/>
<stop offset="0.5273" stop-color="#6A63C8"/>
<stop offset="0.5846" stop-color="#6C65C9"/>
<stop offset="0.6054" stop-color="#726CCE"/>
<stop offset="0.6203" stop-color="#7E78D7"/>
<stop offset="0.6323" stop-color="#8E88E3"/>
<stop offset="0.6353" stop-color="#948EE7"/>
<stop offset="0.6881" stop-color="#928CE6"/>
<stop offset="0.7073" stop-color="#8B85E5"/>
<stop offset="0.7209" stop-color="#807AE1"/>
<stop offset="0.7222" stop-color="#7E78E1"/>
<stop offset="0.9024" stop-color="#645EB1"/>
<stop offset="1" stop-color="#5F5A9C"/>
</linearGradient>
<linearGradient id="paint10_linear_165_26139" x1="66.9841" y1="111.56" x2="165.1" y2="65.2481" gradientUnits="userSpaceOnUse">
<stop stop-color="#7E78E1"/>
<stop offset="0.0901" stop-color="#7068DC"/>
<stop offset="0.179" stop-color="#6661B8"/>
<stop offset="0.2592" stop-color="#6560B6"/>
<stop offset="0.2885" stop-color="#645FAF"/>
<stop offset="0.3014" stop-color="#625DA9"/>
<stop offset="0.3104" stop-color="#6761BA"/>
<stop offset="0.3235" stop-color="#6C66CA"/>
<stop offset="0.3399" stop-color="#6F69D6"/>
<stop offset="0.3628" stop-color="#716BDD"/>
<stop offset="0.4256" stop-color="#726BDF"/>
<stop offset="0.4871" stop-color="#716ADD"/>
<stop offset="0.5092" stop-color="#6F68D6"/>
<stop offset="0.5249" stop-color="#6B64CB"/>
<stop offset="0.5273" stop-color="#6A63C8"/>
<stop offset="0.5846" stop-color="#6C65C9"/>
<stop offset="0.6054" stop-color="#726CCE"/>
<stop offset="0.6203" stop-color="#7E78D7"/>
<stop offset="0.6323" stop-color="#8E88E3"/>
<stop offset="0.6353" stop-color="#948EE7"/>
<stop offset="0.6881" stop-color="#928CE6"/>
<stop offset="0.7073" stop-color="#8B85E5"/>
<stop offset="0.7209" stop-color="#807AE1"/>
<stop offset="0.7222" stop-color="#7E78E1"/>
<stop offset="0.9024" stop-color="#645EB1"/>
<stop offset="1" stop-color="#5F5A9C"/>
</linearGradient>
<linearGradient id="paint11_linear_165_26139" x1="1965.36" y1="95.2012" x2="2095.85" y2="178.109" gradientUnits="userSpaceOnUse">
<stop stop-color="#5C5894"/>
<stop offset="0.4723" stop-color="#6862C1"/>
<stop offset="1" stop-color="#7E78E1"/>
</linearGradient>
<linearGradient id="paint12_linear_165_26139" x1="1920.47" y1="174.231" x2="2098.43" y2="226.835" gradientUnits="userSpaceOnUse">
<stop stop-color="#7E78E1"/>
<stop offset="0.0901" stop-color="#7068DC"/>
<stop offset="0.179" stop-color="#6661B8"/>
<stop offset="0.2592" stop-color="#6560B6"/>
<stop offset="0.2885" stop-color="#645FAF"/>
<stop offset="0.3014" stop-color="#625DA9"/>
<stop offset="0.3104" stop-color="#6761BA"/>
<stop offset="0.3235" stop-color="#6C66CA"/>
<stop offset="0.3399" stop-color="#6F69D6"/>
<stop offset="0.3628" stop-color="#716BDD"/>
<stop offset="0.4256" stop-color="#726BDF"/>
<stop offset="0.4871" stop-color="#716ADD"/>
<stop offset="0.5092" stop-color="#6F68D6"/>
<stop offset="0.5249" stop-color="#6B64CB"/>
<stop offset="0.5273" stop-color="#6A63C8"/>
<stop offset="0.5846" stop-color="#6C65C9"/>
<stop offset="0.6054" stop-color="#726CCE"/>
<stop offset="0.6203" stop-color="#7E78D7"/>
<stop offset="0.6323" stop-color="#8E88E3"/>
<stop offset="0.6353" stop-color="#948EE7"/>
<stop offset="0.6881" stop-color="#928CE6"/>
<stop offset="0.7073" stop-color="#8B85E5"/>
<stop offset="0.7209" stop-color="#807AE1"/>
<stop offset="0.7222" stop-color="#7E78E1"/>
<stop offset="0.9024" stop-color="#645EB1"/>
<stop offset="1" stop-color="#5F5A9C"/>
</linearGradient>
<linearGradient id="paint13_linear_165_26139" x1="2026.75" y1="-20.3643" x2="2157.24" y2="62.5439" gradientUnits="userSpaceOnUse">
<stop stop-color="#5C5894"/>
<stop offset="0.4723" stop-color="#6862C1"/>
<stop offset="1" stop-color="#7E78E1"/>
</linearGradient>
<linearGradient id="paint14_linear_165_26139" x1="1985.71" y1="52.2794" x2="2163.68" y2="104.884" gradientUnits="userSpaceOnUse">
<stop stop-color="#7E78E1"/>
<stop offset="0.0901" stop-color="#7068DC"/>
<stop offset="0.179" stop-color="#6661B8"/>
<stop offset="0.2592" stop-color="#6560B6"/>
<stop offset="0.2885" stop-color="#645FAF"/>
<stop offset="0.3014" stop-color="#625DA9"/>
<stop offset="0.3104" stop-color="#6761BA"/>
<stop offset="0.3235" stop-color="#6C66CA"/>
<stop offset="0.3399" stop-color="#6F69D6"/>
<stop offset="0.3628" stop-color="#716BDD"/>
<stop offset="0.4256" stop-color="#726BDF"/>
<stop offset="0.4871" stop-color="#716ADD"/>
<stop offset="0.5092" stop-color="#6F68D6"/>
<stop offset="0.5249" stop-color="#6B64CB"/>
<stop offset="0.5273" stop-color="#6A63C8"/>
<stop offset="0.5846" stop-color="#6C65C9"/>
<stop offset="0.6054" stop-color="#726CCE"/>
<stop offset="0.6203" stop-color="#7E78D7"/>
<stop offset="0.6323" stop-color="#8E88E3"/>
<stop offset="0.6353" stop-color="#948EE7"/>
<stop offset="0.6881" stop-color="#928CE6"/>
<stop offset="0.7073" stop-color="#8B85E5"/>
<stop offset="0.7209" stop-color="#807AE1"/>
<stop offset="0.7222" stop-color="#7E78E1"/>
<stop offset="0.9024" stop-color="#645EB1"/>
<stop offset="1" stop-color="#5F5A9C"/>
</linearGradient>
</defs>
</svg>
