<?xml version="1.0" encoding="utf-8"?>
<!-- Generator: Adobe Illustrator 26.0.1, SVG Export Plug-In . SVG Version: 6.00 Build 0)  -->
<svg version="1.1" id="Isolation_Mode" xmlns="http://www.w3.org/2000/svg" xmlns:xlink="http://www.w3.org/1999/xlink" x="0px"
	 y="0px" viewBox="0 0 120.1 120.5" style="enable-background:new 0 0 120.1 120.5;" xml:space="preserve">
<style type="text/css">
	.st0{fill:url(#SVGID_1_);}
	.st1{fill:url(#SVGID_00000135676621683982548020000015940917108556577213_);}
	.st2{fill:url(#SVGID_00000183951382011370179770000006908175935398928044_);}
	.st3{opacity:0.75;fill:url(#SVGID_00000132798369731727129990000010430992237273654436_);}
</style>
<g>
	<g>
		<g>
			
				<image style="overflow:visible;opacity:0.5;" width="42" height="71" xlink:href="ECE456C.png"  transform="matrix(1 0 0 1 7.3462 7.7692)">
			</image>
			<g>
				
					<linearGradient id="SVGID_1_" gradientUnits="userSpaceOnUse" x1="-76.5036" y1="100.1525" x2="-39.1521" y2="100.1525" gradientTransform="matrix(0.4934 -0.8699 -0.8699 -0.4934 142.1749 36.5194)">
					<stop  offset="0" style="stop-color:#805E27"/>
					<stop  offset="3.448450e-02" style="stop-color:#C59A4E"/>
					<stop  offset="5.578496e-02" style="stop-color:#D7B35C"/>
					<stop  offset="8.492840e-02" style="stop-color:#EBCF6C"/>
					<stop  offset="0.1018" style="stop-color:#F3D972"/>
					<stop  offset="0.1378" style="stop-color:#EFCF5F"/>
					<stop  offset="0.179" style="stop-color:#ECC84F"/>
					<stop  offset="0.2121" style="stop-color:#EBC54A"/>
					<stop  offset="0.3301" style="stop-color:#9C7832"/>
					<stop  offset="0.5" style="stop-color:#66491C"/>
					<stop  offset="0.671" style="stop-color:#805E27"/>
					<stop  offset="0.7308" style="stop-color:#856329"/>
					<stop  offset="0.8059" style="stop-color:#95712F"/>
					<stop  offset="0.8317" style="stop-color:#9C7832"/>
					<stop  offset="0.8712" style="stop-color:#8F6B2D"/>
					<stop  offset="0.9036" style="stop-color:#805E27"/>
					<stop  offset="0.9153" style="stop-color:#846229"/>
					<stop  offset="0.9272" style="stop-color:#906E30"/>
					<stop  offset="0.9392" style="stop-color:#A5823A"/>
					<stop  offset="0.9514" style="stop-color:#C29D49"/>
					<stop  offset="0.9636" style="stop-color:#E6C15C"/>
					<stop  offset="0.9658" style="stop-color:#EEC860"/>
					<stop  offset="1" style="stop-color:#9C7832"/>
				</linearGradient>
				<path class="st0" d="M31.4,20.1c0.2,0.2,0.4,0.5,0.5,0.7c-1.6-1.1-3.8-1.3-5.2-0.1c0,0,0-0.1,0-0.1c-0.8,0.6-1.6,1.3-2.1,1.9
					c-1.7,1.8-2.4,4.5-2.9,7c-0.1,0.3-0.1,0.6-0.2,0.9c-0.4,1.5-0.5,3-0.5,4.7c0,1.7-0.1,3.9,0.3,5.6c0,0,0,0,0,0
					c0.1,1.2,0.3,2.4,0.6,3.6c1.1,5.2,3.5,10.1,6.8,13.9c0.4,0.4,0.8,0.9,1.2,1.3c0,0,0,0,0,0c0,0,0,0,0,0l0,0
					c0.4,0.8,0.9,1.5,1.5,2.1c-2.2-1.5-4.3-3.4-6.3-5.3c-3.8-3.7-6.6-8.4-8.2-13.7c0,0,0,0,0,0c0-0.2-0.1-0.4-0.2-0.5
					c-0.3-0.7-0.4-1.7-0.6-2.5c-0.2-0.8-0.4-1.6-0.5-2.5c0-0.3-0.1-0.7-0.1-1c-0.3-2.1-0.3-4.2-0.2-6.3c0.2-5,1.3-10.4,5.2-13.5
					C24.6,13.2,28.6,17,31.4,20.1z"/>
			</g>
		</g>
		<g>
			
				<image style="overflow:visible;opacity:0.5;" width="76" height="35" xlink:href="ECE456D.png"  transform="matrix(1 0 0 1 22.3462 48.7692)">
			</image>
			<g>
				
					<linearGradient id="SVGID_00000131326556768392000150000009971288623204284851_" gradientUnits="userSpaceOnUse" x1="-59.5624" y1="33.2593" x2="-34.7815" y2="33.2593" gradientTransform="matrix(0.4901 -0.8716 -0.8716 -0.4901 107.7263 36.4219)">
					<stop  offset="0" style="stop-color:#FFBB00"/>
					<stop  offset="6.871041e-02" style="stop-color:#E5A300"/>
					<stop  offset="0.2148" style="stop-color:#A36600"/>
					<stop  offset="0.2761" style="stop-color:#854B00"/>
					<stop  offset="0.3099" style="stop-color:#976114"/>
					<stop  offset="0.3782" style="stop-color:#B78736"/>
					<stop  offset="0.4492" style="stop-color:#D1A753"/>
					<stop  offset="0.5226" style="stop-color:#E5C069"/>
					<stop  offset="0.5994" style="stop-color:#F4D179"/>
					<stop  offset="0.6817" style="stop-color:#FCDC82"/>
					<stop  offset="0.7792" style="stop-color:#FFDF85"/>
					<stop  offset="1" style="stop-color:#FF9000"/>
				</linearGradient>
				<path style="fill:url(#SVGID_00000131326556768392000150000009971288623204284851_);" d="M79.1,60.5c-4.1-3-8.3-4.8-13.4-4.2
					c-8.7,0.9-17,6.4-25.8,6.1c-2.3-0.1-4.7-0.5-6.8-1.3C32,60.7,31,60.2,30,59.6c0.4,0.8,0.9,1.5,1.5,2.1l0,0
					c5.6,3.9,12.1,6.1,19.1,4.7c8.6-1.7,17.9-7.7,26.7-5.3c0.8,0.2,1.5,0.4,2.3,0.8c0,0,0,0,0,0c0.7,0.1,1.3,0.3,2,0.5
					C80.7,61.7,80,61.1,79.1,60.5z"/>
			</g>
		</g>
		<g>
			
				<image style="overflow:visible;opacity:0.5;" width="47" height="78" xlink:href="ECE456B.png"  transform="matrix(1 0 0 1 72.3462 53.7692)">
			</image>
			<g>
				
					<linearGradient id="SVGID_00000006667201445652782060000001893376006799660182_" gradientUnits="userSpaceOnUse" x1="-87.903" y1="19.3536" x2="-52.4488" y2="19.3536" gradientTransform="matrix(0.4934 -0.8699 -0.8699 -0.4934 142.1749 36.5194)">
					<stop  offset="0" style="stop-color:#805E27"/>
					<stop  offset="3.448450e-02" style="stop-color:#C59A4E"/>
					<stop  offset="5.578496e-02" style="stop-color:#D7B35C"/>
					<stop  offset="8.492840e-02" style="stop-color:#EBCF6C"/>
					<stop  offset="0.1018" style="stop-color:#F3D972"/>
					<stop  offset="0.1378" style="stop-color:#EFCF5F"/>
					<stop  offset="0.179" style="stop-color:#ECC84F"/>
					<stop  offset="0.2121" style="stop-color:#EBC54A"/>
					<stop  offset="0.3301" style="stop-color:#9C7832"/>
					<stop  offset="0.5" style="stop-color:#66491C"/>
					<stop  offset="0.7219" style="stop-color:#694B1D"/>
					<stop  offset="0.8756" style="stop-color:#725321"/>
					<stop  offset="1" style="stop-color:#805E27"/>
				</linearGradient>
				<path style="fill:url(#SVGID_00000006667201445652782060000001893376006799660182_);" d="M81.5,62.4c-0.6-0.2-1.3-0.4-2-0.5
					c0.3,0.4,0.7,0.9,1,1.3c0.2,0.3,0.5,0.7,0.7,1c0.1,0.1,0.1,0.2,0.2,0.4c1.3,2.4,2.3,4.9,2.8,7.7c1.1,5.1,1.4,10.5,2.2,15.7
					c0.7,4.6,1.7,9.4,3.7,13.5c2.1,4.5,5.2,8,8.8,11c0.9,0.7,1.8,1.4,2.7,2.1c-0.5-0.6-1-1.3-1.5-2c0,0,0,0,0,0
					c-0.3-0.3-0.6-0.6-0.9-0.9c-0.8-0.9-1.5-1.8-2.1-2.8c-1.1-1.9-2.1-3.9-2.8-6c-1.6-4.7-2.4-9.7-3-14.8
					c-0.7-5.1-0.9-10.6-2.7-15.4c-0.1-0.2-0.1-0.3-0.2-0.5c-0.1-0.2-0.1-0.3-0.2-0.5c0-0.1-0.1-0.2-0.1-0.3c0-0.1-0.1-0.2-0.1-0.3
					c0-0.1-0.1-0.2-0.1-0.3c0-0.1-0.1-0.2-0.1-0.3c-0.2-0.3-0.3-0.7-0.5-1c-0.1-0.1-0.1-0.3-0.2-0.4c-0.1-0.1-0.2-0.3-0.2-0.4
					c-0.1-0.1-0.2-0.3-0.2-0.4c-0.1-0.1-0.1-0.2-0.2-0.3c-0.1-0.2-0.2-0.3-0.3-0.5c-0.1-0.1-0.2-0.3-0.3-0.4
					c-0.3-0.4-0.6-0.8-0.9-1.1c-0.1-0.1-0.2-0.2-0.3-0.4c0-0.1-0.1-0.1-0.1-0.1c-0.1-0.1-0.2-0.2-0.3-0.3
					C83.3,64.1,82.4,63.2,81.5,62.4z"/>
			</g>
		</g>
	</g>
	
		<radialGradient id="SVGID_00000153704387128206494510000002744542262578067882_" cx="-96.3936" cy="-739.5265" r="23.6404" gradientTransform="matrix(-1.7831 0.2133 -4.537978e-03 -0.1929 -114.0639 -62.0453)" gradientUnits="userSpaceOnUse">
		<stop  offset="0" style="stop-color:#FFFFFF"/>
		<stop  offset="1" style="stop-color:#F5F5F5;stop-opacity:0"/>
	</radialGradient>
	<path style="opacity:0.75;fill:url(#SVGID_00000153704387128206494510000002744542262578067882_);" d="M60.2,47.4
		c14.1-1.8,25.9,2.5,26.3,9.6c0.4,7.1-10.7,14.3-24.8,16.1c-14.1,1.8-25.9-2.5-26.3-9.6C35,56.5,46.1,49.2,60.2,47.4z"/>
</g>
</svg>
