<svg width="1812" height="316" viewBox="0 0 1812 316" fill="none" xmlns="http://www.w3.org/2000/svg">
<g clip-path="url(#clip0_165_17582)">
<mask id="mask0_165_17582" style="mask-type:luminance" maskUnits="userSpaceOnUse" x="0" y="0" width="1812" height="316">
<path d="M1811.52 0H0V315.27H1811.52V0Z" fill="white"/>
</mask>
<g mask="url(#mask0_165_17582)">
<path d="M109.42 102.69C109.37 100.17 109.35 97.6201 109 95.1301C108.45 91.2001 110.13 88.4601 113.5 86.6401C120.24 82.9901 126.19 78.2901 132.31 73.8101C136.11 71.0301 139.79 68.0801 142.58 64.2801C145.52 60.2701 145.06 57.8401 141 54.8201C136.89 51.7701 132.12 50.1001 127.17 49.0501C118.46 47.2001 110.04 44.4101 101.51 41.9701C99.1901 41.3101 98.1301 40.1101 97.5401 37.7301C94.6701 26.1001 90.1701 15.0601 83.8801 4.7801C80.3901 -0.919902 74.7701 -1.4899 69.5601 2.9401C67.5801 4.6201 66.0601 6.6501 64.5601 8.7401C59.1201 16.3001 54.5201 24.3601 49.8001 32.3501C48.1701 35.1101 46.1601 35.8701 43.0701 35.7301C33.1001 35.2701 23.1301 35.4401 13.1701 36.1901C10.0801 36.4201 7.0901 37.0801 4.3201 38.3901C-0.0999045 40.4801 -1.0099 43.1601 1.0501 47.4901C3.8001 53.2801 8.2901 57.8301 12.7701 62.2801C17.4801 66.9601 21.6701 72.1401 26.8101 76.4201C28.8401 78.1101 29.1301 79.9901 28.2501 82.4001C24.9301 91.5101 21.6301 100.62 20.3101 110.28C19.8701 113.52 19.1401 116.74 19.3401 120.03C19.6401 124.98 22.0201 127.23 27.0601 127.66C31.2601 128.02 35.3201 127.46 39.2701 126.06C46.3301 123.57 53.3101 120.88 59.8101 117.15C61.2601 116.32 62.7601 115.57 64.2601 114.81C67.4601 113.19 70.2601 113.48 73.0901 115.92C79.0301 121.07 84.4101 126.82 90.9701 131.31C93.4801 133.03 95.9701 134.74 98.8601 135.81C103.17 137.41 106.3 136.28 108.39 132.32C109.38 130.43 109.81 128.4 109.9 126.28C110.26 118.42 109.57 110.56 109.42 102.69Z" fill="#CCA1FF"/>
</g>
<mask id="mask1_165_17582" style="mask-type:luminance" maskUnits="userSpaceOnUse" x="0" y="0" width="1812" height="316">
<path d="M1811.52 0H0V315.27H1811.52V0Z" fill="white"/>
</mask>
<g mask="url(#mask1_165_17582)">
<path d="M1787.15 236.36C1786.52 233.92 1785.92 231.44 1785 229.1C1783.56 225.4 1784.56 222.35 1787.42 219.8C1793.14 214.7 1797.85 208.75 1802.78 202.98C1805.84 199.4 1808.74 195.68 1810.58 191.34C1812.52 186.76 1811.51 184.5 1806.86 182.5C1802.16 180.48 1797.13 179.95 1792.07 180.06C1783.17 180.26 1774.34 179.49 1765.47 179.08C1763.06 178.97 1761.75 178.05 1760.63 175.87C1755.17 165.22 1748.25 155.51 1739.76 146.95C1735.05 142.2 1729.45 142.94 1725.4 148.45C1723.86 150.54 1722.85 152.87 1721.87 155.24C1718.31 163.86 1715.7 172.77 1712.94 181.62C1711.99 184.68 1710.21 185.88 1707.17 186.46C1697.36 188.31 1687.7 190.76 1678.18 193.79C1675.23 194.73 1672.47 196.05 1670.07 197.97C1666.25 201.02 1665.98 203.84 1668.98 207.58C1672.99 212.58 1678.4 215.97 1683.79 219.28C1689.45 222.76 1694.72 226.83 1700.71 229.81C1703.08 230.99 1703.79 232.75 1703.49 235.3C1702.35 244.93 1701.24 254.56 1702.18 264.26C1702.5 267.52 1702.53 270.82 1703.48 273.97C1704.92 278.72 1707.75 280.36 1712.75 279.62C1716.92 279 1720.75 277.52 1724.26 275.26C1730.56 271.21 1736.73 266.99 1742.2 261.86C1743.42 260.72 1744.71 259.64 1745.99 258.56C1748.73 256.25 1751.53 255.88 1754.84 257.61C1761.8 261.25 1768.36 265.62 1775.78 268.47C1778.62 269.57 1781.43 270.65 1784.49 271.03C1789.06 271.59 1791.84 269.77 1792.96 265.44C1793.49 263.38 1793.44 261.3 1793.04 259.22C1791.6 251.48 1789.11 243.99 1787.15 236.36Z" fill="#F9AE7A"/>
</g>
<mask id="mask2_165_17582" style="mask-type:luminance" maskUnits="userSpaceOnUse" x="0" y="0" width="1812" height="316">
<path d="M1811.52 0H0V315.27H1811.52V0Z" fill="white"/>
</mask>
<g mask="url(#mask2_165_17582)">
<path d="M340.37 274.05C339.67 272.12 338.99 270.16 338.06 268.33C336.6 265.45 337.18 262.89 339.3 260.6C343.54 256.02 346.9 250.83 350.44 245.77C352.64 242.63 354.71 239.39 355.86 235.73C357.08 231.87 356.08 230.11 352.16 228.85C348.19 227.58 344.08 227.54 339.98 228.03C332.78 228.89 325.56 228.95 318.34 229.31C316.38 229.41 315.25 228.77 314.17 227.08C308.91 218.87 302.54 211.54 294.99 205.26C290.8 201.78 286.32 202.81 283.47 207.6C282.39 209.42 281.75 211.38 281.14 213.38C278.93 220.64 277.5 228.07 275.95 235.46C275.42 238.02 274.07 239.13 271.65 239.83C263.84 242.09 256.2 244.84 248.72 248.03C246.4 249.02 244.27 250.31 242.47 252.05C239.61 254.82 239.62 257.12 242.34 259.93C245.98 263.67 250.63 266 255.26 268.26C260.12 270.64 264.71 273.53 269.8 275.48C271.81 276.25 272.53 277.62 272.48 279.71C272.31 287.6 272.16 295.5 273.68 303.29C274.19 305.91 274.47 308.58 275.49 311.06C277.03 314.8 279.45 315.91 283.44 314.92C286.77 314.09 289.76 312.59 292.43 310.49C297.22 306.71 301.9 302.81 305.93 298.23C306.83 297.21 307.79 296.24 308.75 295.26C310.8 293.17 313.03 292.66 315.85 293.8C321.78 296.21 327.44 299.24 333.67 300.98C336.06 301.65 338.42 302.31 340.93 302.37C344.67 302.47 346.79 300.78 347.36 297.17C347.63 295.46 347.43 293.77 346.94 292.12C345.15 285.96 342.55 280.08 340.37 274.05Z" fill="#76EFFF"/>
</g>
</g>
<defs>
<clipPath id="clip0_165_17582">
<rect width="1811.52" height="315.27" fill="white"/>
</clipPath>
</defs>
</svg>
