<?xml version="1.0" encoding="utf-8"?>
<!-- Generator: Adobe Illustrator 17.0.0, SVG Export Plug-In . SVG Version: 6.00 Build 0)  -->
<!DOCTYPE svg PUBLIC "-//W3C//DTD SVG 1.1//EN" "http://www.w3.org/Graphics/SVG/1.1/DTD/svg11.dtd">
<svg version="1.1" id="Layer_1" xmlns="http://www.w3.org/2000/svg" xmlns:xlink="http://www.w3.org/1999/xlink" x="0px" y="0px"
	 width="999px" height="999px" viewBox="0 0 999 999" enable-background="new 0 0 999 999" xml:space="preserve">
<g>
	<polygon fill="#CFCA83" points="503.377,16.348 978.004,527.81 486.861,983.172 12.66,471.922 	"/>
	<path fill="#A4A254" d="M767.575,362.05l162.793,175.287L767.787,687.852c-15.244-64.356-52.077-93.781-8.892-106.059
		c51.865-14.819,51.865-4.87,22.227-36.837c-29.638-32.178-37.046-42.127-7.408-46.997c29.638-4.868,37.046-14.819,19.686-59.276
		C784.51,415.61,776.255,390.207,767.575,362.05L767.575,362.05z M609.648,834.56l-121.94,113.257L381.438,833.079
		c27.731-15.244,75.151-4.023,92.934,8.467c24.771,17.36,81.718,12.491,96.534-4.87C584.668,820.588,587.631,800.265,609.648,834.56
		L609.648,834.56z M240.659,681.291L60.291,486.952l200.691-186.294c-40.436,68.167-88.914,158.35-46.151,132.946
		c66.896-39.587,71.766,0,42.128,29.85c-29.638,29.638-66.896,56.735-9.951,51.865c56.948-4.869,74.306,0,46.998,29.638
		c-27.099,29.426-7.41,66.687,12.49,64.146C324.914,606.774,249.973,623.922,240.659,681.291z"/>
	<g>
		<path fill="#343737" d="M382.072,603.808c0,0-46.361,37.258-71.13,52.715c-24.98,15.454-24.98,15.454-24.98,15.454
			s-12.278-27.944-44.879,7.833c-32.603,35.564-32.603,116.22-32.603,116.22s53.984,30.697,81.928,5.929
			c27.944-24.768,42.339-38.74,95.053-6.139c52.502,32.601,27.522,30.907,27.522,30.907s86.795-42.763,173.592-11.643
			c86.795,30.907,140.991,19.689,164.275,1.06c23.286-18.632,54.196-23.29,68.168-15.457c13.972,7.623,24.981-6.349,17.148-32.601
			c-7.833-26.462,15.454,20.114,15.454,20.114s6.139-44.882-20.111-77.483c-26.462-32.601-55.89-103.942-78.964-111.563
			c-23.287-7.833-91.665-34.083-91.665-34.083l-30.91-12.281c0,0,32.604-13.972,41.919-27.944
			c9.314-13.972,9.314-15.454,9.314-15.454l21.592,52.502c0,0,32.602-52.502,35.777-72.615
			c2.966-20.111,15.456-68.166,15.456-88.489c0-20.112-18.632-49.538-18.632-49.538s7.833-24.768,4.657-44.88
			c-3.173-20.111-13.972-29.426-13.972-29.426l1.484-20.323l18.627-80.445c0,0,10.799-34.083-32.601-45.091
			c-43.397-10.796-306.75-57.371-306.75-57.371s-32.389-15.453-43.185,7.833c-11.009,23.287-52.713,207.677-52.713,207.677
			s-23.287,27.944-21.805,40.434c1.482,12.278-21.592,32.389-12.49,37.046c9.315,4.657,18.629,27.945,18.629,27.945
			s-16.935,12.489,3.176,32.601c20.112,20.111,21.594,23.287,21.594,23.287s0,37.258,23.287,69.649
			c23.287,32.601,54.406,54.194,54.406,54.194L382.072,603.808z"/>
		<path fill="#F7B926" d="M401.548,272.08c0,0-34.295-2.329-57.369,27.521c-22.865,29.849-38.953,18.418-38.953,18.418
			s-9.104,29.849,16.088,36.622c25.193,6.986,24.557,1.694,24.557,1.694s-15.454,10.373-32.812,6.139
			c-17.36-4.021-20.536-8.257-20.536-8.257s6.141,30.909,34.932,34.932c28.578,4.021,28.578,1.058,28.578,1.058
			s-29.636,18.418-40.857,16.3c-11.22-2.116,2.964,21.594,21.381,25.615c18.418,4.023,6.14,11.22,6.14,35.777
			c0,24.557,19.477,53.348,41.069,73.671c21.17,20.325,27.309,23.5,27.309,23.5s-9.95-44.882-13.125-59.277
			c-2.965-14.396-16.301-37.895-16.301-55.253c0-17.359,1.058-20.535-6.14-18.418c-7.197,2.118-6.139-11.22,1.06-21.592
			c7.197-10.162,17.358-19.265,5.081-20.323c-12.279-1.058-5.081-8.257,4.021-20.535c9.314-12.279,12.279-26.675,15.454-49.114
			C404.089,298.118,401.548,272.08,401.548,272.08z"/>
		<path fill="#F7B926" d="M418.271,285.839c0,0-6.139-63.51,14.397-67.743c20.536-4.021,32.813,19.476,37.896,24.557
			C475.643,247.946,418.271,285.839,418.271,285.839z"/>
		<path fill="#F7B926" d="M476.703,230.375c0,0-36.836-24.557-11.221-46.997c25.406-22.441,89.974-25.617,113.47,10.16
			c23.711,35.989,21.592,42.975,21.592,42.975s-31.752-27.52-63.508-27.52c-31.754,0-32.814,0-32.814,0s64.57,5.081,99.285,50.172
			c34.933,45.092,56.315,37.893,56.315,37.893s15.451,29.638-5.083,35.777c-20.536,6.141-26.674,13.337-16.3,14.396
			c10.162,0.847,8.042,8.045,2.963,9.104c-5.079,1.058-27.521,10.373-59.275-36.835c-31.754-46.998-56.313-80.868-70.707-79.81
			c-14.394,1.058-22.439,11.22-22.439,11.22L476.703,230.375z"/>
		<path fill="#F4C991" d="M401.125,443.342c0,0-10.161,36.836,16.089,68.591c26.675,31.755,42.975,34.93,42.975,34.93
			s65.625-4.234,91.243-32.813c25.612-28.79,36.833-64.567,36.833-64.567l16.304-54.195c0,0-8.049-36.835-19.479-52.29
			c-11.218-15.242-40.856-63.297-61.392-71.553c-20.32-8.257-26.672-10.373-33.661-5.081c-7.195,5.081-6.139-3.176-20.533,0.847
			c-14.397,4.234-30.698,13.338-37.896,21.594c-7.196,8.255-30.483,74.729-30.483,74.729l-1.058,53.135L401.125,443.342z"/>
		<path fill="#F7B926" d="M614.94,375.811c0,0-4.232,50.172-19.477,79.81c-15.453,29.638-25.615,44.034-25.615,44.034
			s22.44,9.314,27.519,7.197c5.295-2.116,6.139,14.396,0,22.441c-6.139,8.255,70.709,17.57,78.965-50.172
			c8.045-67.532-27.731-105.427-27.731-105.427L614.94,375.811z"/>
		<path fill="#F4C991" d="M426.529,542.628c0,0,2.116,73.461,23.499,66.474c21.593-7.198,37.893-33.873,37.893-33.873
			s-21.592,2.963-38.953-12.278C431.608,547.71,426.529,542.628,426.529,542.628z"/>
		<path fill="#00A2DB" d="M331.476,292.825c0,0,46.151-37.893,68.591-60.334c22.439-22.439,48.901-65.415,68.378-75.787
			c19.476-10.162,91.03-9.104,109.45,14.396c18.626,23.499,27.732,60.334,47.208,79.81c19.476,19.476,32.813,21.592,45.091,41.916
			c12.278,20.536,4.023,65.627,4.023,65.627l40.859-128.077c0,0,40.009-69.438-6.142-80.87
			c-45.938-11.22-311.83-61.392-311.83-61.392s-27.733-6.139-30.696,27.733C363.232,149.505,331.476,292.825,331.476,292.825z"/>
		<path fill="#F9DD1A" d="M703.854,315.477c-1.906,1.058-8.045,30.696,12.278,28.579c20.536-2.117,16.513-32.813,11.219-44.033
			C722.271,288.804,705.97,314.419,703.854,315.477z"/>
		<path fill="#F9DD1A" d="M724.387,363.533c0,0,31.754,19.475,12.281,93.146c-19.477,73.671-27.734,98.229-27.734,98.229
			l-1.907-100.345l-9.312,59.487c0,0-12.278-37.894-7.199-69.648c5.292-31.755,12.278-56.312,13.337-61.394
			c1.057-5.079,15.454-17.358,15.454-17.358L724.387,363.533z"/>
		<path fill="#FFFFFF" d="M548.253,555.755c-8.043,4.021-74.727,53.348-89.967,60.334c-15.457,7.198-5.083,20.536,5.079,35.989
			c10.162,15.241,15.241,20.323,15.241,20.323s38.953-44.035,56.313-76.636C552.489,562.952,548.253,555.755,548.253,555.755z"/>
		<path fill="#FFFFFF" d="M411.075,586.451c0,0,6.139,12.278,14.397,20.533c8.255,8.258,8.255,9.105,8.255,9.105
			s-34.719,32.813-37.684,52.287c-3.174,19.476-3.174,19.476-3.174,19.476s-1.905-56.31,6.139-75.786
			C407.053,592.59,411.075,586.451,411.075,586.451z"/>
		<path fill="#0097D2" d="M425.472,637.681c0,0-11.221,24.556,5.08,29.638c16.513,5.082,19.476,7.195,18.417-9.103
			C447.909,641.704,425.472,637.681,425.472,637.681z"/>
		<polygon fill="#0097D2" points="431.608,690.818 432.668,783.117 419.333,796.242 397.951,706.271 417.214,669.435 		"/>
		<path fill="#FFFFFF" d="M443.889,686.795l4.02,56.31l31.757-59.273l-23.499-22.652c0,0,8.258,19.476-2.119,19.476
			C443.889,680.657,443.889,686.795,443.889,686.795z"/>
		<path fill="#00A2DB" d="M544.234,601.904c0,0,63.508,9.102,123.843,11.218c60.333,2.119,87.007-6.139,59.273,4.026
			c-27.519,10.371-43.82,16.51-30.695,18.416c13.337,2.116,21.592,5.08,1.06,17.36c-20.323,12.275-38.953,10.371-23.499,21.589
			c15.454,11.221,22.439,5.083,14.397,27.734c-8.258,22.439-6.142,31.544-6.142,52.077c0,20.536,0,71.767-48.267,52.29
			c-48.055-19.476-167.876-21.595-191.375-5.079c-23.496,16.297-16.301,11.218-16.301,11.218s49.114-79.809,71.554-125.96
			C520.735,640.645,544.234,601.904,544.234,601.904z"/>
		<path fill="#00A2DB" d="M747.886,626.463c0,0-19.477,6.136-14.397,14.182c5.295,8.258,3.179,8.258-12.278,19.476
			c-15.241,11.431-20.323,0-15.241,15.456c5.08,15.241-7.198,41.916-7.198,71.554c0,29.848-19.474,69.647,19.476,62.449
			c38.953-7.196,37.893-38.74,63.508-32.601c25.618,6.139,34.72,9.102,37.896-1.057c2.963-10.374-5.292-10.374-17.573-42.976
			c-12.275-32.813,6.139-8.258,23.711,17.36c17.36,25.615,18.42,26.672,18.42,26.672s-13.34-30.907-35.992-75.786
			C785.779,656.098,747.886,626.463,747.886,626.463z"/>
		<path fill="#00A2DB" d="M386.729,621.381c0,0-18.417,44.882-4.021,95.053c14.395,50.17,29.424,91.242,29.424,91.242
			s-48.9-55.256-90.817-37.896c-41.916,17.36-54.193,16.301-54.193,16.301s12.278-62.449,31.543-91.027
			c19.476-28.791,50.172-49.114,57.369-55.253C363.232,633.658,386.729,621.381,386.729,621.381z"/>
		<path fill="#00A2DB" d="M289.56,685.736c0,0-24.557-8.042-41.069,21.595c-16.301,29.635-28.58,83.831-28.58,83.831
			s29.638-20.323,35.777-8.045c6.139,12.281,15.454-7.195,8.257-16.513c-7.199-9.102,0-16.297,0-16.297l11.22-23.499L289.56,685.736
			z"/>
		<path fill="#343737" d="M485.17,355.7c0,0-22.652-21.805-39.165-14.608c-16.301,7.409-17.57,8.045-17.57,8.045
			s18.842-26.251,33.445-17.784C476.49,340.034,485.17,355.7,485.17,355.7z"/>
		<path fill="#343737" d="M528.355,381.95c0,0,13.337-18.84,29.216-2.329c15.878,16.301,16.51,20.112,16.51,20.112
			s-23.284-13.973-32.389-12.279C532.59,389.359,528.355,381.95,528.355,381.95z"/>
		<path fill="#343737" d="M478.397,375.388c0,0-0.638-23.921-23.077-20.111c-22.652,3.598-21.383,9.102-21.383,9.102
			s18.842-3.598,25.618,4.235C466.116,376.445,478.397,375.388,478.397,375.388z"/>
		<path fill="#343737" d="M505.703,429.794c0,0-14.606-7.41-20.533-4.234c-6.139,2.965-6.139-9.738,1.691-9.738
			C494.907,415.822,505.703,429.794,505.703,429.794z"/>
		<path fill="#343737" d="M483.898,425.983c0,0-2.539-5.504-9.737-0.635c-7.411,4.868,0,5.504,2.963,5.504
			C480.3,430.853,483.898,425.983,483.898,425.983z"/>
		<path fill="#343737" d="M443.042,452.022c0.635,0.636,31.754-11.009,51.865,2.541c20.11,13.336,33.448,23.074,33.448,23.074
			s-22.014,24.346-38.95,25.617c-17.148,1.269-33.026-9.103-43.4-24.346c-10.375-15.243-12.068-28.579-12.068-28.579
			S442.405,451.387,443.042,452.022z"/>
		<path fill="#FFFFFF" d="M457.648,461.76c0,0,0,11.643,21.383,14.608c21.38,3.174,29.848,4.868,29.848,4.868
			s-20.111-15.03-32.389-16.935C464.425,462.395,457.648,461.76,457.648,461.76z"/>
		<path fill="#FFFFFF" d="M464.425,485.047c0,0,5.926,7.833,16.301,8.467c10.371,0.636,15.876-1.905,15.876-1.905L464.425,485.047z"
			/>
		<path fill="#F1A264" d="M491.731,542.205c20.536-4.445,45.942-12.702,59.701-28.155c25.612-28.79,36.833-64.567,36.833-64.567
			l16.304-54.195c0,0-8.049-36.835-19.479-52.29c-4.019-5.504-10.583-15.665-18.417-26.462
			c6.776,35.353,11.008,49.961,23.499,67.956c13.759,19.476-25.406,36.835-31.12,81.715
			C554.817,497.75,517.981,527.387,491.731,542.205z"/>
		<path fill="#343737" d="M531.956,362.474c0,0,30.482-20.111,44.456-1.27c14.185,19.054,13.547,20.112,13.547,20.112
			s-28.791-24.346-42.129-21.17C534.494,363.109,531.956,362.474,531.956,362.474z"/>
		<path fill="#6CC4E3" d="M352.646,240.324c0,0,21.593-132.522,48.691-136.545c27.098-3.81,132.313,19.476,132.313,19.476
			s-76.001,13.761-99.288,37.047c-23.499,23.498-42.763,33.236-42.763,13.76C391.599,154.587,352.646,240.324,352.646,240.324z"/>
		<path fill="#6CC4E3" d="M599.912,150.565c0,0,5.927,56.522,31.12,75.999c25.4,19.476,46.783,29.216,48.689,44.88
			c2.116,15.455,50.808-103.308,7.83-109.236C644.791,156.492,599.912,150.565,599.912,150.565z"/>
		<path fill="#6CC4E3" d="M675.907,625.825c0,0-111.141-17.569-128.498,5.717c-17.569,23.499-72.188,148.189-72.188,148.189
			s107.118-15.666,132.521,1.904c25.403,17.57,23.29-17.57-13.55-27.309c-37.046-9.739-5.926-19.476,13.55-19.476
			c19.477,0,54.619,1.907,17.57-11.643c-37.046-13.76-58.426-17.573-29.213-25.403c29.213-7.833,52.503-15.454,29.213-23.29
			C601.815,666.685,675.907,625.825,675.907,625.825z"/>
		<path fill="#6CC4E3" d="M391.599,773.803c0,0-34.93-52.502-31.12-85.735c4.023-33.026,7.833-37.049,7.833-37.049
			s-38.953,27.309-54.619,60.545c-15.454,33.023,5.928,33.023,17.571,17.573c11.643-15.669,15.666-4.023,13.761,9.737
			c-2.118,13.547,7.621,11.643,19.477,15.453C376.146,758.349,391.599,773.803,391.599,773.803z"/>
		<path fill="#F9DD1A" d="M383.978,296.635c0,0-35.142,11.856-41.07,29.214c-5.715,17.571-19.476,17.571-19.476,17.571
			s5.928,7.833,29.214,0c23.499-7.833,7.833,27.309-9.738,29.214c-17.571,2.118-9.738,9.738,4.023,9.738
			c13.548,0,23.287,27.309,7.833,27.309c-15.666,0-7.833,31.12,0,60.545c7.621,29.214,33.025,60.334,33.025,60.334
			s-33.025-77.903-25.404-95.475c7.833-17.571,7.833-29.214,7.833-29.214s-1.905-25.404,9.738-42.976
			C391.599,345.539,383.978,296.635,383.978,296.635z"/>
	</g>
</g>
</svg>
