<?xml version="1.0" encoding="utf-8"?>
<!-- Generator: Adobe Illustrator 17.0.0, SVG Export Plug-In . SVG Version: 6.00 Build 0)  -->
<!DOCTYPE svg PUBLIC "-//W3C//DTD SVG 1.1//EN" "http://www.w3.org/Graphics/SVG/1.1/DTD/svg11.dtd">
<svg version="1.1" id="Layer_1" xmlns="http://www.w3.org/2000/svg" xmlns:xlink="http://www.w3.org/1999/xlink" x="0px" y="0px"
	 width="999px" height="999px" viewBox="0 0 999 999" enable-background="new 0 0 999 999" xml:space="preserve">
<g>
	<path fill-rule="evenodd" clip-rule="evenodd" d="M540.621,27.327c9.198,4.597,16.687,13.27,21.137,22.244
		c3.486,3.417,4.674,7.794,5.565,12.245c-4.153,6.297,1.481,12.749,2.819,18.908c2.221,12.757,6.297,24.847,9.417,37.238
		c2.448,32.861,11.5,64.306,7.27,98.493c-6.155,6.607,1.854,12.766,2.221,19.437c0.15,7.493,4.454,15.206,0.521,22.252
		c1.111,2.896,1.933-0.74,3.344-0.513c0.737,2.815,0.59,7.046,2.226,10.007c2.372-4.003,5.484-9.641,10.602-10.601
		c-2.002,1.408-3.189,3.702-2.222,5.557c2.591,2.522,5.858,0,8.901,0c0.288,2.522-0.599,8.087,4.45,6.68
		c2.221-0.374,1.998,2.221,2.742,3.336c-0.672,2.742,0.891,4.451,2.814,6.151c1.713-1.701,3.491-4.515,2.75-7.778
		c4.223-1.042,5.707,6.818,10.602,7.192c2.819,1.188,1.561,4.816,1.114,6.671c-1.114,0.448-0.374,1.48-0.59,2.221
		c2.596,0.968,5.931,0.228,7.79,2.823c0.366,4.378-3.633,6.379-6.679,8.307c1.928,3.042,9.124-1.701,7.785,4.45l1.11,1.114
		c2.751-3.335,3.19-9.047,7.795-11.643c1.773,2.522-0.745,5.932-1.111,8.901c0.289,5.484,0.591,10.976,4.447,14.979
		c1.708-1.034,4.079-0.293,6.158-0.521c0,3.043-2.303,5.044-1.708,8.315c4.149-1.261,10.386-3.417,12.83-8.315
		c1.189,4.605-0.44,9.348-2.222,13.352c1.706,2.083,3.93-1.334,6.078-1.701c1.713,0.22,3.715-0.448,5.044,0.594
		c-1.631,4.223-8.9,7.566-6.154,12.236c2.673-1.042,5.935-0.375,8.905-0.593c1.329,3.262-1.266,6.232-2.751,8.9
		c-0.891,0.594-2.221,1.115-2.221,2.221c4.523,2.157,11.272-4.588,13.867,1.709l-7.79,5.565c1.713,3.336,9.49,4.223,6.68,9.422
		l-8.905,0.594c6.457,6.745,10.537,15.279,9.495,24.473c-1.11,2.823-4.446,1.635-6.154,1.115l-6.082-6.159
		c-0.301,5.118,5.269,11.943,0.517,16.687c-2.147,0.375-3.486-1.106-4.45-2.742c-1.627,1.928-3.267,6.451-6.676,3.856l-3.331-4.45
		c-3.642,6.159-1.412,15.727-8.312,19.51c1.192-5.044-1.933-9.568-3.93-13.946c-2.152,3.565-0.077,9.349-3.855,11.716l-3.345-1.106
		c0.602,5.557,2.97,11.862,4.455,17.801l7.195,23.887l23.961,72.907c8.896,28.996,13.79,59.701,19.428,90.121l8.901,76.177
		l10.012,123.488l3.34,68.976c-0.073,7.282,0.589,14.759-2.742,20.624c0.143-0.805-0.817-1.105-1.115-1.707
		c-5.561,6.085-12.094,9.868-19.506,11.121c-2.302,5.801,2.819,14.693-4.45,18.394c-11.199,9.724-25.448,19.966-39.459,14.987
		c-5.639-7.42-7.347,4.523-12.24,5.557c-24.547,22.78-61.861,14.986-93.458,20.625c-9.869-0.878-19.359-2.742-29.521-2.823
		c3.563-0.285,7.712,0.976,10.6-1.098c-5.78-2.824-13.27-8.901-14.457-15.581c-1.11-5.199-0.443-11.057,0.517-16.102l-1.11-1.106
		c-11.276-0.456-22.105,0.227-31.673,3.864l-1.701,3.328l1.11,19.509c-0.744-5.337-0.594-11.121-2.225-16.174
		c-13.794,21.52-39.537,23.358-63.94,23.96c-25.218-0.602-47.246-8.754-69.571-16.166c-5.492,0.147-10.016-2.001-14.466-4.458
		l6.155-32.78l-4.45-2.815c-18.021-0.301-35.969-4.085-53.994-1.123c-20.621-46.578-8.01-106.94-4.45-157.381
		c3.486-33.163,1.558-68.538,8.9-100.139c11.35-68.764,20.918-138.18,38.939-204.188c6.306-22.105,12.981-44.064,26.182-63.428
		c-7.339,0.594-9.861-5.703-12.237-11.121c13.571-40.794,28.927-80.928,38.349-123.496c7.786-29.745,10.682-61.564,22.842-89.528
		c8.087-20.396,18.843-39.606,29.452-58.969c10.605-20.91,15.499-44.797,34.488-61.785c12.31-21.43,34.118-30.778,57.852-27.809
		c2.151,1.481,5.418,1.408,6.68,3.93L540.621,27.327L540.621,27.327z"/>
	<path fill-rule="evenodd" clip-rule="evenodd" fill="#E4E7EF" d="M451.093,467.905l-7.786,225.861
		c-1.782,40.859-4.45,81.515-12.835,119.558c15.312-81.001,9.869-169.829,11.13-251.962c3.217-54.356,2.025-114.831,21.137-166.372
		C456.361,418.284,452.427,442.61,451.093,467.905L451.093,467.905z M356.524,566.927c5.041-62.532,21.882-120.24,47.839-174.158
		C380.929,447.727,366.536,506.478,356.524,566.927L356.524,566.927z M330.339,563.583l-3.852,18.916
		c7.339-58.595,25.583-119.337,46.135-175.785l3.336-6.159L330.339,563.583L330.339,563.583z M522.819,678.187
		c6.603,52.061,6.452,110.436,2.222,163.54c1.184-83.206-3.291-162.255-10.012-245.363c0.37-18.078-0.887-37.003,1.114-54.503
		L522.819,678.187L522.819,678.187z M548.411,451.739c7.078,56.65,12.736,110.64,11.118,167.999
		c-2.498-83.035-12.933-160.978-27.22-242.54C540.101,401.002,543.883,426.59,548.411,451.739L548.411,451.739z M468.3,336.623
		c-3.112,5.191-7.196,10.007-9.417,15.573C457.769,346.411,463.11,339.959,468.3,336.623L468.3,336.623z M395.659,399.221
		c16.239-9.657,39.768-88.227,54.839-73.208c-2.383,7.835-30.151,32.487-24.473,39.533c3.54-5.378,28.537-41.063,37.303-32.267
		c-9.567,7.42-18.021,18.916-17.797,31.152c5.04-10.975,11.122-22.983,22.248-30.037c1.932-0.521,2.97,1.188,4.45-0.586
		c-2.372-1.936-5.487-2.156-8.38-2.75l12.831-5.044c-6.448,4.743-2.746,16.988-12.237,21.731c-1.037,5.118-5.194,9.723-2.819,15.581
		c6.998-7.68,9.064-23.009,20.621-27.305c0.199,3.173-3.816,10.61,2.225,10.61c-6.598,9.421-8.456,22.178-6.155,33.902
		c4.227-10.016,2.746-22.472,7.791-32.267c3.035,3.783,4.597,10.682,10.605,12.236c2.897-6.379-0.817-14.986,7.196-20.022
		c0.98,23.252-7.758,44.479-8.307,68.456c0.517,0.374,0.814,1.342,1.627,1.115c3.563-18.02,3.783-37.897,9.495-54.519
		c1.017,6.086,5.32-5.215,8.896-8.379c-0.517,4.678-2.222,13.945,3.86,17.28c3.678,1.229,3.043-4.645,5.041-6.15
		c1.248,8.274,13.151,14.995,21.141,13.945c0,16.467,20.026,26.401,14.462,45.024c-3.633,12.31-13.489,27.589-3.332,40.045
		c0.517-5.711-1.412-11.789,1.632-17.207c0.959,1.855,0.37,4.376,1.7,6.085l1.635-1.635c4.674-20.023,30.933-37.971,13.945-60.076
		c-5.862-8.754-19.14-15.873-13.945-27.816c0.073,6.525,5.712,11.276,10.012,15.58c11.003-5.776,9.336,15.824,11.13,20.022
		l9.49-6.159c-2.225,8.608,1.339,17.435,3.34,25.595c17.195,56.814,35.303,113.367,52.29,170.22h0.521l-17.207-67.268
		L595.14,398.334c-0.15-1.928-2.078-3.043-2.226-4.971c3.035,2.075,9.044,0.968,6.672,7.192c3.934,8.754,14.165-3.336,17.285,6.159
		c1.933,8.087-4.752,12.978-9.499,17.802l1.118,1.107l12.831-7.787l32.264,94.572c6.085,19.877,10.536,40.501,13.355,61.711
		c0.366-34.496-10.688-65.633-20.031-96.792c-3.889-10.846-24.058-55.488-18.396-62.827c4.686,11.342,9.263,1.628,12.24-4.45
		c0.298,8.307-1.932,15.727-6.085,22.252c1.106,8.38,9.938-6.721,12.761-10.015c18.899,67.032,42.015,132.176,52.289,201.38
		c10.988,93.328,24.449,187.908,23.363,282c-7.193,2.222-12.387,9.056-20.023,10.017c-5.194-29.737-7.867-61.565-10.536-92.865
		l-25.07-225.333c-0.96-4.075,0.371-9.063-1.631-12.757l7.2,92.335l22.837,220.818l1.636,1.105l1.708,17.298
		c-3.783,1.18-8.53-0.082-12.24,1.106c3.042,3.937,8.229,3.856,12.24,4.45c7.145,14.231-21.116,26.63-32.262,27.809
		c-9.129-51.843-4.829-109.322-12.242-161.905c-11.633-90.488-39.995-177.299-52.289-267.022c-0.598,20.764,4.67,40.42,8.303,60.085
		c18.269,85.386,34.745,168.144,45.098,254.776c0,31.146,1.632,61.558,4.971,91.221c-2.672,5.858-3.559,12.399-7.195,17.802
		l0.52-8.299c-1.412,1.854-1.704,5.183-3.865,7.191c-3.701,17.802-23.727,19.648-36.709,26.702c2.002,1.481,4.08-0.301,6.082-0.52
		c-14.368,4.825-80.762,11.854-95.093-8.892c-4.22-8.763,0.821-17.81,0-27.305c-2.222-27.963-0.069-57.781-3.931-85.077
		c-0.96,31.006,0,61.89,0,92.863c-10.971-2.823-23.655,0.073-33.894,3.938V676.477c-3.637,15.866-2.226,33.748-3.34,50.663
		l1.114,223.624c-27.312,43.829-108.789,17.851-145.751,3.337c0.378-7.038,3.641-15.198,5.565-22.839
		c14.991-81.115,18.31-162.531,22.772-244.777c3.263-53.177,13.945-103.318,27.296-152.419l-0.594-0.521
		c-38.227,109.25-32.581,230.597-43.91,344.899c-3.12,13.358-2.819,28.182-6.68,41.159c-11.402-7.599-45.049-5.67-57.851-1.692
		c-9.417-28.329-7.123-62.231-6.679-93.986c6.004-69.749,11.276-137.506,23.366-206.418l25.592-140.181
		c6.822-28.265,13.94-56.521,28.333-81.742C363.741,394.966,394.747,405.087,395.659,399.221L395.659,399.221z"/>
	<path fill-rule="evenodd" clip-rule="evenodd" fill="#E4E7EF" d="M526.159,27.839c-5.638,5.866-15.95,1.708-20.026,10.016
		c-9.792-2.075-14.32,10.235-23.367,8.38c-12.761,7.64-14.762,22.406-13.351,36.123c1.749-0.122,10.967-11.488,12.831-13.351
		l10.536-2.742c-21.886,12.83-17.061,37.824-25.592,56.74c-4.153,16.313-14.238,30.192-17.801,46.733
		c-3.335,4.223-7.863,8.079-10.015,12.749l2.23,2.229c-10.313,32.267-4.751,71.124-13.355,104.059
		c-4.971,25.596-11.866,50.297-20.026,74.55l0.594,0.521c20.027-45.545,30.042-95.24,30.042-149.091l1.11-10.015
		c-0.586,64.176-3.36,139.206-45.037,192.366c-0.963-0.911-3.596-0.968-4.662-0.179c-13.753-3.222-27.675-6.094-42.645-6.379
		c-2.522-2.083-2.595-5.199-3.934-7.794c18.546-42.868,33.899-87.071,40.058-135.138c0.813,4.451-1.635,8.16,0,12.237
		c8.604-42.356,18.912-84.036,38.418-121.869C443.722,105.294,467.646,8.346,526.159,27.839L526.159,27.839z M427.137,200.289
		l-7.786,42.283l-8.905,70.091c-1.778,12.538-5.337,24.399-8.901,36.197c1.635-13.652,5.638-28.558,7.27-43.39
		c5.561-65.348,17.952-127.799,43.91-184.694l4.45-19.51C454.282,137.244,433.072,165.654,427.137,200.289L427.137,200.289z"/>
	<path fill-rule="evenodd" clip-rule="evenodd" fill="#FFFFFF" d="M549.518,39.555c4.23,4.231,7.273,8.909,8.38,14.465
		c-6.224-12.383-19.949-6.15-30.627-8.379c-14.69-0.521-23.811,15.653-37.829,18.395c-6.085,0.814-11.276,4.157-15.576,9.421
		c-0.521-8.526,2.225-18.021,8.38-24.993c3.56,0.366,8.229-0.301,11.646-2.229v-1.708c11.349-1.334,18.688-12.236,31.743-9.422
		c1.037-1.399,0.968-2.22-0.594-3.336h-0.521C533.722,24.357,541.878,35.333,549.518,39.555L549.518,39.555z"/>
	<path fill-rule="evenodd" clip-rule="evenodd" fill="#8B6B4D" d="M546.771,48.464l0.521,1.627
		c14.986,12.391,23.509,29.078,21.138,48.441c-0.81,5.63-5.041,9.861-4.446,16.093c3.408,3.702,6.896,5.858,7.786,10.602
		c1.855,12.903-13.938,16.093-20.543,24.994c-3.336,3.718-7.123,7.2-8.381,11.723c-5.564-20.917,11.565-33.821,12.236-52.883
		c4.447,14.018,0,29.371-8.31,40.647l0.521,0.513c18.249-12.53,9.499-35.009,10.016-53.917c6.374-5.858,8.604-14.173,6.676-22.846
		c-0.22-2.229-1.485-4.011-3.336-5.564c0.892,8.973,2.002,21.804-7.786,26.702c1.482-4.076,2.148-10.683-0.52-14.466
		c-2.823,1.261-1.412,5.199-3.34,7.274c-1.482-2.815-1.339-6.753-4.45-8.388c-0.969,3.938-0.224,8.535-2.82,11.724
		c-6.821,0.155-3.038-9.714-4.97-13.351c0.521-1.335,1.631-2.376,1.631-3.93c-3.482-0.814-5.411,4.223-7.192,6.671l-2.225,7.794
		c-2.222-3.042-2.222-6.899-4.454-10.015c-1.848,1.261-3.187,3.71-3.336,6.158c-1.335-1.041-2.893-3.938-5.565-2.822
		c-1.7,6.159-5.927-0.293-8.896-0.521c-2.966-8.746,2.595-16.833,8.307-23.358c-4.602,0.366-10.309,5.118-12.236,10.007
		c-2.303,4.752-2.97,12.839,0.594,17.216c-5.268,5.63-3.71,14.164-5.565,21.128c-5.711-4.295-4.377-12.456-6.159-18.907
		c-1.852,3.856-3.857,8.307-2.222,12.83l3.93,8.307c-7.566,21.958,16.54,33.527,23.888,50.662c1.481,3.116-0.379,6.297-0.524,9.414
		c-6.452-14.165-22.919-25.067-27.293-40.566c-3.783,14.311,14.093,22.471,20.62,33.894c2.67,5.337,4.447,13.652,0.518,18.916
		c-9.121-16.988-35.453-12.163-45.615-29.444c0.818-10.015,10.089-16.541,10.605-26.702c2.001-21.886,2.001-46.065,23.366-60.678
		c8.527-2.961,14.686-11.944,22.773-16.093C528.975,50.164,539.063,51.426,546.771,48.464L546.771,48.464z M510.579,170.251
		c-10.235-5.117-21.439-8.901-28.927-19.429c-3.413-5.638-2.893-12.912-0.521-18.916
		C478.836,150.221,498.342,160.39,510.579,170.251L510.579,170.251z"/>
	<path fill-rule="evenodd" clip-rule="evenodd" fill="#B0D1DA" d="M562.868,59.586c-0.438-1.115-4.295-2.522-2.221-4.45
		L562.868,59.586L562.868,59.586z"/>
	<path fill-rule="evenodd" clip-rule="evenodd" fill="#C59677" d="M535.06,94.595c0.66,0.74,2.071-0.073,2.812-1.115
		c0.521,7.867,14.47-1.701,13.355,6.159c-2.815-2.815-6.005-1.627-9.496-1.106l-2.224,2.221c2.155,0.22,2.444,2.929,5.187,2.856
		l2.033,0.049l1.164-2.905l1.627,3.336c0.374-0.667,1.041-0.594,1.709-0.594c-0.444,15.8-7.867,28.704-18.917,40.053
		c-9.567,2.23-15.718-4.003-22.841-7.786c-7.42-6.086-12.534-13.278-11.647-22.773c1.114-0.594,2.595,1.188,4.451,0.521
		c-0.073-8.755-0.224-18.843,2.225-27.223c1.115,0.374,2.742,1.635,3.856,0.521v-1.636c1.778,1.929,4.817,2.897,7.266,1.636
		c0.744-0.594,0.671-1.636,1.64-2.221l2.814,2.815c-2.741,1.481-8.01-0.822-10.604,2.221c5.414,3.49,14.799-0.651,19.249,5.28
		c1.339,0.146,2.254,0.211,2.481-1.424c0-3.783,2.226-8.079,3.331-12.236L535.06,94.595L535.06,94.595z M537.139,125.105
		c1.367,1.123,2.493,0.846,2.095,2.693c-0.37,0.562-2.192,1.587-2.481,2.14c-2.961,5.679-8.124,4.727-12.843,3.588
		c-3.078-2.238-7.392-6.257-6.769-10.276c5.679,0.586,11.292-0.968,13.408,1.538C532.843,125.088,535.085,125.3,537.139,125.105
		L537.139,125.105z M537.024,118.376c-0.59,0.741-2.05,0.96-2.794,1.261l-1.4-1.676l2.229-1.114
		c-0.379-6.599,0.069-12.904,3.931-17.802C536.39,105.277,537.916,111.477,537.024,118.376L537.024,118.376z M528.38,99.639
		c-2.371,1.928-3.486-2.449-5.561-2.815c-0.297,2.815-3.267,1.261-4.971,1.709c-0.817-0.895-0.46-1.408-2.017-1.481
		c-2.075,1.261,1.428,1.7-1.322,2.587c-1.709-1.042-3.722-2.441-3.368-4.882c1.395-0.569,4.064-0.496,5.617-0.626
		C521.428,93.757,526.322,95.465,528.38,99.639L528.38,99.639z M530.694,117.929c0,0-0.288-1.717-2.29-1.855
		c-1.997-0.147-3.429-0.147-3.429-0.147s0.284,1.717,2.001,1.579C528.404,118.221,530.694,117.929,530.694,117.929L530.694,117.929z
		"/>
	<polygon fill-rule="evenodd" clip-rule="evenodd" fill="#C59677" points="523.409,88.517 523.931,86.288 527.859,90.145 
		523.409,88.517 	"/>
	<path fill-rule="evenodd" clip-rule="evenodd" fill="#7D5C3E" d="M571.965,198.377c-1.664-3.32-3.1-6.745-4.052-10.324
		c4.971-3.263,8.306-8.681,10.02-13.352C581.976,184.335,580.82,197.222,571.965,198.377L571.965,198.377z"/>
	<path fill-rule="evenodd" clip-rule="evenodd" fill="#B7C0CA" d="M585.715,206.969l-1.705,13.351
		c-2.611-5.89-6.366-11.609-9.71-17.573c19.286-12.831,2.506-52.298,4.149-70.84c-1.929-7.045-5.049-13.579-11.126-18.916
		c2.002-5.41,4.446-10.683,5.04-16.687C580.153,131.834,584.6,168.697,585.715,206.969L585.715,206.969z"/>
	<path fill-rule="evenodd" clip-rule="evenodd" fill="#7D5C3E" d="M465.555,136.357l7.79-18.916l-4.446,13.872L465.555,136.357
		L465.555,136.357z M464.964,160.838c-4.975,1.399-9.198,4.589-13.354,7.778l8.38-20.022
		C459.92,153.418,462.146,157.201,464.964,160.838L464.964,160.838z"/>
	<path fill-rule="evenodd" clip-rule="evenodd" fill="#AC4950" d="M535.08,126.422c-3.088,3.255-7.42-0.667-11.26-0.585
		C528.661,123.42,530.406,129.173,535.08,126.422L535.08,126.422z"/>
	<path fill-rule="evenodd" clip-rule="evenodd" fill="#DF9297" d="M534.755,129.523c-0.936,1.155-2.055,5.434-9.897,2.335
		l-2.953-2.961c4.125-1.708,8.176,3.515,12.306,0L534.755,129.523L534.755,129.523z"/>
	<path fill-rule="evenodd" clip-rule="evenodd" fill="#7D5C3E" d="M567.913,163.571l0.517,0.594c3.042-2.295,5.049-6.078,6.68-9.495
		c2.303,8.836,1.33,20.405-5.561,26.71c-7.347,6.525-18.025,1.701-24.997-1.115c8.01-0.373,16.171-3.116,20.547-10.015
		c-5.568,1.782-12.094,4.523-18.916,5.044h-1.109c6.527-4.45,14.758-7.192,18.911-15.06h-1.632
		c-6.528,4.451-13.798,7.046-20.621,10.609c4.15-10.682,19.809-12.163,26.183-23.366c-5.415,1.782-10.532,7.42-16.687,8.9
		c5.483-6.598,16.165-14.238,23.883-22.251C578.303,145.111,569.992,153.638,567.913,163.571L567.913,163.571z"/>
	<path fill-rule="evenodd" clip-rule="evenodd" fill="#C59677" d="M526.542,147.234c-2.222,14.661,1.61,18.843,5.768,24.726
		l3.34,3.856c-2.078,2.001-7.119,2.521-7.27,6.671c1.559,1.261,5.045,0.667,7.27,0c8.53,2.229,15.95,7.054,25.593,6.68l-6.16,13.351
		c-14.091-4.971-29.447-6.972-41.163-17.801c1.631-3.637,3.783-7.127,3.34-11.651c2.143-4.597,4.223-9.86,3.331-15.051
		c-3.038-7.119-7.933-13.579-12.757-20.031C514.509,142.434,517.868,147.609,526.542,147.234L526.542,147.234z"/>
	<path fill-rule="evenodd" clip-rule="evenodd" fill="#6A4633" d="M541.73,163.571c-0.667,2.75-3.262,5.419-1.63,8.389l-1.709,1.626
		c-5.113-7.119-13.592-15.507-8.547-25.449c1.627-2.668,6.916-4.369,9.146-6.817C536.911,147.039,535.649,158.161,541.73,163.571
		L541.73,163.571z"/>
	<path fill-rule="evenodd" clip-rule="evenodd" fill="#B7C0CA" d="M506.133,178.037c4.446,1.635,0.147,10.463,6.158,7.794
		c11.269,12.09,27.438,14.759,42.27,19.502c1.778,5.94,6.749,1.636,9.422,6.68l1.114-1.114c-1.265-2.303-3.706-4.076-5.568-6.159
		c1.932-5.337,4.084-10.602,5.568-16.093c5.045,23.879,29.074,42.055,20.617,69.497l-3.336,8.901
		c-2.148-0.96-3.856-6.598-7.27-3.856c-0.818,1.335,1.7,3.344,0,4.971c-4.45-5.044-14.096-1.188-15.58-10.015
		c-0.956-1.261,0.374-3.482-1.632-4.45c-5.858,2.001-8.457,8.16-10.007,13.351c-3.039-2.075-3.413-5.191-3.93-8.307
		c-3.49,1.261-5.569,4.971-7.79,7.794l-3.341,7.787c-2.151-2.669-5.861-3.491-8.899-2.229c-1.709,1.708-4.602,0.895-4.968,3.856
		c3.336,0.447,3.336,4.304,5.558,6.158c-2.299,0.513-2.369,2.962-2.222,4.963c-1.777-1.399-2.449-5.785-5.564-3.336
		c-2.295,0.448-2.075,2.969-2.815,4.45c-5.049-1.18-1.038-13.27-7.786-8.298l-6.086,8.298c-1.111,0.375-2.225-2.514-3.336-3.848
		c-4.454,2.367-2.229,9.486-2.819,12.749l-7.196,0.594c1.855-12.977-3.856-26.254,0.52-38.939c4.674,4.377,9.792,9.275,16.17,7.794
		c-3.267-4.605-8.905-6.679-12.835-9.495c-1.855-1.561-3.856-3.783-2.221-6.085c7.489,3.043,17.721,6.085,25.588,1.635
		c-5.117-3.783-13.721-1.709-20.027-3.865c-5.862,0.082-5.341-5.931-4.451-10.007h0.59c-2.001,4.963,4.898,6.078,7.79,8.307
		c1.335,0.301,3.189,1.106,4.451,0c-1.111-3.49-5.264-4.45-8.38-5.565l2.225-2.742c-2.083-1.635-6.529-1.114-6.676-3.938
		l11.72-1.627c-2.449-3.482-7.346-0.448-11.129-1.115c-0.366-5.564,6.679-5.191,10.015-7.786c-3.336-0.74-7.046,1.042-10.015,2.742
		c1.114-4.45,6.008-6.826,9.421-9.414c3.706-1.708,7.937-3.116,10.609-6.159c-7.195,0.741-14.611,4.15-20.03,10.609
		c-0.741-6.085,0.891-11.129,2.75-16.174l-0.525-0.521c-2.966,2.742-3.56,7.494-4.45,11.651c-2.001-6.973-1.701-19.217,2.746-26.703
		l-0.521-0.521c-8.307,7.119-4.821,20.023-7.266,30.038c3.857,14.979-2.449,29.297-1.114,43.909
		c2.525-9.421,4.153-19.281,5.044-29.443c2.225,16.979-6.899,31.372-4.45,48.352l1.11,13.953
		c-13.794-2.448-31.376-5.638-43.389,2.742c-2.523-23.439,6.675-43.389,4.967-67.276c3.934-22.618-13.05-55.552,16.69-65.641
		c6.155-6.753,11.127,0.594,17.281,2.221L506.133,178.037L506.133,178.037z M571.252,216.984
		c-10.53,0.439-20.921-3.938-28.406-11.13C551.523,211.419,562.352,211.94,571.252,216.984L571.252,216.984z M566.798,220.914
		c-1.847,0.073-3.775-0.301-5.04,1.114c2.814,1.335,6.155,1.774,8.901,3.337c-3.417,2.969-8.979,3.335-13.868,3.856
		c2.518-2.522,6.447-1.782,9.417-3.335c-2.526-2.449-8.311-1.636-10.007-4.971H566.798L566.798,220.914z M579.044,243.166
		c-5.268-1.855-15.581-1.188-22.843-0.594C561.981,238.268,573.848,235.599,579.044,243.166L579.044,243.166z M566.798,247.616
		c-12.236,4.223-23.586,10.455-35.599,14.978C541.662,254.287,553.451,249.243,566.798,247.616L566.798,247.616z"/>
	<polygon fill-rule="evenodd" clip-rule="evenodd" fill="#FFFFFF" points="486.696,232.035 486.106,225.885 486.696,230.921 
		486.696,232.035 	"/>
	<path fill-rule="evenodd" clip-rule="evenodd" fill="#E4E7EF" d="M610.191,264.303c-1.11,2.294-0.814,5.858,2.229,6.68
		c7.041-2.604,1.851,5.784,4.971,7.778c2.815,2.229,6.15,4.304,2.815,7.794c-1.632-1.627-2.897,0.513-3.935,1.107
		c-2.147-5.337-4.82-12.904-11.642-13.938c-2.889-0.073-5.639,0-7.791,1.709c-4.299-5.638,2.97-9.275,4.455-13.945
		C602.409,264.677,607.079,266.898,610.191,264.303L610.191,264.303z M558.423,265.418c4.518-0.668,7.037,3.335,10.6,4.963
		c3.86,0.227,8.909,7.045,11.65,0.602l1.705,1.626c3.714-1.561,5.565-5.41,8.303-8.306c0.076,4.824-0.59,10.455,2.822,13.352
		c-3.192,2.888-2.371,9.266-8.38,8.306l-2.745,2.815c-1.705-2.514-1.705-8.152,0-11.121l-0.598-0.595
		c-4.22,1.782-4.081,6.827-8.898,7.274l-1.632,1.627c0.22-3.71,0-7.713-3.339-9.421c-1.632-1.928-0.96-6.826-5.045-7.266
		c-2.599-0.374-7.636-1.407-10.527,0.594c-0.599-2.522,0.52-6.606,3.332-8.9C557.381,261.113,556.71,264.303,558.423,265.418
		L558.423,265.418z"/>
	<path fill-rule="evenodd" clip-rule="evenodd" fill="#FFFFFF" d="M629.628,303.762c-0.077,1.115-1.854,0.374-2.749,0.594
		l-1.11-2.823C627.102,302.062,628.07,303.616,629.628,303.762L629.628,303.762z M641.348,301.02
		c-2.156,1.188-4.828,2.441-7.27,1.107l-0.524-0.594C635.779,300.5,638.748,301.24,641.348,301.02L641.348,301.02z"/>
	<path fill-rule="evenodd" clip-rule="evenodd" fill="#C9C3A5" d="M629.628,318.228l-6.675,1.107l-3.861-4.963
		C622.281,316.52,626.069,316.967,629.628,318.228L629.628,318.228z M611.302,369.403h-1.704c0.594-4.304,5.491-2.742,7.273-6.671
		C619.022,365.847,613.531,368.068,611.302,369.403L611.302,369.403z"/>
	<path fill-rule="evenodd" clip-rule="evenodd" fill="#FFFFFF" d="M620.724,321.043c-3.039,1.928-5.635,5.044-6.672,8.307
		c-2.23-3.409,1.188-7.493,4.446-9.421C619.539,319.562,620.13,320.449,620.724,321.043L620.724,321.043z"/>
	<path fill-rule="evenodd" clip-rule="evenodd" fill="#FFFCD5" d="M672.5,353.831c-1.635-3.344-7.05-0.154-9.498-2.742
		c1.709-1.863,4.527,1.627,4.45-2.229l-4.45-2.824l4.45-2.742C670.942,345.597,672.423,349.673,672.5,353.831L672.5,353.831z
		 M506.133,295.455c-2.453,2.596,3.039,4.743,2.819,7.786c-0.302,2.376-1.412,4.971-3.34,6.086h-1.115
		c0.224-3.189,2.226-8.38-1.704-10.536h-1.632c-0.963-1.334,0.591-3.409,2.226-3.93
		C504.273,295.081,505.612,294.414,506.133,295.455L506.133,295.455z M561.758,284.334c-2.229,4.223-8.156,3.555-12.24,2.733
		l-2.226-1.107l1.119-3.344C552.19,284.846,557.531,286.701,561.758,284.334L561.758,284.334z M561.758,278.174
		c-2.745,0.667-3.637-3.344-6.085-3.344h-7.262c3.409-3.629,8.53-4.67,13.347-3.336V278.174L561.758,278.174z M608.49,279.883
		c3.182,3.107,5.851,7.184,3.931,11.642c-2.002,3.93-7.05,5.931-10.012,8.38c6.225,2.222,10.455-3.637,14.982-7.273
		c0,4.231-3.417,9.275-7.794,12.838c-9.418,0.513-17.798-6.305-21.654-14.466c0.439-1.269-0.822-1.855-1.114-2.823l2.741-1.627
		c-0.589,6.004,5.191,9.194,9.499,11.643c1.262-0.147,3.19,0.74,3.853-1.115c-1.48-2.368-3.853-3.93-4.45-7.192
		c0.521-2.888,0.891-6.379,3.938-7.787c2.962-0.594,3.332,2.962,4.963,4.451c0.301,2.97-2.372,3.93-4.45,4.971
		c0.228-0.813-0.74-1.115-1.11-1.635c-0.741-0.22-1.782,0.22-1.632,1.114c-0.887,2.221,1.852,2.962,2.742,4.451
		c2.005,1.335,4.45,0.073,6.159-1.115l-1.709-1.708c2.673-1.554,3.491-4.67,2.226-7.192c-1.709-2.148-3.039-5.191-6.078-5.557
		c-3.934-1.269-6.601,1.7-8.38,4.45c-0.378,2.221-1.636,4.076-1.119,6.671c-1.55-0.521,0.371-6.606,1.709-9.495
		C596.84,275.726,605.521,276.84,608.49,279.883L608.49,279.883z M570.659,325.493c0.959,2.823,4.003,5.419,6.675,6.68
		c-0.594,0-1.334-0.155-1.631,0.512l2.23,3.336c-2.23,2.531-5.788,4.158-8.909,5.565c2.595-3.555,5.789-7.64,4.455-12.236
		c-1.559-2.368-5.118-1.782-7.271-1.107c-1.188,0.586-2.444,1.033-3.34,2.221c2.449,1.115,5.936-2.148,8.384,0.594
		c-0.739,3.263-2.298,6.672-5.565,8.308c-1.558,1.114-3.706,0.366-5.565,0.593c2.899-0.886,6.899-3.783,8.307-7.274
		c-0.22-0.74,0.524-1.772-0.517-2.221c-3.56,4.523-7.119,0.814-11.712,1.115c3.853-2.229,7.929-12.244,12.229-4.971L570.659,325.493
		L570.659,325.493z M599.069,319.335c-0.671,2.375-0.898,4.897-2.819,6.679h-2.229c3.711-2.815,4.748-7.42,3.341-11.643
		c-0.371-1.042-1.412-1.855-2.222-2.823h-2.226c-0.972,2.668,3.483,5.199,1.106,8.38c-1.928,2.75-4.601,6.085-8.306,5.565
		l-1.115,1.115c1.262,2.97,5.049,2.595,7.79,3.336c-3.116,3.409-7.79-1.48-11.716-2.221c-1.854-2.449-7.343-3.491-5.564-7.274
		l3.34-3.856c-0.301,2.229,0.293,4.003,1.704,5.565c1.628-3.116,6.676-2.97,10.012-4.45c0.228,4.149-4.45,3.336-6.672,4.971
		c-1.114-0.082-2.151,0.146-2.819,1.114c3.117,1.107,7.046,0.586,9.491-1.635c2.225-1.334,2.749-4.076,1.635-6.159
		c-1.558-1.627-4.157-2.148-6.085-1.115l-2.815,1.708c2.148-3.637,4.889-6.973,8.9-8.38
		C596.47,310.067,598.398,314.884,599.069,319.335L599.069,319.335z M636.894,324.379c-1.412,4.303-6.009,5.565-9.494,7.2
		l-7.192-0.521c0.142-0.821-0.818-1.114-1.115-1.708c-1.481,0.147-2.074,2.595-3.93,1.708c1.928-3.636,4.747-6.378,8.38-8.379
		C627.988,323.272,632.443,323.793,636.894,324.379L636.894,324.379z M627.399,325.493c-1.408,0.74-3.706,3.116-5.562,2.229
		C623.47,326.38,625.32,325.64,627.399,325.493L627.399,325.493z M547.292,313.256c-2.965,1.189-7.859,2.742-11.121,0l-0.521-1.708
		C539.88,311.328,543.732,311.849,547.292,313.256L547.292,313.256z M534.53,321.564c-1.179,0.741-1.252,1.928-0.589,2.815
		c0.589,2.302,5.491,2.156,4.45,4.45c-5.264-1.701-6.451,8.014-11.121,2.75c-1.408-0.374-2.449,0.512-2.75,1.701
		c0.451,3.416,3.339,4.377,3.859,7.786c-4.82,0.675-9.051-1.107-11.646-4.442c0.893-5.939,11.947-6.159,7.786-12.83
		C527.192,321.564,530.972,320.229,534.53,321.564L534.53,321.564z M531.199,322.678c2.152,2.367-1.631,3.783-1.119,6.151
		c-1.105,0.374-1.626-0.513-2.221-1.107C527.791,325.566,528.083,322.157,531.199,322.678L531.199,322.678z M599.586,356.646
		c5.635-0.293,8.904-1.408,13.945-3.336c1.11,1.928,2.669,4.751,0.521,6.671c-2.083,1.855-4.454,3.117-7.2,3.344
		c1.037-0.301,4.898-1.782,6.68-4.459c-5.269-0.586-12.236,4.459-17.281-0.586l-3.86-5.565c0.969-1.261,2.222-2.001,3.86-1.627
		C597.361,352.936,597.284,355.238,599.586,356.646L599.586,356.646z"/>
	<path fill-rule="evenodd" clip-rule="evenodd" fill="#ADC8D1" d="M659.149,347.745c-1.041,0-1.485,1.115-2.225,1.636
		c0.667,0.96,0.517,2.221,0.517,3.335c3.71,3.262,8.306,5.857,13.351,3.93c-1.631,1.635-4.08,1.488-6.081,2.221
		c1.261,2.23,4.519,3.71,7.191,2.23l3.935-3.336c-0.595,2.294-3.112,4.304-5.045,5.565c-7.273-1.342-14.169-4.825-18.908-11.129
		C652.62,349.079,655.96,347.452,659.149,347.745L659.149,347.745z M665.231,367.182c-4.231,1.773-7.273-2.751-10.533-4.972
		l-3.339-3.93C655.44,362.577,660.183,365.245,665.231,367.182L665.231,367.182z M645.799,312.142
		c-2.376,4.076-6.68,5.638-10.609,7.192l-3.34-1.107c2.673-0.081,5.044-0.896,7.269-2.229l-6.16-2.221
		c4.602-1.929,8.162-6.306,12.241-9.421C648.54,305.836,648.17,309.84,645.799,312.142L645.799,312.142z M640.229,332.173
		c-1.038,1.635-2.591,1.48-3.926,2.221c-0.672-2.376,3.486-4.158,2.815-7.266C641.121,327.641,639.863,330.464,640.229,332.173
		L640.229,332.173z M565.688,287.067c-2.965,4.313-7.114,5.492-11.72,5.565c-2.444-0.513-5.264,0.082-7.196-1.627
		c3.71,0,9.202,2.522,13.352,0c5.337-2.229,3.266-8.453,6.085-12.244C571.843,280.697,565.021,283.959,565.688,287.067
		L565.688,287.067z M501.678,301.533c0.595,2.449,1.339,6.314-0.517,8.388c-0.963,0.513-2.449-6.68-4.45-1.709l0.517,4.45
		c-2.226,0.22-4.528-1.635-2.746-3.856C495.669,305.983,498.192,302.062,501.678,301.533L501.678,301.533z M515.619,303.241
		c0.671,3.189-1.11,5.345-2.222,7.786c-2.375,1.563-4.747,4.751-7.785,2.75c2.448-0.675,4.597-3.409,6.077-5.565
		c1.11-3.482,0.602-7.713-1.628-10.536C512.36,298.352,514.883,300.866,515.619,303.241L515.619,303.241z M560.123,280.989
		c-1.632,1.855-5.928,1.188-8.381,0.521c-0.813-1.261-3.706-1.781-2.741-3.336C553.521,276.987,556.271,280.322,560.123,280.989
		L560.123,280.989z M556.201,340.48c2.222,3.108,6.229,3.336,9.486,2.222c0.302-0.668,1.042-0.514,1.636-0.514
		c-1.933,2.962-6.602,3.263-10.016,2.222c-1.709-1.041-5.708-2.001-3.34-5.044c1.48-4.971,7.343-1.636,10.016-4.971
		C563.613,337.958,555.31,336.322,556.201,340.48L556.201,340.48z M633.554,334.915c0.146,3.335-4.523,5.191-7.266,6.671
		c-6.081,1.489-10.459-2.002-13.867-5.565c6.301-4.222,12.533,1.489,18.912-2.741C632.15,333.279,631.775,335.802,633.554,334.915
		L633.554,334.915z M547.292,304.356l-6.671,0.521c0.37,2.595,4.075,1.928,6.15,2.815c2.669,2.148,6.68,4.751,5.569,8.9
		c-4.305,2.97-8.092,6.972-13.949,6.086c-0.892-1.481-2.221-2.897-1.631-4.971c3.34,2.295,7.79,0.521,11.13-0.594
		c1.481-1.187,2.367-2.668,2.741-4.45c-4.6-4.23-10.833-6.159-17.207-4.45c-1.411,0.594-2.815,2.001-3.345,3.336
		c0.529,1.115,1.86,0.374,2.75,0.594l1.111,5.565c-1.7,0.293-5.191,0.073-6.082-2.229c-0.447-5.557,4.971-10.162,9.422-12.236
		C540.25,301.085,544.624,302.354,547.292,304.356L547.292,304.356z M607.372,367.182c-1.928,3.636-6.232,0.439-8.9-0.521
		c-2.673-1.416-5.492-3.116-6.672-6.159l0.59-1.635C597.137,362.138,600.92,366.734,607.372,367.182L607.372,367.182z"/>
	<path fill-rule="evenodd" clip-rule="evenodd" fill="#FDE2E2" d="M560.647,348.86c-4.007,5.565-4.897,13.871-2.75,20.543
		c6.603,11.724,21.442,20.698,17.212,36.197c-2.965,6.671-7.05,12.903-11.646,18.916c8.827-15.947-3.259-33.455-11.721-47.319
		c-1.851-4.084-1.184-10.015-0.516-14.465c2.668-2.001,1.484-6.606,3.335-9.421C556.563,351.83,556.791,347.151,560.647,348.86
		L560.647,348.86z"/>
	<path fill-rule="evenodd" clip-rule="evenodd" fill="#ADC8D1" d="M663.6,949.065c-1.191-0.301-4.45,0.961-5.564-1.122l3.34-10.521
		C662.563,941.124,663.002,945.127,663.6,949.065L663.6,949.065z"/>
	<path fill-rule="evenodd" clip-rule="evenodd" fill="#B8C0C6" d="M549.001,272.609c-3.34,3.711-7.196,7.787-5.561,12.831
		c2.221,2.742-0.302,9.495,4.971,10.536c6.521,1.189,13.867,0.741,18.912-3.344c-1.863,4.378-1.192,10.39-0.525,15.06
		c2.75,0,1.335-3.71,3.345-5.044c0.146,3.043-3.043,6.68,0.517,8.9c3.632-1.928,3.929,7.42,7.79,1.708
		c-0.517-3.043-2.23-6.606-4.971-7.786c0.146-3.71,4.002-6.606,3.331-10.015c-2.737,0.147-4.446,2.596-6.667,3.856
		c-0.595-4.67,2.221-10.309,6.076-14.466c-0.516,3.336,0.591,6.452,3.341,7.786c4.821-2.221,4.671,3.564,6.679,6.159
		c5.562,7.265,13.791,12.236,22.843,10.536c6.598-4.231,12.24-10.91,12.24-18.917c3.482-3.042,4.447-8.16,5.558-12.756
		c2.749,2.521,8.982,3.929,4.971,8.9c-0.302,2.449,2.521,4.523,4.454,4.971l3.926-0.521c-2.222,3.637-7.416,4.451-8.896,8.307
		c-3.263,1.481-6.822-5.19-8.38,1.115c-0.301,2.075,0.297,3.71,1.708,5.044c6.15,1.782,12.009-0.593,17.203-2.823
		c-1.782,4.898-6.973,6.452-11.126,7.786c-4.377-0.448-9.641,1.335-12.757-2.221c0.667-2.595,2.079-4.971,3.857-7.192
		c-3.116-1.261-4.674,3.482-6.078,5.557c-0.671,3.857,1.632,6.379,1.632,10.015c-3.267,2.888-6.83,6.68-6.09,11.65l1.119,3.336
		c-3.271,0.073-3.861,2.668-5.049,5.044c1.709,6.745,8.982,9.567,15.056,10.528c5.561,0.08,10.016-3.783,13.352-8.307
		c3.494,0.073,6.679-1.928,8.315-5.037c0.065-4.23,0.221-8.461-2.229-11.65c3.934-2.074,5.338-6.231,7.786-9.495
		c2.751,2.156,3.633,7.786,8.385,5.565l0.516-0.521c-0.146,1.628-0.813,6.524-0.516,8.307c-0.964,0.814-2.746,0.667-2.824,2.229
		c5.569,0.887,11.432-0.821,15.581-4.971c-0.964,3.71-2.893,7.412-7.192,7.786c-0.748,2.75,2.372,0.887,3.341,2.222
		c3.559,0,6.373-2.148,10.011-2.222c-3.865,2.001-3.043,5.932-4.451,8.901c3.263,2.669,8.01,3.482,12.241,2.229l-7.79,7.193
		c-1.489-3.263-4.602-8.315-8.9-9.422c-7.421-2.229-7.868,8.673-15.576,5.557c-6.534,3.051-3.935,9.421-3.935,14.986
		c1.411,3.344,4.971,6.159,7.79,8.38h-0.521c1.412,3.409-1.188,11.35,4.45,12.245c3.564-3.491-1.041-11.87,7.192-10.61
		c2.9-4.898,10.532-3.335,12.24-10.015c0.15-2.295,0.15-4.67-2.225-6.077h-0.517l12.24-1.115c-2.155,1.782-5.053,2.742-4.45,6.086
		l6.667,5.556c-3.93,1.115-8.526,0.594-11.716-1.627l-0.521,0.521c7.347,7.045,12.392,15.947,13.351,26.181
		c-0.891,2.221-2.892,0.521-3.929,0c-3.853-2.229-4.525-10.683-10.016-6.68c-0.146,6.453,4.08,11.13,3.339,17.802
		c-5.263-6.525-4.742,7.119-10.015,2.229c-6.753-3.263-0.224-13.579-7.781-15.06c-0.078,7.046-1.859,13.351-2.746,20.022
		c-2.746-5.711-5.415-13.05-10.614-17.793l-1.11,1.107c2.824,5.264,6.383,11.577,3.344,17.801c0.366-1.033-0.519-1.554-1.11-2.221
		h-1.123l-8.303,16.686c2.372-8.607,2.522-20.25,0-28.931c-5.117,5.94-3.559,15.581-7.789,22.26h-1.115
		c-0.212-2.969-2.07-5.866-0.595-8.909l-1.626-1.627l-5.045,6.681c1.485-1.709-0.369-3.345-0.519-5.053
		c-0.448,4.678-5.265,5.94-8.377,8.388c2.518-4.304,2.518-9.567,0-13.945c-3.86-7.2-17.362,3.482-14.47-9.421
		c-1.041-2.449-4.08-2.303-6.672-2.229c-2.375-3.035,2.449-5.264,0-8.38c-4.157-1.48-7.42,2.595-11.126,3.929
		c0.591-6.378-0.076-14.164-6.675-17.801h-4.971c-1.408-2.074,0.521-5.484-1.709-7.265l-3.34,3.335
		c-3.039-4.597-5.407-10.235-3.857-16.092c5.199-5.419,13.877-4.678,17.209-12.237c-0.517-0.895-0.517-2.074-1.628-2.815
		c4.077,1.48,10.679,2.213,14.458-0.528c-1.921-5.337,9.353-2.742,6.09-9.487c1.92-4.084,1.407-9.942-1.632-13.359
		c-2.672-2.962-6.008-5.858-10.019-3.857c-7.635,1.115-8.97,10.088-16.166,12.244c-3.043,0.887-0.891,4.971-3.86,4.971
		c-1.11-2.896-4.523-4.23-7.266-2.75c-3.335,4.45-12.09,6.826-10.016,13.351c2.819,2.302-2.444,4.076-2.225,6.671
		c-0.146,3.563,2.823,5.273,5.564,6.679h0.591c-2.518,3.19-4.224,6.68-5.041,10.536l-2.221-6.085
		c-1.777-0.448-3.421,0.593-3.86,2.229c-2.971-1.709-4.301-5.639-2.82-8.909v-0.594c-1.48-0.74-3.859,1.114-4.449,2.823
		c-0.594,4.231,0.59,8.161,4.449,10.016l5.562,0.521c-1.704,3.043,1.485,9.047-2.741,10.007c-6.31,3.043-8.229-7.933-14.471-6.671
		c-0.142-2.449-2.367-4.597-3.921-6.086c-1.782-0.594-3.417,0.667-3.86,2.229c0.443,1.636-0.817,2.595-1.114,3.856
		c-2.222-3.482-4.593-7.713-2.815-12.236c0.22-1.261,2.002-2.522,0.594-3.865c-1.041-2.075-3.563-1.993-5.044-1.106
		c-2.746,1.407-4.3,4.157-5.565,6.68c-1.114-3.71-3.71-9.056-1.114-13.359c-1.331-2.522-3.332,0-4.967,0
		c-4.898,4.824-8.901,9.941-8.901,16.695c-1.781-4.523-3.56-9.942-8.38-12.237c0.073-3.043,2.966-5.71,1.115-8.908
		c-1.859-2.596-4.381-0.073-6.086,1.115l-5.044,6.671c0.818-5.411,0-11.642,4.451-15.572c-3.633-2.449-8.087-0.293-11.647,0.52
		c-5.04,2.889-11.126,3.336-16.17,6.159l3.339-8.38c6.155,0.96,13.278,1.107,18.396-2.229c-0.484-0.154-0.976-0.301-1.481-0.423
		l-3.564-5.663l0.598-0.594c6.228,0.301,14.458,0.594,17.797-6.671c-2.404-0.854-5.878-1.277-8.86-1.115
		c3.974-1.782,7.745-5.158,12.196-6.078l6.679-1.115c-4.304,3.482-8.53,8.681-6.679,14.466c4.153,5.492,12.538,0.887,17.801,3.856
		c4.157-1.928,9.649-4.377,11.13-9.421c0.366-4.45,0-9.942-5.044-12.831c-2.746-2.823-6.529-5.044-10.532-3.344
		c-2.896,1.27-3.486,4.451-5.044,6.68v-6.086c1.928,1.855,3.04-1.334,5.044-1.107l3.336-5.052c1.11,2.75,5.044,7.493,8.896,5.565
		c2.453-0.366,1.64-3.189,3.344-4.45c0.221,2.376,1.856,5.199,4.446,5.565c2.226,0.448,2.001-2.147,2.75-3.336
		c-1.037-1.261-0.378-3.344-0.524-4.971l3.34,4.45c2.818-5.117-2.222-9.714-5.044-13.945c2.892-1.334,5.638,2.229,7.269,4.45
		c0.741,2.75,2.522,5.931,5.561,6.671c3.189-2.294-0.961-5.85-1.111-8.893l7.196-13.872
		C546.332,265.938,544.327,271.495,549.001,272.609L549.001,272.609z M549.518,303.241c-0.663,5.785,7.424,7.941,5.044,14.466
		l-9.489,7.786c2.59,5.711-2.304,9.641-2.227,14.986c-4.527,7.567-12.387,1.855-18.915,4.442c-3.711-0.96-7.787-2.14-10.012-5.557
		c-3.787-6.9,6.154-8.682,8.38-13.352c-1.038-0.667-1.257-1.635-1.114-2.742l4.975-3.344c-2.01-2.815-3.271-7.338-1.118-10.601
		C530.162,301.24,542.402,294.935,549.518,303.241L549.518,303.241z M633.554,380.012c0.817-2.148,2.457-5.045,4.975-3.93
		c0.663,3.628,5.712,6.671,5.566,9.495c-2.897-0.074-3.934-2.375-5.566-4.45c0.22-1.782-0.223-3.344-1.635-4.45
		c-2.596,3.262-3.482,8.599-8.38,9.413c1.708-6.297,5.857-11.489,5.04-18.908C635.19,371.478,632.671,376.083,633.554,380.012
		L633.554,380.012z M655.81,380.012c-3.408,1.033-6.68-3.857-10.609-4.45l0.599-1.115
		C649.577,375.041,652.771,377.271,655.81,380.012L655.81,380.012z M611.822,351.089c2.23-1.489,5.049,0.513,6.159,2.221
		c2.367,3.555-2.742,8.087,2.226,10.536c1.184,3.856-2.226,6.671-5.045,7.786c-5.642,0.74-12.753,1.554-18.322,0.594l-1.7,1.627
		c3.93,2.002,12.749-2.221,11.712,5.565c4.601,1.628,7.79-3.636,11.646-5.565c-0.22,3.637-3.482,6.972-6.676,8.38
		c-2.225,0.594-5.931,1.335-7.786-0.585c1.266-8.901-9.274-3.564-13.354-6.68c-0.59-3.043,2.896-2.969,4.458-4.45
		c-2.526-3.335-7.57-7.192-5.569-12.236c3.043-1.855,1.111-4.45,1.713-6.679c5.186-2.816,8.746-7.786,15.568-4.971
		C608.711,347.525,610.863,349.079,611.822,351.089L611.822,351.089z M639.64,357.167c-3.56,3.116-8.527,5.931-12.761,3.93
		C630.738,360.136,635.12,357.906,639.64,357.167L639.64,357.167z"/>
	<path fill-rule="evenodd" clip-rule="evenodd" fill="#DCBCA4" d="M549.493,106.368c0,0,0.562,5.02-3.633,7.534
		c-4.178,2.514-5.854,0.276-5.854,0.276l1.396-4.466c0,0,2.79,0.285,5.02-1.114C548.655,107.206,549.493,106.368,549.493,106.368
		L549.493,106.368z"/>
	<path fill-rule="evenodd" clip-rule="evenodd" fill="#EACCBA" d="M536.711,102.918c0.143-0.569,0.31-1.106,0.505-1.578
		c1.119-2.791-1.953-3.067-5.309-1.392c-3.344,1.676-5.858,1.953-5.858,1.953l-0.15-2.409c-0.983-0.903-1.879-2.457-3.079-2.669
		c-0.297,2.815-3.267,1.261-4.971,1.709c-0.817-0.895-0.46-1.408-2.017-1.481c-1.669,1.018,0.276,1.497-0.338,2.107l1.351,0.789
		l-2.136-0.374c-0.062,0.016-0.13,0.041-0.199,0.065c-0.078-0.049-0.146-0.089-0.22-0.146l-2.197-0.382c0,0-4.182-1.953-5.857,1.952
		c-1.677,3.905-1.677,11.439,2.795,15.068c4.462,3.629,1.114,15.352,6.419,20.657c5.301,5.305,10.601,7.257,13.673,6.419
		c2.9-0.797,0.573-5.077,2.656-9.071c-2.449,0.602-5.227,0.025-7.868-0.61c-3.078-2.238-7.392-6.257-6.769-10.276
		c5.679,0.586,11.292-0.968,13.408,1.538c1.013,0.139,2.022,0.245,3.002,0.317l-0.806-1.155c0,0-3.905,0.277-3.344-2.229
		c0.558-2.514-0.562-2.237-2.794-3.076c-1.864-0.699-1.583-1.204-1.441-2.172c-0.142-0.301-0.19-0.545-0.19-0.545s0.085,0,0.236,0
		c0-0.024,0-0.049,0-0.073c0-1.392,0-1.676,0-1.676s0.732,1.457,2.929,1.864c0.093,0.008,0.175,0.024,0.264,0.033
		c0.184,0.007,0.346,0.032,0.497,0.064c0.329,0.017,0.675,0.024,1.058-0.008c2.848-0.212,4.312,0.936,5.085,0.504
		C534.783,111.745,534.979,107.019,536.711,102.918L536.711,102.918z"/>
	<path fill-rule="evenodd" clip-rule="evenodd" fill="#BA9E82" d="M567.767,118.409c1.907,1.936,3.449,3.88,4.003,6.818
		c1.855,12.903-13.938,16.093-20.543,24.994c-1.501,1.676-3.097,3.303-4.512,4.995c0.643-1.855,1.582-4.247,2.921-6.785
		c3.255-2.758,5.446-5.907,6.875-9.34c1.31-1.245,2.77-2.4,4.372-3.393C569.056,130.653,568.73,122.778,567.767,118.409
		L567.767,118.409z M502.297,138.269c2.021,2.416,4.145,4.8,6.179,7.216c1.099,3.165,1.533,6.769,0.188,10.259
		c-3.242-3.987-6.794-7.883-10.012-11.936c2.01-0.357,3.596-1.928,3.596-3.596C502.247,139.464,502.269,138.814,502.297,138.269
		L502.297,138.269z M490.898,131.508c-0.191-0.431-0.37-0.879-0.541-1.318c0.472-0.708,0.785-1.082,0.785-1.082
		S490.963,130.06,490.898,131.508L490.898,131.508z M488.978,132.509c0.833,9.975,12.102,16.979,18.692,25.335
		c-1.347,2.433-3.189,4.548-5.146,6.33c-5.443-4.011-11.098-8.307-15.255-13.352c-0.837-1.936-1.46-4.426-1.33-7.485
		C486.126,138.838,487.632,135.039,488.978,132.509L488.978,132.509z M496.422,168.681c-7.058-2.97-15.092-4.8-21.735-8.592
		c-0.069-0.154-0.139-0.293-0.2-0.448c-3.474-8.323,2.079-18.737,2.079-18.737s0.004,4.825,4.487,8.828
		c0.187,0.366,0.383,0.732,0.598,1.09c5.15,7.241,12.061,11.285,19.201,14.775C499.315,166.834,497.777,167.867,496.422,168.681
		L496.422,168.681z M557.185,60.083c0.118,0.146,0.232,0.301,0.351,0.447c1.716,2.262,2.672,4.817,3.177,7.42
		c-0.017-0.024-0.041-0.041-0.065-0.057c0.22,2.253,0.456,4.751,0.533,7.297c-0.537,7.054-5.504,9.853-5.504,9.853
		s-0.343-0.691-0.343-4.857c0-4.166-3.473-8.332-3.473-8.332s0,0.7,0.691,4.516c0.313,1.685,0.338,3.304,0.284,4.581
		c-0.15-0.285-0.313-0.561-0.496-0.822c-1.578,0.708-1.839,2.246-2.095,3.824c-0.644,0.024-1.452,0.033-2.474,0.041
		c-0.598-2.002-1.254-3.938-3.222-4.979c-0.382,1.563-0.497,3.214-0.646,4.849c-3.487-0.341-3.495-1.244-3.495-1.244
		s-0.691,1.033-0.691-5.207c0-6.249-2.079-9.723-2.079-9.723s-3.819,4.165-4.86,8.681c-0.167,0.732-0.362,1.473-0.57,2.197
		c-0.346,0.569-0.683,1.114-1.009,1.562l-1.562,5.476l-1.367-9.584c0,0-4.165,1.041-10.76,0c-6.594-1.042-8.326-4.166-8.326-4.166
		s-2.08,2.433-1.733,7.982c0.023,0.375,0.057,0.732,0.102,1.082c-0.284-0.106-0.565-0.171-0.83-0.195
		c-2.966-8.746,2.595-16.833,8.307-23.358c-0.776,0.057-1.583,0.244-2.4,0.537c6.859-4.288,20.418-7.184,32.642-4.434
		C551.06,54.77,554.794,57.153,557.185,60.083L557.185,60.083z M503.736,65.468c-0.374,0.626-0.691,1.269-0.943,1.904
		c-0.842,1.733-1.456,3.897-1.733,6.167c-1.484,1.367-3.405,3.629-4.715,6.997c-2.428,6.24-2.428,16.646-2.428,16.646
		s-0.549-1.522-1.164-3.84c-0.265-2.237-0.521-4.475-1.09-6.533c-0.057,0.122-0.11,0.236-0.171,0.366
		c-0.574-4.132-0.615-8.746,1.037-12.196c3.815-7.981,9.718-12.488,9.718-12.488L503.736,65.468L503.736,65.468z"/>
	<path fill-rule="evenodd" clip-rule="evenodd" fill="#D8CDC2" d="M507.108,69.48c0.802,0.284,2.051,0.707,3.698,1.196
		c0.187-1.546,0.533-3.051,1.09-4.467l-3.071-0.383C508.158,67.015,507.576,68.234,507.108,69.48L507.108,69.48z M514.509,71.684
		c3.141,0.789,7.082,1.619,11.675,2.253c2.389,0.334,4.816,0.513,7.176,0.594c0.55-1.432,1.302-2.757,2.022-3.855
		c-0.942-0.18-1.928-0.359-2.944-0.554c-9.649-1.823-14.397-2.864-16.162-3.271C515.602,68.332,514.985,69.943,514.509,71.684
		L514.509,71.684z M539.563,74.499c6.439-0.244,11.492-1.049,12.473-1.22c0-0.017-0.005-0.033-0.005-0.05
		c-0.94-0.098-5.409-0.61-13.041-1.919C539.226,72.213,539.433,73.279,539.563,74.499L539.563,74.499z M504.237,140.539
		c-0.826,0.472-1.7,0.969-2.608,1.464c0.392-0.545,0.618-1.163,0.618-1.789c0-0.749,0.021-1.4,0.05-1.944
		C502.935,139.025,503.586,139.773,504.237,140.539L504.237,140.539z M495.576,145.135c-1.611,0.765-3.202,1.473-4.674,2.035
		c-1.342,0.512-2.855,0.902-4.458,1.203c-0.329-1.293-0.528-2.749-0.521-4.385c1.566-0.513,3.002-1.009,4.202-1.473
		c0.781-0.31,1.591-0.708,2.396-1.164C493.432,142.638,494.466,143.898,495.576,145.135L495.576,145.135z M480.419,149.122
		c-2.384,0.163-4.699,0.211-6.672,0.195c0.114-0.635,0.252-1.253,0.402-1.847c1.273-0.35,2.669-0.741,4.113-1.156
		C478.796,147.234,479.496,148.194,480.419,149.122L480.419,149.122z M566.644,137.585c-1.277,1.155-2.713,2.229-4.202,3.287
		c1.196-2.539,2.099-5.158,2.099-7.282c0-0.301,0.013-0.61,0.028-0.903c1.718-1.904,2.697-3.971,3.214-6.004
		C567.938,129.913,567.828,134.119,566.644,137.585L566.644,137.585z"/>
	<path fill-rule="evenodd" clip-rule="evenodd" fill="#AC8962" d="M557.894,176.866c1.196-0.659,2.335-1.408,3.381-2.286
		c0.023,0.805,0.076,1.618,0.166,2.473c0.777,7.371,2.718,6.208,2.718,6.208S560.505,181.146,557.894,176.866L557.894,176.866z
		 M561.372,171.504c-1.673,0.578-3.401,1.172-5.179,1.717c-0.423-1.261-0.712-2.636-0.834-4.133
		c3.417-2.238,6.537-4.898,8.624-8.853h-1.632c-2.176,1.489-4.434,2.758-6.724,3.938c0.374-2.124,1.11-4.426,2.322-6.916
		c0.073-0.138,0.139-0.276,0.208-0.423c3.823-2.433,7.407-5.239,9.755-9.356c-2.51,0.83-4.947,2.481-7.453,4.165
		c0.862-2.18,1.55-4.198,2.1-6.045c2.872-2.481,5.854-5.052,8.656-7.664c0.249,3.141-0.28,7.453-2.799,13.115
		C563.873,161.301,561.831,166.533,561.372,171.504L561.372,171.504z"/>
	<path fill-rule="evenodd" clip-rule="evenodd" fill="#BA9E82" d="M567.128,147.771c-1.102,0.432-2.213,1.026-3.307,1.693
		c-4.166,2.099-8.82,4.702-12.529,6.842c5.512-6.582,16.133-14.198,23.817-22.179c0.361,1.261,0.573,2.481,0.663,3.678
		C573.409,141.808,570.452,145.737,567.128,147.771L567.128,147.771z"/>
	<path fill-rule="evenodd" clip-rule="evenodd" fill="#9E6C4F" d="M526.542,147.234c-2.222,14.661,1.61,18.843,5.768,24.726
		l3.34,3.856c-0.65,0.626-1.599,1.098-2.583,1.594c-2.75-2.294-5.048-4.638-6.505-6.956c-4.653-7.372-5.039-2.327-5.812,6.598
		c-0.346,3.905-1.938,7.509-3.633,10.333c-1.091-0.822-2.165-1.709-3.197-2.669c1.631-3.637,3.783-7.127,3.34-11.651
		c2.143-4.597,4.223-9.86,3.331-15.051c-3.038-7.119-7.933-13.579-12.757-20.031C514.509,142.434,517.868,147.609,526.542,147.234
		L526.542,147.234z M544.681,185.571c5.19,1.961,10.427,3.833,16.562,3.596l-1.982,4.288c-1.953-0.765-3.971-1.692-5.96-2.815
		C550.69,189.159,547.711,187.442,544.681,185.571L544.681,185.571z"/>
	<path fill-rule="evenodd" clip-rule="evenodd" fill="#6A4633" d="M466.148,152.628c-0.411-0.585-0.813-1.18-1.184-1.806
		c0.216-2.644,1.018-5.044,2.091-7.322C466.38,146.697,466.132,149.79,466.148,152.628L466.148,152.628z M475.452,125.462
		c0.057-0.439,0.094-0.887,0.118-1.342c1.127-12.342,1.628-25.417,5.671-37.083c-0.094,2.685-0.004,5.435,0.358,8.128
		c1.94,14.36,2.717,20.568,2.717,20.568S480.13,118.872,475.452,125.462L475.452,125.462z"/>
	<polygon fill-rule="evenodd" clip-rule="evenodd" fill="#FDE2E2" points="524.016,131.011 522.583,129.58 526.529,129.669 
		527.583,131.158 524.016,131.011 	"/>
	<path fill-rule="evenodd" clip-rule="evenodd" fill="#E4E7EF" d="M478.564,53.59c1.054-1.814,2.274-3.539,3.682-5.125
		c3.25,0.333,7.428-0.196,10.727-1.757c-0.847,1.505-1.294,2.668-1.294,2.668l-6.59,3.1
		C485.089,52.475,482.046,53.126,478.564,53.59L478.564,53.59z M493.892,45.201v-0.675c0.175-0.017,0.35-0.041,0.521-0.065
		C494.233,44.706,494.055,44.958,493.892,45.201L493.892,45.201z M507.613,39.075c5.357-2.888,10.816-5.524,18.021-3.971
		c1.037-1.399,0.968-2.22-0.594-3.336h-0.521c7.167-5.777,13.708-0.382,19.859,4.28l0.781,2.847h-5.037c0,0-5.427-6.989-8.526-5.434
		c-3.1,1.554-8.916,5.434-8.916,5.434s-6.973,3.1-11.236,1.164C510.294,39.531,508.988,39.214,507.613,39.075L507.613,39.075z"/>
	<path fill-rule="evenodd" clip-rule="evenodd" fill="#B7C0CA" d="M554.366,45.47c1.692,2.62,2.913,5.451,3.531,8.551
		c-6.224-12.383-19.949-6.15-30.627-8.379c-14.69-0.521-23.811,15.653-37.829,18.395c-6.085,0.814-11.276,4.157-15.576,9.421
		c-0.032-0.529-0.053-1.074-0.057-1.61c2.067-4.483,6.241-11.22,6.241-11.22l8.917-5.044l5.427,3.1l5.813-9.308l7.75-5.435
		l3.49,3.874l12.009-5.037l9.304-2.327l8.14,3.1c0,0,5.817-3.1,12.403,1.164C553.671,44.958,554.021,45.201,554.366,45.47
		L554.366,45.47z"/>
	<path fill-rule="evenodd" clip-rule="evenodd" fill="#FFFFFF" d="M445.012,127.513c0,0-13.055,19.567-27.406,57.416
		c-14.356,37.841-20.877,114.831-20.877,114.831s-9.137-92.644,14.352-130.493C434.573,131.427,445.012,127.513,445.012,127.513
		L445.012,127.513z M486.216,67.974l6.566-1.709c-10.117,5.923-14.523,14.449-17.179,23.781c-4.244,8.274-6.022,17.541-6.022,17.541
		s-2.323-14.36,5.431-27.947C478.336,73.808,482.526,70.195,486.216,67.974L486.216,67.974z M453.838,73.824
		c1.66-3.84,3.328-7.672,5.045-11.496c12.236-9.194,18.912-22.252,30.558-31.664c0.915-0.212,1.839-0.432,2.774-0.651
		c9.234-0.57,15.409,4.247,15.409,4.247s-22.121,1.953-33.833,18.208c-11.707,16.272-22.117,42.942-22.117,42.942
		S451.093,85.922,453.838,73.824L453.838,73.824z"/>
	<path fill-rule="evenodd" clip-rule="evenodd" fill="#B7C0CA" d="M469.188,70.927c-0.289,3.775-0.163,7.64,0.228,11.431
		c0.057-0.007,0.134-0.024,0.211-0.056c-2.181,4.735-4.328,10.926-6.244,18.964c-3.99,16.769-11.419,31.584-19.115,47.596
		c6.041-15.141,11.533-30.51,12.907-47.596l-4.45,19.51c-8.38,18.371-15.344,37.319-21.121,56.756
		c-0.472,1.237-0.944,2.49-1.4,3.751c-3.547,9.82-6.427,22.724-8.917,37.026c-5.992,28.281-9.942,57.423-12.472,87.16
		c-0.789,7.184-2.132,14.385-3.494,21.447c-0.021,0.098-0.041,0.195-0.061,0.293c-5.882,27.751-12.134,36.888-12.134,36.888
		s11.057-53.999,13.009-90.431c1.953-36.433,9.755-86.526,28.626-121.657c18.867-35.131,24.721-58.554,27.972-70.913
		C463.635,77.664,466.1,74.174,469.188,70.927L469.188,70.927z M438.535,196.555c-6.114,29.639-2.714,63.232-10.288,92.221
		c-4.971,25.596-11.866,50.297-20.026,74.55l0.345,0.301c-5.943,10.447-9.588,9.576-9.588,9.576s1.302-3.246,8.457-16.264
		c7.155-13.009,14.962-59.197,17.562-100.186C426.461,233.76,433.04,211.59,438.535,196.555L438.535,196.555z M410.441,360.071
		c3.396-7.974,6.493-16.085,9.279-24.311C416.308,346.785,413.175,354.58,410.441,360.071L410.441,360.071z M434.833,272.203
		c2.677-18.599,4.024-37.743,4.024-57.448l1.11-10.015c-0.143,15.393-0.407,31.404-1.306,47.603
		C437.559,258.331,436.289,264.929,434.833,272.203L434.833,272.203z"/>
	<path fill-rule="evenodd" clip-rule="evenodd" fill="#6A4633" d="M549.144,129.311c2.933-6.378,5.679-12.846,5.938-20.25
		c1.994,6.281,2.197,12.822,1.07,19.144C554.692,127.505,552.296,126.528,549.144,129.311L549.144,129.311z M557.304,96.499
		c0-0.065,0-0.13,0.004-0.195c0.037-0.032,0.069-0.065,0.103-0.098C557.377,96.304,557.345,96.393,557.304,96.499L557.304,96.499z"
		/>
	<path fill-rule="evenodd" clip-rule="evenodd" fill="#E4E7EF" d="M582.525,190.347c4.356-17.379-5.342-44.138-4.076-58.441
		c-1.262-4.588-3.015-8.957-5.777-12.92c0.285-5.394,0.912-9.828,1.643-13.408c6.245,30.957,9.983,62.923,11.22,95.939
		C584.827,199.012,583.758,195.155,582.525,190.347L582.525,190.347z"/>
	<path fill-rule="evenodd" clip-rule="evenodd" fill="#E4E7EF" d="M518.434,191.242c10.59,7.64,23.823,10.154,36.128,14.091
		c1.778,5.94,6.749,1.636,9.422,6.68l1.114-1.114c-1.265-2.303-3.706-4.076-5.568-6.159c1.086-2.995,2.229-5.964,3.299-8.966
		c1.732,0.757,3.567,1.473,5.068,1.896c6.18,15.376,18.025,29.02,19.457,45.61c-0.256,1.294-0.675,2.571-1.257,3.873
		c-2.97,6.598-0.333-10.219-16.467-9.227c-16.138,0.984-20.422,6.59-20.422,6.59s6.257-3.295,13.506-0.659
		c7.246,2.644,10.211,3.295,10.211,3.295s-10.54-1.977-16.468,2.311c-0.134,0.098-0.272,0.195-0.414,0.284
		c-6.066,1.709-11.781,4.206-17.176,7.486c-3.218,1.017-6.521,1.952-9.746,2.782c-10.202,2.636-21.732-0.333-21.732-0.333
		s5.602-1.318,11.858-4.279c6.256-2.97,6.911-4.621,6.911-4.621s-5.268,2.644-14.489,0c-5.978-1.709-8.491-2.172-10.333-3.279
		c0.337-0.082,0.65-0.228,0.936-0.48c-0.883-2.767-3.669-3.946-6.335-4.874c-0.724-0.708-1.245-1.261-1.281-1.635l0.337-0.416
		c0.549-0.195,1.818-0.163,4.162,0.138c7.899,0.984,14.161-6.272,5.928-7.257c-1.482-0.179-2.938-0.261-4.301-0.302
		c-1.872-2.001-4.845-1.065-7.725-0.683c0.219-0.301,0.797-0.724,1.818-1.326c5.597-3.295,22.719-6.924,13.831-6.924
		c-3.587,0-6.74,0.423-8.933,0.7c0.093-0.065,0.183-0.13,0.273-0.196c-1.107-0.244-2.25-0.219-3.397,0
		c0.122-0.301,0.602-0.764,1.517-1.489c4.613-3.628,7.904-8.25,11.528-9.893c3.622-1.651-0.991-3.629-7.574-1.651
		c-6.586,1.977-8.892,3.294-8.892,3.294s-3.95,2.311-0.659-6.589c3.291-8.901,4.943-16.158,0.33-9.894
		c-4.609,6.265-4.28,8.567-3.951,2.97c0.163-2.733,0.167-5.549,0.126-7.712c0.432-1.066,0.919-2.066,1.477-3.003l-0.521-0.521
		c-0.366,0.31-0.704,0.635-1.025,0.968c-0.028-0.805-0.057-1.277-0.057-1.277s-13.172,11.211-11.853,26.385
		c1.313,15.165-0.659,31.648,0.658,48.132c1.315,16.492-10.544,18.468-2.965,28.688c0.74,1.008,1.371,1.919,1.895,2.758
		c-10.633-1.717-22.479-2.823-32.035,1.293c0.053-0.35,0.11-0.708,0.175-1.082c1.973-11.211,5.598-41.217,5.598-46.822
		c0-5.606,0.329-43.852-1.644-54.072c-1.155-5.963-3.417-7.11-4.393-9.438c1.635-8.315,6.236-15.174,17.24-18.9
		c0.542-0.594,1.083-1.074,1.607-1.464c0.342,0.146,0.675,0.293,1.017,0.456c8.233,3.954,31.287,8.9,38.862,16.483
		C507.431,186.19,513.776,189.338,518.434,191.242L518.434,191.242z M581.817,255.402c-0.334,3.628-1.978,2.636-6.59,0.325
		c-4.609-2.303-18.111,0.992-11.199-2.303C568.926,251.09,582.778,244.711,581.817,255.402L581.817,255.402z M571.252,216.984
		c-10.53,0.439-20.921-3.938-28.406-11.13C551.523,211.419,562.352,211.94,571.252,216.984L571.252,216.984z M566.798,220.914
		c-1.847,0.073-3.775-0.301-5.04,1.114c2.814,1.335,6.155,1.774,8.901,3.337c-3.417,2.969-8.979,3.335-13.868,3.856
		c2.518-2.522,6.447-1.782,9.417-3.335c-2.526-2.449-8.311-1.636-10.007-4.971H566.798L566.798,220.914z"/>
	<path fill-rule="evenodd" clip-rule="evenodd" fill="#FFFFFF" d="M449.897,173.676c1.493-1.667,3.324-3.173,5.54-4.483
		c4.235-1.277,10.544-1.798,17.378,2.458c12.184,7.582,5.927,10.552,5.927,10.552s-5.598-4.621-15.149-4.946
		c-9.551-0.333-14.49,4.613-14.49,4.613L449.897,173.676L449.897,173.676z M504.099,204.626c0,0,6.916,0.66,12.843,1.977
		c5.923,1.318,12.18-0.334,12.18-0.334s-7.566,0.659-13.823-3.954C509.033,197.693,504.099,204.626,504.099,204.626L504.099,204.626
		z M518.585,215.503c0,0,7.574-1.977,14.819,0.659c7.249,2.636,15.149,10.877,15.149,10.877s-2.637-1.318-10.207,1.318
		c-7.574,2.644-14.494,4.622-19.428-1.643C513.979,220.45,518.585,215.503,518.585,215.503L518.585,215.503z"/>
	<path fill-rule="evenodd" clip-rule="evenodd" fill="#7B8796" d="M497.386,285.277c-0.224-0.35-0.452-0.684-0.675-0.944
		c-4.454,2.367-2.229,9.486-2.819,12.749l-7.196,0.594c1.855-12.977-3.856-26.254,0.52-38.939c4.674,4.377,9.792,9.275,16.17,7.794
		c-0.569-0.805-1.208-1.538-1.899-2.205c1.317,0.969,3.059,1.521,6.558,2.278c7.574,1.652,14.828,0.993,12.52,1.652
		c-2.307,0.659-11.532,2.969-18.444,2.636c-6.915-0.326-9.551-0.659-6.915,7.59C496.366,282.112,497.02,284.146,497.386,285.277
		L497.386,285.277z M500.441,263.4c-3.132-2.604-6.981-4.28-9.889-6.363c-1.855-1.561-3.856-3.783-2.221-6.085
		c1.168,0.48,2.408,0.944,3.689,1.391c1.249,1.734,2.787,3.816,4.504,6.029C498.391,260.772,499.404,262.309,500.441,263.4
		L500.441,263.4z M489.092,245.053c-0.419-1.96-0.082-4.377,0.35-6.338h0.521c-0.012,0.089-0.02,0.179-0.029,0.269
		c-0.244,0.708-0.301,1.335-0.215,1.896C489.511,242.499,489.283,243.939,489.092,245.053L489.092,245.053z M490.158,236.267
		c-0.411-0.358-0.684-0.831-0.716-1.489l0.798-0.106C490.218,235.2,490.19,235.737,490.158,236.267L490.158,236.267z
		 M490.243,232.068c-0.069-0.008-0.139-0.016-0.212-0.033c-0.033-0.496,0-0.943,0.077-1.351
		C490.17,231.124,490.215,231.588,490.243,232.068L490.243,232.068z M484.435,251.285c1.012-5.566,1.752-11.244,2.261-17.02
		c1.217,9.267-0.948,17.761-2.762,26.32C484.104,257.55,484.284,254.394,484.435,251.285L484.435,251.285z"/>
	<path fill-rule="evenodd" clip-rule="evenodd" fill="#C9C3A5" d="M545.661,283.731l-0.589,0.602l0.589-4.45
		C546.771,281.217,546.771,282.47,545.661,283.731L545.661,283.731z"/>
	<path fill-rule="evenodd" clip-rule="evenodd" fill="#E4E7EF" d="M437.742,310.434l2.226-2.221l0.516,0.594l1.119-1.114v6.679
		c-3.043,0.659-6.086,1.408-8.311,3.856c0-5.044,1.855-11.87,2.746-17.801C435.74,304.136,436.335,307.472,437.742,310.434
		L437.742,310.434z"/>
	<path fill-rule="evenodd" clip-rule="evenodd" fill="#969DA8" d="M442.192,304.877l-2.819,0.593c-0.74-1.708,1.11-2.823,2.23-3.343
		C442.636,302.208,441.968,303.982,442.192,304.877L442.192,304.877z"/>
	<path fill-rule="evenodd" clip-rule="evenodd" fill="#969DA8" d="M434.406,327.722c-1.115,2.294-3.934,3.856-5.044,6.085
		l2.225-11.129c2.819-2.522,6.155-3.938,9.495-5.565C446.199,323.345,436.335,323.638,434.406,327.722L434.406,327.722z"/>
	<path fill-rule="evenodd" clip-rule="evenodd" fill="#C9C3A5" d="M540.621,336.623c-2.38,3.483-5.94,2.595-8.9,1.107
		c3.038-1.709,4.738-5.484,8.9-5.557c2.001-1.335,2.518-3.271,2.225-5.565C545.441,330.61,540.54,332.913,540.621,336.623
		L540.621,336.623z"/>
	<path fill-rule="evenodd" clip-rule="evenodd" fill="#C59677" d="M467.072,320.457c-4.23-0.26-8.742,0.196-12.639,0.586
		c-1.115,0.667-1.115,1.855-1.709,2.75l-8.307-6.086c0.594-5.711-1.184-10.455-0.59-16.174c9.49-4.223,21.653-1.92,32.263-3.335
		c-0.224,0.895,0.741,1.114,1.111,1.708l5.565-0.594c-2.97,2.221-8.457,4.304-9.421,8.901c0.679-0.008,1.351-0.105,2.006-0.252
		l8.526,1.367c-1.335,2.742-4.82,2.595-7.196,3.929c-6.749-0.667-13.722-0.74-19.506-3.929l0.594,2.815
		C460.718,315.6,463.569,318.683,467.072,320.457L467.072,320.457z"/>
	<path fill-rule="evenodd" clip-rule="evenodd" fill="#FFFFFF" d="M606.852,351.089l0.521,0.513
		c-1.554,1.635-3.705,1.48-5.561,2.229l-1.11-3.344C603.589,348.485,604.631,354.425,606.852,351.089L606.852,351.089z"/>
	<path fill-rule="evenodd" clip-rule="evenodd" fill="#E8E9E8" d="M569.268,306.773c-0.48,1.798-0.622,3.515,1.392,4.775
		c3.25-1.725,3.827,5.565,6.675,3.043c0.212,0.317,0.419,0.65,0.627,0.976c-1.396,1.416-2.985,2.628-5.077,3.254
		c-3.043,0.887-0.891,4.971-3.86,4.971c-1.11-2.896-4.523-4.23-7.266-2.75c-3.335,4.45-12.09,6.826-10.016,13.351
		c2.819,2.302-2.444,4.076-2.225,6.671c-0.037,1.009,0.162,1.863,0.545,2.604c-2.746,1.798-4.532,3.596-4.532,3.596l-0.52-14.043
		c0,0-0.05,0-0.155,0.017c0.916-2.4,1.534-4.841,0.217-7.746l9.489-7.786c2.196-6.037-4.556-8.331-5.052-13.213l10.047-1.44
		l2.596,7.282L569.268,306.773L569.268,306.773z M621.126,346.915c0.439,0.089,0.875,0.171,1.302,0.236
		c0.322,0.008,0.63-0.008,0.932-0.025l2.697,8.982c0,0,6.229,1.042,9.349-3.117c3.119-4.165,6.239-9.893,6.239-9.893l3.108,9.364
		l6.236-8.315c0,0,0.357,0.643,0.821,1.708c-5.686,3.157-3.271,9.283-3.271,14.645c0.37,0.87,0.879,1.7,1.485,2.497
		c-2.791,4.378-2.926,7.852-1.636,11.317c0.114,0.284,0.199,0.586,0.281,0.919c-0.92-0.366-1.88-0.635-2.872-0.79l-0.599,1.115
		c1.347,0.203,2.604,0.902,3.828,1.7c0.549,4.67-0.118,11.098-0.118,11.098l-5.194-8.323l-4.683-2.465
		c-0.236-0.488-0.415-0.977-0.505-1.489c-0.845-0.375-1.59-0.301-2.237,0.04l-2.445-1.286l-0.268,5.118
		c-0.004,0.017-0.013,0.032-0.024,0.057c-0.883-3.93,1.636-8.535,0-12.83c0.704,6.395-2.294,11.129-4.227,16.361l-4.828-1.424
		l-7.799,5.719c0,0-1.721-2.415-4.565-5.751c3.084-1.48,6.151-4.71,6.362-8.234c-2.949,1.473-5.508,4.889-8.6,5.695
		c-1.672-1.839-3.58-3.815-5.662-5.752c-0.424-0.39-0.834-0.772-1.237-1.139c4.121-0.024,8.461-0.537,12.163-1.025
		c2.819-1.115,6.228-3.93,5.045-7.786c-4.968-2.449,0.142-6.981-2.226-10.536c-1.11-1.708-3.93-3.711-6.159-2.221
		c-0.28-0.586-0.658-1.131-1.102-1.636l7.541-0.626L621.126,346.915L621.126,346.915z M683.021,367.962
		c3.653,4.394,6.456,9.349,8.082,14.775c-1.231,0.448-2.501,0.651-3.754,0.423c-1.277-0.235-2.57-0.048-3.791,0.375
		c-1.204-1.351-2.657-1.88-4.98-0.188c-0.019,1.074,0.069,2.099,0.245,3.092c-1.763,1.513-2.893,2.961-2.893,2.961l-5.716-6.241
		l2.6-8.843l7.27-8.844L683.021,367.962L683.021,367.962z M479.455,314.232c2.506-0.715,4.768-2.041,6.358-4.425
		c1.566-0.521,2.998-0.944,4.267-1.286c-0.589,1.847-0.695,3.808-0.048,5.85c4.153,5.492,12.538,0.887,17.801,3.856
		c4.157-1.928,9.649-4.377,11.13-9.421c0.366-4.45,0-9.942-5.044-12.831c-0.155-0.162-0.31-0.317-0.468-0.472
		c2.403-0.553,5.069-0.513,5.069,2.352c0,5.199,2.077-2.083,7.269-4.687c1.481-0.741,2.331-2.164,2.786-3.808l0.399,0.529
		c1.257-2.286,0.951-4.475-0.028-6.574c-0.184-2.1-0.558-3.669-0.558-3.669s0.691-0.35,1.773-0.628
		c0.382,0.481,0.725,0.953,1.037,1.376c0.741,2.75,2.522,5.931,5.561,6.671c2.766-1.985,0.02-4.93-0.863-7.656
		c1.006,0.464,1.99,1.196,2.884,2.319c4.15,5.199,1.551,9.877-2.077,16.126c-0.55,0.928-0.737,1.74-0.672,2.457
		c-4.402,1.635-8.522,5.117-10.991,9.015c-2.152,3.263-0.892,7.786,1.118,10.601l-4.975,3.344c-0.143,1.107,0.076,2.075,1.114,2.742
		c-0.655,1.375-1.973,2.49-3.413,3.564h-15.434l-9.349-1.034l-3.641-7.289l-7.274-1.033L479.455,314.232L479.455,314.232z
		 M517.031,342.327l6.679,9.624c0,0,6.236,5.72,5.716,1.554c-0.317-2.579-0.644-5.955,0.402-9.275
		c-1.997-0.114-4.007-0.057-5.897,0.692C521.591,344.319,519.102,343.612,517.031,342.327L517.031,342.327z M568.905,352.992
		c0,0,2.599-5.727,8.319-8.331c5.715-2.596,16.102-4.678,16.102-4.678l-4.158,7.282l10.906-2.075l1.001,0.814
		c-3.527,0.805-6.289,3.694-9.792,5.598c-0.602,2.229,1.33,4.824-1.713,6.679c-0.936,2.36-0.333,4.458,0.847,6.371
		c-1.261-0.269-2.523-0.341-3.849-0.22c-5.712,0.521-10.386,1.042-10.386,1.042l4.674-7.802l-7.272,2.596L568.905,352.992
		L568.905,352.992z M633.44,382.485l-0.114,2.237l-1.351-0.407C632.524,383.779,633.009,383.153,633.44,382.485L633.44,382.485z
		 M639.64,357.167c-3.56,3.116-8.527,5.931-12.761,3.93C630.738,360.136,635.12,357.906,639.64,357.167L639.64,357.167z"/>
	<path fill-rule="evenodd" clip-rule="evenodd" fill="#ADC8D1" d="M610.358,294.21c-0.265,0.065-0.55,0.114-0.842,0.122
		c-0.151,0.008-0.298,0.016-0.448,0.016c-1.704,1.18-4.145,2.441-6.146,1.107c-0.891-1.489-3.629-2.229-2.742-4.451
		c-0.15-0.895,0.891-1.334,1.632-1.114c0.37,0.521,1.338,0.822,1.11,1.635c2.078-1.042,4.751-2.001,4.45-4.971
		c-0.383-0.35-0.691-0.805-0.98-1.301c-0.431,0.562-1.13,1.066-2.233,1.423c-2.074,0.667-3.912,0.773-5.22,0.708
		c-0.183,0.846-0.316,1.7-0.467,2.506c0.598,3.262,2.97,4.825,4.45,7.192c-0.663,1.854-2.591,0.968-3.853,1.115
		c-0.163-0.09-0.325-0.188-0.496-0.277c1.281,2.148,2.615,3.311,6.054,2.466c-0.717-0.049-1.449-0.212-2.218-0.48
		C604.61,298.083,607.962,296.513,610.358,294.21L610.358,294.21z M613.975,295.659c0.573-0.464,1.107-0.952,1.57-1.424
		C615.016,294.707,614.5,295.179,613.975,295.659L613.975,295.659z"/>
	<path fill-rule="evenodd" clip-rule="evenodd" fill="#FFFFFF" d="M584.953,313.533c0.676-0.089,1.452-0.057,2.364,0.155
		c0.761,0.187,1.379,0.472,1.871,0.822c0.98,0.244,1.903,0.748,2.611,1.489c0.635,1.196,0.741,2.611,0.293,3.848
		c0.789-0.472,1.83-1.212,2.624-2.172c-0.195-2.189-2.534-4.118-1.803-6.127h1.779c-0.599-0.968-1.088-1.871-1.526-2.668
		c-0.432-0.252-0.887-0.472-1.367-0.667C588.965,309.205,586.765,311.182,584.953,313.533L584.953,313.533z"/>
	<path fill-rule="evenodd" clip-rule="evenodd" fill="#B7C0CA" d="M460.465,401.442c0.724-2.156,1.485-4.313,2.274-6.452
		c-2.449,8.933-4.536,18.029-6.256,27.264c-5.215,37.783,2.738,66.063,2.738,66.063s7.896-77.812,18.042-109.388
		c0.179-0.554,0.354-1.09,0.525-1.611c-1.395-10.796,0.679-22.121,6.683-30.688c-6.04,0-2.026-7.437-2.225-10.61
		c-10.663,3.963-13.254,17.322-19.079,25.393C466.856,363.561,465.876,376.343,460.465,401.442L460.465,401.442z M449.071,341.716
		c0,0-13.535,7.892-27.064,32.707c-12.22,22.398-22.594,32.853-32.8,57.92c4.593-13.384,9.621-26.58,15.157-39.574
		c-14.043,29.168-25.408,59.441-33.69,90.984c-2.616-0.301-12.981-2.701-11.887-21.829l17.171-61.37l-3.336,6.159
		c-1.387,3.808-2.766,7.64-4.129,11.488c1.643-6.566,1.643-6.574,1.643-6.574s-2.258-18.037-16.918-3.375
		c-2.693,2.693-5.118,5.353-7.294,7.899c2.917-7.029,6.207-13.904,10.007-20.567c7.811-0.619,38.816,9.503,39.728,3.637
		c16.239-9.657,39.768-88.227,54.839-73.208c-2.383,7.835-30.151,32.487-24.473,39.533c3.54-5.378,28.537-41.063,37.303-32.267
		c-9.567,7.42-18.021,18.916-17.797,31.152c5.04-10.975,11.122-22.983,22.248-30.037c1.932-0.521,2.97,1.188,4.45-0.586
		c-2.372-1.936-5.487-2.156-8.38-2.75l12.831-5.044c-6.448,4.743-2.746,16.988-12.237,21.731c-0.907,4.483-4.206,8.567-3.421,13.449
		c-2.302,0.538-5.525,3.117-9.697,7.591c-15.789,16.914-22.553,39.468-22.553,39.468s2.253-29.322,12.408-43.983
		C451.325,349.608,449.071,341.716,449.071,341.716L449.071,341.716z M675.056,515.988c-2.556,27.238-7.07,49.719-8.125,54.73
		c-0.354-33.146-10.983-63.273-20.021-93.392c-3.889-10.846-24.058-55.488-18.396-62.827c4.686,11.342,9.263,1.628,12.24-4.45
		c0.298,8.307-1.932,15.727-6.085,22.252c1.106,8.38,9.938-6.721,12.761-10.015C656.297,453.732,666.085,484.763,675.056,515.988
		L675.056,515.988z M635.97,460.778c-11.609-19.478-23.386-24.335-23.386-24.335s6.098,29.647,10.641,52.143l-28.085-90.252
		c-0.15-1.928-2.078-3.043-2.226-4.971c3.035,2.075,9.044,0.968,6.672,7.192c3.934,8.754,14.165-3.336,17.285,6.159
		c1.933,8.087-4.752,12.978-9.499,17.802l1.118,1.107l12.831-7.787L635.97,460.778L635.97,460.778z M621.419,495.054
		c-6.35-14.327-18.317-46.813-23.493-60.873c-7.892-21.421-14.664-21.421-25.941,6.77c-11.275,28.191-10.146,39.467-12.399,57.513
		c-2.061,16.483-3.185,23.546-3.358,24.652c-2.055-23.627-4.806-47.253-7.815-71.376c-4.528-25.148-8.31-50.736-16.102-74.542
		c1.249,7.111,2.457,14.198,3.637,21.259c-5.947-16.622-14.457-25.01-25.985-9.373c-15.784,21.422-16.911,58.628-16.911,58.628
		s0-42.844,0-62.013c0-16.442-4.149-32.869-11.728-17.313c1.033-6.923,1.647-14.034,4.784-20.12
		c3.035,3.783,4.597,10.682,10.605,12.236c2.897-6.379-0.817-14.986,7.196-20.022c0.98,23.252-7.758,44.479-8.307,68.456
		c0.517,0.374,0.814,1.342,1.627,1.115c3.563-18.02,3.783-37.897,9.495-54.519c1.017,6.086,5.32-5.215,8.896-8.379
		c-0.517,4.678-2.222,13.945,3.86,17.28c3.678,1.229,3.043-4.645,5.041-6.15c1.248,8.274,13.151,14.995,21.141,13.945
		c0,16.467,20.026,26.401,14.462,45.024c-3.633,12.31-13.489,27.589-3.332,40.045c0.517-5.711-1.412-11.789,1.632-17.207
		c0.959,1.855,0.37,4.376,1.7,6.085l1.635-1.635c4.674-20.023,30.933-37.971,13.945-60.076c-5.862-8.754-19.14-15.873-13.945-27.816
		c0.073,6.525,5.712,11.276,10.012,15.58c11.003-5.776,9.336,15.824,11.13,20.022l9.49-6.159c-2.225,8.608,1.339,17.435,3.34,25.595
		C604.158,439.519,612.795,467.286,621.419,495.054L621.419,495.054z M669.007,611.382c1.001,4.54,25.029,113.822,37.169,223.121
		c3.559,32.015,6.651,56.512,9.246,75.167c-3.886,2.595-7.66,5.419-12.363,6.014c-5.194-29.737-7.867-61.565-10.536-92.865
		L669.007,611.382L669.007,611.382z M655.188,941.815c0.017-31.453-1.367-75.248-6.517-129.857
		c-11.277-119.534-40.6-230.053-45.111-268.398c-4.507-38.329-5.634-45.098-5.634-45.098s22.549,75.559,43.975,151.109
		c21.427,75.559,23.68,157.87,29.318,101.496c2.389-23.839,2.347-52.51,1.514-77.666l0.289,3.661l22.837,220.818l1.636,1.105
		l1.708,17.298c-3.783,1.18-8.53-0.082-12.24,1.106c3.042,3.937,8.229,3.856,12.24,4.45c7.145,14.231-21.116,26.63-32.262,27.809
		c-9.129-51.843-4.829-109.322-12.242-161.905c-11.633-90.488-39.995-177.299-52.289-267.022c-0.598,20.764,4.67,40.42,8.303,60.085
		c18.269,85.386,34.745,168.144,45.098,254.776c0,31.146,1.632,61.558,4.971,91.221
		C658.551,931.694,657.559,937.032,655.188,941.815L655.188,941.815z M532.985,967.777c1.924-41.371,4.808-116.897,4.039-185.142
		c-1.118-100.357-19.168-190.585-19.168-250.335c0-59.775,1.131-116.157-11.272-33.838c-12.407,82.319-34.96,201.853-29.322,329.286
		c3.433,77.552,4.768,108.737,4.532,126.864c0.94-1.221,1.839-2.498,2.676-3.849l-1.114-223.624
		c1.114-16.915-0.297-34.797,3.34-50.663v268.731c10.239-3.864,22.923-6.761,33.894-3.938c0-30.974-0.96-61.857,0-92.863
		c3.861,27.296,1.709,57.114,3.931,85.077c0.821,9.495-4.22,18.542,0,27.305C526.473,963.604,529.381,965.898,532.985,967.777
		L532.985,967.777z M342.75,919.352c1.696-9.307,3.511-19.696,5.313-30.858c0.285-2.083,0.602-4.15,0.984-6.192
		c0.386-2.482,0.773-4.972,1.151-7.502c9.67-100.812,6.672-206.945,32.593-305.292c2.656-12.782,5.569-24.23,8.771-33.83
		c18.042-54.129,18.042-54.129,18.042-54.129s-63.152,77.812-73.301,243.583c-5.361,87.584-16.386,149.977-25.6,189.348
		C323.188,914.088,336.221,915.31,342.75,919.352L342.75,919.352z M367.219,683.963c1.424-15.441,3.019-30.803,4.809-45.667
		C369.884,653.29,368.236,668.505,367.219,683.963L367.219,683.963z M522.819,678.187c6.603,52.061,6.452,110.436,2.222,163.54
		c1.184-83.206-3.291-162.255-10.012-245.363c0.37-18.078-0.887-37.003,1.114-54.503L522.819,678.187L522.819,678.187z
		 M468.3,336.623c-3.112,5.191-7.196,10.007-9.417,15.573C457.769,346.411,463.11,339.959,468.3,336.623L468.3,336.623z"/>
	<path fill-rule="evenodd" clip-rule="evenodd" fill="#FFFFFF" d="M631.752,469.142c0,0,25.938,47.367,30.448,91.343
		c4.512,43.975,4.512,102.618,4.512,102.618s-6.77-68.79-16.919-117.28C639.647,497.333,631.752,469.142,631.752,469.142
		L631.752,469.142z M584.393,453.358c-1.131,9.022,10.149,85.696,22.549,153.362c12.411,67.659,22.557,227.783,22.557,239.059
		c0,11.277-12.408-118.402-27.064-183.807c-14.665-65.397-20.299-126.295-21.422-155.617
		C579.877,477.033,584.393,453.358,584.393,453.358L584.393,453.358z M539.282,616.865c0,0,15.792,169.147,20.303,239.059
		c2.344,36.384-0.809,82.229-4.368,117.842c-9.271-1.132-17.663-3.271-23.725-6.827c8.231-30.232,16.243-79.048,15.683-153.857
		C546.052,661.972,539.282,616.865,539.282,616.865L539.282,616.865z M528.01,398.098c0,0,5.635,53.006,6.766,85.704
		c1.131,32.707-2.259,72.166-2.259,72.166s-10.145-69.912-9.023-99.226C524.626,427.42,528.01,398.098,528.01,398.098
		L528.01,398.098z M442.307,415.013c0,0-28.196,53.005-30.45,137.579c-2.253,84.573-10.149,169.146-16.914,230.044
		c-6.77,60.898-36.087,161.255-36.087,161.255s25.937-126.303,30.449-248.081c4.511-121.788,12.403-187.201,23.68-227.791
		C424.26,427.42,442.307,415.013,442.307,415.013L442.307,415.013z M411.857,420.651c0,0-18.041,34.96-33.829,85.703
		c-15.788,50.745-21.426,77.812-21.426,77.812s6.765-71.042,22.553-110.51C394.943,434.181,411.857,420.651,411.857,420.651
		L411.857,420.651z M354.348,440.95c0,0-23.684,36.083-33.833,121.795c-10.149,85.696-12.403,174.776-12.403,174.776
		s-9.625-39.597-9.723-98.144c1.135-7.28,2.335-14.571,3.617-21.869l25.592-140.181c0.642-2.67,1.297-5.346,1.948-8.023
		C342.706,443.114,354.348,440.95,354.348,440.95L354.348,440.95z"/>
	<path fill-rule="evenodd" clip-rule="evenodd" fill="#B7C0CA" d="M438.507,762.922c-1.872,17.167-4.426,34.017-8.035,50.402
		c15.312-81.001,9.869-169.829,11.13-251.962c1.46-24.701,2.018-50.654,3.978-76.461c-2.233,5.622-5.638,16.5-6.789,32.626
		c-1.77,24.765-7.961,75.175-7.074,160.074c0.887,84.906-5.305,153.892-5.305,153.892s2.648-8.852,8.839-42.453
		C436.607,781.708,437.665,772.905,438.507,762.922L438.507,762.922z"/>
	<path fill-rule="evenodd" clip-rule="evenodd" fill="#8A95A1" d="M485.565,682.409c0.232-10.349,0.562-19.974,0.984-28.688
		c1.769-36.262,7.074-53.95,7.074-53.95s-3.535,110.56,1.774,173.337c3.909,46.302,5.41,128.117,5.939,167.95
		c-5.122,0.919-10.122,2.44-14.641,4.149V676.477C486.249,678.431,485.874,680.407,485.565,682.409L485.565,682.409z"/>
	<path fill-rule="evenodd" clip-rule="evenodd" fill="#C3979A" d="M560.647,348.86c-4.007,5.565-4.897,13.871-2.75,20.543
		c0.558,0.984,1.171,1.944,1.827,2.897l-7.6,5.508c-0.13-0.204-0.252-0.408-0.383-0.611c-1.851-4.084-1.184-10.015-0.516-14.465
		c2.668-2.001,1.484-6.606,3.335-9.421C556.563,351.83,556.791,347.151,560.647,348.86L560.647,348.86z"/>
	<path fill-rule="evenodd" clip-rule="evenodd" fill="#FFFFFF" d="M568.97,383.941c2.47,3.182,4.626,6.476,5.843,10.097l-9.482,9.95
		c-1.354-5.012-3.693-9.975-6.334-14.718L568.97,383.941L568.97,383.941z"/>
</g>
</svg>
